<svg width="38" height="34" viewBox="0 0 38 34" fill="none" xmlns="http://www.w3.org/2000/svg">
<g filter="url(#filter0_dd_192_28110)">
<path d="M13.2645 29.5671C24.9346 29.5671 31.3194 19.8962 31.3194 11.5122C31.3194 11.2403 31.3134 10.9624 31.3013 10.6905C32.5434 9.79231 33.6152 8.67973 34.4665 7.40508C33.3098 7.91973 32.0816 8.25585 30.824 8.40195C32.1482 7.60822 33.1397 6.3613 33.6147 4.89235C32.3689 5.63061 31.0066 6.15139 29.5861 6.43237C28.629 5.41537 27.3635 4.742 25.9852 4.51636C24.607 4.29072 23.1929 4.52538 21.9614 5.18406C20.7299 5.84274 19.7497 6.88876 19.1724 8.16038C18.595 9.43201 18.4526 10.8584 18.7673 12.2191C16.2449 12.0925 13.7772 11.4372 11.5243 10.2958C9.27137 9.15435 7.28347 7.55219 5.68947 5.59318C4.87932 6.98999 4.63141 8.64286 4.99613 10.2159C5.36085 11.7889 6.31084 13.164 7.65302 14.0618C6.64539 14.0298 5.65984 13.7585 4.77779 13.2703V13.3489C4.77688 14.8147 5.28364 16.2356 6.21191 17.3701C7.14019 18.5045 8.43269 19.2825 9.8697 19.5718C8.9363 19.8272 7.95665 19.8644 7.00656 19.6805C7.41206 20.9412 8.20101 22.0438 9.26331 22.8344C10.3256 23.6251 11.6082 24.0644 12.9322 24.091C10.6845 25.8566 7.90792 26.8142 5.04966 26.8097C4.54277 26.8089 4.03638 26.7779 3.5332 26.7167C6.43688 28.5795 9.81464 29.5689 13.2645 29.5671Z" stroke="url(#paint0_radial_192_28110)" stroke-linejoin="round" shape-rendering="crispEdges"/>
</g>
<defs>
<filter id="filter0_dd_192_28110" x="0.0332031" y="0.932861" width="37.9336" height="32.1343" filterUnits="userSpaceOnUse" color-interpolation-filters="sRGB">
<feFlood flood-opacity="0" result="BackgroundImageFix"/>
<feColorMatrix in="SourceAlpha" type="matrix" values="0 0 0 0 0 0 0 0 0 0 0 0 0 0 0 0 0 0 127 0" result="hardAlpha"/>
<feOffset/>
<feGaussianBlur stdDeviation="1"/>
<feComposite in2="hardAlpha" operator="out"/>
<feColorMatrix type="matrix" values="0 0 0 0 0.792157 0 0 0 0 1 0 0 0 0 0.980392 0 0 0 0.5 0"/>
<feBlend mode="normal" in2="BackgroundImageFix" result="effect1_dropShadow_192_28110"/>
<feColorMatrix in="SourceAlpha" type="matrix" values="0 0 0 0 0 0 0 0 0 0 0 0 0 0 0 0 0 0 127 0" result="hardAlpha"/>
<feOffset/>
<feGaussianBlur stdDeviation="1.5"/>
<feComposite in2="hardAlpha" operator="out"/>
<feColorMatrix type="matrix" values="0 0 0 0 0.792157 0 0 0 0 1 0 0 0 0 0.980392 0 0 0 0.3 0"/>
<feBlend mode="normal" in2="effect1_dropShadow_192_28110" result="effect2_dropShadow_192_28110"/>
<feBlend mode="normal" in="SourceGraphic" in2="effect2_dropShadow_192_28110" result="shape"/>
</filter>
<radialGradient id="paint0_radial_192_28110" cx="0" cy="0" r="1" gradientUnits="userSpaceOnUse" gradientTransform="translate(44.6001 1.64067) rotate(151.02) scale(47.5542 13.589)">
<stop stop-color="#65FFF9"/>
<stop offset="1" stop-color="#72C7AA"/>
</radialGradient>
</defs>
</svg>
