<svg width="40" height="36" viewBox="0 0 40 36" fill="none" xmlns="http://www.w3.org/2000/svg">
<g filter="url(#filter0_dd_192_28108)">
<path d="M35.6803 18.2495C35.6803 16.3371 34.1371 14.7849 32.2357 14.7849C31.2987 14.7849 30.472 15.1452 29.8658 15.755C27.5234 14.0643 24.2717 12.9556 20.6892 12.8171L22.26 5.41674L27.3581 6.49768C27.4132 7.80036 28.4879 8.85359 29.8107 8.85359C31.1609 8.85359 32.2632 7.74493 32.2632 6.38682C32.2632 5.02871 31.1609 3.92004 29.8107 3.92004C28.8462 3.92004 28.0194 4.47437 27.6336 5.30587L21.9293 4.08634C21.764 4.05863 21.5986 4.08634 21.4608 4.16949C21.3231 4.25264 21.2404 4.39123 21.1853 4.55753L19.4492 12.8171C15.7841 12.9279 12.5048 14.0089 10.1349 15.755C9.52861 15.173 8.67434 14.7849 7.76495 14.7849C5.86351 14.7849 4.32031 16.3371 4.32031 18.2495C4.32031 19.663 5.14703 20.8548 6.35954 21.4092C6.30443 21.7418 6.27687 22.1021 6.27687 22.4624C6.27687 27.784 12.4221 32.08 20.0279 32.08C27.6336 32.08 33.7789 27.784 33.7789 22.4624C33.7789 22.1021 33.7513 21.7695 33.6962 21.4369C34.826 20.8826 35.6803 19.663 35.6803 18.2495ZM12.119 20.7163C12.119 19.3582 13.2213 18.2495 14.5716 18.2495C15.9219 18.2495 17.0241 19.3582 17.0241 20.7163C17.0241 22.0744 15.9219 23.183 14.5716 23.183C13.2213 23.183 12.119 22.0744 12.119 20.7163ZM25.8149 27.2297C24.1339 28.9204 20.9373 29.0312 20.0003 29.0312C19.0634 29.0312 15.8392 28.8926 14.1858 27.2297C13.9377 26.9802 13.9377 26.5645 14.1858 26.315C14.4338 26.0656 14.8471 26.0656 15.0951 26.315C16.1423 27.3682 18.402 27.7563 20.0279 27.7563C21.6537 27.7563 23.8859 27.3682 24.9606 26.315C25.2086 26.0656 25.622 26.0656 25.87 26.315C26.0629 26.5922 26.0629 26.9802 25.8149 27.2297ZM25.374 23.183C24.0237 23.183 22.9214 22.0744 22.9214 20.7163C22.9214 19.3582 24.0237 18.2495 25.374 18.2495C26.7243 18.2495 27.8265 19.3582 27.8265 20.7163C27.8265 22.0744 26.7243 23.183 25.374 23.183Z" stroke="url(#paint0_radial_192_28108)" stroke-linejoin="round" shape-rendering="crispEdges"/>
</g>
<defs>
<filter id="filter0_dd_192_28108" x="0.820312" y="0.420044" width="38.3604" height="35.16" filterUnits="userSpaceOnUse" color-interpolation-filters="sRGB">
<feFlood flood-opacity="0" result="BackgroundImageFix"/>
<feColorMatrix in="SourceAlpha" type="matrix" values="0 0 0 0 0 0 0 0 0 0 0 0 0 0 0 0 0 0 127 0" result="hardAlpha"/>
<feOffset/>
<feGaussianBlur stdDeviation="1"/>
<feComposite in2="hardAlpha" operator="out"/>
<feColorMatrix type="matrix" values="0 0 0 0 0.792157 0 0 0 0 1 0 0 0 0 0.980392 0 0 0 0.5 0"/>
<feBlend mode="normal" in2="BackgroundImageFix" result="effect1_dropShadow_192_28108"/>
<feColorMatrix in="SourceAlpha" type="matrix" values="0 0 0 0 0 0 0 0 0 0 0 0 0 0 0 0 0 0 127 0" result="hardAlpha"/>
<feOffset/>
<feGaussianBlur stdDeviation="1.5"/>
<feComposite in2="hardAlpha" operator="out"/>
<feColorMatrix type="matrix" values="0 0 0 0 0.792157 0 0 0 0 1 0 0 0 0 0.980392 0 0 0 0.3 0"/>
<feBlend mode="normal" in2="effect1_dropShadow_192_28108" result="effect2_dropShadow_192_28108"/>
<feBlend mode="normal" in="SourceGraphic" in2="effect2_dropShadow_192_28108" result="shape"/>
</filter>
<radialGradient id="paint0_radial_192_28108" cx="0" cy="0" r="1" gradientUnits="userSpaceOnUse" gradientTransform="translate(45.9536 0.791725) rotate(148.53) scale(49.4467 14.8441)">
<stop stop-color="#65FFF9"/>
<stop offset="1" stop-color="#72C7AA"/>
</radialGradient>
</defs>
</svg>
