<svg width="177" height="53" viewBox="0 0 177 53" fill="none" xmlns="http://www.w3.org/2000/svg">
<g filter="url(#filter0_b_192_28210)">
<mask id="path-1-inside-1_192_28210" fill="white">
<path fill-rule="evenodd" clip-rule="evenodd" d="M177 3C177 1.34315 175.657 0 174 0H3C1.34315 0 0 1.34315 0 3V31C0 32.6569 1.34314 34 3 34H71.8392C72.8039 34 73.7098 34.4639 74.2736 35.2468L86.0656 51.6199C87.2629 53.2822 89.7371 53.2822 90.9344 51.6199L102.726 35.2468C103.29 34.4639 104.196 34 105.161 34H174C175.657 34 177 32.6569 177 31V3Z"/>
</mask>
<path fill-rule="evenodd" clip-rule="evenodd" d="M177 3C177 1.34315 175.657 0 174 0H3C1.34315 0 0 1.34315 0 3V31C0 32.6569 1.34314 34 3 34H71.8392C72.8039 34 73.7098 34.4639 74.2736 35.2468L86.0656 51.6199C87.2629 53.2822 89.7371 53.2822 90.9344 51.6199L102.726 35.2468C103.29 34.4639 104.196 34 105.161 34H174C175.657 34 177 32.6569 177 31V3Z" fill="url(#paint0_radial_192_28210)" fill-opacity="0.25"/>
<path d="M102.726 35.2468L102.321 34.9545L102.726 35.2468ZM86.0656 51.6199L85.6599 51.9121L86.0656 51.6199ZM90.9344 51.6199L90.5286 51.3277L90.9344 51.6199ZM74.2736 35.2468L74.6793 34.9545L74.2736 35.2468ZM3 0.5H174V-0.5H3V0.5ZM0.5 31V3H-0.5V31H0.5ZM71.8392 33.5H3V34.5H71.8392V33.5ZM73.8678 35.539L85.6599 51.9121L86.4714 51.3277L74.6793 34.9545L73.8678 35.539ZM91.3401 51.9121L103.132 35.539L102.321 34.9545L90.5286 51.3277L91.3401 51.9121ZM174 33.5H105.161V34.5H174V33.5ZM176.5 3V31H177.5V3H176.5ZM174 34.5C175.933 34.5 177.5 32.933 177.5 31H176.5C176.5 32.3807 175.381 33.5 174 33.5V34.5ZM103.132 35.539C103.602 34.8866 104.357 34.5 105.161 34.5V33.5C104.035 33.5 102.978 34.0413 102.321 34.9545L103.132 35.539ZM85.6599 51.9121C87.0567 53.8515 89.9433 53.8515 91.3401 51.9121L90.5286 51.3277C89.5309 52.713 87.4691 52.713 86.4714 51.3277L85.6599 51.9121ZM71.8392 34.5C72.6431 34.5 73.398 34.8866 73.8678 35.539L74.6793 34.9545C74.0215 34.0413 72.9647 33.5 71.8392 33.5V34.5ZM-0.5 31C-0.5 32.933 1.067 34.5 3 34.5V33.5C1.61929 33.5 0.5 32.3807 0.5 31H-0.5ZM174 0.5C175.381 0.5 176.5 1.61929 176.5 3H177.5C177.5 1.067 175.933 -0.5 174 -0.5V0.5ZM3 -0.5C1.067 -0.5 -0.5 1.067 -0.5 3H0.5C0.5 1.61929 1.61929 0.5 3 0.5V-0.5Z" fill="black" mask="url(#path-1-inside-1_192_28210)"/>
<path d="M102.726 35.2468L102.321 34.9545L102.726 35.2468ZM86.0656 51.6199L85.6599 51.9121L86.0656 51.6199ZM90.9344 51.6199L90.5286 51.3277L90.9344 51.6199ZM74.2736 35.2468L74.6793 34.9545L74.2736 35.2468ZM3 0.5H174V-0.5H3V0.5ZM0.5 31V3H-0.5V31H0.5ZM71.8392 33.5H3V34.5H71.8392V33.5ZM73.8678 35.539L85.6599 51.9121L86.4714 51.3277L74.6793 34.9545L73.8678 35.539ZM91.3401 51.9121L103.132 35.539L102.321 34.9545L90.5286 51.3277L91.3401 51.9121ZM174 33.5H105.161V34.5H174V33.5ZM176.5 3V31H177.5V3H176.5ZM174 34.5C175.933 34.5 177.5 32.933 177.5 31H176.5C176.5 32.3807 175.381 33.5 174 33.5V34.5ZM103.132 35.539C103.602 34.8866 104.357 34.5 105.161 34.5V33.5C104.035 33.5 102.978 34.0413 102.321 34.9545L103.132 35.539ZM85.6599 51.9121C87.0567 53.8515 89.9433 53.8515 91.3401 51.9121L90.5286 51.3277C89.5309 52.713 87.4691 52.713 86.4714 51.3277L85.6599 51.9121ZM71.8392 34.5C72.6431 34.5 73.398 34.8866 73.8678 35.539L74.6793 34.9545C74.0215 34.0413 72.9647 33.5 71.8392 33.5V34.5ZM-0.5 31C-0.5 32.933 1.067 34.5 3 34.5V33.5C1.61929 33.5 0.5 32.3807 0.5 31H-0.5ZM174 0.5C175.381 0.5 176.5 1.61929 176.5 3H177.5C177.5 1.067 175.933 -0.5 174 -0.5V0.5ZM3 -0.5C1.067 -0.5 -0.5 1.067 -0.5 3H0.5C0.5 1.61929 1.61929 0.5 3 0.5V-0.5Z" fill="url(#paint1_radial_192_28210)" mask="url(#path-1-inside-1_192_28210)"/>
</g>
<defs>
<filter id="filter0_b_192_28210" x="-4" y="-4" width="185" height="60.8667" filterUnits="userSpaceOnUse" color-interpolation-filters="sRGB">
<feFlood flood-opacity="0" result="BackgroundImageFix"/>
<feGaussianBlur in="BackgroundImage" stdDeviation="2"/>
<feComposite in2="SourceAlpha" operator="in" result="effect1_backgroundBlur_192_28210"/>
<feBlend mode="normal" in="SourceGraphic" in2="effect1_backgroundBlur_192_28210" result="shape"/>
</filter>
<radialGradient id="paint0_radial_192_28210" cx="0" cy="0" r="1" gradientUnits="userSpaceOnUse" gradientTransform="translate(185 -18.7077) rotate(155.665) scale(203.039 134.385)">
<stop stop-color="#26A69A"/>
<stop offset="1" stop-color="#B2F6FF"/>
</radialGradient>
<radialGradient id="paint1_radial_192_28210" cx="0" cy="0" r="1" gradientUnits="userSpaceOnUse" gradientTransform="translate(197.856 -25.9573) rotate(154.456) scale(175.804 105.834)">
<stop stop-color="#26A69A"/>
<stop offset="1" stop-color="#B2F6FF"/>
</radialGradient>
</defs>
</svg>
