<svg width="65" height="37" viewBox="0 0 65 37" fill="none" xmlns="http://www.w3.org/2000/svg">
<g filter="url(#filter0_b_192_7830)">
<mask id="path-1-inside-1_192_7830" fill="white">
<path fill-rule="evenodd" clip-rule="evenodd" d="M65 2.47255C65 1.33892 64.081 0.419922 62.9474 0.419922H2.05263C0.918994 0.419922 0 1.33892 0 2.47255V21.3673C0 22.5009 0.918994 23.4199 2.05263 23.4199H42.9313C43.6011 23.4199 44.2288 23.7467 44.6129 24.2954L52.8184 36.0177C53.6356 37.185 55.3644 37.185 56.1816 36.0177L64.629 23.95C64.8705 23.605 65 23.194 65 22.7729V2.47255Z"/>
</mask>
<path fill-rule="evenodd" clip-rule="evenodd" d="M65 2.47255C65 1.33892 64.081 0.419922 62.9474 0.419922H2.05263C0.918994 0.419922 0 1.33892 0 2.47255V21.3673C0 22.5009 0.918994 23.4199 2.05263 23.4199H42.9313C43.6011 23.4199 44.2288 23.7467 44.6129 24.2954L52.8184 36.0177C53.6356 37.185 55.3644 37.185 56.1816 36.0177L64.629 23.95C64.8705 23.605 65 23.194 65 22.7729V2.47255Z" fill="url(#paint0_radial_192_7830)" fill-opacity="0.25"/>
<path d="M64.629 23.95L64.9092 24.1462L64.629 23.95ZM52.8184 36.0177L53.0987 35.8215L52.8184 36.0177ZM56.1816 36.0177L55.9013 35.8215L56.1816 36.0177ZM44.6129 24.2954L44.3326 24.4916L44.6129 24.2954ZM2.05263 0.762027H62.9474V0.0778166H2.05263V0.762027ZM0.342105 21.3673V2.47255H-0.342105V21.3673H0.342105ZM42.9313 23.0778H2.05263V23.762H42.9313V23.0778ZM44.3326 24.4916L52.5382 36.2138L53.0987 35.8215L44.8931 24.0993L44.3326 24.4916ZM56.4618 36.2138L64.9092 24.1462L64.3487 23.7538L55.9013 35.8215L56.4618 36.2138ZM64.6579 2.47255V22.7729H65.3421V2.47255H64.6579ZM64.9092 24.1462C65.191 23.7437 65.3421 23.2642 65.3421 22.7729H64.6579C64.6579 23.1238 64.5499 23.4663 64.3487 23.7538L64.9092 24.1462ZM52.5382 36.2138C53.4915 37.5758 55.5085 37.5758 56.4618 36.2138L55.9013 35.8215C55.2204 36.7943 53.7796 36.7943 53.0987 35.8215L52.5382 36.2138ZM42.9313 23.762C43.4895 23.762 44.0125 24.0344 44.3326 24.4916L44.8931 24.0993C44.445 23.4591 43.7127 23.0778 42.9313 23.0778V23.762ZM-0.342105 21.3673C-0.342105 22.6899 0.730054 23.762 2.05263 23.762V23.0778C1.10793 23.0778 0.342105 22.312 0.342105 21.3673H-0.342105ZM62.9474 0.762027C63.8921 0.762027 64.6579 1.52786 64.6579 2.47255H65.3421C65.3421 1.14998 64.2699 0.0778166 62.9474 0.0778166V0.762027ZM2.05263 0.0778166C0.730055 0.0778166 -0.342105 1.14998 -0.342105 2.47255H0.342105C0.342105 1.52786 1.10793 0.762027 2.05263 0.762027V0.0778166Z" fill="black" mask="url(#path-1-inside-1_192_7830)"/>
<path d="M64.629 23.95L64.9092 24.1462L64.629 23.95ZM52.8184 36.0177L53.0987 35.8215L52.8184 36.0177ZM56.1816 36.0177L55.9013 35.8215L56.1816 36.0177ZM44.6129 24.2954L44.3326 24.4916L44.6129 24.2954ZM2.05263 0.762027H62.9474V0.0778166H2.05263V0.762027ZM0.342105 21.3673V2.47255H-0.342105V21.3673H0.342105ZM42.9313 23.0778H2.05263V23.762H42.9313V23.0778ZM44.3326 24.4916L52.5382 36.2138L53.0987 35.8215L44.8931 24.0993L44.3326 24.4916ZM56.4618 36.2138L64.9092 24.1462L64.3487 23.7538L55.9013 35.8215L56.4618 36.2138ZM64.6579 2.47255V22.7729H65.3421V2.47255H64.6579ZM64.9092 24.1462C65.191 23.7437 65.3421 23.2642 65.3421 22.7729H64.6579C64.6579 23.1238 64.5499 23.4663 64.3487 23.7538L64.9092 24.1462ZM52.5382 36.2138C53.4915 37.5758 55.5085 37.5758 56.4618 36.2138L55.9013 35.8215C55.2204 36.7943 53.7796 36.7943 53.0987 35.8215L52.5382 36.2138ZM42.9313 23.762C43.4895 23.762 44.0125 24.0344 44.3326 24.4916L44.8931 24.0993C44.445 23.4591 43.7127 23.0778 42.9313 23.0778V23.762ZM-0.342105 21.3673C-0.342105 22.6899 0.730054 23.762 2.05263 23.762V23.0778C1.10793 23.0778 0.342105 22.312 0.342105 21.3673H-0.342105ZM62.9474 0.762027C63.8921 0.762027 64.6579 1.52786 64.6579 2.47255H65.3421C65.3421 1.14998 64.2699 0.0778166 62.9474 0.0778166V0.762027ZM2.05263 0.0778166C0.730055 0.0778166 -0.342105 1.14998 -0.342105 2.47255H0.342105C0.342105 1.52786 1.10793 0.762027 2.05263 0.762027V0.0778166Z" fill="url(#paint1_radial_192_7830)" mask="url(#path-1-inside-1_192_7830)"/>
</g>
<defs>
<filter id="filter0_b_192_7830" x="-2.73684" y="-2.31692" width="70.4737" height="41.9463" filterUnits="userSpaceOnUse" color-interpolation-filters="sRGB">
<feFlood flood-opacity="0" result="BackgroundImageFix"/>
<feGaussianBlur in="BackgroundImage" stdDeviation="1.36842"/>
<feComposite in2="SourceAlpha" operator="in" result="effect1_backgroundBlur_192_7830"/>
<feBlend mode="normal" in="SourceGraphic" in2="effect1_backgroundBlur_192_7830" result="shape"/>
</filter>
<radialGradient id="paint0_radial_192_7830" cx="0" cy="0" r="1" gradientUnits="userSpaceOnUse" gradientTransform="translate(120.526 -12.4673) rotate(155.665) scale(138.921 91.9479)">
<stop stop-color="#26A69A"/>
<stop offset="1" stop-color="#B2F6FF"/>
</radialGradient>
<radialGradient id="paint1_radial_192_7830" cx="0" cy="0" r="1" gradientUnits="userSpaceOnUse" gradientTransform="translate(72.659 -17.4883) rotate(138.081) scale(78.284 60.2161)">
<stop stop-color="#26A69A"/>
<stop offset="1" stop-color="#B2F6FF"/>
</radialGradient>
</defs>
</svg>
