<svg width="22" height="26" viewBox="0 0 22 26" fill="none" xmlns="http://www.w3.org/2000/svg">
<path fill-rule="evenodd" clip-rule="evenodd" d="M7.58691 5.58987C8.10085 5.60166 8.53054 5.6661 8.87598 5.7832C9.2666 5.9069 9.65723 6.17057 10.0479 6.57422L15.3408 11.9453C15.6143 12.2253 15.8226 12.4922 15.9658 12.7461C16.109 13 16.2035 13.2832 16.249 13.5957C16.3011 13.9017 16.3271 14.2728 16.3271 14.709V18.498H15.9854V20.4121H16.3271V22.2188C16.3271 23.2734 16.0602 24.071 15.5264 24.6113C14.9925 25.1517 14.2015 25.4219 13.1533 25.4219H4.0127C2.96452 25.4219 2.1735 25.1517 1.63965 24.6113C1.10579 24.0775 0.838867 23.2799 0.838867 22.2188V8.80078C0.838867 7.74609 1.10579 6.94857 1.63965 6.4082C2.1735 5.86133 2.96452 5.58789 4.0127 5.58789H5.67285V3.79102C5.67285 2.73633 5.93978 1.9388 6.47363 1.39844C7.00749 0.851562 7.7985 0.578125 8.84668 0.578125H12.5186C13.085 0.578125 13.5895 0.659505 14.0322 0.822266C14.4814 0.978516 14.8883 1.24544 15.2529 1.62305L20.1162 6.57422C20.5003 6.97135 20.7705 7.39453 20.9268 7.84375C21.083 8.28646 21.1611 8.83008 21.1611 9.47461V17.209C21.1611 18.2637 20.891 19.0612 20.3506 19.6016C19.8167 20.1419 19.029 20.4121 17.9873 20.4121H16.3271V18.498H17.8115C18.2868 18.498 18.6416 18.3776 18.876 18.1367C19.1169 17.8893 19.2373 17.541 19.2373 17.0918V9.00586H14.9404C14.335 9.00586 13.876 8.85286 13.5635 8.54688C13.251 8.23438 13.0947 7.77539 13.0947 7.16992V2.50195H9.00293C8.53418 2.50195 8.17936 2.6224 7.93848 2.86328C7.7041 3.10417 7.58691 3.45247 7.58691 3.9082V5.58987ZM14.6963 3.30273V6.92578C14.6963 7.09505 14.7321 7.21875 14.8037 7.29688C14.8818 7.36849 15.0023 7.4043 15.165 7.4043H18.7393L14.6963 3.30273ZM2.7627 8.9082V22.1016C2.7627 22.5573 2.87988 22.9056 3.11426 23.1465C3.34863 23.3874 3.7002 23.5078 4.16895 23.5078H12.9873C13.4561 23.5078 13.8076 23.3874 14.042 23.1465C14.2829 22.9056 14.4033 22.5573 14.4033 22.1016V14.9336H9.24707C8.55697 14.9336 8.03939 14.7643 7.69434 14.4258C7.34928 14.0807 7.17676 13.5566 7.17676 12.8535V7.51172H4.17871C3.70345 7.51172 3.34863 7.63216 3.11426 7.87305C2.87988 8.11393 2.7627 8.45898 2.7627 8.9082ZM9.00293 13.1074C9.09408 13.1986 9.24056 13.2441 9.44238 13.2441H14.1396L8.86621 7.88281V12.668C8.86621 12.8698 8.91178 13.0163 9.00293 13.1074Z" fill="url(#paint0_radial_192_28205)"/>
<path d="M15.9854 18.498V20.4121H16.3271V18.498H15.9854Z" fill="url(#paint1_radial_192_28205)"/>
<defs>
<radialGradient id="paint0_radial_192_28205" cx="0" cy="0" r="1" gradientUnits="userSpaceOnUse" gradientTransform="translate(27.8186 -2.18178) rotate(140.196) scale(35.5748 11.7959)">
<stop stop-color="#85FFEA"/>
<stop offset="1" stop-color="#72C7AA"/>
</radialGradient>
<radialGradient id="paint1_radial_192_28205" cx="0" cy="0" r="1" gradientUnits="userSpaceOnUse" gradientTransform="translate(27.8186 -2.18178) rotate(140.196) scale(35.5748 11.7959)">
<stop stop-color="#85FFEA"/>
<stop offset="1" stop-color="#72C7AA"/>
</radialGradient>
</defs>
</svg>
