<svg width="26" height="30" viewBox="0 0 26 30" fill="none" xmlns="http://www.w3.org/2000/svg">
<g filter="url(#filter0_dd_192_28207)">
<path fill-rule="evenodd" clip-rule="evenodd" d="M9.58691 7.58987C10.1008 7.60166 10.5305 7.6661 10.876 7.7832C11.2666 7.9069 11.6572 8.17057 12.0479 8.57422L17.3408 13.9453C17.6143 14.2253 17.8226 14.4922 17.9658 14.7461C18.109 15 18.2035 15.2832 18.249 15.5957C18.3011 15.9017 18.3271 16.2728 18.3271 16.709V20.498H17.9854V22.4121H18.3271V24.2188C18.3271 25.2734 18.0602 26.071 17.5264 26.6113C16.9925 27.1517 16.2015 27.4219 15.1533 27.4219H6.0127C4.96452 27.4219 4.1735 27.1517 3.63965 26.6113C3.10579 26.0775 2.83887 25.2799 2.83887 24.2188V10.8008C2.83887 9.74609 3.10579 8.94857 3.63965 8.4082C4.1735 7.86133 4.96452 7.58789 6.0127 7.58789H7.67285V5.79102C7.67285 4.73633 7.93978 3.9388 8.47363 3.39844C9.00749 2.85156 9.7985 2.57812 10.8467 2.57812H14.5186C15.085 2.57812 15.5895 2.65951 16.0322 2.82227C16.4814 2.97852 16.8883 3.24544 17.2529 3.62305L22.1162 8.57422C22.5003 8.97135 22.7705 9.39453 22.9268 9.84375C23.083 10.2865 23.1611 10.8301 23.1611 11.4746V19.209C23.1611 20.2637 22.891 21.0612 22.3506 21.6016C21.8167 22.1419 21.029 22.4121 19.9873 22.4121H18.3271V20.498H19.8115C20.2868 20.498 20.6416 20.3776 20.876 20.1367C21.1169 19.8893 21.2373 19.541 21.2373 19.0918V11.0059H16.9404C16.335 11.0059 15.876 10.8529 15.5635 10.5469C15.251 10.2344 15.0947 9.77539 15.0947 9.16992V4.50195H11.0029C10.5342 4.50195 10.1794 4.6224 9.93848 4.86328C9.7041 5.10417 9.58691 5.45247 9.58691 5.9082V7.58987ZM16.6963 5.30273V8.92578C16.6963 9.09505 16.7321 9.21875 16.8037 9.29688C16.8818 9.36849 17.0023 9.4043 17.165 9.4043H20.7393L16.6963 5.30273ZM4.7627 10.9082V24.1016C4.7627 24.5573 4.87988 24.9056 5.11426 25.1465C5.34863 25.3874 5.7002 25.5078 6.16895 25.5078H14.9873C15.4561 25.5078 15.8076 25.3874 16.042 25.1465C16.2829 24.9056 16.4033 24.5573 16.4033 24.1016V16.9336H11.2471C10.557 16.9336 10.0394 16.7643 9.69434 16.4258C9.34928 16.0807 9.17676 15.5566 9.17676 14.8535V9.51172H6.17871C5.70345 9.51172 5.34863 9.63216 5.11426 9.87305C4.87988 10.1139 4.7627 10.459 4.7627 10.9082ZM11.0029 15.1074C11.0941 15.1986 11.2406 15.2441 11.4424 15.2441H16.1396L10.8662 9.88281V14.668C10.8662 14.8698 10.9118 15.0163 11.0029 15.1074Z" fill="url(#paint0_radial_192_28207)"/>
<path d="M17.9854 20.498V22.4121H18.3271V20.498H17.9854Z" fill="url(#paint1_radial_192_28207)"/>
</g>
<defs>
<filter id="filter0_dd_192_28207" x="0.838867" y="0.578125" width="24.3223" height="28.8438" filterUnits="userSpaceOnUse" color-interpolation-filters="sRGB">
<feFlood flood-opacity="0" result="BackgroundImageFix"/>
<feColorMatrix in="SourceAlpha" type="matrix" values="0 0 0 0 0 0 0 0 0 0 0 0 0 0 0 0 0 0 127 0" result="hardAlpha"/>
<feOffset/>
<feGaussianBlur stdDeviation="0.5"/>
<feComposite in2="hardAlpha" operator="out"/>
<feColorMatrix type="matrix" values="0 0 0 0 0.792157 0 0 0 0 1 0 0 0 0 0.980392 0 0 0 0.6 0"/>
<feBlend mode="normal" in2="BackgroundImageFix" result="effect1_dropShadow_192_28207"/>
<feColorMatrix in="SourceAlpha" type="matrix" values="0 0 0 0 0 0 0 0 0 0 0 0 0 0 0 0 0 0 127 0" result="hardAlpha"/>
<feOffset/>
<feGaussianBlur stdDeviation="1"/>
<feComposite in2="hardAlpha" operator="out"/>
<feColorMatrix type="matrix" values="0 0 0 0 0.792157 0 0 0 0 1 0 0 0 0 0.980392 0 0 0 0.45 0"/>
<feBlend mode="normal" in2="effect1_dropShadow_192_28207" result="effect2_dropShadow_192_28207"/>
<feBlend mode="normal" in="SourceGraphic" in2="effect2_dropShadow_192_28207" result="shape"/>
</filter>
<radialGradient id="paint0_radial_192_28207" cx="0" cy="0" r="1" gradientUnits="userSpaceOnUse" gradientTransform="translate(29.8186 -0.181785) rotate(140.196) scale(35.5748 11.7959)">
<stop stop-color="#85FFEA"/>
<stop offset="1" stop-color="#72C7AA"/>
</radialGradient>
<radialGradient id="paint1_radial_192_28207" cx="0" cy="0" r="1" gradientUnits="userSpaceOnUse" gradientTransform="translate(29.8186 -0.181785) rotate(140.196) scale(35.5748 11.7959)">
<stop stop-color="#85FFEA"/>
<stop offset="1" stop-color="#72C7AA"/>
</radialGradient>
</defs>
</svg>
