<svg width="95" height="54" viewBox="0 0 95 54" fill="none" xmlns="http://www.w3.org/2000/svg">
<g filter="url(#filter0_b_379_27461)">
<mask id="path-1-inside-1_379_27461" fill="white">
<path fill-rule="evenodd" clip-rule="evenodd" d="M95 3.40039C95 1.74354 93.6569 0.400391 92 0.400391H3C1.34315 0.400391 0 1.74354 0 3.40039V31.4004C0 33.0572 1.34315 34.4004 3 34.4004H30.8392C31.8039 34.4004 32.7098 34.8643 33.2736 35.6471L45.0656 52.0203C46.2629 53.6826 48.7371 53.6826 49.9344 52.0203L61.7264 35.6471C62.2902 34.8643 63.1961 34.4004 64.1608 34.4004H92C93.6569 34.4004 95 33.0572 95 31.4004V3.40039Z"/>
</mask>
<path fill-rule="evenodd" clip-rule="evenodd" d="M95 3.40039C95 1.74354 93.6569 0.400391 92 0.400391H3C1.34315 0.400391 0 1.74354 0 3.40039V31.4004C0 33.0572 1.34315 34.4004 3 34.4004H30.8392C31.8039 34.4004 32.7098 34.8643 33.2736 35.6471L45.0656 52.0203C46.2629 53.6826 48.7371 53.6826 49.9344 52.0203L61.7264 35.6471C62.2902 34.8643 63.1961 34.4004 64.1608 34.4004H92C93.6569 34.4004 95 33.0572 95 31.4004V3.40039Z" fill="url(#paint0_radial_379_27461)" fill-opacity="0.25"/>
<path d="M61.7264 35.6471L61.3207 35.3549L61.7264 35.6471ZM45.0656 52.0203L45.4714 51.7281L45.0656 52.0203ZM49.9344 52.0203L49.5286 51.7281L49.9344 52.0203ZM3 0.900391H92V-0.0996094H3V0.900391ZM0.5 31.4004V3.40039H-0.5V31.4004H0.5ZM30.8392 33.9004H3V34.9004H30.8392V33.9004ZM32.8678 35.9394L44.6599 52.3125L45.4714 51.7281L33.6793 35.3549L32.8678 35.9394ZM50.3401 52.3125L62.1322 35.9394L61.3207 35.3549L49.5286 51.7281L50.3401 52.3125ZM92 33.9004H64.1608V34.9004H92V33.9004ZM94.5 3.40039V31.4004H95.5V3.40039H94.5ZM92 34.9004C93.933 34.9004 95.5 33.3334 95.5 31.4004H94.5C94.5 32.7811 93.3807 33.9004 92 33.9004V34.9004ZM62.1322 35.9394C62.602 35.287 63.3569 34.9004 64.1608 34.9004V33.9004C63.0353 33.9004 61.9785 34.4416 61.3207 35.3549L62.1322 35.9394ZM44.6599 52.3125C46.0567 54.2519 48.9433 54.2519 50.3401 52.3125L49.5286 51.7281C48.5309 53.1134 46.4691 53.1134 45.4714 51.7281L44.6599 52.3125ZM30.8392 34.9004C31.6431 34.9004 32.398 35.287 32.8678 35.9394L33.6793 35.3549C33.0215 34.4416 31.9647 33.9004 30.8392 33.9004V34.9004ZM-0.5 31.4004C-0.5 33.3334 1.06701 34.9004 3 34.9004V33.9004C1.61929 33.9004 0.5 32.7811 0.5 31.4004H-0.5ZM92 0.900391C93.3807 0.900391 94.5 2.01968 94.5 3.40039H95.5C95.5 1.46739 93.933 -0.0996094 92 -0.0996094V0.900391ZM3 -0.0996094C1.067 -0.0996094 -0.5 1.4674 -0.5 3.40039H0.5C0.5 2.01968 1.61929 0.900391 3 0.900391V-0.0996094Z" fill="black" mask="url(#path-1-inside-1_379_27461)"/>
<path d="M61.7264 35.6471L61.3207 35.3549L61.7264 35.6471ZM45.0656 52.0203L45.4714 51.7281L45.0656 52.0203ZM49.9344 52.0203L49.5286 51.7281L49.9344 52.0203ZM3 0.900391H92V-0.0996094H3V0.900391ZM0.5 31.4004V3.40039H-0.5V31.4004H0.5ZM30.8392 33.9004H3V34.9004H30.8392V33.9004ZM32.8678 35.9394L44.6599 52.3125L45.4714 51.7281L33.6793 35.3549L32.8678 35.9394ZM50.3401 52.3125L62.1322 35.9394L61.3207 35.3549L49.5286 51.7281L50.3401 52.3125ZM92 33.9004H64.1608V34.9004H92V33.9004ZM94.5 3.40039V31.4004H95.5V3.40039H94.5ZM92 34.9004C93.933 34.9004 95.5 33.3334 95.5 31.4004H94.5C94.5 32.7811 93.3807 33.9004 92 33.9004V34.9004ZM62.1322 35.9394C62.602 35.287 63.3569 34.9004 64.1608 34.9004V33.9004C63.0353 33.9004 61.9785 34.4416 61.3207 35.3549L62.1322 35.9394ZM44.6599 52.3125C46.0567 54.2519 48.9433 54.2519 50.3401 52.3125L49.5286 51.7281C48.5309 53.1134 46.4691 53.1134 45.4714 51.7281L44.6599 52.3125ZM30.8392 34.9004C31.6431 34.9004 32.398 35.287 32.8678 35.9394L33.6793 35.3549C33.0215 34.4416 31.9647 33.9004 30.8392 33.9004V34.9004ZM-0.5 31.4004C-0.5 33.3334 1.06701 34.9004 3 34.9004V33.9004C1.61929 33.9004 0.5 32.7811 0.5 31.4004H-0.5ZM92 0.900391C93.3807 0.900391 94.5 2.01968 94.5 3.40039H95.5C95.5 1.46739 93.933 -0.0996094 92 -0.0996094V0.900391ZM3 -0.0996094C1.067 -0.0996094 -0.5 1.4674 -0.5 3.40039H0.5C0.5 2.01968 1.61929 0.900391 3 0.900391V-0.0996094Z" fill="url(#paint1_radial_379_27461)" mask="url(#path-1-inside-1_379_27461)"/>
</g>
<defs>
<filter id="filter0_b_379_27461" x="-4" y="-3.59961" width="103" height="60.8672" filterUnits="userSpaceOnUse" color-interpolation-filters="sRGB">
<feFlood flood-opacity="0" result="BackgroundImageFix"/>
<feGaussianBlur in="BackgroundImage" stdDeviation="2"/>
<feComposite in2="SourceAlpha" operator="in" result="effect1_backgroundBlur_379_27461"/>
<feBlend mode="normal" in="SourceGraphic" in2="effect1_backgroundBlur_379_27461" result="shape"/>
</filter>
<radialGradient id="paint0_radial_379_27461" cx="0" cy="0" r="1" gradientUnits="userSpaceOnUse" gradientTransform="translate(144 -18.3073) rotate(155.665) scale(203.039 134.385)">
<stop stop-color="#26A69A"/>
<stop offset="1" stop-color="#B2F6FF"/>
</radialGradient>
<radialGradient id="paint1_radial_379_27461" cx="0" cy="0" r="1" gradientUnits="userSpaceOnUse" gradientTransform="translate(106.194 -25.5569) rotate(138.317) scale(113.994 87.6034)">
<stop stop-color="#26A69A"/>
<stop offset="1" stop-color="#B2F6FF"/>
</radialGradient>
</defs>
</svg>
