<svg width="100" height="140" viewBox="0 0 100 140" fill="none" xmlns="http://www.w3.org/2000/svg">
<path d="M95.6962 73.099C95.755 72.5986 95.3969 72.1452 94.8964 72.0864C94.3959 72.0276 93.9426 72.3857 93.8838 72.8862C93.6595 74.7953 93.381 76.7589 93.0413 78.7715C92.9574 79.2684 93.2922 79.7392 93.7891 79.8231C94.2859 79.907 94.7568 79.5722 94.8407 79.0753C95.1856 77.032 95.4684 75.0381 95.6962 73.099Z" fill="#6BE2DC"/>
<path d="M6.1156 72.8862C6.05681 72.3858 5.60343 72.0277 5.10295 72.0865C4.60247 72.1453 4.24441 72.5987 4.30319 73.0991C4.53095 75.0382 4.81375 77.0321 5.15872 79.0754C5.24261 79.5723 5.71343 79.9071 6.21032 79.8232C6.70721 79.7393 7.04201 79.2685 6.95812 78.7716C6.61833 76.759 6.33985 74.7954 6.1156 72.8862Z" fill="#6BE2DC"/>
<path d="M93.9553 83.8135C94.0524 83.319 93.7303 82.8394 93.2358 82.7423C92.7414 82.6452 92.2618 82.9673 92.1647 83.4618C91.6333 86.1677 91.1482 88.5898 90.7061 90.7545C90.6053 91.2482 90.9238 91.7302 91.4175 91.8311C91.9112 91.9319 92.3932 91.6134 92.494 91.1196C92.9371 88.9499 93.4231 86.5233 93.9553 83.8135Z" fill="#6BE2DC"/>
<path d="M7.83469 83.4619C7.73758 82.9674 7.258 82.6453 6.76353 82.7424C6.26905 82.8395 5.94692 83.3191 6.04403 83.8136C6.57622 86.5234 7.06222 88.95 7.50532 91.1197C7.60615 91.6135 8.08814 91.932 8.58187 91.8312C9.0756 91.7303 9.39411 91.2483 9.29328 90.7546C8.8512 88.5899 8.3661 86.1678 7.83469 83.4619Z" fill="#6BE2DC"/>
<path fill-rule="evenodd" clip-rule="evenodd" d="M21.8684 139.298C20.8925 139.298 20.1692 138.392 20.3855 137.44L22.7735 126.933C22.2537 126.551 21.7633 126.161 21.3111 125.763C20.8241 126.096 20.2548 126.325 19.6318 126.412L12.8615 127.364C10.6991 127.667 8.69977 126.161 8.39586 123.998L6.02718 107.144C5.72327 104.982 7.22989 102.983 9.3923 102.679L9.9809 102.596C9.55946 100.823 9.12763 98.9198 8.45979 95.7344C8.31094 95.0244 7.68632 94.5167 6.9664 94.5167H6.72648C5.1053 94.5167 3.7174 93.3544 3.43284 91.7584L0.0519882 72.7966C-0.139021 71.7253 0.202929 70.628 0.968732 69.8549L3.26494 67.5368C3.57023 67.2286 3.73178 66.7987 3.70658 66.3552C2.95622 53.1475 4.69855 43.0814 6.12797 38.7038C9.65495 24.0236 20.3471 12.1382 34.296 6.95596C35.8402 6.38225 37.1359 5.42534 38.6107 4.32774L38.6271 4.31553C41.333 2.30157 44.4254 0 50 0C55.5747 0 58.6671 2.30157 61.373 4.31553L61.3894 4.32774C62.8642 5.42534 64.1599 6.38225 65.7041 6.95596C79.5128 12.0862 90.1299 23.7854 93.7637 38.2621C95.219 42.5222 97.0946 52.6837 96.292 66.3502C96.2659 66.7949 96.4275 67.2263 96.7334 67.5351L99.0313 69.8549C99.7971 70.628 100.139 71.7253 99.948 72.7966L96.5672 91.7584C96.2826 93.3544 94.8947 94.5167 93.2735 94.5167H93.0296C92.3101 94.5167 91.6869 95.0221 91.5369 95.73C90.935 98.5714 90.4348 100.817 90.0231 102.572L90.786 102.679C92.9484 102.983 94.455 104.982 94.1511 107.144L91.7824 123.998C91.4785 126.161 89.4792 127.667 87.3168 127.364L80.5465 126.412C80.1011 126.349 79.6825 126.214 79.3018 126.021C78.7815 126.459 78.2155 126.888 77.6157 127.307L79.9187 137.44C80.1349 138.392 79.4116 139.298 78.4358 139.298H21.8684ZM89.6019 40.1426L89.6082 40.168L89.6168 40.1928C91.357 45.2509 93.9404 60.4702 90.0654 80.3296C87.8931 91.4625 86.2433 98.6401 85.0486 102.794L83.888 102.631C82.2246 102.397 80.6866 103.556 80.4529 105.22L80.4441 105.282C77.966 105.934 75.1174 106.641 72.2725 107.272C67.4257 108.347 62.6524 109.188 59.7322 109.188H40.8753C37.9209 109.188 33.1239 108.343 28.2742 107.266C25.2708 106.599 22.2711 105.848 19.717 105.168L19.7141 105.15C19.4479 103.524 17.9297 102.4 16.2895 102.63L15.5347 102.737C14.2996 98.5491 12.508 91.3533 10.357 80.3296C6.54286 60.7819 8.97175 45.8751 10.71 40.5867L10.7179 40.5628L10.7237 40.5384C14.9981 22.693 31.0563 9.42846 50.2112 9.42846C69.2242 9.42846 85.1863 22.4972 89.6019 40.1426ZM90.6624 80.4461C94.5554 60.4942 91.9709 45.1654 90.192 39.9949C85.7103 22.0852 69.5098 8.82017 50.2112 8.82017C30.7686 8.82017 14.4706 22.284 10.1321 40.3967C8.35843 45.793 5.92781 60.806 9.76001 80.4461C11.8979 91.4026 13.6837 98.5957 14.9258 102.822L11.1021 103.36C11.0304 103.062 10.9595 102.767 10.8885 102.468C10.4625 100.68 10.0294 98.7742 9.35281 95.5471C9.11593 94.4173 8.12081 93.6043 6.9664 93.6043H6.72648C5.54744 93.6043 4.53806 92.759 4.3311 91.5982L0.950253 72.6364C0.811337 71.8573 1.06003 71.0593 1.61698 70.497L3.91318 68.1789C4.40405 67.6833 4.65711 66.9998 4.61755 66.3034C3.87012 53.1475 5.61791 43.1802 7.00661 38.9526C10.4531 24.5544 20.9357 12.8929 34.6138 7.81127C36.3002 7.18472 37.6977 6.14462 39.1554 5.05969C41.8395 3.06206 44.7277 0.912432 50 0.912432C55.2724 0.912432 58.1606 3.06206 60.8446 5.05969C62.3024 6.14462 63.6999 7.18472 65.3863 7.81127C78.9275 12.8421 89.3369 24.3217 92.888 38.5213C94.2983 42.6232 96.1808 52.6812 95.3811 66.2967C95.3401 66.9947 95.5931 67.6805 96.0852 68.1772L98.383 70.497C98.94 71.0593 99.1887 71.8573 99.0497 72.6364L95.6689 91.5982C95.4619 92.759 94.4526 93.6043 93.2735 93.6043H93.0296C91.877 93.6043 90.8831 94.4134 90.6443 95.541C90.034 98.4221 89.5291 100.686 89.1158 102.444C89.0792 102.6 89.0499 102.752 89.0213 102.901C88.9923 103.051 88.9641 103.198 88.93 103.34L85.6569 102.88C86.8589 98.681 88.5053 91.5014 90.6624 80.4461ZM40.8753 109.796H59.7322C64.4343 109.796 73.6675 107.687 80.3523 105.935L78.0842 122.074C77.9587 122.967 78.2346 123.824 78.7746 124.462C76.7475 126.303 73.6589 128.095 70.3854 129.655C66.7092 131.407 62.8878 132.827 60.2886 133.665L68.827 115.705C68.8992 115.554 68.8347 115.372 68.683 115.3C68.5312 115.228 68.3498 115.292 68.2777 115.444L58.3234 132.911H42.284L32.3298 115.444C32.2577 115.292 32.0762 115.228 31.9245 115.3C31.7728 115.372 31.7083 115.554 31.7804 115.705L40.2631 133.548C37.6786 132.698 34.0363 131.328 30.5262 129.655C27.0067 127.977 23.7009 126.032 21.6984 124.046C22.0385 123.473 22.1933 122.785 22.0933 122.073L19.8094 105.822C26.4817 107.59 36.0232 109.796 40.8753 109.796ZM76.5882 126.904L79.0289 137.642C79.1154 138.023 78.8261 138.385 78.4358 138.385H21.8684C21.478 138.385 21.1887 138.023 21.2752 137.642L23.7976 126.544C24.0223 126.701 24.2526 126.858 24.4881 127.013C29.4225 130.263 36.5923 133.019 40.6292 134.306C40.7655 134.35 40.8983 134.392 41.0274 134.432H59.7389H59.8843C63.8751 133.192 71.4849 130.311 76.5882 126.904ZM90.5736 104.185C91.9043 104.372 92.8315 105.602 92.6444 106.933L90.2758 123.787C90.0887 125.118 88.8584 126.045 87.5277 125.858L80.7574 124.906C80.3455 124.849 79.9723 124.691 79.6588 124.461C79.494 124.34 79.3457 124.199 79.2169 124.043C78.7995 123.535 78.5878 122.861 78.6865 122.158L80.9902 105.767L81.0552 105.304L81.0576 105.287C81.0597 105.273 81.0619 105.26 81.0641 105.246C81.0677 105.225 81.0714 105.203 81.0755 105.182C81.0801 105.158 81.085 105.135 81.0903 105.111C81.3636 103.885 82.5381 103.056 83.8033 103.233L84.876 103.384L85.4851 103.47L90.5736 104.185ZM9.60383 104.184C8.27311 104.371 7.34596 105.602 7.53298 106.932L9.90166 123.786C10.0887 125.117 11.3191 126.044 12.6498 125.857L19.42 124.906C20.0196 124.822 20.5372 124.526 20.9079 124.104C21.046 123.947 21.1637 123.772 21.2577 123.585C21.4714 123.159 21.5623 122.666 21.4909 122.158L19.1712 105.652L19.1222 105.304C19.1072 105.197 19.0855 105.093 19.0576 104.992L19.0522 104.972C18.7246 103.823 17.5913 103.062 16.3741 103.233L15.7109 103.326L15.1013 103.412L9.60383 104.184Z" fill="#6BE2DC"/>
<rect x="41.793" y="112.23" width="15.5113" height="1.82486" rx="0.912431" fill="#6BE2DC"/>
<path d="M42.7016 104.625H56.3881C58.0678 104.625 59.4295 105.987 59.4295 107.666V107.971V110.404V112.229C59.4295 112.565 59.1572 112.837 58.8212 112.837C58.4853 112.837 58.2129 112.565 58.2129 112.229V110.404H40.8767V112.229C40.8767 112.565 40.6044 112.837 40.2684 112.837C39.9325 112.837 39.6602 112.565 39.6602 112.229L39.6602 110.404L39.6602 107.971L39.6602 107.666C39.6602 105.987 41.0219 104.625 42.7016 104.625Z" fill="#6BE2DC"/>
<path d="M50.7283 85.88C50.5839 85.7119 50.3733 85.6152 50.1517 85.6152C49.93 85.6152 49.7194 85.7119 49.575 85.88L41.211 96.2209C40.9373 96.5394 40.9737 97.0195 41.2921 97.2932C41.6106 97.5669 42.0907 97.5306 42.3644 97.2121L50.1517 89.6712L57.939 97.2121C58.2127 97.5306 58.6927 97.5669 59.0112 97.2932C59.3297 97.0195 59.366 96.5394 59.0923 96.2209L50.7283 85.88Z" fill="#6BE2DC"/>
<circle cx="49.6965" cy="5.77853" r="1.52072" fill="#6BE2DC"/>
<path d="M16.1895 57.3648C19.3463 53.2739 25.03 48.4125 32.4992 48.673C32.5027 48.6732 32.5062 48.6732 32.5098 48.6732C37.0626 48.6732 41.9101 50.5721 45.4848 54.5043C45.5978 54.6286 45.7901 54.6378 45.9144 54.5248C46.0387 54.4118 46.0479 54.2194 45.9349 54.0951C42.242 50.0329 37.2313 48.0664 32.5151 48.0649C24.7612 47.7968 18.914 52.8384 15.7079 56.9932C15.6053 57.1262 15.6299 57.3172 15.7629 57.4198C15.8959 57.5224 16.0869 57.4978 16.1895 57.3648Z" fill="#6BE2DC"/>
<path d="M84.2882 56.9932C81.0821 52.8384 75.2349 47.7968 67.481 48.0649C62.7648 48.0664 57.7541 50.0329 54.0612 54.0951C53.9482 54.2194 53.9573 54.4118 54.0816 54.5248C54.2059 54.6378 54.3983 54.6286 54.5113 54.5043C58.086 50.5721 62.9334 48.6732 67.4863 48.6732C67.4898 48.6732 67.4934 48.6732 67.4969 48.673C74.9661 48.4125 80.6498 53.2739 83.8066 57.3648C83.9092 57.4978 84.1002 57.5224 84.2332 57.4198C84.3662 57.3172 84.3908 57.1262 84.2882 56.9932Z" fill="#6BE2DC"/>
<path fill-rule="evenodd" clip-rule="evenodd" d="M67.4924 80.6001C73.4555 80.6001 78.2895 75.766 78.2895 69.803C78.2895 63.8399 73.4555 59.0059 67.4924 59.0059C61.5293 59.0059 56.6953 63.8399 56.6953 69.803C56.6953 75.766 61.5293 80.6001 67.4924 80.6001ZM77.6812 69.803C77.6812 75.4301 73.1195 79.9918 67.4924 79.9918C61.8653 79.9918 57.3036 75.4301 57.3036 69.803C57.3036 64.1758 61.8653 59.6141 67.4924 59.6141C73.1195 59.6141 77.6812 64.1758 77.6812 69.803Z" fill="#6BE2DC"/>
<path d="M66.4262 67.4464V59.0577C66.7764 59.0234 67.1315 59.0059 67.4907 59.0059C67.5415 59.0059 67.5922 59.0062 67.6428 59.0069V67.2221C67.5924 67.2192 67.5417 67.2177 67.4907 67.2177C67.1112 67.2177 66.7508 67.2995 66.4262 67.4464Z" fill="#6BE2DC"/>
<path d="M65.5138 71.4689V80.4195C65.0994 80.3428 64.6934 80.2425 64.2972 80.12V59.4859C64.6934 59.3634 65.0994 59.2631 65.5138 59.1864V68.137C65.1342 68.5869 64.9055 69.1682 64.9055 69.803C64.9055 70.4377 65.1342 71.019 65.5138 71.4689Z" fill="#6BE2DC"/>
<path d="M66.4262 72.1596C66.7508 72.3064 67.1112 72.3882 67.4907 72.3882C67.5417 72.3882 67.5924 72.3867 67.6428 72.3838V80.599C67.5922 80.5997 67.5415 80.6001 67.4907 80.6001C67.1315 80.6001 66.7764 80.5825 66.4262 80.5483V72.1596Z" fill="#6BE2DC"/>
<path d="M68.5552 72.1596V80.5483C68.968 80.5079 69.3739 80.4442 69.7718 80.3587V71.0206C69.5037 71.5217 69.0753 71.9242 68.5552 72.1596Z" fill="#6BE2DC"/>
<path d="M69.7718 68.5853V59.2473C69.3739 59.1617 68.968 59.0981 68.5552 59.0577V67.4464C69.0753 67.6817 69.5037 68.0842 69.7718 68.5853Z" fill="#6BE2DC"/>
<path d="M71.9008 79.6613C71.5072 79.8376 71.1011 79.9911 70.6842 80.12V59.4859C71.1011 59.6148 71.5072 59.7683 71.9008 59.9446V79.6613Z" fill="#6BE2DC"/>
<path d="M72.8132 60.4067V79.1992C73.2375 78.9583 73.6438 78.6896 74.0298 78.3954V61.2105C73.6438 60.9164 73.2375 60.6476 72.8132 60.4067Z" fill="#6BE2DC"/>
<path d="M76.1588 63.3643C75.7925 62.8721 75.3853 62.412 74.9422 61.9893V77.6166C75.3853 77.1939 75.7925 76.7339 76.1588 76.2416V63.3643Z" fill="#6BE2DC"/>
<path d="M62.1682 79.1992V60.4067C62.5591 60.1848 62.9653 59.9866 63.3847 59.814V79.792C62.9653 79.6194 62.5591 79.4211 62.1682 79.1992Z" fill="#6BE2DC"/>
<path d="M60.0392 61.9893V77.6166C60.4193 77.9792 60.8259 78.3144 61.2557 78.619V60.987C60.8259 61.2915 60.4193 61.6267 60.0392 61.9893Z" fill="#6BE2DC"/>
<path d="M57.9102 74.7868V64.8191C58.2529 64.1616 58.6613 63.5438 59.1267 62.9744V76.6315C58.6613 76.0621 58.2529 75.4443 57.9102 74.7868Z" fill="#6BE2DC"/>
<path d="M78.0125 72.2361C77.8056 73.1344 77.4867 73.9898 77.0712 74.7868V64.8191C77.4867 65.6162 77.8056 66.4716 78.0125 67.3698V72.2361Z" fill="#6BE2DC"/>
<path fill-rule="evenodd" clip-rule="evenodd" d="M32.8205 80.6001C38.7836 80.6001 43.6177 75.766 43.6177 69.803C43.6177 63.8399 38.7836 59.0059 32.8205 59.0059C26.8575 59.0059 22.0234 63.8399 22.0234 69.803C22.0234 75.766 26.8575 80.6001 32.8205 80.6001ZM43.0094 69.803C43.0094 75.4301 38.4477 79.9918 32.8205 79.9918C27.1934 79.9918 22.6317 75.4301 22.6317 69.803C22.6317 64.1758 27.1934 59.6141 32.8205 59.6141C38.4477 59.6141 43.0094 64.1758 43.0094 69.803Z" fill="#6BE2DC"/>
<path d="M31.7543 67.4464V59.0577C32.1045 59.0234 32.4596 59.0059 32.8188 59.0059C32.8696 59.0059 32.9203 59.0062 32.9709 59.0069V67.2221C32.9206 67.2192 32.8699 67.2177 32.8188 67.2177C32.4393 67.2177 32.0789 67.2995 31.7543 67.4464Z" fill="#6BE2DC"/>
<path d="M30.8419 71.4689V80.4195C30.4276 80.3428 30.0216 80.2425 29.6253 80.12V59.4859C30.0216 59.3634 30.4276 59.2631 30.8419 59.1864V68.137C30.4623 68.5869 30.2336 69.1682 30.2336 69.803C30.2336 70.4377 30.4623 71.019 30.8419 71.4689Z" fill="#6BE2DC"/>
<path d="M31.7543 72.1596C32.0789 72.3064 32.4393 72.3882 32.8188 72.3882C32.8699 72.3882 32.9206 72.3867 32.9709 72.3838V80.599C32.9203 80.5997 32.8696 80.6001 32.8188 80.6001C32.4596 80.6001 32.1045 80.5825 31.7543 80.5483V72.1596Z" fill="#6BE2DC"/>
<path d="M33.8833 72.1596V80.5483C34.2961 80.5079 34.7021 80.4442 35.0999 80.3587V71.0206C34.8318 71.5217 34.4035 71.9242 33.8833 72.1596Z" fill="#6BE2DC"/>
<path d="M35.0999 68.5853V59.2473C34.7021 59.1617 34.2961 59.0981 33.8833 59.0577V67.4464C34.4035 67.6817 34.8318 68.0842 35.0999 68.5853Z" fill="#6BE2DC"/>
<path d="M37.2289 79.6613C36.8353 79.8376 36.4292 79.9911 36.0123 80.12V59.4859C36.4292 59.6148 36.8353 59.7683 37.2289 59.9446V79.6613Z" fill="#6BE2DC"/>
<path d="M38.1413 60.4067V79.1992C38.5656 78.9583 38.972 78.6896 39.3579 78.3954V61.2105C38.972 60.9164 38.5656 60.6476 38.1413 60.4067Z" fill="#6BE2DC"/>
<path d="M41.4869 63.3643C41.1207 62.8721 40.7134 62.412 40.2703 61.9893V77.6166C40.7134 77.1939 41.1207 76.7339 41.4869 76.2416V63.3643Z" fill="#6BE2DC"/>
<path d="M27.4963 79.1992V60.4067C27.8873 60.1848 28.2934 59.9866 28.7129 59.814V79.792C28.2934 79.6194 27.8873 79.4211 27.4963 79.1992Z" fill="#6BE2DC"/>
<path d="M25.3673 61.9893V77.6166C25.7474 77.9792 26.154 78.3144 26.5839 78.619V60.987C26.154 61.2915 25.7474 61.6267 25.3673 61.9893Z" fill="#6BE2DC"/>
<path d="M23.2383 74.7868V64.8191C23.581 64.1616 23.9894 63.5438 24.4549 62.9744V76.6315C23.9894 76.0621 23.581 75.4443 23.2383 74.7868Z" fill="#6BE2DC"/>
<path d="M43.3406 72.2361C43.1338 73.1344 42.8148 73.9898 42.3993 74.7868V64.8191C42.8148 65.6162 43.1338 66.4716 43.3406 67.3698V72.2361Z" fill="#6BE2DC"/>
</svg>
