<svg width="160" height="100" viewBox="0 0 160 100" fill="none" xmlns="http://www.w3.org/2000/svg">
<path d="M115.912 61.4032C119.117 56.0398 125.041 54.8072 127.591 54.8651C127.788 54.8696 127.952 54.7132 127.957 54.5159C127.961 54.3185 127.805 54.1549 127.607 54.1504C124.905 54.0891 118.68 55.3746 115.297 61.037C113.712 63.6905 111.255 65.0373 108.801 65.6407C106.342 66.2456 103.909 66.096 102.434 65.7748C102.24 65.7327 102.05 65.855 102.007 66.0479C101.965 66.2407 102.088 66.4312 102.281 66.4732C103.849 66.8144 106.393 66.9692 108.973 66.3348C111.559 65.6988 114.204 64.2625 115.912 61.4032Z" fill="#6BE2DC"/>
<path d="M108.03 83.2092C107.925 83.0423 107.704 82.9926 107.536 83.098C107.369 83.2035 107.32 83.4243 107.425 83.5912C108.52 85.3199 112.24 88.2458 118.547 86.8461C118.74 86.8032 118.861 86.6123 118.818 86.4196C118.775 86.2269 118.584 86.1054 118.391 86.1482C112.381 87.4823 108.965 84.6841 108.03 83.2092Z" fill="#6BE2DC"/>
<path d="M43.9793 61.355C40.7826 55.9959 34.8729 54.7642 32.3298 54.822C32.1326 54.8265 31.9691 54.6703 31.9646 54.4731C31.9601 54.2759 32.1163 54.1124 32.3135 54.1079C35.0085 54.0467 41.2179 55.3312 44.5927 60.9891C46.1743 63.6406 48.6251 64.9863 51.0724 65.5892C53.5258 66.1937 55.9522 66.0442 57.4243 65.7232C57.617 65.6812 57.8073 65.8034 57.8493 65.9961C57.8913 66.1888 57.7692 66.3791 57.5764 66.4211C56.0128 66.762 53.4749 66.9167 50.9015 66.2828C48.3219 65.6473 45.6835 64.2121 43.9793 61.355Z" fill="#6BE2DC"/>
<path d="M51.8413 83.144C51.9467 82.9773 52.1673 82.9276 52.334 83.033C52.5008 83.1384 52.5505 83.359 52.4451 83.5257C51.353 85.2532 47.6419 88.1767 41.3513 86.7781C41.1588 86.7353 41.0374 86.5445 41.0802 86.3519C41.123 86.1594 41.3138 86.038 41.5064 86.0808C47.5016 87.4138 50.9096 84.6178 51.8413 83.144Z" fill="#6BE2DC"/>
<path fill-rule="evenodd" clip-rule="evenodd" d="M32.4356 4.56566C32.5875 3.75537 32.8464 2.85298 33.2485 2.0682C33.8663 0.86262 34.8872 -0.170519 36.4503 0.0235724C38.2595 0.248219 39.3986 1.26837 40.0728 2.49615C40.6605 3.56647 40.8979 4.79549 40.9458 5.81152C41.9011 5.75142 43.1687 5.95203 44.2904 6.72521C45.5942 7.62389 46.6497 9.26036 46.823 12.0144C46.8235 12.0218 46.8237 12.0293 46.8237 12.0368V16.3833C47.0481 16.0803 47.3429 15.8093 47.7266 15.625C48.1958 15.3998 48.7697 15.3178 49.4591 15.432C50.109 15.5396 50.643 16.0472 51.0568 16.6624C51.4114 17.1896 51.7104 17.8434 51.9437 18.5338L51.455 19.381C51.4325 19.2983 51.4091 19.2159 51.3848 19.1338C51.1504 18.3441 50.8333 17.61 50.4641 17.0611C50.0868 16.5 49.6986 16.1956 49.3424 16.1367C48.7743 16.0426 48.3526 16.1168 48.0358 16.269C47.7171 16.422 47.4761 16.6675 47.2941 16.9614C46.9225 17.5612 46.8237 18.3203 46.8237 18.6991V23.6703C46.9358 24.4552 47.0644 25.6198 47.1368 26.8658L46.4707 28.0203C46.4693 27.9636 46.4677 27.9068 46.4659 27.8499C46.419 26.3254 46.2615 24.8056 46.1261 23.8387C45.9215 23.5796 45.5804 23.2253 45.1728 22.9433C44.7211 22.6308 44.2393 22.4421 43.7946 22.4977C43.5989 22.5222 43.4204 22.3833 43.3959 22.1876C43.3714 21.9919 43.5103 21.8134 43.706 21.7889C44.4041 21.7017 45.0658 22.0007 45.5792 22.3559C45.7709 22.4885 45.9491 22.6338 46.1094 22.7802V12.0481C45.9452 9.47933 44.9759 8.06525 43.885 7.31333C42.9026 6.63615 41.7802 6.46737 40.9547 6.52674C40.9486 8.60896 40.8828 11.6038 40.7028 14.2059C40.6082 15.5737 40.4814 16.8422 40.3133 17.8152C40.2294 18.3006 40.1333 18.724 40.0215 19.0536C39.9656 19.2183 39.9028 19.3689 39.8303 19.4955C39.7999 19.5487 39.7651 19.6026 39.7248 19.6535C40.0692 21.6153 40.4687 24.6128 40.588 27.4701C40.6495 28.9441 40.6369 30.3897 40.5011 31.6406C40.3809 32.7471 40.161 33.738 39.7852 34.4625C40.7321 35.423 42.0263 36.875 43.1054 38.386C43.6825 39.1942 44.2037 40.0271 44.577 40.8164C44.8873 41.4726 45.1073 42.1232 45.1569 42.7174C47.0012 42.942 48.3803 43.7933 48.9975 44.3849C49.1398 44.5214 49.1446 44.7475 49.0081 44.8899C48.8716 45.0322 48.6456 45.037 48.5032 44.9005C47.9617 44.3815 46.6103 43.5424 44.7809 43.3973C44.0593 43.3401 43.263 43.3909 42.4115 43.612C42.2205 43.6615 42.0256 43.547 41.976 43.356C41.9264 43.1651 42.041 42.9702 42.2319 42.9206C43.009 42.7188 43.7473 42.646 44.4333 42.664C44.3772 42.2204 44.2042 41.6991 43.9313 41.1218C43.5825 40.3844 43.087 39.5895 42.5241 38.8011C41.4089 37.2395 40.0515 35.7348 39.1155 34.802C38.7944 34.5976 38.2678 34.314 37.7078 34.1125C37.1134 33.8987 36.5559 33.805 36.1698 33.9154C35.9801 33.9696 35.7824 33.8597 35.7283 33.6701C35.6741 33.4804 35.7839 33.2827 35.9735 33.2286C36.5874 33.0532 37.3279 33.2167 37.9496 33.4404C38.4185 33.6091 38.8624 33.8279 39.2058 34.0234C39.4875 33.4277 39.68 32.5857 39.791 31.5635C39.9215 30.3612 39.9351 28.9545 39.8743 27.4999C39.7589 24.7347 39.3765 21.8284 39.0407 19.889H36.4063C36.2091 19.889 36.0492 19.7291 36.0492 19.5319C36.0492 19.3346 36.2091 19.1747 36.4063 19.1747H39.1898C39.1961 19.165 39.203 19.1537 39.2103 19.1409C39.2521 19.0678 39.2978 18.9636 39.3451 18.8241C39.4396 18.5454 39.5282 18.1633 39.6094 17.6936C39.7714 16.7563 39.8962 15.5161 39.9902 14.1566C40.1781 11.4401 40.2409 8.28432 40.2409 6.2073C40.2409 5.20518 40.0378 3.9164 39.4467 2.83996C38.8633 1.77768 37.9065 0.924165 36.3623 0.732419C35.2427 0.593396 34.4472 1.29534 33.8842 2.39394C33.3256 3.48424 33.0601 4.86193 32.9909 5.8044C32.9905 7.82519 32.9062 11.0341 32.6543 14.1168C32.528 15.6614 32.3593 17.1791 32.137 18.502C31.9251 19.7629 31.6607 20.8705 31.3271 21.6582C31.605 23.2765 31.93 25.8603 32.0264 28.5025C32.1217 31.1155 31.996 33.8371 31.3486 35.7345C31.8315 36.5737 32.4893 37.8587 33.0109 39.1901C33.2872 39.8954 33.5278 40.6202 33.6831 41.3028C33.8102 41.861 33.8838 42.4062 33.8662 42.8969C35.1012 43.2689 36.1901 43.8925 36.819 44.355C36.9779 44.4719 37.012 44.6954 36.8951 44.8543C36.7782 45.0132 36.5547 45.0473 36.3958 44.9304C35.7766 44.4751 34.6461 43.8356 33.3964 43.5063C32.3497 43.2304 31.2609 43.1827 30.3219 43.5935C30.1412 43.6725 29.9306 43.5901 29.8516 43.4094C29.7725 43.2287 29.8549 43.0181 30.0356 42.9391C31.0377 42.5006 32.1373 42.5072 33.1543 42.716C33.1509 42.3479 33.092 41.9241 32.9867 41.4613C32.8417 40.8242 32.6139 40.135 32.3458 39.4506C31.8469 38.1771 31.2171 36.9426 30.7511 36.1283H28.9288C28.7315 36.1283 28.5716 35.9685 28.5716 35.7712C28.5716 35.574 28.7315 35.4141 28.9288 35.4141H30.7026C31.2785 33.654 31.406 31.0899 31.3126 28.5286C31.2213 26.0245 30.9213 23.5707 30.6555 21.971H28.9288C28.7315 21.971 28.5716 21.8111 28.5716 21.6138C28.5716 21.4166 28.7315 21.2567 28.9288 21.2567H30.7197C30.9972 20.5551 31.2344 19.5626 31.4326 18.3836C31.6504 17.0877 31.817 15.5918 31.9423 14.0586C32.1914 11.0114 32.2755 7.83559 32.2766 5.82847C32.0919 4.98546 31.4018 4.44247 30.4833 4.15435C29.5528 3.86243 28.4669 3.86309 27.6897 4.0561C27.3715 4.13511 26.9855 4.38673 26.5433 4.89404C26.1048 5.3971 25.6357 6.12346 25.1456 7.0971C24.1658 9.04372 23.1253 11.9319 22.0804 15.8763C20.2871 22.6456 20.3483 29.104 20.3994 34.5062L20.3994 34.5066C20.4076 35.3729 20.4156 36.212 20.4156 37.0209C20.4156 39.9576 20.2039 41.3333 19.9899 42.449C19.9667 42.5702 19.9435 42.6878 19.9207 42.8037C19.7377 43.7331 19.5771 44.5485 19.5771 46.181C19.5771 46.8719 19.7892 47.8129 20.142 48.8827C20.4924 49.945 20.9714 51.1051 21.4834 52.2235C22.4889 54.4201 23.6082 56.4273 24.0999 57.1827C24.7198 57.6955 25.2959 58.207 25.8553 58.7035C28.4361 60.9943 30.6606 62.9689 35.176 63.314L35.1781 63.3141L35.185 63.3148L35.1927 63.3156C35.7698 63.3872 36.6738 63.558 37.5249 63.8409C37.9507 63.9824 38.3724 64.155 38.7366 64.3626C39.0966 64.5677 39.4257 64.8213 39.637 65.1361C39.7469 65.2999 39.7032 65.5217 39.5394 65.6317C39.3757 65.7416 39.1538 65.6979 39.0439 65.5341C38.9198 65.3492 38.697 65.1622 38.3829 64.9831C38.0728 64.8064 37.6982 64.6512 37.2996 64.5187C36.506 64.255 35.6542 64.0932 35.1131 64.0255C30.3462 63.6589 27.9326 61.5116 25.337 59.2023C24.7841 58.7104 24.223 58.2111 23.6291 57.7202C22.3071 56.9879 21.1388 56.1561 20.0808 55.2761C20.1515 55.9832 20.034 56.8997 19.5466 58.0022C19.4668 58.1826 19.2559 58.2642 19.0755 58.1845C18.8951 58.1047 18.8135 57.8938 18.8933 57.7134C19.7993 55.664 19.2276 54.5504 18.9749 54.3056C17.8872 53.3018 16.9141 52.2605 16.0003 51.2542C15.7826 51.0144 15.5686 50.777 15.3574 50.5427C14.678 49.7891 14.0272 49.0671 13.372 48.3983C11.6553 46.6462 9.96436 45.3204 7.82796 44.8657C6.42166 44.5663 5.2517 44.5961 4.29366 44.8115C5.34102 45.7685 6.68702 47.0976 7.79938 48.4125C8.44538 49.1762 9.02179 49.9458 9.4144 50.6421C9.61076 50.9904 9.7666 51.3297 9.86042 51.648C9.95341 51.9634 9.99275 52.2826 9.92782 52.5775C9.72137 53.515 9.14084 54.43 8.52875 55.1778C8.02306 55.7956 7.47716 56.3217 7.05363 56.6799C8.13163 58.2951 9.1292 59.8078 9.87976 60.9794C10.2307 61.5273 10.5507 62.0377 10.8577 62.5273C11.8421 64.0973 12.6927 65.4541 14.001 67.1476C15.7162 69.3677 18.2187 72.1657 22.8252 76.7416C26.7453 80.6357 28.7473 82.0959 30.3259 83.0075C32.9716 83.8927 37.1492 85.6916 41.156 88.2353C45.1728 90.7855 49.0623 94.112 51.034 98.0555C51.0441 98.0756 51.0521 98.0962 51.0581 98.117C53.423 98.6976 56.123 99.1585 58.8804 99.2047C62.7573 99.2696 66.7208 98.5145 70.0296 96.1474C73.3251 93.7897 76.0164 89.8004 77.3046 83.3064C77.2105 80.7492 77.1515 78.1702 77.1339 75.6511L77.8559 76.5175C77.8799 78.7643 77.9361 81.0515 78.02 83.3217C78.021 83.3493 78.0188 83.3769 78.0135 83.404C76.7012 90.06 73.9261 94.2381 70.4452 96.7283C66.9708 99.214 62.8387 99.9854 58.8684 99.9189C54.8982 99.8524 51.0631 98.9478 48.1522 98.0534C46.6953 97.6057 45.4668 97.1595 44.5658 96.8203C44.3246 96.7296 44.1162 96.65 43.9317 96.5795L43.9167 96.5738L43.9129 96.5723C43.7506 96.5103 43.6068 96.4554 43.4752 96.406C43.3386 96.3547 43.2292 96.3148 43.1458 96.2865C43.1041 96.2725 43.0716 96.2622 43.0472 96.2552C43.0286 96.2499 43.0192 96.2478 43.0165 96.2472L43.0157 96.247L43.0169 96.2472C42.8948 96.2292 42.7906 96.1496 42.7413 96.0365C41.5613 93.3286 39.9662 90.7933 37.8466 88.9217C34.5424 86.0041 32.9636 85.1945 31.4067 84.3962C30.9505 84.1623 30.4961 83.9293 30.0008 83.6445C28.3415 82.6905 26.2889 81.1891 22.3218 77.2484C17.7064 72.6636 15.1788 69.8404 13.4358 67.5843C12.1043 65.8608 11.2311 64.4679 10.2423 62.8907L10.2419 62.89L10.241 62.8886L10.2406 62.888L10.2403 62.8875L10.24 62.887C9.93595 62.402 9.62094 61.8996 9.27829 61.3647C8.48976 60.1338 7.42521 58.5214 6.27911 56.8063C4.02182 53.4282 1.45231 49.6578 0.062689 47.6332C-0.00499507 47.5346 -0.0188262 47.4086 0.0258551 47.2977C0.409987 46.3437 1.5035 44.9614 3.45761 44.3042C4.64863 43.9037 6.14569 43.7773 7.97667 44.167C10.324 44.6667 12.1379 46.1181 13.8822 47.8984C14.5486 48.5786 15.2131 49.3157 15.8945 50.0717L15.8948 50.0721L15.8951 50.0724C16.1047 50.3048 16.3158 50.5391 16.5291 50.774C17.4399 51.7771 18.397 52.8005 19.4621 53.7833C20.4642 54.7079 21.5606 55.5953 22.8 56.3926C22.2357 55.3887 21.508 53.9935 20.8339 52.5209C20.3154 51.3882 19.8251 50.2023 19.4637 49.1064C19.1048 48.0183 18.8628 46.9892 18.8628 46.181C18.8628 44.4783 19.0343 43.6076 19.2198 42.6658C19.2426 42.5503 19.2656 42.4337 19.2884 42.3144C19.4937 41.2443 19.7013 39.9137 19.7013 37.0209C19.7013 36.2212 19.6933 35.3884 19.685 34.5259L19.685 34.5251C19.633 29.1258 19.5699 22.5635 21.3899 15.6934C22.4408 11.7263 23.4963 8.78506 24.5076 6.77595C25.013 5.77173 25.5132 4.98866 26.0048 4.42471C26.4927 3.86501 26.9973 3.49205 27.5175 3.36286C28.417 3.13948 29.6366 3.14013 30.6971 3.47281C31.3618 3.6813 31.995 4.03235 32.4356 4.56566ZM108.019 18.2903L108.497 19.1191C108.731 18.3401 109.046 17.6171 109.411 17.0747C109.789 16.5132 110.179 16.2086 110.536 16.1496C111.105 16.0555 111.528 16.1297 111.845 16.282C112.165 16.4351 112.407 16.6808 112.589 16.9749C112.962 17.5752 113.061 18.335 113.061 18.714V23.6891C112.959 24.3979 112.844 25.4162 112.77 26.5246L113.426 27.6631C113.481 26.2086 113.63 24.7811 113.76 23.8577C113.965 23.5983 114.307 23.2438 114.716 22.9615C115.168 22.6488 115.651 22.46 116.097 22.5156C116.293 22.5401 116.472 22.4011 116.497 22.2053C116.521 22.0094 116.382 21.8307 116.186 21.8063C115.486 21.7189 114.823 22.0182 114.308 22.3737C114.116 22.5064 113.937 22.6518 113.777 22.7983V12.0578C113.941 9.48707 114.913 8.07189 116.007 7.31937C116.991 6.64167 118.117 6.47276 118.944 6.53217C118.95 8.61602 119.016 11.6132 119.197 14.2173C119.292 15.5862 119.419 16.8557 119.587 17.8295C119.671 18.3152 119.768 18.7389 119.88 19.0687C119.936 19.2336 119.999 19.3843 120.071 19.5111C120.102 19.5642 120.137 19.6182 120.177 19.6692C119.832 21.6325 119.431 24.6323 119.312 27.4918C119.25 28.967 119.263 30.4137 119.399 31.6656C119.519 32.773 119.74 33.7646 120.117 34.4897C119.167 35.4509 117.87 36.9041 116.788 38.4163C116.21 39.2251 115.687 40.0586 115.313 40.8486C115.002 41.5053 114.781 42.1564 114.732 42.751C112.883 42.9758 111.5 43.8278 110.881 44.4198C110.739 44.5564 110.734 44.7827 110.871 44.9252C111.008 45.0677 111.234 45.0725 111.377 44.9359C111.92 44.4165 113.275 43.5766 115.108 43.4315C115.832 43.3742 116.63 43.425 117.484 43.6463C117.675 43.6959 117.871 43.5812 117.92 43.3902C117.97 43.1991 117.855 43.004 117.664 42.9544C116.885 42.7525 116.145 42.6796 115.457 42.6976C115.513 42.2536 115.687 41.7319 115.96 41.1542C116.31 40.4162 116.807 39.6207 117.371 38.8317C118.489 37.2689 119.85 35.763 120.788 34.8295C121.11 34.6249 121.638 34.3411 122.199 34.1394C122.795 33.9254 123.354 33.8317 123.741 33.9422C123.931 33.9964 124.129 33.8865 124.184 33.6967C124.238 33.5069 124.128 33.309 123.938 33.2548C123.322 33.0793 122.58 33.243 121.957 33.4668C121.487 33.6356 121.042 33.8546 120.697 34.0502C120.415 33.454 120.222 32.6114 120.111 31.5885C119.98 30.3852 119.966 28.9774 120.027 27.5217C120.143 24.7543 120.526 21.8458 120.863 19.9049H123.504C123.702 19.9049 123.862 19.7448 123.862 19.5474C123.862 19.35 123.702 19.19 123.504 19.19H120.714C120.711 19.1855 120.708 19.1806 120.704 19.1754L120.698 19.1648L120.693 19.1561C120.651 19.083 120.605 18.9787 120.558 18.8391C120.463 18.5602 120.374 18.1778 120.293 17.7077C120.131 16.7698 120.005 15.5286 119.911 14.168C119.723 11.4494 119.66 8.29113 119.66 6.21249C119.66 5.20958 119.863 3.9198 120.456 2.84252C121.041 1.77942 122 0.925234 123.548 0.733339C124.67 0.594207 125.468 1.2967 126.032 2.39615C126.592 3.48731 126.858 4.86607 126.928 5.80928C126.928 7.83163 127.013 11.043 127.265 14.1282C127.392 15.674 127.561 17.1928 127.784 18.5168C127.996 19.7787 128.261 20.8872 128.596 21.6754C128.317 23.295 127.991 25.8808 127.895 28.5251C127.799 31.1401 127.925 33.8638 128.574 35.7627C128.09 36.6026 127.431 37.8886 126.908 39.221C126.631 39.9269 126.39 40.6522 126.234 41.3353C126.107 41.894 126.033 42.4396 126.05 42.9306C124.812 43.303 123.721 43.9271 123.09 44.3899C122.931 44.5069 122.897 44.7306 123.014 44.8896C123.131 45.0486 123.355 45.0827 123.515 44.9658C124.135 44.5101 125.269 43.8701 126.521 43.5405C127.571 43.2645 128.662 43.2167 129.604 43.6278C129.785 43.7069 129.996 43.6245 130.075 43.4436C130.154 43.2628 130.072 43.052 129.891 42.9729C128.886 42.5341 127.784 42.5407 126.764 42.7497C126.767 42.3813 126.827 41.9571 126.932 41.494C127.077 40.8564 127.306 40.1666 127.575 39.4817C128.075 38.2072 128.706 36.9717 129.173 36.1569H131C131.198 36.1569 131.358 35.9968 131.358 35.7994C131.358 35.602 131.198 35.442 131 35.442H129.222C128.645 33.6806 128.517 31.1145 128.61 28.5512C128.702 26.0451 129.003 23.5894 129.269 21.9885H131C131.198 21.9885 131.358 21.8284 131.358 21.631C131.358 21.4336 131.198 21.2736 131 21.2736H129.205C128.927 20.5715 128.689 19.5782 128.49 18.3983C128.272 17.1014 128.105 15.6043 127.979 14.07C127.729 11.0203 127.645 7.84205 127.644 5.83336C127.829 4.98969 128.521 4.44628 129.442 4.15794C130.375 3.86579 131.463 3.86645 132.242 4.0596C132.561 4.13868 132.948 4.3905 133.392 4.89821C133.831 5.40166 134.301 6.12858 134.793 7.10298C135.775 9.05112 136.818 11.9416 137.866 15.8891C139.663 22.6636 139.602 29.127 139.551 34.5334V34.5338C139.543 35.4008 139.535 36.2406 139.535 37.0501C139.535 39.9891 139.747 41.3658 139.961 42.4824L139.973 42.5417L139.983 42.5967C139.99 42.632 139.997 42.6669 140.004 42.7017L140.031 42.8368L140.031 42.8374C140.214 43.7676 140.375 44.5835 140.375 46.2174C140.375 46.9088 140.163 47.8505 139.809 48.9212C139.458 49.9842 138.977 51.1452 138.464 52.2646C137.456 54.4629 136.334 56.4716 135.841 57.2276C135.22 57.7409 134.642 58.2527 134.081 58.7496C131.494 61.0422 129.264 63.0184 124.737 63.3637L124.735 63.3638L124.728 63.3645L124.721 63.3653C124.142 63.437 123.236 63.6079 122.383 63.891C121.956 64.0326 121.533 64.2054 121.168 64.4131C120.807 64.6184 120.477 64.8722 120.265 65.1872C120.155 65.3511 120.199 65.5732 120.363 65.6832C120.527 65.7932 120.75 65.7495 120.86 65.5856C120.984 65.4005 121.208 65.2133 121.522 65.0341C121.833 64.8573 122.209 64.702 122.608 64.5694C123.404 64.3054 124.258 64.1435 124.8 64.0758C129.579 63.7089 131.999 61.5599 134.601 59.2488C135.155 58.7565 135.718 58.2568 136.313 57.7655C137.638 57.0327 138.81 56.2002 139.87 55.3196C139.799 56.0272 139.917 56.9443 140.406 58.0478C140.486 58.2283 140.697 58.31 140.878 58.2302C141.059 58.1504 141.141 57.9393 141.061 57.7588C140.152 55.7077 140.726 54.5932 140.979 54.3483C142.069 53.3436 143.045 52.3016 143.961 51.2945C144.179 51.0545 144.394 50.8169 144.605 50.5825C145.286 49.8282 145.939 49.1056 146.596 48.4364C148.317 46.6829 150.012 45.3561 152.154 44.901C153.563 44.6014 154.736 44.6312 155.697 44.8467C154.647 45.8045 153.297 47.1346 152.182 48.4506C151.535 49.2149 150.957 49.9851 150.563 50.6819C150.366 51.0304 150.21 51.3701 150.116 51.6886C150.023 52.0043 149.983 52.3237 150.048 52.6188C150.255 53.5571 150.837 54.4728 151.451 55.2211C151.958 55.8394 152.505 56.3659 152.93 56.7244C151.849 58.3408 150.849 59.8548 150.097 61.0273C149.745 61.5755 149.424 62.0864 149.116 62.5764C148.129 64.1476 147.277 65.5055 145.965 67.2002C144.246 69.4221 141.737 72.2223 137.119 76.8018C133.189 80.6989 131.182 82.1603 129.599 83.0725C126.947 83.9585 122.759 85.7587 118.742 88.3045C114.716 90.8566 110.816 94.1857 108.84 98.1323C108.83 98.1524 108.822 98.173 108.816 98.1938C106.445 98.7748 103.738 99.2361 100.974 99.2823C97.0873 99.3473 93.1138 98.5917 89.7968 96.2227C86.493 93.8632 83.7951 89.8707 82.5036 83.3717C82.5945 80.9067 82.6527 78.4216 82.6727 75.9893L81.9478 76.8591C81.9222 79.0169 81.8671 81.2098 81.7865 83.387C81.7855 83.4146 81.7877 83.4422 81.793 83.4693C83.1085 90.1305 85.8906 94.3119 89.3801 96.804C92.8633 99.2917 97.0057 100.064 100.986 99.9971C104.966 99.9305 108.811 99.0253 111.729 98.1301C113.189 97.6821 114.421 97.2356 115.324 96.8961C115.567 96.8048 115.777 96.7247 115.963 96.6539L115.975 96.6494L115.979 96.6479L115.98 96.6476C116.142 96.5857 116.286 96.5308 116.417 96.4815C116.508 96.4474 116.587 96.4183 116.655 96.3943C116.689 96.3822 116.72 96.3714 116.748 96.3619C116.789 96.3478 116.822 96.3375 116.847 96.3305C116.855 96.3282 116.861 96.3265 116.866 96.3252C116.872 96.3237 116.876 96.3229 116.877 96.3225L116.878 96.3223L116.877 96.3225C116.999 96.3046 117.104 96.2249 117.153 96.1116C118.336 93.4017 119.935 90.8644 122.06 88.9914C125.372 86.0715 126.955 85.2613 128.516 84.4623C128.973 84.2282 129.429 83.995 129.925 83.71C131.589 82.7553 133.647 81.2527 137.624 77.3089C142.251 72.7206 144.784 69.8951 146.532 67.6373C147.866 65.9128 148.742 64.5189 149.733 62.9408L149.733 62.9401L149.734 62.9394L149.736 62.9361C150.04 62.4508 150.356 61.9481 150.7 61.4129C151.49 60.181 152.557 58.5674 153.706 56.8509C155.969 53.4702 158.545 49.6968 159.938 47.6707C160.006 47.572 160.02 47.4459 159.975 47.3349C159.59 46.3802 158.494 44.9968 156.535 44.3391C155.341 43.9382 153.84 43.8117 152.004 44.2018C149.651 44.7018 147.833 46.1544 146.084 47.9361C145.417 48.6162 144.751 49.3531 144.069 50.109L144.068 50.1096L144.068 50.1103L144.067 50.111L144.067 50.1114L144.066 50.1118C143.856 50.3444 143.645 50.5788 143.431 50.8139C142.518 51.8178 141.558 52.842 140.49 53.8255C139.486 54.7509 138.387 55.639 137.144 56.4369C137.71 55.4322 138.439 54.036 139.115 52.5621C139.635 51.4286 140.127 50.2417 140.489 49.1451C140.849 48.056 141.091 47.0261 141.091 46.2174C141.091 44.5133 140.919 43.642 140.733 42.6994C140.71 42.5838 140.687 42.4672 140.665 42.3478C140.459 41.2768 140.251 39.9452 140.251 37.0501C140.251 36.2555 140.259 35.4281 140.267 34.5714V34.571V34.5706V34.5702V34.5698V34.5694V34.569V34.5685V34.5681V34.5676V34.5671V34.5666V34.5661V34.5655V34.565V34.5644V34.5638V34.5631V34.5625V34.5618V34.5611V34.5604V34.5597V34.5589V34.5582V34.5574V34.5566V34.5558V34.5549V34.5541V34.5531V34.5524C140.319 29.1489 140.382 22.5815 138.558 15.706C137.504 11.7358 136.446 8.79225 135.432 6.78158C134.926 5.77657 134.424 4.99289 133.931 4.4285C133.442 3.86837 132.936 3.49512 132.415 3.36583C131.513 3.14227 130.291 3.14293 129.227 3.47586C128.561 3.68451 127.926 4.03585 127.485 4.56957C127.332 3.75865 127.073 2.85555 126.67 2.07016C126.05 0.863641 125.027 -0.170303 123.46 0.0239395C121.646 0.248761 120.504 1.26971 119.828 2.49845C119.239 3.5696 119.001 4.79958 118.953 5.8164C117.995 5.75625 116.725 5.95702 115.6 6.7308C114.293 7.63018 113.235 9.26793 113.061 12.0241L113.061 12.0315C113.061 12.0347 113.061 12.038 113.061 12.0412L113.061 12.0465V16.3964C112.836 16.0931 112.54 15.8219 112.155 15.6376C111.685 15.4121 111.11 15.3301 110.419 15.4444C109.767 15.552 109.232 16.06 108.817 16.6758C108.506 17.1372 108.238 17.6954 108.019 18.2903ZM3.49222 45.0499C4.55716 46.0011 6.04991 47.4504 7.25404 48.8739C7.88714 49.6223 8.43126 50.3528 8.79221 50.993C8.97263 51.3129 9.10183 51.6008 9.17528 51.8499C9.24954 52.1019 9.25967 52.2902 9.23024 52.4239C9.05922 53.2006 8.56011 54.0118 7.97602 54.7253C7.52388 55.2777 7.03716 55.7518 6.65399 56.0819C4.50956 52.8772 2.13134 49.3863 0.76438 47.3933C1.12232 46.6525 1.99113 45.6141 3.49222 45.0499ZM34.891 85.6292C36.7507 86.4983 38.7836 87.5753 40.7731 88.8384C44.5755 91.2523 48.1786 94.3204 50.1357 97.8805C49.5148 97.7145 48.9217 97.5425 48.362 97.3706C46.9245 96.9289 45.711 96.4882 44.8175 96.1519C44.5836 96.0638 44.3615 95.979 44.1651 95.904L44.1592 95.9018C43.9937 95.8386 43.8467 95.7825 43.7263 95.7373C43.5883 95.6855 43.4698 95.6421 43.3748 95.61C43.3591 95.6047 43.3432 95.5993 43.3272 95.5941C42.1275 92.8841 40.5 90.3117 38.3194 88.3863C36.9189 87.1496 35.8152 86.2804 34.891 85.6292ZM156.5 45.0854C155.433 46.0373 153.936 47.4877 152.729 48.9123C152.094 49.6613 151.549 50.3924 151.187 51.033C151.006 51.3533 150.877 51.6414 150.803 51.8907C150.728 52.1428 150.718 52.3313 150.748 52.4651C150.919 53.2424 151.42 54.0542 152.005 54.7683C152.458 55.3211 152.946 55.7956 153.33 56.1259C155.48 52.9187 157.864 49.4251 159.235 47.4306C158.876 46.6892 158.005 45.65 156.5 45.0854ZM125.023 85.6963C123.159 86.5661 121.121 87.6439 119.126 88.908C115.314 91.3238 111.702 94.3943 109.74 97.9571C110.363 97.791 110.957 97.6189 111.518 97.4468C112.96 97.0047 114.176 96.5638 115.072 96.2271C115.136 96.2029 115.2 96.1789 115.262 96.1553L115.395 96.105C115.506 96.0627 115.613 96.0221 115.713 95.9839L115.715 95.9833L115.722 95.9805L115.726 95.9791L115.732 95.9769L115.847 95.9328C115.903 95.9114 115.957 95.8911 116.007 95.872C116.064 95.8504 116.117 95.8305 116.166 95.8122C116.304 95.7604 116.423 95.717 116.518 95.6848C116.534 95.6795 116.55 95.6742 116.566 95.669C117.768 92.9569 119.4 90.3825 121.586 88.4555C122.99 87.2179 124.097 86.348 125.023 85.6963Z" fill="#6BE2DC"/>
<path fill-rule="evenodd" clip-rule="evenodd" d="M52.7464 17.8576C52.4911 17.8576 52.2552 17.9938 52.1277 18.215L51.9437 18.5338L51.455 19.381L47.1368 26.8658L46.4707 28.0203L43.0259 33.9913C42.8763 34.2506 42.9043 34.5756 43.0959 34.8055L63.1929 58.9219L63.6991 59.5294L77.1339 75.6511L77.8559 76.5175L79.5028 78.4938C79.6628 78.6857 79.9113 78.7802 80.1583 78.7428C80.3765 78.7099 80.5656 78.5783 80.6729 78.389L81.9478 76.8591L82.6727 75.9893L96.3137 59.62L96.822 59.01L116.917 34.8959C116.98 34.843 117.035 34.7789 117.077 34.7055C117.142 34.5926 117.174 34.4663 117.173 34.3403C117.174 34.2343 117.152 34.1273 117.105 34.0275C117.08 33.9742 117.049 33.9249 117.013 33.8805L113.426 27.6631L112.77 26.5246L108.497 19.1191L108.019 18.2903L107.975 18.215C107.848 17.9938 107.612 17.8576 107.357 17.8576H52.7464ZM99.5021 33.6162L107.357 20.0013L107.496 20.2418L108.084 21.262L112.695 29.2535L113.499 30.6473L115.212 33.6162H112.749H111.882H107.841H106.941H99.5021ZM106.12 19.2862L98.2551 32.9189L90.3901 19.2862H106.12ZM72.1866 19.2865L87.9166 19.2862L80.0516 32.9189L72.1866 19.2865ZM70.9498 20.0016L78.8148 33.6339H63.0848L70.9498 20.0016ZM69.7131 19.2865L61.8481 32.9189L53.9831 19.2862L69.7131 19.2865ZM60.6114 33.6339L52.7464 20.0013L52.4277 20.5537L51.8092 21.6257L47.1751 29.6582L46.3112 31.1556L44.8814 33.6339H47.1648H48.029H52.0644H52.9615H60.6114ZM89.1533 20.0013L97.0183 33.6339H81.2883L89.1533 20.0013ZM62.9195 35.0625H97.1762L85.4403 63.2287L82.3142 70.7313L80.0479 76.1705L77.0919 69.0761L75.324 64.8333L62.9195 35.0625ZM88.0664 60.6581L89.0917 58.1974L98.7313 35.0625H105.876H106.758H110.926H111.779H114.919L95.3039 58.6003L94.8078 59.1955L82.6853 73.7426L82.5438 73.9124L82.6909 73.5592L88.0664 60.6581ZM61.3719 35.0625L71.2674 58.8118L72.364 61.4434L77.0718 72.7422L77.5742 73.9479L77.1135 73.3952L65.198 59.0965L64.7038 58.5035L45.1697 35.0625H48.1202H48.9709H53.1305H54.0096H61.3719Z" fill="#6BE2DC"/>
</svg>
