<svg width="130" height="153" viewBox="0 0 130 153" fill="none" xmlns="http://www.w3.org/2000/svg">
<path d="M39.0352 100.644C45.7145 97.6701 61.0624 91.3563 72.4125 91.5903C83.7626 91.8243 94.0108 95.4274 97.7162 96.9876" stroke="#6CE2DD" stroke-width="1.4" stroke-linecap="round" stroke-linejoin="round"/>
<g filter="url(#filter0_f_346_17504)">
<path d="M33.5063 88.3302C31.8974 89.1103 29.2061 91.314 31.3123 93.8882C33.9451 97.106 39.5035 95.0583 44.0376 92.5718C48.5718 90.0853 52.3747 87.7451 63.052 88.3302C73.7292 88.9152 81.7738 85.9901 86.6005 87.1602C91.4272 88.3302 98.1553 94.1806 103.713 92.2792C109.271 90.3777 104.591 85.4048 98.4479 85.2585C92.3048 85.1122 88.2094 80.4318 77.9709 79.8467C67.7324 79.2617 58.3715 81.4556 52.9597 83.0645C47.548 84.6734 35.3605 87.0138 33.5063 88.3302Z" fill="#6CE2DD"/>
</g>
<g filter="url(#filter1_f_346_17504)">
<path fill-rule="evenodd" clip-rule="evenodd" d="M86.4537 43.4697C77.6778 44.8739 74.7034 49.5153 74.1671 51.5143C74.1184 52.6356 74.6352 54.6151 77.0924 53.562C77.9533 53.193 78.6879 52.4793 79.5055 51.6849C81.6046 49.6454 84.2508 47.0743 90.9879 48.4427C95.5096 49.3612 97.6874 51.7082 99.2034 53.562L97.1676 45.504C94.4177 43.9121 90.7931 42.7754 86.4537 43.4697Z" fill="#6CE2DD"/>
</g>
<g filter="url(#filter2_f_346_17504)">
<path d="M48.804 45.1812C40.0281 43.777 33.1219 50.2704 31.5152 52.4644C30.4441 53.9269 28.4433 56.2673 30.3447 57.5837C34.54 60.4881 33.8551 52.4644 43.216 50.563C52.5769 48.6617 55.3126 53.5174 58.3842 54.8338C60.8414 55.8869 61.3582 53.9074 61.3095 52.7861C60.7731 50.7871 57.5798 46.5853 48.804 45.1812Z" fill="#6CE2DD"/>
</g>
<path d="M71.9727 58.3889C74.0204 52.6846 81.3043 42.2998 94.0585 46.3952" stroke="#6CE2DD" stroke-width="0.848485" stroke-linecap="round" stroke-linejoin="round"/>
<path d="M63.1957 60.4362C62.9032 55.8532 58.3983 47.0676 42.7188 48.5888" stroke="#6CE2DD" stroke-width="0.848485" stroke-linecap="round" stroke-linejoin="round"/>
<path d="M93.7637 104.9C97.7128 106.313 105.98 108.216 109.257 99.9082M25.0195 102.267C25.6046 102.706 26.921 115.138 41.4011 108.702" stroke="#6CE2DD" stroke-width="0.848485" stroke-linecap="round" stroke-linejoin="round"/>
<path d="M68.4609 47.859C69.8654 42.4476 75.7988 32.7034 88.8942 30.707" stroke="#6CE2DD" stroke-width="0.848485" stroke-linecap="round" stroke-linejoin="round"/>
<path d="M62.0249 44.6395C61.4431 44.4068 52.9002 28.5296 36.6172 34.7877" stroke="#6CE2DD" stroke-width="0.848485" stroke-linecap="round" stroke-linejoin="round"/>
<path d="M32.1897 104.579C28.5623 99.314 33.4085 95.7549 36.2851 94.6335C41.9898 91.8545 50.807 87.7033 68.0239 85.7405C85.0023 83.8049 100.641 91.9717 102.396 93.2881C104.151 94.6044 108.832 105.135 92.5963 101.186C76.3609 97.2372 66.8538 99.0215 60.1256 100.338C53.3975 101.654 36.7239 111.161 32.1897 104.579Z" stroke="#6CE2DD" stroke-width="1.4" stroke-linecap="round" stroke-linejoin="round"/>
<path d="M34.9229 115.105C37.2015 114.687 39.5987 113.456 42.0899 112.326M34.9229 115.105C39.4571 116.295 52.9681 119.639 66.0733 119.639C73.9228 119.587 90.7335 118.065 95.1799 112.394M34.9229 115.105C31.4009 115.751 29.4504 115.648 26.5859 115.105M91.9621 111.887C92.9161 112.095 94.0026 112.272 95.1799 112.394M95.1799 112.394C98.5216 112.74 102.594 112.641 106.443 111.547M26.5859 115.105C26.7905 115.359 27.0203 115.629 27.2755 115.913C31.9325 121.088 30.343 133.301 66.0733 133.301C77.1938 133.959 100.836 130.53 106.443 111.547M26.5859 115.105C21.8155 114.201 17.8938 110.678 15.5605 108.343M106.443 111.547C108.645 110.921 111.135 109.698 113.451 107.987M113.451 107.987C107.455 97.3724 102.008 84.8725 100.985 67.8791C99.1391 37.2051 87.6077 24.5947 72.9545 21.2962M113.451 107.987C117.695 115.5 122.214 122.069 125.635 128.618M72.9545 21.2962C70.1207 22.4129 66.9737 24.114 63.4411 26.4691C59.9183 24.2612 56.7901 22.666 53.991 21.6172M72.9545 21.2962C70.0976 20.6531 67.1219 20.364 64.0763 20.364C60.5637 20.364 57.1817 20.7486 53.991 21.6172M53.991 21.6172C40.2256 25.3647 30.0187 38.122 28.2278 67.8791C27.1936 85.063 21.6356 97.6521 15.5605 108.343M15.5605 108.343C14.943 109.43 14.3201 110.497 13.6961 111.547C10.3803 117.128 7.03251 122.236 4.2839 127.294M127.571 106.061C121.467 83.5647 115.21 49.5592 105.864 25.364C95.9424 -0.323385 61.1064 2.99979 61.1064 2.99979C61.1064 2.99979 32.5124 2.11551 23.3488 25.364C13.8367 49.4964 7.68907 83.5492 1.62604 106.061C0.172472 111.795 0.317056 119.68 4.2839 127.294M127.571 106.061C127.771 106.69 127.953 107.345 128.115 108.023M127.571 106.061C127.753 106.73 127.934 107.384 128.115 108.023M125.635 128.618C121.657 136.283 113.606 143.525 99.0155 147.833C90.4531 150.361 79.6385 151.879 66.0733 151.879C51.1652 151.879 39.4611 150.046 30.343 147.053C16.215 142.415 8.29523 134.994 4.2839 127.294M125.635 128.618C129.363 121.435 129.513 113.88 128.115 108.023" stroke="#6CE2DD" stroke-linecap="round" stroke-linejoin="round"/>
<path d="M87.4755 62.4843C87.4755 63.0497 87.0171 63.5081 86.4517 63.5081C85.8862 63.5081 85.4278 63.0497 85.4278 62.4843C85.4278 61.9188 85.8862 61.4604 86.4517 61.4604C87.0171 61.4604 87.4755 61.9188 87.4755 62.4843Z" fill="#6CE2DD"/>
<path d="M87.4755 65.5558C87.4755 65.8789 87.2136 66.1409 86.8905 66.1409C86.5673 66.1409 86.3054 65.8789 86.3054 65.5558C86.3054 65.2327 86.5673 64.9707 86.8905 64.9707C87.2136 64.9707 87.4755 65.2327 87.4755 65.5558Z" fill="#6CE2DD"/>
<path d="M92.4485 64.0932C92.4485 64.901 91.7937 65.5558 90.9859 65.5558C90.1781 65.5558 89.5232 64.901 89.5232 64.0932C89.5232 63.2854 90.1781 62.6305 90.9859 62.6305C91.7937 62.6305 92.4485 63.2854 92.4485 64.0932Z" fill="#6CE2DD"/>
<path d="M80.7817 66.5424C81.1701 62.2174 84.8045 58.8276 89.2307 58.8276C93.3641 58.8276 96.8071 61.7839 97.5607 65.6974C98.6813 65.1864 99.7292 64.6127 100.691 64.0082C100.531 62.2602 100.337 60.5759 100.111 58.9534C87.8157 56.1511 76.893 59.2708 72.5566 61.4605C75.3126 63.9076 78.079 65.5399 80.7817 66.5424Z" fill="#6CE2DD"/>
<path d="M60.037 63.5078C60.037 63.5076 60.037 63.5079 60.037 63.5078C60.6742 63.0632 61.2413 62.6196 61.732 62.1914C57.5135 59.3322 45.211 55.3735 28.7754 61.4143C28.701 62.0812 28.6314 62.758 28.5668 63.4448C31.3867 65.293 34.1737 66.5429 36.8716 67.3243C37.0188 62.7682 40.7585 59.1199 45.3504 59.1199C49.7355 59.1199 53.3435 62.447 53.7877 66.7146C56.2647 65.8163 58.3858 64.6599 60.037 63.5078Z" fill="#6CE2DD"/>
<path d="M49.1533 64.6779C49.1533 65.4857 48.4984 66.1406 47.6906 66.1406C46.8828 66.1406 46.228 65.4857 46.228 64.6779C46.228 63.8701 46.8828 63.2153 47.6906 63.2153C48.4984 63.2153 49.1533 63.8701 49.1533 64.6779Z" fill="#6CE2DD"/>
<path d="M43.0102 62.7765C43.0102 63.3419 42.5518 63.8003 41.9863 63.8003C41.4209 63.8003 40.9625 63.3419 40.9625 62.7765C40.9625 62.211 41.4209 61.7526 41.9863 61.7526C42.5518 61.7526 43.0102 62.211 43.0102 62.7765Z" fill="#6CE2DD"/>
<path d="M43.0102 66.4331C43.0102 66.7562 42.7482 67.0181 42.4251 67.0181C42.102 67.0181 41.8401 66.7562 41.8401 66.4331C41.8401 66.11 42.102 65.848 42.4251 65.848C42.7482 65.848 43.0102 66.11 43.0102 66.4331Z" fill="#6CE2DD"/>
<path d="M72.5556 61.4603L72.8373 61.1431C72.7296 61.0475 72.5808 61.013 72.4421 61.0515C72.3034 61.09 72.1936 61.1963 72.1507 61.3337L72.5556 61.4603ZM74.3108 64.8243L74.4723 64.432V64.432L74.3108 64.8243ZM78.9914 67.6033L79.0196 67.18L78.9914 67.6033ZM100.492 68.9197L100.17 69.1958L100.492 68.9197ZM54.4184 68.4807L54.3882 68.0576L54.4184 68.4807ZM49.0066 70.5284L49.0213 70.9524L49.0066 70.5284ZM41.5472 71.8448L41.6266 71.4281L41.5472 71.8448ZM35.9891 71.8448L35.6334 71.6136L35.9891 71.8448ZM32.3325 75.9402L32.7409 76.0551L32.3325 75.9402ZM32.3325 67.7494L32.0246 68.0412L32.3325 67.7494ZM30.5774 64.6666L30.7848 64.2965C30.6791 64.2373 30.5531 64.2261 30.4386 64.2657L30.5774 64.6666ZM72.7998 64.2204C72.7085 64.0046 72.4596 63.9036 72.2438 63.9949C72.028 64.0862 71.9271 64.3352 72.0184 64.551L72.7998 64.2204ZM100.726 71.2363C100.955 71.1876 101.102 70.9623 101.053 70.7331C101.004 70.5039 100.779 70.3576 100.55 70.4063L100.726 71.2363ZM62.3962 62.9832C62.5103 62.7785 62.437 62.5201 62.2323 62.406C62.0277 62.2919 61.7693 62.3653 61.6552 62.5699L62.3962 62.9832ZM38.339 71.596C38.1207 71.5107 37.8747 71.6186 37.7895 71.8368C37.7043 72.0551 37.8121 72.3011 38.0303 72.3863L38.339 71.596ZM72.5566 61.4605L72.3654 61.0818C72.2399 61.1451 72.154 61.2665 72.1359 61.4058C72.1178 61.5451 72.1698 61.6844 72.2749 61.7777L72.5566 61.4605ZM80.7817 66.5424L80.6342 66.9402L80.7817 66.5424ZM61.732 62.1914L62.0109 62.511C62.1101 62.4245 62.1634 62.2969 62.1554 62.1655C62.1474 62.0342 62.0789 61.914 61.97 61.8402L61.732 62.1914ZM100.984 67.8788L101.407 67.8533V67.8533L100.984 67.8788ZM27.8031 67.8533C27.789 68.0872 27.9672 68.2882 28.2011 68.3023C28.435 68.3163 28.636 68.1381 28.65 67.9043L27.8031 67.8533ZM28.7754 61.4143L28.629 61.0161C28.4781 61.0715 28.3715 61.2075 28.3537 61.3672L28.7754 61.4143ZM100.111 58.9534L100.531 58.8948C100.507 58.7202 100.377 58.5789 100.205 58.5398L100.111 58.9534ZM101.111 69.6945L100.768 69.9441C100.88 70.0978 101.08 70.1583 101.259 70.0924C101.437 70.0264 101.549 69.85 101.534 69.6606L101.111 69.6945ZM100.691 64.009L101.114 63.9703L101.114 63.9657L100.691 64.009ZM72.1507 61.3337C72.0059 61.7971 71.9405 62.527 72.1947 63.2657C72.4553 64.0229 73.0429 64.761 74.1493 65.2166L74.4723 64.432C73.5895 64.0685 73.1777 63.5146 72.997 62.9896C72.81 62.4461 72.8616 61.9036 72.9606 61.5868L72.1507 61.3337ZM74.1493 65.2166C75.3098 65.6945 75.8781 66.297 76.4706 66.8524C76.7675 67.1307 77.0842 67.4098 77.4827 67.6247C77.8877 67.8432 78.3589 67.9863 78.9632 68.0266L79.0196 67.18C78.5269 67.1472 78.1753 67.0343 77.8855 66.878C77.5893 66.7181 77.3391 66.5036 77.0509 66.2334C76.4733 65.6918 75.7982 64.978 74.4723 64.432L74.1493 65.2166ZM78.9632 68.0266C79.9263 68.0908 80.5448 68.5901 81.4183 69.1336C82.2854 69.6732 83.3032 70.1645 84.9049 69.9243L84.779 69.0852C83.4554 69.2837 82.6449 68.8975 81.8665 68.4132C81.0946 67.9329 80.2504 67.2621 79.0196 67.18L78.9632 68.0266ZM84.9049 69.9243C86.2424 69.7237 87.4232 70.1532 88.6559 70.6316C89.8508 71.0953 91.1391 71.6291 92.5214 71.3852L92.3739 70.5496C91.2697 70.7445 90.2178 70.3275 88.9628 69.8406C87.7455 69.3682 86.3668 68.847 84.779 69.0852L84.9049 69.9243ZM92.5214 71.3852C93.2104 71.2636 93.9632 70.9262 94.6989 70.5526C95.4663 70.163 96.1841 69.7516 96.9282 69.3933C97.6607 69.0407 98.3216 68.7905 98.885 68.7364C99.4245 68.6845 99.8417 68.8127 100.17 69.1958L100.814 68.6436C100.265 68.0028 99.5488 67.8202 98.8039 67.8918C98.0829 67.961 97.3086 68.2685 96.5601 68.6289C95.8233 68.9836 95.0145 69.4407 94.3147 69.7961C93.5832 70.1675 92.9282 70.4518 92.3739 70.5496L92.5214 71.3852ZM59.6336 63.3765C59.396 64.1065 58.8387 65.2364 57.9528 66.2053C57.07 67.1708 55.8866 67.9505 54.3882 68.0576L54.4486 68.9039C56.2266 68.7769 57.5985 67.8502 58.579 66.7778C59.5564 65.7088 60.1702 64.4692 60.4404 63.639L59.6336 63.3765ZM54.3882 68.0576C53.3427 68.1322 52.6885 68.2934 52.2435 68.5284C51.7753 68.7755 51.5748 69.0882 51.4166 69.3209C51.2749 69.5292 51.169 69.6747 50.8899 69.8019C50.5802 69.943 50.0345 70.0685 48.992 70.1044L49.0213 70.9524C50.0996 70.9152 50.7789 70.7848 51.2417 70.574C51.735 70.3492 51.9491 70.0467 52.1182 69.798C52.2708 69.5736 52.3719 69.42 52.6396 69.2787C52.9306 69.1251 53.4465 68.9755 54.4486 68.9039L54.3882 68.0576ZM48.992 70.1044C46.7962 70.1802 45.6441 70.6779 44.6793 71.0675C44.2045 71.2592 43.8041 71.4118 43.3429 71.4879C42.8873 71.5632 42.353 71.5664 41.6266 71.4281L41.4678 72.2616C42.2771 72.4157 42.913 72.4189 43.4812 72.3251C44.0439 72.2321 44.5211 72.0464 44.997 71.8542C45.9336 71.476 46.9754 71.023 49.0213 70.9524L48.992 70.1044ZM41.6266 71.4281C40.9093 71.2914 40.3348 71.0523 39.8387 70.8065C39.5863 70.6814 39.363 70.5592 39.1373 70.4408C38.9182 70.3257 38.6979 70.2148 38.4804 70.132C38.0315 69.961 37.5528 69.8948 37.04 70.148C36.5638 70.3832 36.1191 70.8664 35.6334 71.6136L36.3448 72.076C36.8099 71.3605 37.1514 71.0393 37.4157 70.9088C37.6433 70.7964 37.8594 70.8034 38.1783 70.9249C38.3448 70.9883 38.5267 71.0785 38.743 71.192C38.9527 71.3021 39.1979 71.4359 39.4619 71.5667C39.9989 71.8328 40.6493 72.1056 41.4678 72.2616L41.6266 71.4281ZM35.6334 71.6136C35.1107 72.4178 34.9607 73.1374 35.0399 73.8117C35.1165 74.4639 35.4053 75.0352 35.6687 75.5347C35.9441 76.0569 36.1889 76.498 36.2949 76.9759C36.3947 77.4259 36.3705 77.9174 36.0525 78.5216L36.8034 78.9168C37.2166 78.1316 37.2657 77.4346 37.1232 76.7922C36.9869 76.1777 36.6741 75.6224 36.4193 75.139C36.1525 74.633 35.9385 74.1895 35.8826 73.7128C35.8292 73.2581 35.9168 72.7345 36.3448 72.076L35.6334 71.6136ZM36.0525 78.5216C35.3992 79.7629 34.2662 80.0829 33.5137 79.7408C32.7885 79.4112 32.1078 78.3062 32.7409 76.0551L31.9241 75.8253C31.2409 78.2547 31.8766 79.9287 33.1626 80.5132C34.4211 81.0853 35.994 80.4545 36.8034 78.9168L36.0525 78.5216ZM32.7409 76.0551C33.066 74.8995 33.3906 73.9886 33.6589 73.2158C33.9237 72.4532 34.144 71.7978 34.2332 71.1937C34.3251 70.5707 34.2799 69.9921 34.0188 69.3775C33.7638 68.7773 33.313 68.1675 32.6405 67.4576L32.0246 68.0412C32.6685 68.7209 33.0404 69.2446 33.2379 69.7093C33.4293 70.1598 33.4664 70.5776 33.3938 71.0698C33.3184 71.581 33.1274 72.1597 32.8573 72.9375C32.5909 73.705 32.2573 74.6407 31.9241 75.8253L32.7409 76.0551ZM59.7942 63.1598C54.1438 67.1023 42.9078 71.0928 30.7848 64.2965L30.3699 65.0367C42.8615 72.0395 54.4528 67.9214 60.2798 63.8557L59.7942 63.1598ZM32.6405 67.4576C31.5974 66.3566 31.1258 65.6536 30.9435 65.2409C30.851 65.0315 30.8521 64.939 30.8535 64.9265C30.8537 64.9252 30.8506 64.9522 30.8246 64.9877C30.7972 65.0251 30.7579 65.053 30.7162 65.0675L30.4386 64.2657C30.1849 64.3535 30.0394 64.5776 30.0105 64.8302C29.9845 65.0579 30.0478 65.3129 30.1674 65.5837C30.4092 66.1313 30.9615 66.919 32.0246 68.0412L32.6405 67.4576ZM72.0184 64.551C73.7416 68.6239 81.9093 75.2349 100.726 71.2363L100.55 70.4063C81.9232 74.3645 74.2944 67.7531 72.7998 64.2204L72.0184 64.551ZM61.6552 62.5699C60.2726 65.0491 57.436 68.4891 53.4455 70.7138C49.4709 72.9296 44.3498 73.943 38.339 71.596L38.0303 72.3863C44.3057 74.8367 49.6913 73.7781 53.8587 71.4549C58.0102 69.1404 60.9511 65.5744 62.3962 62.9832L61.6552 62.5699ZM92.0243 64.0932C92.0243 64.6666 91.5593 65.1316 90.9859 65.1316V65.98C92.028 65.98 92.8727 65.1353 92.8727 64.0932H92.0243ZM90.9859 65.1316C90.4124 65.1316 89.9475 64.6666 89.9475 64.0932H89.099C89.099 65.1353 89.9438 65.98 90.9859 65.98V65.1316ZM89.9475 64.0932C89.9475 63.5197 90.4124 63.0548 90.9859 63.0548V62.2063C89.9438 62.2063 89.099 63.0511 89.099 64.0932H89.9475ZM90.9859 63.0548C91.5593 63.0548 92.0243 63.5197 92.0243 64.0932H92.8727C92.8727 63.0511 92.028 62.2063 90.9859 62.2063V63.0548ZM87.0513 65.5558C87.0513 65.6446 86.9793 65.7166 86.8905 65.7166V66.5651C87.4479 66.5651 87.8998 66.1132 87.8998 65.5558H87.0513ZM86.8905 65.7166C86.8016 65.7166 86.7296 65.6446 86.7296 65.5558H85.8812C85.8812 66.1132 86.333 66.5651 86.8905 66.5651V65.7166ZM86.7296 65.5558C86.7296 65.467 86.8016 65.395 86.8905 65.395V64.5465C86.333 64.5465 85.8812 64.9984 85.8812 65.5558H86.7296ZM86.8905 65.395C86.9793 65.395 87.0513 65.467 87.0513 65.5558H87.8998C87.8998 64.9984 87.4479 64.5465 86.8905 64.5465V65.395ZM87.0513 62.4843C87.0513 62.8154 86.7828 63.0839 86.4517 63.0839V63.9323C87.2514 63.9323 87.8998 63.284 87.8998 62.4843H87.0513ZM86.4517 63.0839C86.1205 63.0839 85.8521 62.8154 85.8521 62.4843H85.0036C85.0036 63.284 85.6519 63.9323 86.4517 63.9323V63.0839ZM85.8521 62.4843C85.8521 62.1531 86.1205 61.8846 86.4517 61.8846V61.0362C85.6519 61.0362 85.0036 61.6845 85.0036 62.4843H85.8521ZM86.4517 61.8846C86.7828 61.8846 87.0513 62.1531 87.0513 62.4843H87.8998C87.8998 61.6845 87.2514 61.0362 86.4517 61.0362V61.8846ZM89.2307 58.4034C84.583 58.4034 80.767 61.9627 80.3592 66.5045L81.2043 66.5804C81.5732 62.472 85.0261 59.2519 89.2307 59.2519V58.4034ZM80.6342 66.9402C87.0008 69.3018 93.0162 68.2362 97.7368 66.084L97.3849 65.3119C92.8135 67.3961 87.0352 68.4096 80.9293 66.1447L80.6342 66.9402ZM72.2749 61.7777C75.0668 64.2568 77.8781 65.9179 80.6342 66.9402L80.9293 66.1447C78.2799 65.1619 75.5583 63.5585 72.8383 61.1432L72.2749 61.7777ZM48.729 64.6779C48.729 65.2514 48.2641 65.7163 47.6906 65.7163V66.5648C48.7327 66.5648 49.5775 65.72 49.5775 64.6779H48.729ZM47.6906 65.7163C47.1171 65.7163 46.6522 65.2514 46.6522 64.6779H45.8037C45.8037 65.72 46.6485 66.5648 47.6906 66.5648V65.7163ZM46.6522 64.6779C46.6522 64.1044 47.1171 63.6395 47.6906 63.6395V62.791C46.6485 62.791 45.8037 63.6358 45.8037 64.6779H46.6522ZM47.6906 63.6395C48.2641 63.6395 48.729 64.1044 48.729 64.6779H49.5775C49.5775 63.6358 48.7327 62.791 47.6906 62.791V63.6395ZM42.5859 66.4331C42.5859 66.5219 42.5139 66.5939 42.4251 66.5939V67.4424C42.9825 67.4424 43.4344 66.9905 43.4344 66.4331H42.5859ZM42.4251 66.5939C42.3363 66.5939 42.2643 66.5219 42.2643 66.4331H41.4158C41.4158 66.9905 41.8677 67.4424 42.4251 67.4424V66.5939ZM42.2643 66.4331C42.2643 66.3443 42.3363 66.2723 42.4251 66.2723V65.4238C41.8677 65.4238 41.4158 65.8757 41.4158 66.4331H42.2643ZM42.4251 66.2723C42.5139 66.2723 42.5859 66.3443 42.5859 66.4331H43.4344C43.4344 65.8757 42.9825 65.4238 42.4251 65.4238V66.2723ZM42.5859 62.7765C42.5859 63.1076 42.3175 63.3761 41.9863 63.3761V64.2246C42.7861 64.2246 43.4344 63.5762 43.4344 62.7765H42.5859ZM41.9863 63.3761C41.6552 63.3761 41.3867 63.1076 41.3867 62.7765H40.5382C40.5382 63.5762 41.1866 64.2246 41.9863 64.2246V63.3761ZM41.3867 62.7765C41.3867 62.4453 41.6552 62.1769 41.9863 62.1769V61.3284C41.1866 61.3284 40.5382 61.9767 40.5382 62.7765H41.3867ZM41.9863 62.1769C42.3175 62.1769 42.5859 62.4453 42.5859 62.7765H43.4344C43.4344 61.9767 42.7861 61.3284 41.9863 61.3284V62.1769ZM54.2097 66.6707C53.7432 62.1892 49.9551 58.6956 45.3504 58.6956V59.5441C49.5159 59.5441 52.9438 62.7048 53.3658 66.7585L54.2097 66.6707ZM45.3504 58.6956C40.5288 58.6956 36.6021 62.5264 36.4476 67.3106L37.2956 67.338C37.4354 63.01 40.9882 59.5441 45.3504 59.5441V58.6956ZM36.7536 67.7318C43.2434 69.6113 49.2246 68.8207 53.9324 67.1134L53.6431 66.3158C49.0718 67.9735 43.2766 68.7376 36.9896 66.9168L36.7536 67.7318ZM53.9324 67.1134C57.4128 65.8513 60.2078 64.0847 62.0109 62.511L61.453 61.8717C59.7313 63.3743 57.0281 65.0883 53.6431 66.3158L53.9324 67.1134ZM28.65 67.9043C28.7414 66.3867 28.8546 64.9138 28.9892 63.4845L28.1444 63.405C28.009 64.8442 27.895 66.3266 27.8031 67.8533L28.65 67.9043ZM28.9892 63.4845C29.0536 62.8001 29.1229 62.1258 29.197 61.4613L28.3537 61.3672C28.2791 62.0367 28.2093 62.7159 28.1444 63.405L28.9892 63.4845ZM99.6905 59.0121C99.916 60.6276 100.109 62.3053 100.269 64.0469L101.114 63.9695C100.953 62.2152 100.758 60.5242 100.531 58.8948L99.6905 59.0121ZM72.7478 61.8392C77.009 59.6875 87.8311 56.5897 100.016 59.367L100.205 58.5398C87.8003 55.7124 76.7769 58.8542 72.3654 61.0818L72.7478 61.8392ZM61.97 61.8402C57.6294 58.8983 45.1823 54.9321 28.629 61.0161L28.9217 61.8125C45.2397 55.815 57.3976 59.7662 61.4939 62.5426L61.97 61.8402ZM28.3342 63.7996C31.1885 65.6703 34.014 66.9384 36.7536 67.7318L36.9896 66.9168C34.3335 66.1475 31.5849 64.9157 28.7994 63.0899L28.3342 63.7996ZM61.453 61.8717C56.3951 66.2859 43.0279 72.4158 28.7994 63.0899L28.3342 63.7996C42.9813 73.3998 56.7681 67.0866 62.0109 62.511L61.453 61.8717ZM100.269 64.0477C100.384 65.2999 100.481 66.5852 100.56 67.9043L101.407 67.8533C101.328 66.5257 101.23 65.2316 101.114 63.9703L100.269 64.0477ZM100.56 67.9043C100.597 68.5181 100.64 69.1261 100.688 69.7284L101.534 69.6606C101.486 69.0639 101.444 68.4615 101.407 67.8533L100.56 67.9043ZM97.7368 66.084C98.8756 65.5648 99.9399 64.9821 100.917 64.3682L100.466 63.6497C99.5186 64.2448 98.4873 64.8093 97.3849 65.3119L97.7368 66.084ZM101.114 63.9657L101.113 63.9649L100.269 64.0515L100.269 64.0523L101.114 63.9657ZM100.466 63.6497C97.174 65.7176 92.8793 67.4103 88.1104 67.4301C83.3519 67.4499 78.0882 65.8048 72.8383 61.1432L72.2749 61.7777C77.674 66.5718 83.1374 68.2993 88.1139 68.2786C93.08 68.258 97.5282 66.4971 100.917 64.3682L100.466 63.6497ZM100.17 69.1958C100.403 69.4673 100.601 69.7141 100.768 69.9441L101.454 69.4449C101.27 69.1916 101.057 68.9267 100.814 68.6436L100.17 69.1958ZM89.2307 59.2519C93.157 59.2519 96.4283 62.06 97.1441 65.7776L97.9773 65.6172C97.186 61.5077 93.5713 58.4034 89.2307 58.4034V59.2519ZM97.7367 66.0834C98.8755 65.5642 99.9398 64.9814 100.917 64.3675L100.466 63.649C99.5185 64.2441 98.4872 64.8087 97.3847 65.3114L97.7367 66.0834ZM97.3847 65.3114C90.8463 68.2926 81.8033 69.1043 72.8373 61.1431L72.2739 61.7775C81.5392 70.0045 90.9562 69.175 97.7367 66.0834L97.3847 65.3114ZM97.9777 65.6189L97.9776 65.6183L97.1439 65.7764L97.144 65.777L97.9777 65.6189ZM59.6343 63.3744C59.6343 63.3744 59.6343 63.3744 59.6343 63.3744C59.6343 63.3744 59.6343 63.3744 59.6343 63.3744C59.6343 63.3744 59.6343 63.3744 59.6343 63.3744C59.6343 63.3744 59.6343 63.3744 59.6343 63.3744C59.6343 63.3744 59.6343 63.3744 59.6343 63.3744C59.6343 63.3744 59.6343 63.3744 59.6343 63.3744C59.6343 63.3744 59.6343 63.3744 59.6343 63.3744V63.3744C59.6343 63.3744 59.6343 63.3744 59.6343 63.3744C59.6343 63.3744 59.6343 63.3744 59.6343 63.3744C59.6343 63.3744 59.6343 63.3744 59.6343 63.3744C59.9036 63.9105 60.4397 63.6412 60.4397 63.6412C60.4397 63.6412 60.4397 63.6412 60.4397 63.6412C60.4397 63.6412 60.4397 63.6412 60.4397 63.6412C60.4397 63.6412 60.4397 63.6412 60.4397 63.6412C60.4397 63.6412 60.4397 63.6412 60.4397 63.6412C60.4397 63.6411 60.4397 63.6412 60.4397 63.6412C60.4398 63.641 60.4397 63.6413 60.4397 63.6411C60.4397 63.6411 60.4397 63.6411 60.4397 63.6411C60.4397 63.6411 60.4397 63.6411 60.4397 63.6411C60.4397 63.6411 60.4397 63.6411 60.4397 63.6411C60.4397 63.6411 60.4397 63.6411 60.4397 63.6411C60.4397 63.6411 59.9036 63.9104 59.6343 63.3743C59.6343 63.3743 59.6343 63.3743 59.6343 63.3743C59.6343 63.3743 59.6343 63.3743 59.6343 63.3743C59.6343 63.3743 59.6343 63.3743 59.6343 63.3743C59.6343 63.3744 59.6343 63.3743 59.6343 63.3743C59.6342 63.3745 59.6343 63.3743 59.6343 63.3744L60.4397 63.6411C60.4397 63.6411 60.4397 63.6411 60.4397 63.6411C60.4397 63.6411 60.4397 63.6411 60.4397 63.6411C60.4397 63.6411 60.4397 63.6411 60.4397 63.6411C60.4397 63.6411 60.4397 63.6411 60.4397 63.6411C60.1704 63.105 59.6343 63.3743 59.6343 63.3743C59.6343 63.3743 59.6343 63.3743 59.6343 63.3743C59.6343 63.3743 59.6343 63.3743 59.6343 63.3743C59.6343 63.3744 59.6343 63.3743 59.6343 63.3743C59.6343 63.3744 59.6343 63.3744 59.6343 63.3744C59.6343 63.3744 59.6343 63.3744 59.6343 63.3744C59.6343 63.3744 59.6343 63.3744 59.6343 63.3744C59.6343 63.3744 59.6343 63.3744 59.6343 63.3744C59.6343 63.3744 59.6343 63.3744 59.6343 63.3744C59.6343 63.3744 59.6343 63.3744 59.6343 63.3744C59.6343 63.3744 59.6343 63.3744 59.6343 63.3744V63.3744C59.6343 63.3744 59.6343 63.3744 59.6343 63.3744C59.6343 63.3744 59.6343 63.3744 59.6343 63.3744C59.6343 63.3744 59.6343 63.3744 59.6343 63.3744C59.6343 63.3744 59.6343 63.3744 59.6343 63.3744C59.6343 63.3744 59.6343 63.3744 59.6343 63.3744C59.6343 63.3744 59.6343 63.3744 59.6343 63.3744C59.6343 63.3744 59.6343 63.3744 59.6343 63.3744C59.6343 63.3744 59.6343 63.3744 59.6343 63.3744C59.6343 63.3744 59.6343 63.3744 59.6343 63.3744C59.6343 63.3744 59.6343 63.3744 59.6343 63.3744C59.6343 63.3744 59.6343 63.3744 59.6343 63.3744C59.6343 63.3744 59.6343 63.3744 59.6343 63.3744C59.6343 63.3744 59.6343 63.3744 59.6343 63.3744C59.6343 63.3744 59.6343 63.3744 59.6343 63.3744V63.3744C59.6343 63.3744 60.1704 63.1051 60.4397 63.6412C60.4397 63.6412 60.4397 63.6412 60.4397 63.6412C60.4397 63.6412 60.4397 63.6412 60.4397 63.6412C60.4397 63.6412 60.4397 63.6412 60.4397 63.6412C60.4397 63.6412 60.4397 63.6412 60.4397 63.6412C60.4397 63.6411 60.4397 63.6412 60.4397 63.6412C60.4397 63.6411 60.4397 63.6412 60.4397 63.6411L59.6343 63.3744ZM60.2797 63.8557C60.9285 63.4031 61.5078 62.9502 62.0109 62.511L61.453 61.8717C60.9748 62.2891 60.4199 62.7233 59.7942 63.1598L60.2797 63.8557ZM53.9324 67.1134C56.4452 66.2021 58.5991 65.0283 60.2798 63.8557L59.7942 63.1598C58.1724 64.2914 56.0843 65.4305 53.6431 66.3158L53.9324 67.1134Z" fill="#6CE2DD"/>
<defs>
<filter id="filter0_f_346_17504" x="29.0764" y="78.2874" width="78.5776" height="18.7173" filterUnits="userSpaceOnUse" color-interpolation-filters="sRGB">
<feFlood flood-opacity="0" result="BackgroundImageFix"/>
<feBlend mode="normal" in="SourceGraphic" in2="BackgroundImageFix" result="shape"/>
<feGaussianBlur stdDeviation="0.73132" result="effect1_foregroundBlur_346_17504"/>
</filter>
<filter id="filter1_f_346_17504" x="72.7014" y="41.7991" width="27.9643" height="13.5249" filterUnits="userSpaceOnUse" color-interpolation-filters="sRGB">
<feFlood flood-opacity="0" result="BackgroundImageFix"/>
<feBlend mode="normal" in="SourceGraphic" in2="BackgroundImageFix" result="shape"/>
<feGaussianBlur stdDeviation="0.73132" result="effect1_foregroundBlur_346_17504"/>
</filter>
<filter id="filter2_f_346_17504" x="28.094" y="43.5217" width="34.6811" height="16.1518" filterUnits="userSpaceOnUse" color-interpolation-filters="sRGB">
<feFlood flood-opacity="0" result="BackgroundImageFix"/>
<feBlend mode="normal" in="SourceGraphic" in2="BackgroundImageFix" result="shape"/>
<feGaussianBlur stdDeviation="0.73132" result="effect1_foregroundBlur_346_17504"/>
</filter>
</defs>
</svg>
