<svg width="20" height="20" viewBox="0 0 20 20" fill="none" xmlns="http://www.w3.org/2000/svg">
<g filter="url(#filter0_dd_192_28344)">
<g clip-path="url(#clip0_192_28344)">
<g filter="url(#filter1_dd_192_28344)">
<mask id="path-2-inside-1_192_28344" fill="white">
<path fill-rule="evenodd" clip-rule="evenodd" d="M18.4 10C18.4 14.6392 14.6392 18.4 10 18.4C5.36081 18.4 1.6 14.6392 1.6 10C1.6 5.36081 5.36081 1.6 10 1.6C14.6392 1.6 18.4 5.36081 18.4 10ZM19 10C19 14.9706 14.9706 19 10 19C5.02944 19 1 14.9706 1 10C1 5.02944 5.02944 1 10 1C14.9706 1 19 5.02944 19 10ZM11.9586 2.69967C10.6767 2.3562 9.32705 2.3562 8.04522 2.69967L8.20014 3.27785C7.00227 3.59795 5.93169 4.22961 5.08051 5.08069L4.65616 4.65634C3.71779 5.59471 3.04296 6.76356 2.69949 8.0454L3.2773 8.20022C3.12363 8.77503 3.04171 9.37916 3.04171 10.0024C3.04171 10.6254 3.12357 11.2294 3.27712 11.804L2.69949 11.9587C3.04296 13.2406 3.71779 14.4094 4.65616 15.3478L5.08015 14.9238C5.93135 15.775 7.002 16.4068 8.19996 16.727L8.04522 17.3045C9.32705 17.6479 10.6767 17.6479 11.9586 17.3045L11.8038 16.7269C13.0017 16.4067 14.0723 15.7749 14.9234 14.9236L15.3476 15.3478C16.286 14.4094 16.9608 13.2406 17.3043 11.9587L16.7263 11.8039C16.8799 11.2293 16.9617 10.6254 16.9617 10.0024C16.9617 9.3792 16.8798 8.7751 16.7261 8.20031L17.3043 8.0454C16.9608 6.76356 16.286 5.59471 15.3476 4.65634L14.9231 5.08088C14.072 4.22978 13.0014 3.5981 11.8036 3.27794L11.9586 2.69967ZM7.36202 5.86085H8.32202V14.1408H7.36202V5.86085ZM9.52197 5.86085H10.482V14.1408H9.52197V5.86085ZM12.6419 5.86085H11.6819V14.1408H12.6419V5.86085Z"/>
</mask>
<path fill-rule="evenodd" clip-rule="evenodd" d="M18.4 10C18.4 14.6392 14.6392 18.4 10 18.4C5.36081 18.4 1.6 14.6392 1.6 10C1.6 5.36081 5.36081 1.6 10 1.6C14.6392 1.6 18.4 5.36081 18.4 10ZM19 10C19 14.9706 14.9706 19 10 19C5.02944 19 1 14.9706 1 10C1 5.02944 5.02944 1 10 1C14.9706 1 19 5.02944 19 10ZM11.9586 2.69967C10.6767 2.3562 9.32705 2.3562 8.04522 2.69967L8.20014 3.27785C7.00227 3.59795 5.93169 4.22961 5.08051 5.08069L4.65616 4.65634C3.71779 5.59471 3.04296 6.76356 2.69949 8.0454L3.2773 8.20022C3.12363 8.77503 3.04171 9.37916 3.04171 10.0024C3.04171 10.6254 3.12357 11.2294 3.27712 11.804L2.69949 11.9587C3.04296 13.2406 3.71779 14.4094 4.65616 15.3478L5.08015 14.9238C5.93135 15.775 7.002 16.4068 8.19996 16.727L8.04522 17.3045C9.32705 17.6479 10.6767 17.6479 11.9586 17.3045L11.8038 16.7269C13.0017 16.4067 14.0723 15.7749 14.9234 14.9236L15.3476 15.3478C16.286 14.4094 16.9608 13.2406 17.3043 11.9587L16.7263 11.8039C16.8799 11.2293 16.9617 10.6254 16.9617 10.0024C16.9617 9.3792 16.8798 8.7751 16.7261 8.20031L17.3043 8.0454C16.9608 6.76356 16.286 5.59471 15.3476 4.65634L14.9231 5.08088C14.072 4.22978 13.0014 3.5981 11.8036 3.27794L11.9586 2.69967ZM7.36202 5.86085H8.32202V14.1408H7.36202V5.86085ZM9.52197 5.86085H10.482V14.1408H9.52197V5.86085ZM12.6419 5.86085H11.6819V14.1408H12.6419V5.86085Z" fill="url(#paint0_radial_192_28344)"/>
<path d="M8.04522 2.69967L8.0273 2.6328L7.96043 2.65071L7.97834 2.71759L8.04522 2.69967ZM11.9586 2.69967L12.0254 2.71759L12.0433 2.65071L11.9765 2.6328L11.9586 2.69967ZM8.20014 3.27785L8.21801 3.34473L8.28494 3.32685L8.26701 3.25993L8.20014 3.27785ZM5.08051 5.08069L5.03156 5.12965L5.08051 5.1786L5.12946 5.12965L5.08051 5.08069ZM4.65616 4.65634L4.70511 4.60739L4.65616 4.55843L4.60721 4.60739L4.65616 4.65634ZM2.69949 8.0454L2.63262 8.02748L2.6147 8.09435L2.68157 8.11227L2.69949 8.0454ZM3.2773 8.20022L3.34418 8.2181L3.36205 8.15126L3.29522 8.13335L3.2773 8.20022ZM3.27712 11.804L3.29504 11.8708L3.36186 11.8529L3.344 11.7861L3.27712 11.804ZM2.69949 11.9587L2.68157 11.8919L2.6147 11.9098L2.63262 11.9767L2.69949 11.9587ZM4.65616 15.3478L4.60721 15.3967L4.65616 15.4457L4.70511 15.3967L4.65616 15.3478ZM5.08015 14.9238L5.12911 14.8748L5.08016 14.8259L5.0312 14.8748L5.08015 14.9238ZM8.19996 16.727L8.26683 16.7449L8.28476 16.678L8.21783 16.6601L8.19996 16.727ZM8.04522 17.3045L7.97834 17.2865L7.96043 17.3534L8.0273 17.3713L8.04522 17.3045ZM11.9586 17.3045L11.9765 17.3713L12.0433 17.3534L12.0254 17.2865L11.9586 17.3045ZM11.8038 16.7269L11.7859 16.66L11.719 16.6779L11.7369 16.7448L11.8038 16.7269ZM14.9234 14.9236L14.9724 14.8747L14.9234 14.8257L14.8745 14.8747L14.9234 14.9236ZM15.3476 15.3478L15.2987 15.3967L15.3476 15.4457L15.3966 15.3967L15.3476 15.3478ZM17.3043 11.9587L17.3712 11.9767L17.3891 11.9098L17.3222 11.8919L17.3043 11.9587ZM16.7263 11.8039L16.6594 11.786L16.6416 11.8528L16.7084 11.8707L16.7263 11.8039ZM16.7261 8.20031L16.7082 8.13344L16.6414 8.15135L16.6593 8.21819L16.7261 8.20031ZM17.3043 8.0454L17.3222 8.11227L17.3891 8.09435L17.3712 8.02748L17.3043 8.0454ZM15.3476 4.65634L15.3966 4.60739L15.3476 4.55843L15.2987 4.60739L15.3476 4.65634ZM14.9231 5.08088L14.8741 5.12983L14.9231 5.17878L14.972 5.12983L14.9231 5.08088ZM11.8036 3.27794L11.7367 3.26002L11.7188 3.32693L11.7857 3.34482L11.8036 3.27794ZM8.32202 5.86085H8.39125V5.79162H8.32202V5.86085ZM7.36202 5.86085V5.79162H7.29279V5.86085H7.36202ZM8.32202 14.1408V14.2101H8.39125V14.1408H8.32202ZM7.36202 14.1408H7.29279V14.2101H7.36202V14.1408ZM10.482 5.86085H10.5512V5.79162H10.482V5.86085ZM9.52197 5.86085V5.79162H9.45273V5.86085H9.52197ZM10.482 14.1408V14.2101H10.5512V14.1408H10.482ZM9.52197 14.1408H9.45273V14.2101H9.52197V14.1408ZM11.6819 5.86085V5.79162H11.6127V5.86085H11.6819ZM12.6419 5.86085H12.7111V5.79162H12.6419V5.86085ZM11.6819 14.1408H11.6127V14.2101H11.6819V14.1408ZM12.6419 14.1408V14.2101H12.7111V14.1408H12.6419ZM10 18.4692C14.6774 18.4692 18.4692 14.6774 18.4692 10H18.3308C18.3308 14.601 14.601 18.3308 10 18.3308V18.4692ZM1.53077 10C1.53077 14.6774 5.32257 18.4692 10 18.4692V18.3308C5.39904 18.3308 1.66923 14.601 1.66923 10H1.53077ZM10 1.53077C5.32257 1.53077 1.53077 5.32257 1.53077 10H1.66923C1.66923 5.39904 5.39904 1.66923 10 1.66923V1.53077ZM18.4692 10C18.4692 5.32257 14.6774 1.53077 10 1.53077V1.66923C14.601 1.66923 18.3308 5.39904 18.3308 10H18.4692ZM10 19.0692C15.0088 19.0692 19.0692 15.0088 19.0692 10H18.9308C18.9308 14.9323 14.9323 18.9308 10 18.9308V19.0692ZM0.930769 10C0.930769 15.0088 4.9912 19.0692 10 19.0692V18.9308C5.06767 18.9308 1.06923 14.9323 1.06923 10H0.930769ZM10 0.930769C4.9912 0.930769 0.930769 4.9912 0.930769 10H1.06923C1.06923 5.06767 5.06767 1.06923 10 1.06923V0.930769ZM19.0692 10C19.0692 4.9912 15.0088 0.930769 10 0.930769V1.06923C14.9323 1.06923 18.9308 5.06767 18.9308 10H19.0692ZM8.06313 2.76654C9.33323 2.42622 10.6705 2.42622 11.9406 2.76654L11.9765 2.6328C10.6829 2.28618 9.32087 2.28618 8.0273 2.6328L8.06313 2.76654ZM8.26701 3.25993L8.11209 2.68175L7.97834 2.71759L8.13327 3.29577L8.26701 3.25993ZM5.12946 5.12965C5.97225 4.28696 7.03219 3.66162 8.21801 3.34473L8.18227 3.21096C6.97236 3.53429 5.89113 4.17226 5.03156 5.03174L5.12946 5.12965ZM4.60721 4.70529L5.03156 5.12965L5.12947 5.03174L4.70511 4.60739L4.60721 4.70529ZM2.76636 8.06331C3.10668 6.79321 3.77534 5.63507 4.70511 4.70529L4.60721 4.60739C3.66024 5.55435 2.97923 6.7339 2.63262 8.02748L2.76636 8.06331ZM3.29522 8.13335L2.71741 7.97852L2.68157 8.11227L3.25938 8.26709L3.29522 8.13335ZM3.11094 10.0024C3.11094 9.38525 3.19206 8.78713 3.34418 8.2181L3.21042 8.18234C3.0552 8.76293 2.97248 9.37307 2.97248 10.0024H3.11094ZM3.344 11.7861C3.19199 11.2173 3.11094 10.6194 3.11094 10.0024H2.97248C2.97248 10.6315 3.05514 11.2414 3.21023 11.8218L3.344 11.7861ZM2.71741 12.0256L3.29504 11.8708L3.2592 11.7371L2.68157 11.8919L2.71741 12.0256ZM4.70511 15.2988C3.77534 14.3691 3.10668 13.2109 2.76636 11.9408L2.63262 11.9767C2.97923 13.2702 3.66024 14.4498 4.60721 15.3967L4.70511 15.2988ZM5.0312 14.8748L4.60721 15.2988L4.70511 15.3967L5.12911 14.9728L5.0312 14.8748ZM8.21783 16.6601C7.03191 16.3431 5.97191 15.7177 5.12911 14.8748L5.0312 14.9728C5.89079 15.8324 6.97208 16.4705 8.18208 16.7938L8.21783 16.6601ZM8.11209 17.3224L8.26683 16.7449L8.13309 16.709L7.97834 17.2865L8.11209 17.3224ZM11.9406 17.2376C10.6705 17.5779 9.33323 17.5779 8.06313 17.2376L8.0273 17.3713C9.32087 17.718 10.6829 17.718 11.9765 17.3713L11.9406 17.2376ZM11.7369 16.7448L11.8917 17.3224L12.0254 17.2865L11.8707 16.709L11.7369 16.7448ZM14.8745 14.8747C14.0317 15.7175 12.9718 16.343 11.7859 16.66L11.8217 16.7938C13.0316 16.4703 14.1129 15.8322 14.9724 14.9726L14.8745 14.8747ZM15.3966 15.2988L14.9724 14.8747L14.8745 14.9726L15.2987 15.3967L15.3966 15.2988ZM17.2374 11.9408C16.8971 13.2109 16.2284 14.3691 15.2987 15.2988L15.3966 15.3967C16.3435 14.4498 17.0245 13.2702 17.3712 11.9767L17.2374 11.9408ZM16.7084 11.8707L17.2864 12.0256L17.3222 11.8919L16.7442 11.737L16.7084 11.8707ZM16.8925 10.0024C16.8925 10.6193 16.8114 11.2172 16.6594 11.786L16.7932 11.8217C16.9483 11.2414 17.0309 10.6315 17.0309 10.0024H16.8925ZM16.6593 8.21819C16.8114 8.7872 16.8925 9.38529 16.8925 10.0024H17.0309C17.0309 9.37311 16.9482 8.763 16.793 8.18243L16.6593 8.21819ZM17.2864 7.97853L16.7082 8.13344L16.7441 8.26718L17.3222 8.11227L17.2864 7.97853ZM15.2987 4.7053C16.2284 5.63507 16.8971 6.79322 17.2374 8.06332L17.3712 8.02748C17.0245 6.7339 16.3435 5.55435 15.3966 4.60739L15.2987 4.7053ZM14.972 5.12983L15.3966 4.7053L15.2987 4.60739L14.8741 5.03192L14.972 5.12983ZM11.7857 3.34482C12.9715 3.66176 14.0314 4.28713 14.8741 5.12983L14.972 5.03192C14.1125 4.17243 13.0313 3.53443 11.8215 3.21106L11.7857 3.34482ZM11.8917 2.68175L11.7367 3.26002L11.8705 3.29586L12.0254 2.71759L11.8917 2.68175ZM8.32202 5.79162H7.36202V5.93008H8.32202V5.79162ZM8.39125 14.1408V5.86085H8.25279V14.1408H8.39125ZM7.36202 14.2101H8.32202V14.0716H7.36202V14.2101ZM7.29279 5.86085V14.1408H7.43125V5.86085H7.29279ZM10.482 5.79162H9.52197V5.93008H10.482V5.79162ZM10.5512 14.1408V5.86085H10.4127V14.1408H10.5512ZM9.52197 14.2101H10.482V14.0716H9.52197V14.2101ZM9.45273 5.86085V14.1408H9.5912V5.86085H9.45273ZM11.6819 5.93008H12.6419V5.79162H11.6819V5.93008ZM11.7511 14.1408V5.86085H11.6127V14.1408H11.7511ZM12.6419 14.0716H11.6819V14.2101H12.6419V14.0716ZM12.5727 5.86085V14.1408H12.7111V5.86085H12.5727Z" fill="black" mask="url(#path-2-inside-1_192_28344)"/>
<path d="M8.04522 2.69967L8.0273 2.6328L7.96043 2.65071L7.97834 2.71759L8.04522 2.69967ZM11.9586 2.69967L12.0254 2.71759L12.0433 2.65071L11.9765 2.6328L11.9586 2.69967ZM8.20014 3.27785L8.21801 3.34473L8.28494 3.32685L8.26701 3.25993L8.20014 3.27785ZM5.08051 5.08069L5.03156 5.12965L5.08051 5.1786L5.12946 5.12965L5.08051 5.08069ZM4.65616 4.65634L4.70511 4.60739L4.65616 4.55843L4.60721 4.60739L4.65616 4.65634ZM2.69949 8.0454L2.63262 8.02748L2.6147 8.09435L2.68157 8.11227L2.69949 8.0454ZM3.2773 8.20022L3.34418 8.2181L3.36205 8.15126L3.29522 8.13335L3.2773 8.20022ZM3.27712 11.804L3.29504 11.8708L3.36186 11.8529L3.344 11.7861L3.27712 11.804ZM2.69949 11.9587L2.68157 11.8919L2.6147 11.9098L2.63262 11.9767L2.69949 11.9587ZM4.65616 15.3478L4.60721 15.3967L4.65616 15.4457L4.70511 15.3967L4.65616 15.3478ZM5.08015 14.9238L5.12911 14.8748L5.08016 14.8259L5.0312 14.8748L5.08015 14.9238ZM8.19996 16.727L8.26683 16.7449L8.28476 16.678L8.21783 16.6601L8.19996 16.727ZM8.04522 17.3045L7.97834 17.2865L7.96043 17.3534L8.0273 17.3713L8.04522 17.3045ZM11.9586 17.3045L11.9765 17.3713L12.0433 17.3534L12.0254 17.2865L11.9586 17.3045ZM11.8038 16.7269L11.7859 16.66L11.719 16.6779L11.7369 16.7448L11.8038 16.7269ZM14.9234 14.9236L14.9724 14.8747L14.9234 14.8257L14.8745 14.8747L14.9234 14.9236ZM15.3476 15.3478L15.2987 15.3967L15.3476 15.4457L15.3966 15.3967L15.3476 15.3478ZM17.3043 11.9587L17.3712 11.9767L17.3891 11.9098L17.3222 11.8919L17.3043 11.9587ZM16.7263 11.8039L16.6594 11.786L16.6416 11.8528L16.7084 11.8707L16.7263 11.8039ZM16.7261 8.20031L16.7082 8.13344L16.6414 8.15135L16.6593 8.21819L16.7261 8.20031ZM17.3043 8.0454L17.3222 8.11227L17.3891 8.09435L17.3712 8.02748L17.3043 8.0454ZM15.3476 4.65634L15.3966 4.60739L15.3476 4.55843L15.2987 4.60739L15.3476 4.65634ZM14.9231 5.08088L14.8741 5.12983L14.9231 5.17878L14.972 5.12983L14.9231 5.08088ZM11.8036 3.27794L11.7367 3.26002L11.7188 3.32693L11.7857 3.34482L11.8036 3.27794ZM8.32202 5.86085H8.39125V5.79162H8.32202V5.86085ZM7.36202 5.86085V5.79162H7.29279V5.86085H7.36202ZM8.32202 14.1408V14.2101H8.39125V14.1408H8.32202ZM7.36202 14.1408H7.29279V14.2101H7.36202V14.1408ZM10.482 5.86085H10.5512V5.79162H10.482V5.86085ZM9.52197 5.86085V5.79162H9.45273V5.86085H9.52197ZM10.482 14.1408V14.2101H10.5512V14.1408H10.482ZM9.52197 14.1408H9.45273V14.2101H9.52197V14.1408ZM11.6819 5.86085V5.79162H11.6127V5.86085H11.6819ZM12.6419 5.86085H12.7111V5.79162H12.6419V5.86085ZM11.6819 14.1408H11.6127V14.2101H11.6819V14.1408ZM12.6419 14.1408V14.2101H12.7111V14.1408H12.6419ZM10 18.4692C14.6774 18.4692 18.4692 14.6774 18.4692 10H18.3308C18.3308 14.601 14.601 18.3308 10 18.3308V18.4692ZM1.53077 10C1.53077 14.6774 5.32257 18.4692 10 18.4692V18.3308C5.39904 18.3308 1.66923 14.601 1.66923 10H1.53077ZM10 1.53077C5.32257 1.53077 1.53077 5.32257 1.53077 10H1.66923C1.66923 5.39904 5.39904 1.66923 10 1.66923V1.53077ZM18.4692 10C18.4692 5.32257 14.6774 1.53077 10 1.53077V1.66923C14.601 1.66923 18.3308 5.39904 18.3308 10H18.4692ZM10 19.0692C15.0088 19.0692 19.0692 15.0088 19.0692 10H18.9308C18.9308 14.9323 14.9323 18.9308 10 18.9308V19.0692ZM0.930769 10C0.930769 15.0088 4.9912 19.0692 10 19.0692V18.9308C5.06767 18.9308 1.06923 14.9323 1.06923 10H0.930769ZM10 0.930769C4.9912 0.930769 0.930769 4.9912 0.930769 10H1.06923C1.06923 5.06767 5.06767 1.06923 10 1.06923V0.930769ZM19.0692 10C19.0692 4.9912 15.0088 0.930769 10 0.930769V1.06923C14.9323 1.06923 18.9308 5.06767 18.9308 10H19.0692ZM8.06313 2.76654C9.33323 2.42622 10.6705 2.42622 11.9406 2.76654L11.9765 2.6328C10.6829 2.28618 9.32087 2.28618 8.0273 2.6328L8.06313 2.76654ZM8.26701 3.25993L8.11209 2.68175L7.97834 2.71759L8.13327 3.29577L8.26701 3.25993ZM5.12946 5.12965C5.97225 4.28696 7.03219 3.66162 8.21801 3.34473L8.18227 3.21096C6.97236 3.53429 5.89113 4.17226 5.03156 5.03174L5.12946 5.12965ZM4.60721 4.70529L5.03156 5.12965L5.12947 5.03174L4.70511 4.60739L4.60721 4.70529ZM2.76636 8.06331C3.10668 6.79321 3.77534 5.63507 4.70511 4.70529L4.60721 4.60739C3.66024 5.55435 2.97923 6.7339 2.63262 8.02748L2.76636 8.06331ZM3.29522 8.13335L2.71741 7.97852L2.68157 8.11227L3.25938 8.26709L3.29522 8.13335ZM3.11094 10.0024C3.11094 9.38525 3.19206 8.78713 3.34418 8.2181L3.21042 8.18234C3.0552 8.76293 2.97248 9.37307 2.97248 10.0024H3.11094ZM3.344 11.7861C3.19199 11.2173 3.11094 10.6194 3.11094 10.0024H2.97248C2.97248 10.6315 3.05514 11.2414 3.21023 11.8218L3.344 11.7861ZM2.71741 12.0256L3.29504 11.8708L3.2592 11.7371L2.68157 11.8919L2.71741 12.0256ZM4.70511 15.2988C3.77534 14.3691 3.10668 13.2109 2.76636 11.9408L2.63262 11.9767C2.97923 13.2702 3.66024 14.4498 4.60721 15.3967L4.70511 15.2988ZM5.0312 14.8748L4.60721 15.2988L4.70511 15.3967L5.12911 14.9728L5.0312 14.8748ZM8.21783 16.6601C7.03191 16.3431 5.97191 15.7177 5.12911 14.8748L5.0312 14.9728C5.89079 15.8324 6.97208 16.4705 8.18208 16.7938L8.21783 16.6601ZM8.11209 17.3224L8.26683 16.7449L8.13309 16.709L7.97834 17.2865L8.11209 17.3224ZM11.9406 17.2376C10.6705 17.5779 9.33323 17.5779 8.06313 17.2376L8.0273 17.3713C9.32087 17.718 10.6829 17.718 11.9765 17.3713L11.9406 17.2376ZM11.7369 16.7448L11.8917 17.3224L12.0254 17.2865L11.8707 16.709L11.7369 16.7448ZM14.8745 14.8747C14.0317 15.7175 12.9718 16.343 11.7859 16.66L11.8217 16.7938C13.0316 16.4703 14.1129 15.8322 14.9724 14.9726L14.8745 14.8747ZM15.3966 15.2988L14.9724 14.8747L14.8745 14.9726L15.2987 15.3967L15.3966 15.2988ZM17.2374 11.9408C16.8971 13.2109 16.2284 14.3691 15.2987 15.2988L15.3966 15.3967C16.3435 14.4498 17.0245 13.2702 17.3712 11.9767L17.2374 11.9408ZM16.7084 11.8707L17.2864 12.0256L17.3222 11.8919L16.7442 11.737L16.7084 11.8707ZM16.8925 10.0024C16.8925 10.6193 16.8114 11.2172 16.6594 11.786L16.7932 11.8217C16.9483 11.2414 17.0309 10.6315 17.0309 10.0024H16.8925ZM16.6593 8.21819C16.8114 8.7872 16.8925 9.38529 16.8925 10.0024H17.0309C17.0309 9.37311 16.9482 8.763 16.793 8.18243L16.6593 8.21819ZM17.2864 7.97853L16.7082 8.13344L16.7441 8.26718L17.3222 8.11227L17.2864 7.97853ZM15.2987 4.7053C16.2284 5.63507 16.8971 6.79322 17.2374 8.06332L17.3712 8.02748C17.0245 6.7339 16.3435 5.55435 15.3966 4.60739L15.2987 4.7053ZM14.972 5.12983L15.3966 4.7053L15.2987 4.60739L14.8741 5.03192L14.972 5.12983ZM11.7857 3.34482C12.9715 3.66176 14.0314 4.28713 14.8741 5.12983L14.972 5.03192C14.1125 4.17243 13.0313 3.53443 11.8215 3.21106L11.7857 3.34482ZM11.8917 2.68175L11.7367 3.26002L11.8705 3.29586L12.0254 2.71759L11.8917 2.68175ZM8.32202 5.79162H7.36202V5.93008H8.32202V5.79162ZM8.39125 14.1408V5.86085H8.25279V14.1408H8.39125ZM7.36202 14.2101H8.32202V14.0716H7.36202V14.2101ZM7.29279 5.86085V14.1408H7.43125V5.86085H7.29279ZM10.482 5.79162H9.52197V5.93008H10.482V5.79162ZM10.5512 14.1408V5.86085H10.4127V14.1408H10.5512ZM9.52197 14.2101H10.482V14.0716H9.52197V14.2101ZM9.45273 5.86085V14.1408H9.5912V5.86085H9.45273ZM11.6819 5.93008H12.6419V5.79162H11.6819V5.93008ZM11.7511 14.1408V5.86085H11.6127V14.1408H11.7511ZM12.6419 14.0716H11.6819V14.2101H12.6419V14.0716ZM12.5727 5.86085V14.1408H12.7111V5.86085H12.5727Z" fill="url(#paint1_radial_192_28344)" mask="url(#path-2-inside-1_192_28344)"/>
</g>
<mask id="mask0_192_28344" style="mask-type:alpha" maskUnits="userSpaceOnUse" x="1" y="1" width="18" height="18">
<path fill-rule="evenodd" clip-rule="evenodd" d="M18.4 10C18.4 14.6392 14.6392 18.4 10 18.4C5.36081 18.4 1.6 14.6392 1.6 10C1.6 5.36081 5.36081 1.6 10 1.6C14.6392 1.6 18.4 5.36081 18.4 10ZM19 10C19 14.9706 14.9706 19 10 19C5.02944 19 1 14.9706 1 10C1 5.02944 5.02944 1 10 1C14.9706 1 19 5.02944 19 10ZM11.9586 2.69967C10.6767 2.3562 9.32705 2.3562 8.04522 2.69967L8.20014 3.27785C7.00227 3.59795 5.93169 4.22961 5.08051 5.08069L4.65616 4.65634C3.71779 5.59471 3.04296 6.76356 2.69949 8.0454L3.2773 8.20022C3.12363 8.77503 3.04171 9.37916 3.04171 10.0024C3.04171 10.6254 3.12357 11.2294 3.27712 11.804L2.69949 11.9587C3.04296 13.2406 3.71779 14.4094 4.65616 15.3478L5.08015 14.9238C5.93135 15.775 7.002 16.4068 8.19996 16.727L8.04522 17.3045C9.32705 17.6479 10.6767 17.6479 11.9586 17.3045L11.8038 16.7269C13.0017 16.4067 14.0723 15.7749 14.9234 14.9236L15.3476 15.3478C16.286 14.4094 16.9608 13.2406 17.3043 11.9587L16.7263 11.8039C16.8799 11.2293 16.9617 10.6254 16.9617 10.0024C16.9617 9.3792 16.8798 8.7751 16.7261 8.20031L17.3043 8.0454C16.9608 6.76356 16.286 5.59471 15.3476 4.65634L14.9231 5.08088C14.072 4.22978 13.0014 3.5981 11.8036 3.27794L11.9586 2.69967ZM7.36202 5.86085H8.32202V14.1408H7.36202V5.86085ZM9.52197 5.86085H10.482V14.1408H9.52197V5.86085ZM12.6419 5.86085H11.6819V14.1408H12.6419V5.86085Z" fill="#C4C4C4"/>
</mask>
<g mask="url(#mask0_192_28344)">
<g filter="url(#filter2_f_192_28344)">
<mask id="path-5-inside-2_192_28344" fill="white">
<path fill-rule="evenodd" clip-rule="evenodd" d="M18.4 10C18.4 14.6392 14.6392 18.4 10 18.4C5.36081 18.4 1.6 14.6392 1.6 10C1.6 5.36081 5.36081 1.6 10 1.6C14.6392 1.6 18.4 5.36081 18.4 10ZM19 10C19 14.9706 14.9706 19 10 19C5.02944 19 1 14.9706 1 10C1 5.02944 5.02944 1 10 1C14.9706 1 19 5.02944 19 10ZM11.9586 2.69967C10.6767 2.3562 9.32705 2.3562 8.04522 2.69967L8.20014 3.27785C7.00227 3.59795 5.93169 4.22961 5.08051 5.08069L4.65616 4.65634C3.71779 5.59471 3.04296 6.76356 2.69949 8.0454L3.2773 8.20022C3.12363 8.77503 3.04171 9.37916 3.04171 10.0024C3.04171 10.6254 3.12357 11.2294 3.27712 11.804L2.69949 11.9587C3.04296 13.2406 3.71779 14.4094 4.65616 15.3478L5.08015 14.9238C5.93135 15.775 7.002 16.4068 8.19996 16.727L8.04522 17.3045C9.32705 17.6479 10.6767 17.6479 11.9586 17.3045L11.8038 16.7269C13.0017 16.4067 14.0723 15.7749 14.9234 14.9236L15.3476 15.3478C16.286 14.4094 16.9608 13.2406 17.3043 11.9587L16.7263 11.8039C16.8799 11.2293 16.9617 10.6254 16.9617 10.0024C16.9617 9.3792 16.8798 8.7751 16.7261 8.20031L17.3043 8.0454C16.9608 6.76356 16.286 5.59471 15.3476 4.65634L14.9231 5.08088C14.072 4.22978 13.0014 3.5981 11.8036 3.27794L11.9586 2.69967ZM7.36202 5.86085H8.32202V14.1408H7.36202V5.86085ZM9.52197 5.86085H10.482V14.1408H9.52197V5.86085ZM12.6419 5.86085H11.6819V14.1408H12.6419V5.86085Z"/>
</mask>
<path d="M8.04522 2.69967L8.00938 2.56592L7.87564 2.60176L7.91147 2.7355L8.04522 2.69967ZM11.9586 2.69967L12.0923 2.7355L12.1281 2.60176L11.9944 2.56592L11.9586 2.69967ZM8.20014 3.27785L8.23589 3.41162L8.36974 3.37584L8.33388 3.24201L8.20014 3.27785ZM5.08051 5.08069L4.98261 5.1786L5.08051 5.2765L5.17842 5.17861L5.08051 5.08069ZM4.65616 4.65634L4.75407 4.55843L4.65616 4.46053L4.55825 4.55843L4.65616 4.65634ZM2.69949 8.0454L2.56574 8.00956L2.52991 8.1433L2.66365 8.17914L2.69949 8.0454ZM3.2773 8.20022L3.41106 8.23598L3.4468 8.10229L3.31313 8.06648L3.2773 8.20022ZM3.27712 11.804L3.31295 11.9377L3.44661 11.9019L3.41089 11.7682L3.27712 11.804ZM2.69949 11.9587L2.66365 11.825L2.52991 11.8608L2.56574 11.9946L2.69949 11.9587ZM4.65616 15.3478L4.55825 15.4457L4.65616 15.5436L4.75407 15.4457L4.65616 15.3478ZM5.08015 14.9238L5.17806 14.8259L5.08016 14.728L4.98225 14.8259L5.08015 14.9238ZM8.19996 16.727L8.3337 16.7628L8.36956 16.629L8.23571 16.5932L8.19996 16.727ZM8.04522 17.3045L7.91147 17.2686L7.87564 17.4024L8.00938 17.4382L8.04522 17.3045ZM11.9586 17.3045L11.9944 17.4382L12.1281 17.4024L12.0923 17.2686L11.9586 17.3045ZM11.8038 16.7269L11.768 16.5931L11.6342 16.6289L11.67 16.7627L11.8038 16.7269ZM14.9234 14.9236L15.0213 14.8257L14.9234 14.7278L14.8255 14.8257L14.9234 14.9236ZM15.3476 15.3478L15.2497 15.4457L15.3476 15.5436L15.4455 15.4457L15.3476 15.3478ZM17.3043 11.9587L17.438 11.9946L17.4739 11.8608L17.3401 11.825L17.3043 11.9587ZM16.7263 11.8039L16.5925 11.7681L16.5568 11.9018L16.6905 11.9376L16.7263 11.8039ZM16.7261 8.20031L16.6903 8.06657L16.5566 8.10238L16.5924 8.23607L16.7261 8.20031ZM17.3043 8.0454L17.3401 8.17914L17.4739 8.1433L17.438 8.00956L17.3043 8.0454ZM15.3476 4.65634L15.4455 4.55843L15.3476 4.46053L15.2497 4.55843L15.3476 4.65634ZM14.9231 5.08088L14.8252 5.17879L14.9231 5.27669L15.021 5.17878L14.9231 5.08088ZM11.8036 3.27794L11.6699 3.2421L11.634 3.37593L11.7679 3.4117L11.8036 3.27794ZM8.32202 5.86085H8.46048V5.72239H8.32202V5.86085ZM7.36202 5.86085V5.72239H7.22356V5.86085H7.36202ZM8.32202 14.1408V14.2793H8.46048V14.1408H8.32202ZM7.36202 14.1408H7.22356V14.2793H7.36202V14.1408ZM10.482 5.86085H10.6204V5.72239H10.482V5.86085ZM9.52197 5.86085V5.72239H9.3835V5.86085H9.52197ZM10.482 14.1408V14.2793H10.6204V14.1408H10.482ZM9.52197 14.1408H9.3835V14.2793H9.52197V14.1408ZM11.6819 5.86085V5.72239H11.5435V5.86085H11.6819ZM12.6419 5.86085H12.7804V5.72239H12.6419V5.86085ZM11.6819 14.1408H11.5435V14.2793H11.6819V14.1408ZM12.6419 14.1408V14.2793H12.7804V14.1408H12.6419ZM10 18.5385C14.7157 18.5385 18.5385 14.7157 18.5385 10H18.2615C18.2615 14.5627 14.5627 18.2615 10 18.2615V18.5385ZM1.46154 10C1.46154 14.7157 5.28434 18.5385 10 18.5385V18.2615C5.43728 18.2615 1.73846 14.5627 1.73846 10H1.46154ZM10 1.46154C5.28434 1.46154 1.46154 5.28434 1.46154 10H1.73846C1.73846 5.43728 5.43728 1.73846 10 1.73846V1.46154ZM18.5385 10C18.5385 5.28434 14.7157 1.46154 10 1.46154V1.73846C14.5627 1.73846 18.2615 5.43728 18.2615 10H18.5385ZM10 19.1385C15.047 19.1385 19.1385 15.047 19.1385 10H18.8615C18.8615 14.8941 14.8941 18.8615 10 18.8615V19.1385ZM0.861538 10C0.861538 15.047 4.95297 19.1385 10 19.1385V18.8615C5.10591 18.8615 1.13846 14.8941 1.13846 10H0.861538ZM10 0.861538C4.95297 0.861538 0.861538 4.95297 0.861538 10H1.13846C1.13846 5.10591 5.10591 1.13846 10 1.13846V0.861538ZM19.1385 10C19.1385 4.95297 15.047 0.861538 10 0.861538V1.13846C14.8941 1.13846 18.8615 5.10591 18.8615 10H19.1385ZM8.08105 2.83341C9.33941 2.49623 10.6644 2.49623 11.9227 2.83341L11.9944 2.56592C10.6891 2.21617 9.31469 2.21617 8.00938 2.56592L8.08105 2.83341ZM8.33388 3.24201L8.17896 2.66383L7.91147 2.7355L8.0664 3.31368L8.33388 3.24201ZM5.17842 5.17861C6.0128 4.34431 7.0621 3.72529 8.23589 3.41162L8.16439 3.14408C6.94245 3.47062 5.85058 4.11491 4.98261 4.98278L5.17842 5.17861ZM4.55825 4.75425L4.98261 5.1786L5.17842 4.98279L4.75407 4.55843L4.55825 4.75425ZM2.83323 8.08123C3.17041 6.82287 3.83288 5.67543 4.75407 4.75425L4.55825 4.55843C3.6027 5.51399 2.9155 6.70424 2.56574 8.00956L2.83323 8.08123ZM3.31313 8.06648L2.73532 7.91165L2.66365 8.17914L3.24146 8.33396L3.31313 8.06648ZM3.18017 10.0024C3.18017 9.39135 3.26049 8.79923 3.41106 8.23598L3.14353 8.16446C2.98678 8.75083 2.90325 9.36698 2.90325 10.0024H3.18017ZM3.41089 11.7682C3.26042 11.2052 3.18017 10.6133 3.18017 10.0024H2.90325C2.90325 10.6376 2.98671 11.2535 3.14335 11.8397L3.41089 11.7682ZM2.73532 12.0925L3.31295 11.9377L3.24128 11.6702L2.66365 11.825L2.73532 12.0925ZM4.75407 15.2499C3.83288 14.3287 3.17041 13.1813 2.83323 11.9229L2.56574 11.9946C2.9155 13.2999 3.6027 14.4901 4.55825 15.4457L4.75407 15.2499ZM4.98225 14.8259L4.55825 15.2499L4.75407 15.4457L5.17806 15.0217L4.98225 14.8259ZM8.23571 16.5932C7.06183 16.2795 6.01247 15.6603 5.17806 14.8259L4.98225 15.0217C5.85022 15.8897 6.94217 16.5341 8.16421 16.8607L8.23571 16.5932ZM8.17896 17.3403L8.3337 16.7628L8.06621 16.6911L7.91147 17.2686L8.17896 17.3403ZM11.9227 17.1707C10.6644 17.5079 9.33941 17.5079 8.08105 17.1707L8.00938 17.4382C9.31469 17.788 10.6891 17.788 11.9944 17.4382L11.9227 17.1707ZM11.67 16.7627L11.8248 17.3403L12.0923 17.2686L11.9375 16.691L11.67 16.7627ZM14.8255 14.8257C13.9912 15.6602 12.9419 16.2793 11.768 16.5931L11.8395 16.8606C13.0615 16.534 14.1534 15.8895 15.0214 15.0215L14.8255 14.8257ZM15.4455 15.2499L15.0213 14.8257L14.8255 15.0215L15.2497 15.4457L15.4455 15.2499ZM17.1705 11.9229C16.8334 13.1813 16.1709 14.3287 15.2497 15.2499L15.4455 15.4457C16.4011 14.4901 17.0883 13.2999 17.438 11.9946L17.1705 11.9229ZM16.6905 11.9376L17.2684 12.0925L17.3401 11.825L16.7622 11.6701L16.6905 11.9376ZM16.8232 10.0024C16.8232 10.6132 16.743 11.2051 16.5925 11.7681L16.8601 11.8396C17.0167 11.2535 17.1002 10.6376 17.1002 10.0024H16.8232ZM16.5924 8.23607C16.7429 8.7993 16.8232 9.39138 16.8232 10.0024H17.1002C17.1002 9.36702 17.0166 8.7509 16.8599 8.16455L16.5924 8.23607ZM17.2684 7.91165L16.6903 8.06657L16.762 8.33406L17.3401 8.17914L17.2684 7.91165ZM15.2497 4.75425C16.1709 5.67543 16.8334 6.82287 17.1705 8.08123L17.438 8.00956C17.0883 6.70425 16.4011 5.51399 15.4455 4.55843L15.2497 4.75425ZM15.021 5.17878L15.4455 4.75425L15.2497 4.55843L14.8252 4.98297L15.021 5.17878ZM11.7679 3.4117C12.9416 3.72543 13.9908 4.34448 14.8252 5.17879L15.021 4.98297C14.1531 4.11509 13.0613 3.47076 11.8394 3.14417L11.7679 3.4117ZM11.8248 2.66383L11.6699 3.2421L11.9374 3.31377L12.0923 2.7355L11.8248 2.66383ZM8.32202 5.72239H7.36202V5.99931H8.32202V5.72239ZM8.46048 14.1408V5.86085H8.18356V14.1408H8.46048ZM7.36202 14.2793H8.32202V14.0024H7.36202V14.2793ZM7.22356 5.86085V14.1408H7.50048V5.86085H7.22356ZM10.482 5.72239H9.52197V5.99931H10.482V5.72239ZM10.6204 14.1408V5.86085H10.3435V14.1408H10.6204ZM9.52197 14.2793H10.482V14.0024H9.52197V14.2793ZM9.3835 5.86085V14.1408H9.66043V5.86085H9.3835ZM11.6819 5.99931H12.6419V5.72239H11.6819V5.99931ZM11.8204 14.1408V5.86085H11.5435V14.1408H11.8204ZM12.6419 14.0024H11.6819V14.2793H12.6419V14.0024ZM12.5035 5.86085V14.1408H12.7804V5.86085H12.5035Z" fill="black" mask="url(#path-5-inside-2_192_28344)"/>
<path d="M8.04522 2.69967L8.00938 2.56592L7.87564 2.60176L7.91147 2.7355L8.04522 2.69967ZM11.9586 2.69967L12.0923 2.7355L12.1281 2.60176L11.9944 2.56592L11.9586 2.69967ZM8.20014 3.27785L8.23589 3.41162L8.36974 3.37584L8.33388 3.24201L8.20014 3.27785ZM5.08051 5.08069L4.98261 5.1786L5.08051 5.2765L5.17842 5.17861L5.08051 5.08069ZM4.65616 4.65634L4.75407 4.55843L4.65616 4.46053L4.55825 4.55843L4.65616 4.65634ZM2.69949 8.0454L2.56574 8.00956L2.52991 8.1433L2.66365 8.17914L2.69949 8.0454ZM3.2773 8.20022L3.41106 8.23598L3.4468 8.10229L3.31313 8.06648L3.2773 8.20022ZM3.27712 11.804L3.31295 11.9377L3.44661 11.9019L3.41089 11.7682L3.27712 11.804ZM2.69949 11.9587L2.66365 11.825L2.52991 11.8608L2.56574 11.9946L2.69949 11.9587ZM4.65616 15.3478L4.55825 15.4457L4.65616 15.5436L4.75407 15.4457L4.65616 15.3478ZM5.08015 14.9238L5.17806 14.8259L5.08016 14.728L4.98225 14.8259L5.08015 14.9238ZM8.19996 16.727L8.3337 16.7628L8.36956 16.629L8.23571 16.5932L8.19996 16.727ZM8.04522 17.3045L7.91147 17.2686L7.87564 17.4024L8.00938 17.4382L8.04522 17.3045ZM11.9586 17.3045L11.9944 17.4382L12.1281 17.4024L12.0923 17.2686L11.9586 17.3045ZM11.8038 16.7269L11.768 16.5931L11.6342 16.6289L11.67 16.7627L11.8038 16.7269ZM14.9234 14.9236L15.0213 14.8257L14.9234 14.7278L14.8255 14.8257L14.9234 14.9236ZM15.3476 15.3478L15.2497 15.4457L15.3476 15.5436L15.4455 15.4457L15.3476 15.3478ZM17.3043 11.9587L17.438 11.9946L17.4739 11.8608L17.3401 11.825L17.3043 11.9587ZM16.7263 11.8039L16.5925 11.7681L16.5568 11.9018L16.6905 11.9376L16.7263 11.8039ZM16.7261 8.20031L16.6903 8.06657L16.5566 8.10238L16.5924 8.23607L16.7261 8.20031ZM17.3043 8.0454L17.3401 8.17914L17.4739 8.1433L17.438 8.00956L17.3043 8.0454ZM15.3476 4.65634L15.4455 4.55843L15.3476 4.46053L15.2497 4.55843L15.3476 4.65634ZM14.9231 5.08088L14.8252 5.17879L14.9231 5.27669L15.021 5.17878L14.9231 5.08088ZM11.8036 3.27794L11.6699 3.2421L11.634 3.37593L11.7679 3.4117L11.8036 3.27794ZM8.32202 5.86085H8.46048V5.72239H8.32202V5.86085ZM7.36202 5.86085V5.72239H7.22356V5.86085H7.36202ZM8.32202 14.1408V14.2793H8.46048V14.1408H8.32202ZM7.36202 14.1408H7.22356V14.2793H7.36202V14.1408ZM10.482 5.86085H10.6204V5.72239H10.482V5.86085ZM9.52197 5.86085V5.72239H9.3835V5.86085H9.52197ZM10.482 14.1408V14.2793H10.6204V14.1408H10.482ZM9.52197 14.1408H9.3835V14.2793H9.52197V14.1408ZM11.6819 5.86085V5.72239H11.5435V5.86085H11.6819ZM12.6419 5.86085H12.7804V5.72239H12.6419V5.86085ZM11.6819 14.1408H11.5435V14.2793H11.6819V14.1408ZM12.6419 14.1408V14.2793H12.7804V14.1408H12.6419ZM10 18.5385C14.7157 18.5385 18.5385 14.7157 18.5385 10H18.2615C18.2615 14.5627 14.5627 18.2615 10 18.2615V18.5385ZM1.46154 10C1.46154 14.7157 5.28434 18.5385 10 18.5385V18.2615C5.43728 18.2615 1.73846 14.5627 1.73846 10H1.46154ZM10 1.46154C5.28434 1.46154 1.46154 5.28434 1.46154 10H1.73846C1.73846 5.43728 5.43728 1.73846 10 1.73846V1.46154ZM18.5385 10C18.5385 5.28434 14.7157 1.46154 10 1.46154V1.73846C14.5627 1.73846 18.2615 5.43728 18.2615 10H18.5385ZM10 19.1385C15.047 19.1385 19.1385 15.047 19.1385 10H18.8615C18.8615 14.8941 14.8941 18.8615 10 18.8615V19.1385ZM0.861538 10C0.861538 15.047 4.95297 19.1385 10 19.1385V18.8615C5.10591 18.8615 1.13846 14.8941 1.13846 10H0.861538ZM10 0.861538C4.95297 0.861538 0.861538 4.95297 0.861538 10H1.13846C1.13846 5.10591 5.10591 1.13846 10 1.13846V0.861538ZM19.1385 10C19.1385 4.95297 15.047 0.861538 10 0.861538V1.13846C14.8941 1.13846 18.8615 5.10591 18.8615 10H19.1385ZM8.08105 2.83341C9.33941 2.49623 10.6644 2.49623 11.9227 2.83341L11.9944 2.56592C10.6891 2.21617 9.31469 2.21617 8.00938 2.56592L8.08105 2.83341ZM8.33388 3.24201L8.17896 2.66383L7.91147 2.7355L8.0664 3.31368L8.33388 3.24201ZM5.17842 5.17861C6.0128 4.34431 7.0621 3.72529 8.23589 3.41162L8.16439 3.14408C6.94245 3.47062 5.85058 4.11491 4.98261 4.98278L5.17842 5.17861ZM4.55825 4.75425L4.98261 5.1786L5.17842 4.98279L4.75407 4.55843L4.55825 4.75425ZM2.83323 8.08123C3.17041 6.82287 3.83288 5.67543 4.75407 4.75425L4.55825 4.55843C3.6027 5.51399 2.9155 6.70424 2.56574 8.00956L2.83323 8.08123ZM3.31313 8.06648L2.73532 7.91165L2.66365 8.17914L3.24146 8.33396L3.31313 8.06648ZM3.18017 10.0024C3.18017 9.39135 3.26049 8.79923 3.41106 8.23598L3.14353 8.16446C2.98678 8.75083 2.90325 9.36698 2.90325 10.0024H3.18017ZM3.41089 11.7682C3.26042 11.2052 3.18017 10.6133 3.18017 10.0024H2.90325C2.90325 10.6376 2.98671 11.2535 3.14335 11.8397L3.41089 11.7682ZM2.73532 12.0925L3.31295 11.9377L3.24128 11.6702L2.66365 11.825L2.73532 12.0925ZM4.75407 15.2499C3.83288 14.3287 3.17041 13.1813 2.83323 11.9229L2.56574 11.9946C2.9155 13.2999 3.6027 14.4901 4.55825 15.4457L4.75407 15.2499ZM4.98225 14.8259L4.55825 15.2499L4.75407 15.4457L5.17806 15.0217L4.98225 14.8259ZM8.23571 16.5932C7.06183 16.2795 6.01247 15.6603 5.17806 14.8259L4.98225 15.0217C5.85022 15.8897 6.94217 16.5341 8.16421 16.8607L8.23571 16.5932ZM8.17896 17.3403L8.3337 16.7628L8.06621 16.6911L7.91147 17.2686L8.17896 17.3403ZM11.9227 17.1707C10.6644 17.5079 9.33941 17.5079 8.08105 17.1707L8.00938 17.4382C9.31469 17.788 10.6891 17.788 11.9944 17.4382L11.9227 17.1707ZM11.67 16.7627L11.8248 17.3403L12.0923 17.2686L11.9375 16.691L11.67 16.7627ZM14.8255 14.8257C13.9912 15.6602 12.9419 16.2793 11.768 16.5931L11.8395 16.8606C13.0615 16.534 14.1534 15.8895 15.0214 15.0215L14.8255 14.8257ZM15.4455 15.2499L15.0213 14.8257L14.8255 15.0215L15.2497 15.4457L15.4455 15.2499ZM17.1705 11.9229C16.8334 13.1813 16.1709 14.3287 15.2497 15.2499L15.4455 15.4457C16.4011 14.4901 17.0883 13.2999 17.438 11.9946L17.1705 11.9229ZM16.6905 11.9376L17.2684 12.0925L17.3401 11.825L16.7622 11.6701L16.6905 11.9376ZM16.8232 10.0024C16.8232 10.6132 16.743 11.2051 16.5925 11.7681L16.8601 11.8396C17.0167 11.2535 17.1002 10.6376 17.1002 10.0024H16.8232ZM16.5924 8.23607C16.7429 8.7993 16.8232 9.39138 16.8232 10.0024H17.1002C17.1002 9.36702 17.0166 8.7509 16.8599 8.16455L16.5924 8.23607ZM17.2684 7.91165L16.6903 8.06657L16.762 8.33406L17.3401 8.17914L17.2684 7.91165ZM15.2497 4.75425C16.1709 5.67543 16.8334 6.82287 17.1705 8.08123L17.438 8.00956C17.0883 6.70425 16.4011 5.51399 15.4455 4.55843L15.2497 4.75425ZM15.021 5.17878L15.4455 4.75425L15.2497 4.55843L14.8252 4.98297L15.021 5.17878ZM11.7679 3.4117C12.9416 3.72543 13.9908 4.34448 14.8252 5.17879L15.021 4.98297C14.1531 4.11509 13.0613 3.47076 11.8394 3.14417L11.7679 3.4117ZM11.8248 2.66383L11.6699 3.2421L11.9374 3.31377L12.0923 2.7355L11.8248 2.66383ZM8.32202 5.72239H7.36202V5.99931H8.32202V5.72239ZM8.46048 14.1408V5.86085H8.18356V14.1408H8.46048ZM7.36202 14.2793H8.32202V14.0024H7.36202V14.2793ZM7.22356 5.86085V14.1408H7.50048V5.86085H7.22356ZM10.482 5.72239H9.52197V5.99931H10.482V5.72239ZM10.6204 14.1408V5.86085H10.3435V14.1408H10.6204ZM9.52197 14.2793H10.482V14.0024H9.52197V14.2793ZM9.3835 5.86085V14.1408H9.66043V5.86085H9.3835ZM11.6819 5.99931H12.6419V5.72239H11.6819V5.99931ZM11.8204 14.1408V5.86085H11.5435V14.1408H11.8204ZM12.6419 14.0024H11.6819V14.2793H12.6419V14.0024ZM12.5035 5.86085V14.1408H12.7804V5.86085H12.5035Z" fill="url(#paint2_radial_192_28344)" mask="url(#path-5-inside-2_192_28344)"/>
</g>
<g filter="url(#filter3_f_192_28344)">
<mask id="path-7-inside-3_192_28344" fill="white">
<path fill-rule="evenodd" clip-rule="evenodd" d="M18.4 10C18.4 14.6392 14.6392 18.4 10 18.4C5.36081 18.4 1.6 14.6392 1.6 10C1.6 5.36081 5.36081 1.6 10 1.6C14.6392 1.6 18.4 5.36081 18.4 10ZM19 10C19 14.9706 14.9706 19 10 19C5.02944 19 1 14.9706 1 10C1 5.02944 5.02944 1 10 1C14.9706 1 19 5.02944 19 10ZM11.9586 2.69967C10.6767 2.3562 9.32705 2.3562 8.04522 2.69967L8.20014 3.27785C7.00227 3.59795 5.93169 4.22961 5.08051 5.08069L4.65616 4.65634C3.71779 5.59471 3.04296 6.76356 2.69949 8.0454L3.2773 8.20022C3.12363 8.77503 3.04171 9.37916 3.04171 10.0024C3.04171 10.6254 3.12357 11.2294 3.27712 11.804L2.69949 11.9587C3.04296 13.2406 3.71779 14.4094 4.65616 15.3478L5.08015 14.9238C5.93135 15.775 7.002 16.4068 8.19996 16.727L8.04522 17.3045C9.32705 17.6479 10.6767 17.6479 11.9586 17.3045L11.8038 16.7269C13.0017 16.4067 14.0723 15.7749 14.9234 14.9236L15.3476 15.3478C16.286 14.4094 16.9608 13.2406 17.3043 11.9587L16.7263 11.8039C16.8799 11.2293 16.9617 10.6254 16.9617 10.0024C16.9617 9.3792 16.8798 8.7751 16.7261 8.20031L17.3043 8.0454C16.9608 6.76356 16.286 5.59471 15.3476 4.65634L14.9231 5.08088C14.072 4.22978 13.0014 3.5981 11.8036 3.27794L11.9586 2.69967ZM7.36202 5.86085H8.32202V14.1408H7.36202V5.86085ZM9.52197 5.86085H10.482V14.1408H9.52197V5.86085ZM12.6419 5.86085H11.6819V14.1408H12.6419V5.86085Z"/>
</mask>
<path d="M8.04522 2.69967L8.00938 2.56592L7.87564 2.60176L7.91147 2.7355L8.04522 2.69967ZM11.9586 2.69967L12.0923 2.7355L12.1281 2.60176L11.9944 2.56592L11.9586 2.69967ZM8.20014 3.27785L8.23589 3.41162L8.36974 3.37584L8.33388 3.24201L8.20014 3.27785ZM5.08051 5.08069L4.98261 5.1786L5.08051 5.2765L5.17842 5.17861L5.08051 5.08069ZM4.65616 4.65634L4.75407 4.55843L4.65616 4.46053L4.55825 4.55843L4.65616 4.65634ZM2.69949 8.0454L2.56574 8.00956L2.52991 8.1433L2.66365 8.17914L2.69949 8.0454ZM3.2773 8.20022L3.41106 8.23598L3.4468 8.10229L3.31313 8.06648L3.2773 8.20022ZM3.27712 11.804L3.31295 11.9377L3.44661 11.9019L3.41089 11.7682L3.27712 11.804ZM2.69949 11.9587L2.66365 11.825L2.52991 11.8608L2.56574 11.9946L2.69949 11.9587ZM4.65616 15.3478L4.55825 15.4457L4.65616 15.5436L4.75407 15.4457L4.65616 15.3478ZM5.08015 14.9238L5.17806 14.8259L5.08016 14.728L4.98225 14.8259L5.08015 14.9238ZM8.19996 16.727L8.3337 16.7628L8.36956 16.629L8.23571 16.5932L8.19996 16.727ZM8.04522 17.3045L7.91147 17.2686L7.87564 17.4024L8.00938 17.4382L8.04522 17.3045ZM11.9586 17.3045L11.9944 17.4382L12.1281 17.4024L12.0923 17.2686L11.9586 17.3045ZM11.8038 16.7269L11.768 16.5931L11.6342 16.6289L11.67 16.7627L11.8038 16.7269ZM14.9234 14.9236L15.0213 14.8257L14.9234 14.7278L14.8255 14.8257L14.9234 14.9236ZM15.3476 15.3478L15.2497 15.4457L15.3476 15.5436L15.4455 15.4457L15.3476 15.3478ZM17.3043 11.9587L17.438 11.9946L17.4739 11.8608L17.3401 11.825L17.3043 11.9587ZM16.7263 11.8039L16.5925 11.7681L16.5568 11.9018L16.6905 11.9376L16.7263 11.8039ZM16.7261 8.20031L16.6903 8.06657L16.5566 8.10238L16.5924 8.23607L16.7261 8.20031ZM17.3043 8.0454L17.3401 8.17914L17.4739 8.1433L17.438 8.00956L17.3043 8.0454ZM15.3476 4.65634L15.4455 4.55843L15.3476 4.46053L15.2497 4.55843L15.3476 4.65634ZM14.9231 5.08088L14.8252 5.17879L14.9231 5.27669L15.021 5.17878L14.9231 5.08088ZM11.8036 3.27794L11.6699 3.2421L11.634 3.37593L11.7679 3.4117L11.8036 3.27794ZM8.32202 5.86085H8.46048V5.72239H8.32202V5.86085ZM7.36202 5.86085V5.72239H7.22356V5.86085H7.36202ZM8.32202 14.1408V14.2793H8.46048V14.1408H8.32202ZM7.36202 14.1408H7.22356V14.2793H7.36202V14.1408ZM10.482 5.86085H10.6204V5.72239H10.482V5.86085ZM9.52197 5.86085V5.72239H9.3835V5.86085H9.52197ZM10.482 14.1408V14.2793H10.6204V14.1408H10.482ZM9.52197 14.1408H9.3835V14.2793H9.52197V14.1408ZM11.6819 5.86085V5.72239H11.5435V5.86085H11.6819ZM12.6419 5.86085H12.7804V5.72239H12.6419V5.86085ZM11.6819 14.1408H11.5435V14.2793H11.6819V14.1408ZM12.6419 14.1408V14.2793H12.7804V14.1408H12.6419ZM10 18.5385C14.7157 18.5385 18.5385 14.7157 18.5385 10H18.2615C18.2615 14.5627 14.5627 18.2615 10 18.2615V18.5385ZM1.46154 10C1.46154 14.7157 5.28434 18.5385 10 18.5385V18.2615C5.43728 18.2615 1.73846 14.5627 1.73846 10H1.46154ZM10 1.46154C5.28434 1.46154 1.46154 5.28434 1.46154 10H1.73846C1.73846 5.43728 5.43728 1.73846 10 1.73846V1.46154ZM18.5385 10C18.5385 5.28434 14.7157 1.46154 10 1.46154V1.73846C14.5627 1.73846 18.2615 5.43728 18.2615 10H18.5385ZM10 19.1385C15.047 19.1385 19.1385 15.047 19.1385 10H18.8615C18.8615 14.8941 14.8941 18.8615 10 18.8615V19.1385ZM0.861538 10C0.861538 15.047 4.95297 19.1385 10 19.1385V18.8615C5.10591 18.8615 1.13846 14.8941 1.13846 10H0.861538ZM10 0.861538C4.95297 0.861538 0.861538 4.95297 0.861538 10H1.13846C1.13846 5.10591 5.10591 1.13846 10 1.13846V0.861538ZM19.1385 10C19.1385 4.95297 15.047 0.861538 10 0.861538V1.13846C14.8941 1.13846 18.8615 5.10591 18.8615 10H19.1385ZM8.08105 2.83341C9.33941 2.49623 10.6644 2.49623 11.9227 2.83341L11.9944 2.56592C10.6891 2.21617 9.31469 2.21617 8.00938 2.56592L8.08105 2.83341ZM8.33388 3.24201L8.17896 2.66383L7.91147 2.7355L8.0664 3.31368L8.33388 3.24201ZM5.17842 5.17861C6.0128 4.34431 7.0621 3.72529 8.23589 3.41162L8.16439 3.14408C6.94245 3.47062 5.85058 4.11491 4.98261 4.98278L5.17842 5.17861ZM4.55825 4.75425L4.98261 5.1786L5.17842 4.98279L4.75407 4.55843L4.55825 4.75425ZM2.83323 8.08123C3.17041 6.82287 3.83288 5.67543 4.75407 4.75425L4.55825 4.55843C3.6027 5.51399 2.9155 6.70424 2.56574 8.00956L2.83323 8.08123ZM3.31313 8.06648L2.73532 7.91165L2.66365 8.17914L3.24146 8.33396L3.31313 8.06648ZM3.18017 10.0024C3.18017 9.39135 3.26049 8.79923 3.41106 8.23598L3.14353 8.16446C2.98678 8.75083 2.90325 9.36698 2.90325 10.0024H3.18017ZM3.41089 11.7682C3.26042 11.2052 3.18017 10.6133 3.18017 10.0024H2.90325C2.90325 10.6376 2.98671 11.2535 3.14335 11.8397L3.41089 11.7682ZM2.73532 12.0925L3.31295 11.9377L3.24128 11.6702L2.66365 11.825L2.73532 12.0925ZM4.75407 15.2499C3.83288 14.3287 3.17041 13.1813 2.83323 11.9229L2.56574 11.9946C2.9155 13.2999 3.6027 14.4901 4.55825 15.4457L4.75407 15.2499ZM4.98225 14.8259L4.55825 15.2499L4.75407 15.4457L5.17806 15.0217L4.98225 14.8259ZM8.23571 16.5932C7.06183 16.2795 6.01247 15.6603 5.17806 14.8259L4.98225 15.0217C5.85022 15.8897 6.94217 16.5341 8.16421 16.8607L8.23571 16.5932ZM8.17896 17.3403L8.3337 16.7628L8.06621 16.6911L7.91147 17.2686L8.17896 17.3403ZM11.9227 17.1707C10.6644 17.5079 9.33941 17.5079 8.08105 17.1707L8.00938 17.4382C9.31469 17.788 10.6891 17.788 11.9944 17.4382L11.9227 17.1707ZM11.67 16.7627L11.8248 17.3403L12.0923 17.2686L11.9375 16.691L11.67 16.7627ZM14.8255 14.8257C13.9912 15.6602 12.9419 16.2793 11.768 16.5931L11.8395 16.8606C13.0615 16.534 14.1534 15.8895 15.0214 15.0215L14.8255 14.8257ZM15.4455 15.2499L15.0213 14.8257L14.8255 15.0215L15.2497 15.4457L15.4455 15.2499ZM17.1705 11.9229C16.8334 13.1813 16.1709 14.3287 15.2497 15.2499L15.4455 15.4457C16.4011 14.4901 17.0883 13.2999 17.438 11.9946L17.1705 11.9229ZM16.6905 11.9376L17.2684 12.0925L17.3401 11.825L16.7622 11.6701L16.6905 11.9376ZM16.8232 10.0024C16.8232 10.6132 16.743 11.2051 16.5925 11.7681L16.8601 11.8396C17.0167 11.2535 17.1002 10.6376 17.1002 10.0024H16.8232ZM16.5924 8.23607C16.7429 8.7993 16.8232 9.39138 16.8232 10.0024H17.1002C17.1002 9.36702 17.0166 8.7509 16.8599 8.16455L16.5924 8.23607ZM17.2684 7.91165L16.6903 8.06657L16.762 8.33406L17.3401 8.17914L17.2684 7.91165ZM15.2497 4.75425C16.1709 5.67543 16.8334 6.82287 17.1705 8.08123L17.438 8.00956C17.0883 6.70425 16.4011 5.51399 15.4455 4.55843L15.2497 4.75425ZM15.021 5.17878L15.4455 4.75425L15.2497 4.55843L14.8252 4.98297L15.021 5.17878ZM11.7679 3.4117C12.9416 3.72543 13.9908 4.34448 14.8252 5.17879L15.021 4.98297C14.1531 4.11509 13.0613 3.47076 11.8394 3.14417L11.7679 3.4117ZM11.8248 2.66383L11.6699 3.2421L11.9374 3.31377L12.0923 2.7355L11.8248 2.66383ZM8.32202 5.72239H7.36202V5.99931H8.32202V5.72239ZM8.46048 14.1408V5.86085H8.18356V14.1408H8.46048ZM7.36202 14.2793H8.32202V14.0024H7.36202V14.2793ZM7.22356 5.86085V14.1408H7.50048V5.86085H7.22356ZM10.482 5.72239H9.52197V5.99931H10.482V5.72239ZM10.6204 14.1408V5.86085H10.3435V14.1408H10.6204ZM9.52197 14.2793H10.482V14.0024H9.52197V14.2793ZM9.3835 5.86085V14.1408H9.66043V5.86085H9.3835ZM11.6819 5.99931H12.6419V5.72239H11.6819V5.99931ZM11.8204 14.1408V5.86085H11.5435V14.1408H11.8204ZM12.6419 14.0024H11.6819V14.2793H12.6419V14.0024ZM12.5035 5.86085V14.1408H12.7804V5.86085H12.5035Z" fill="black" mask="url(#path-7-inside-3_192_28344)"/>
<path d="M8.04522 2.69967L8.00938 2.56592L7.87564 2.60176L7.91147 2.7355L8.04522 2.69967ZM11.9586 2.69967L12.0923 2.7355L12.1281 2.60176L11.9944 2.56592L11.9586 2.69967ZM8.20014 3.27785L8.23589 3.41162L8.36974 3.37584L8.33388 3.24201L8.20014 3.27785ZM5.08051 5.08069L4.98261 5.1786L5.08051 5.2765L5.17842 5.17861L5.08051 5.08069ZM4.65616 4.65634L4.75407 4.55843L4.65616 4.46053L4.55825 4.55843L4.65616 4.65634ZM2.69949 8.0454L2.56574 8.00956L2.52991 8.1433L2.66365 8.17914L2.69949 8.0454ZM3.2773 8.20022L3.41106 8.23598L3.4468 8.10229L3.31313 8.06648L3.2773 8.20022ZM3.27712 11.804L3.31295 11.9377L3.44661 11.9019L3.41089 11.7682L3.27712 11.804ZM2.69949 11.9587L2.66365 11.825L2.52991 11.8608L2.56574 11.9946L2.69949 11.9587ZM4.65616 15.3478L4.55825 15.4457L4.65616 15.5436L4.75407 15.4457L4.65616 15.3478ZM5.08015 14.9238L5.17806 14.8259L5.08016 14.728L4.98225 14.8259L5.08015 14.9238ZM8.19996 16.727L8.3337 16.7628L8.36956 16.629L8.23571 16.5932L8.19996 16.727ZM8.04522 17.3045L7.91147 17.2686L7.87564 17.4024L8.00938 17.4382L8.04522 17.3045ZM11.9586 17.3045L11.9944 17.4382L12.1281 17.4024L12.0923 17.2686L11.9586 17.3045ZM11.8038 16.7269L11.768 16.5931L11.6342 16.6289L11.67 16.7627L11.8038 16.7269ZM14.9234 14.9236L15.0213 14.8257L14.9234 14.7278L14.8255 14.8257L14.9234 14.9236ZM15.3476 15.3478L15.2497 15.4457L15.3476 15.5436L15.4455 15.4457L15.3476 15.3478ZM17.3043 11.9587L17.438 11.9946L17.4739 11.8608L17.3401 11.825L17.3043 11.9587ZM16.7263 11.8039L16.5925 11.7681L16.5568 11.9018L16.6905 11.9376L16.7263 11.8039ZM16.7261 8.20031L16.6903 8.06657L16.5566 8.10238L16.5924 8.23607L16.7261 8.20031ZM17.3043 8.0454L17.3401 8.17914L17.4739 8.1433L17.438 8.00956L17.3043 8.0454ZM15.3476 4.65634L15.4455 4.55843L15.3476 4.46053L15.2497 4.55843L15.3476 4.65634ZM14.9231 5.08088L14.8252 5.17879L14.9231 5.27669L15.021 5.17878L14.9231 5.08088ZM11.8036 3.27794L11.6699 3.2421L11.634 3.37593L11.7679 3.4117L11.8036 3.27794ZM8.32202 5.86085H8.46048V5.72239H8.32202V5.86085ZM7.36202 5.86085V5.72239H7.22356V5.86085H7.36202ZM8.32202 14.1408V14.2793H8.46048V14.1408H8.32202ZM7.36202 14.1408H7.22356V14.2793H7.36202V14.1408ZM10.482 5.86085H10.6204V5.72239H10.482V5.86085ZM9.52197 5.86085V5.72239H9.3835V5.86085H9.52197ZM10.482 14.1408V14.2793H10.6204V14.1408H10.482ZM9.52197 14.1408H9.3835V14.2793H9.52197V14.1408ZM11.6819 5.86085V5.72239H11.5435V5.86085H11.6819ZM12.6419 5.86085H12.7804V5.72239H12.6419V5.86085ZM11.6819 14.1408H11.5435V14.2793H11.6819V14.1408ZM12.6419 14.1408V14.2793H12.7804V14.1408H12.6419ZM10 18.5385C14.7157 18.5385 18.5385 14.7157 18.5385 10H18.2615C18.2615 14.5627 14.5627 18.2615 10 18.2615V18.5385ZM1.46154 10C1.46154 14.7157 5.28434 18.5385 10 18.5385V18.2615C5.43728 18.2615 1.73846 14.5627 1.73846 10H1.46154ZM10 1.46154C5.28434 1.46154 1.46154 5.28434 1.46154 10H1.73846C1.73846 5.43728 5.43728 1.73846 10 1.73846V1.46154ZM18.5385 10C18.5385 5.28434 14.7157 1.46154 10 1.46154V1.73846C14.5627 1.73846 18.2615 5.43728 18.2615 10H18.5385ZM10 19.1385C15.047 19.1385 19.1385 15.047 19.1385 10H18.8615C18.8615 14.8941 14.8941 18.8615 10 18.8615V19.1385ZM0.861538 10C0.861538 15.047 4.95297 19.1385 10 19.1385V18.8615C5.10591 18.8615 1.13846 14.8941 1.13846 10H0.861538ZM10 0.861538C4.95297 0.861538 0.861538 4.95297 0.861538 10H1.13846C1.13846 5.10591 5.10591 1.13846 10 1.13846V0.861538ZM19.1385 10C19.1385 4.95297 15.047 0.861538 10 0.861538V1.13846C14.8941 1.13846 18.8615 5.10591 18.8615 10H19.1385ZM8.08105 2.83341C9.33941 2.49623 10.6644 2.49623 11.9227 2.83341L11.9944 2.56592C10.6891 2.21617 9.31469 2.21617 8.00938 2.56592L8.08105 2.83341ZM8.33388 3.24201L8.17896 2.66383L7.91147 2.7355L8.0664 3.31368L8.33388 3.24201ZM5.17842 5.17861C6.0128 4.34431 7.0621 3.72529 8.23589 3.41162L8.16439 3.14408C6.94245 3.47062 5.85058 4.11491 4.98261 4.98278L5.17842 5.17861ZM4.55825 4.75425L4.98261 5.1786L5.17842 4.98279L4.75407 4.55843L4.55825 4.75425ZM2.83323 8.08123C3.17041 6.82287 3.83288 5.67543 4.75407 4.75425L4.55825 4.55843C3.6027 5.51399 2.9155 6.70424 2.56574 8.00956L2.83323 8.08123ZM3.31313 8.06648L2.73532 7.91165L2.66365 8.17914L3.24146 8.33396L3.31313 8.06648ZM3.18017 10.0024C3.18017 9.39135 3.26049 8.79923 3.41106 8.23598L3.14353 8.16446C2.98678 8.75083 2.90325 9.36698 2.90325 10.0024H3.18017ZM3.41089 11.7682C3.26042 11.2052 3.18017 10.6133 3.18017 10.0024H2.90325C2.90325 10.6376 2.98671 11.2535 3.14335 11.8397L3.41089 11.7682ZM2.73532 12.0925L3.31295 11.9377L3.24128 11.6702L2.66365 11.825L2.73532 12.0925ZM4.75407 15.2499C3.83288 14.3287 3.17041 13.1813 2.83323 11.9229L2.56574 11.9946C2.9155 13.2999 3.6027 14.4901 4.55825 15.4457L4.75407 15.2499ZM4.98225 14.8259L4.55825 15.2499L4.75407 15.4457L5.17806 15.0217L4.98225 14.8259ZM8.23571 16.5932C7.06183 16.2795 6.01247 15.6603 5.17806 14.8259L4.98225 15.0217C5.85022 15.8897 6.94217 16.5341 8.16421 16.8607L8.23571 16.5932ZM8.17896 17.3403L8.3337 16.7628L8.06621 16.6911L7.91147 17.2686L8.17896 17.3403ZM11.9227 17.1707C10.6644 17.5079 9.33941 17.5079 8.08105 17.1707L8.00938 17.4382C9.31469 17.788 10.6891 17.788 11.9944 17.4382L11.9227 17.1707ZM11.67 16.7627L11.8248 17.3403L12.0923 17.2686L11.9375 16.691L11.67 16.7627ZM14.8255 14.8257C13.9912 15.6602 12.9419 16.2793 11.768 16.5931L11.8395 16.8606C13.0615 16.534 14.1534 15.8895 15.0214 15.0215L14.8255 14.8257ZM15.4455 15.2499L15.0213 14.8257L14.8255 15.0215L15.2497 15.4457L15.4455 15.2499ZM17.1705 11.9229C16.8334 13.1813 16.1709 14.3287 15.2497 15.2499L15.4455 15.4457C16.4011 14.4901 17.0883 13.2999 17.438 11.9946L17.1705 11.9229ZM16.6905 11.9376L17.2684 12.0925L17.3401 11.825L16.7622 11.6701L16.6905 11.9376ZM16.8232 10.0024C16.8232 10.6132 16.743 11.2051 16.5925 11.7681L16.8601 11.8396C17.0167 11.2535 17.1002 10.6376 17.1002 10.0024H16.8232ZM16.5924 8.23607C16.7429 8.7993 16.8232 9.39138 16.8232 10.0024H17.1002C17.1002 9.36702 17.0166 8.7509 16.8599 8.16455L16.5924 8.23607ZM17.2684 7.91165L16.6903 8.06657L16.762 8.33406L17.3401 8.17914L17.2684 7.91165ZM15.2497 4.75425C16.1709 5.67543 16.8334 6.82287 17.1705 8.08123L17.438 8.00956C17.0883 6.70425 16.4011 5.51399 15.4455 4.55843L15.2497 4.75425ZM15.021 5.17878L15.4455 4.75425L15.2497 4.55843L14.8252 4.98297L15.021 5.17878ZM11.7679 3.4117C12.9416 3.72543 13.9908 4.34448 14.8252 5.17879L15.021 4.98297C14.1531 4.11509 13.0613 3.47076 11.8394 3.14417L11.7679 3.4117ZM11.8248 2.66383L11.6699 3.2421L11.9374 3.31377L12.0923 2.7355L11.8248 2.66383ZM8.32202 5.72239H7.36202V5.99931H8.32202V5.72239ZM8.46048 14.1408V5.86085H8.18356V14.1408H8.46048ZM7.36202 14.2793H8.32202V14.0024H7.36202V14.2793ZM7.22356 5.86085V14.1408H7.50048V5.86085H7.22356ZM10.482 5.72239H9.52197V5.99931H10.482V5.72239ZM10.6204 14.1408V5.86085H10.3435V14.1408H10.6204ZM9.52197 14.2793H10.482V14.0024H9.52197V14.2793ZM9.3835 5.86085V14.1408H9.66043V5.86085H9.3835ZM11.6819 5.99931H12.6419V5.72239H11.6819V5.99931ZM11.8204 14.1408V5.86085H11.5435V14.1408H11.8204ZM12.6419 14.0024H11.6819V14.2793H12.6419V14.0024ZM12.5035 5.86085V14.1408H12.7804V5.86085H12.5035Z" fill="url(#paint3_radial_192_28344)" mask="url(#path-7-inside-3_192_28344)"/>
</g>
<g filter="url(#filter4_f_192_28344)">
<mask id="path-9-inside-4_192_28344" fill="white">
<path fill-rule="evenodd" clip-rule="evenodd" d="M18.4 10C18.4 14.6392 14.6392 18.4 10 18.4C5.36081 18.4 1.6 14.6392 1.6 10C1.6 5.36081 5.36081 1.6 10 1.6C14.6392 1.6 18.4 5.36081 18.4 10ZM19 10C19 14.9706 14.9706 19 10 19C5.02944 19 1 14.9706 1 10C1 5.02944 5.02944 1 10 1C14.9706 1 19 5.02944 19 10ZM11.9586 2.69967C10.6767 2.3562 9.32705 2.3562 8.04522 2.69967L8.20014 3.27785C7.00227 3.59795 5.93169 4.22961 5.08051 5.08069L4.65616 4.65634C3.71779 5.59471 3.04296 6.76356 2.69949 8.0454L3.2773 8.20022C3.12363 8.77503 3.04171 9.37916 3.04171 10.0024C3.04171 10.6254 3.12357 11.2294 3.27712 11.804L2.69949 11.9587C3.04296 13.2406 3.71779 14.4094 4.65616 15.3478L5.08015 14.9238C5.93135 15.775 7.002 16.4068 8.19996 16.727L8.04522 17.3045C9.32705 17.6479 10.6767 17.6479 11.9586 17.3045L11.8038 16.7269C13.0017 16.4067 14.0723 15.7749 14.9234 14.9236L15.3476 15.3478C16.286 14.4094 16.9608 13.2406 17.3043 11.9587L16.7263 11.8039C16.8799 11.2293 16.9617 10.6254 16.9617 10.0024C16.9617 9.3792 16.8798 8.7751 16.7261 8.20031L17.3043 8.0454C16.9608 6.76356 16.286 5.59471 15.3476 4.65634L14.9231 5.08088C14.072 4.22978 13.0014 3.5981 11.8036 3.27794L11.9586 2.69967ZM7.36202 5.86085H8.32202V14.1408H7.36202V5.86085ZM9.52197 5.86085H10.482V14.1408H9.52197V5.86085ZM12.6419 5.86085H11.6819V14.1408H12.6419V5.86085Z"/>
</mask>
<path d="M8.04522 2.69967L8.00938 2.56592L7.87564 2.60176L7.91147 2.7355L8.04522 2.69967ZM11.9586 2.69967L12.0923 2.7355L12.1281 2.60176L11.9944 2.56592L11.9586 2.69967ZM8.20014 3.27785L8.23589 3.41162L8.36974 3.37584L8.33388 3.24201L8.20014 3.27785ZM5.08051 5.08069L4.98261 5.1786L5.08051 5.2765L5.17842 5.17861L5.08051 5.08069ZM4.65616 4.65634L4.75407 4.55843L4.65616 4.46053L4.55825 4.55843L4.65616 4.65634ZM2.69949 8.0454L2.56574 8.00956L2.52991 8.1433L2.66365 8.17914L2.69949 8.0454ZM3.2773 8.20022L3.41106 8.23598L3.4468 8.10229L3.31313 8.06648L3.2773 8.20022ZM3.27712 11.804L3.31295 11.9377L3.44661 11.9019L3.41089 11.7682L3.27712 11.804ZM2.69949 11.9587L2.66365 11.825L2.52991 11.8608L2.56574 11.9946L2.69949 11.9587ZM4.65616 15.3478L4.55825 15.4457L4.65616 15.5436L4.75407 15.4457L4.65616 15.3478ZM5.08015 14.9238L5.17806 14.8259L5.08016 14.728L4.98225 14.8259L5.08015 14.9238ZM8.19996 16.727L8.3337 16.7628L8.36956 16.629L8.23571 16.5932L8.19996 16.727ZM8.04522 17.3045L7.91147 17.2686L7.87564 17.4024L8.00938 17.4382L8.04522 17.3045ZM11.9586 17.3045L11.9944 17.4382L12.1281 17.4024L12.0923 17.2686L11.9586 17.3045ZM11.8038 16.7269L11.768 16.5931L11.6342 16.6289L11.67 16.7627L11.8038 16.7269ZM14.9234 14.9236L15.0213 14.8257L14.9234 14.7278L14.8255 14.8257L14.9234 14.9236ZM15.3476 15.3478L15.2497 15.4457L15.3476 15.5436L15.4455 15.4457L15.3476 15.3478ZM17.3043 11.9587L17.438 11.9946L17.4739 11.8608L17.3401 11.825L17.3043 11.9587ZM16.7263 11.8039L16.5925 11.7681L16.5568 11.9018L16.6905 11.9376L16.7263 11.8039ZM16.7261 8.20031L16.6903 8.06657L16.5566 8.10238L16.5924 8.23607L16.7261 8.20031ZM17.3043 8.0454L17.3401 8.17914L17.4739 8.1433L17.438 8.00956L17.3043 8.0454ZM15.3476 4.65634L15.4455 4.55843L15.3476 4.46053L15.2497 4.55843L15.3476 4.65634ZM14.9231 5.08088L14.8252 5.17879L14.9231 5.27669L15.021 5.17878L14.9231 5.08088ZM11.8036 3.27794L11.6699 3.2421L11.634 3.37593L11.7679 3.4117L11.8036 3.27794ZM8.32202 5.86085H8.46048V5.72239H8.32202V5.86085ZM7.36202 5.86085V5.72239H7.22356V5.86085H7.36202ZM8.32202 14.1408V14.2793H8.46048V14.1408H8.32202ZM7.36202 14.1408H7.22356V14.2793H7.36202V14.1408ZM10.482 5.86085H10.6204V5.72239H10.482V5.86085ZM9.52197 5.86085V5.72239H9.3835V5.86085H9.52197ZM10.482 14.1408V14.2793H10.6204V14.1408H10.482ZM9.52197 14.1408H9.3835V14.2793H9.52197V14.1408ZM11.6819 5.86085V5.72239H11.5435V5.86085H11.6819ZM12.6419 5.86085H12.7804V5.72239H12.6419V5.86085ZM11.6819 14.1408H11.5435V14.2793H11.6819V14.1408ZM12.6419 14.1408V14.2793H12.7804V14.1408H12.6419ZM10 18.5385C14.7157 18.5385 18.5385 14.7157 18.5385 10H18.2615C18.2615 14.5627 14.5627 18.2615 10 18.2615V18.5385ZM1.46154 10C1.46154 14.7157 5.28434 18.5385 10 18.5385V18.2615C5.43728 18.2615 1.73846 14.5627 1.73846 10H1.46154ZM10 1.46154C5.28434 1.46154 1.46154 5.28434 1.46154 10H1.73846C1.73846 5.43728 5.43728 1.73846 10 1.73846V1.46154ZM18.5385 10C18.5385 5.28434 14.7157 1.46154 10 1.46154V1.73846C14.5627 1.73846 18.2615 5.43728 18.2615 10H18.5385ZM10 19.1385C15.047 19.1385 19.1385 15.047 19.1385 10H18.8615C18.8615 14.8941 14.8941 18.8615 10 18.8615V19.1385ZM0.861538 10C0.861538 15.047 4.95297 19.1385 10 19.1385V18.8615C5.10591 18.8615 1.13846 14.8941 1.13846 10H0.861538ZM10 0.861538C4.95297 0.861538 0.861538 4.95297 0.861538 10H1.13846C1.13846 5.10591 5.10591 1.13846 10 1.13846V0.861538ZM19.1385 10C19.1385 4.95297 15.047 0.861538 10 0.861538V1.13846C14.8941 1.13846 18.8615 5.10591 18.8615 10H19.1385ZM8.08105 2.83341C9.33941 2.49623 10.6644 2.49623 11.9227 2.83341L11.9944 2.56592C10.6891 2.21617 9.31469 2.21617 8.00938 2.56592L8.08105 2.83341ZM8.33388 3.24201L8.17896 2.66383L7.91147 2.7355L8.0664 3.31368L8.33388 3.24201ZM5.17842 5.17861C6.0128 4.34431 7.0621 3.72529 8.23589 3.41162L8.16439 3.14408C6.94245 3.47062 5.85058 4.11491 4.98261 4.98278L5.17842 5.17861ZM4.55825 4.75425L4.98261 5.1786L5.17842 4.98279L4.75407 4.55843L4.55825 4.75425ZM2.83323 8.08123C3.17041 6.82287 3.83288 5.67543 4.75407 4.75425L4.55825 4.55843C3.6027 5.51399 2.9155 6.70424 2.56574 8.00956L2.83323 8.08123ZM3.31313 8.06648L2.73532 7.91165L2.66365 8.17914L3.24146 8.33396L3.31313 8.06648ZM3.18017 10.0024C3.18017 9.39135 3.26049 8.79923 3.41106 8.23598L3.14353 8.16446C2.98678 8.75083 2.90325 9.36698 2.90325 10.0024H3.18017ZM3.41089 11.7682C3.26042 11.2052 3.18017 10.6133 3.18017 10.0024H2.90325C2.90325 10.6376 2.98671 11.2535 3.14335 11.8397L3.41089 11.7682ZM2.73532 12.0925L3.31295 11.9377L3.24128 11.6702L2.66365 11.825L2.73532 12.0925ZM4.75407 15.2499C3.83288 14.3287 3.17041 13.1813 2.83323 11.9229L2.56574 11.9946C2.9155 13.2999 3.6027 14.4901 4.55825 15.4457L4.75407 15.2499ZM4.98225 14.8259L4.55825 15.2499L4.75407 15.4457L5.17806 15.0217L4.98225 14.8259ZM8.23571 16.5932C7.06183 16.2795 6.01247 15.6603 5.17806 14.8259L4.98225 15.0217C5.85022 15.8897 6.94217 16.5341 8.16421 16.8607L8.23571 16.5932ZM8.17896 17.3403L8.3337 16.7628L8.06621 16.6911L7.91147 17.2686L8.17896 17.3403ZM11.9227 17.1707C10.6644 17.5079 9.33941 17.5079 8.08105 17.1707L8.00938 17.4382C9.31469 17.788 10.6891 17.788 11.9944 17.4382L11.9227 17.1707ZM11.67 16.7627L11.8248 17.3403L12.0923 17.2686L11.9375 16.691L11.67 16.7627ZM14.8255 14.8257C13.9912 15.6602 12.9419 16.2793 11.768 16.5931L11.8395 16.8606C13.0615 16.534 14.1534 15.8895 15.0214 15.0215L14.8255 14.8257ZM15.4455 15.2499L15.0213 14.8257L14.8255 15.0215L15.2497 15.4457L15.4455 15.2499ZM17.1705 11.9229C16.8334 13.1813 16.1709 14.3287 15.2497 15.2499L15.4455 15.4457C16.4011 14.4901 17.0883 13.2999 17.438 11.9946L17.1705 11.9229ZM16.6905 11.9376L17.2684 12.0925L17.3401 11.825L16.7622 11.6701L16.6905 11.9376ZM16.8232 10.0024C16.8232 10.6132 16.743 11.2051 16.5925 11.7681L16.8601 11.8396C17.0167 11.2535 17.1002 10.6376 17.1002 10.0024H16.8232ZM16.5924 8.23607C16.7429 8.7993 16.8232 9.39138 16.8232 10.0024H17.1002C17.1002 9.36702 17.0166 8.7509 16.8599 8.16455L16.5924 8.23607ZM17.2684 7.91165L16.6903 8.06657L16.762 8.33406L17.3401 8.17914L17.2684 7.91165ZM15.2497 4.75425C16.1709 5.67543 16.8334 6.82287 17.1705 8.08123L17.438 8.00956C17.0883 6.70425 16.4011 5.51399 15.4455 4.55843L15.2497 4.75425ZM15.021 5.17878L15.4455 4.75425L15.2497 4.55843L14.8252 4.98297L15.021 5.17878ZM11.7679 3.4117C12.9416 3.72543 13.9908 4.34448 14.8252 5.17879L15.021 4.98297C14.1531 4.11509 13.0613 3.47076 11.8394 3.14417L11.7679 3.4117ZM11.8248 2.66383L11.6699 3.2421L11.9374 3.31377L12.0923 2.7355L11.8248 2.66383ZM8.32202 5.72239H7.36202V5.99931H8.32202V5.72239ZM8.46048 14.1408V5.86085H8.18356V14.1408H8.46048ZM7.36202 14.2793H8.32202V14.0024H7.36202V14.2793ZM7.22356 5.86085V14.1408H7.50048V5.86085H7.22356ZM10.482 5.72239H9.52197V5.99931H10.482V5.72239ZM10.6204 14.1408V5.86085H10.3435V14.1408H10.6204ZM9.52197 14.2793H10.482V14.0024H9.52197V14.2793ZM9.3835 5.86085V14.1408H9.66043V5.86085H9.3835ZM11.6819 5.99931H12.6419V5.72239H11.6819V5.99931ZM11.8204 14.1408V5.86085H11.5435V14.1408H11.8204ZM12.6419 14.0024H11.6819V14.2793H12.6419V14.0024ZM12.5035 5.86085V14.1408H12.7804V5.86085H12.5035Z" fill="black" mask="url(#path-9-inside-4_192_28344)"/>
<path d="M8.04522 2.69967L8.00938 2.56592L7.87564 2.60176L7.91147 2.7355L8.04522 2.69967ZM11.9586 2.69967L12.0923 2.7355L12.1281 2.60176L11.9944 2.56592L11.9586 2.69967ZM8.20014 3.27785L8.23589 3.41162L8.36974 3.37584L8.33388 3.24201L8.20014 3.27785ZM5.08051 5.08069L4.98261 5.1786L5.08051 5.2765L5.17842 5.17861L5.08051 5.08069ZM4.65616 4.65634L4.75407 4.55843L4.65616 4.46053L4.55825 4.55843L4.65616 4.65634ZM2.69949 8.0454L2.56574 8.00956L2.52991 8.1433L2.66365 8.17914L2.69949 8.0454ZM3.2773 8.20022L3.41106 8.23598L3.4468 8.10229L3.31313 8.06648L3.2773 8.20022ZM3.27712 11.804L3.31295 11.9377L3.44661 11.9019L3.41089 11.7682L3.27712 11.804ZM2.69949 11.9587L2.66365 11.825L2.52991 11.8608L2.56574 11.9946L2.69949 11.9587ZM4.65616 15.3478L4.55825 15.4457L4.65616 15.5436L4.75407 15.4457L4.65616 15.3478ZM5.08015 14.9238L5.17806 14.8259L5.08016 14.728L4.98225 14.8259L5.08015 14.9238ZM8.19996 16.727L8.3337 16.7628L8.36956 16.629L8.23571 16.5932L8.19996 16.727ZM8.04522 17.3045L7.91147 17.2686L7.87564 17.4024L8.00938 17.4382L8.04522 17.3045ZM11.9586 17.3045L11.9944 17.4382L12.1281 17.4024L12.0923 17.2686L11.9586 17.3045ZM11.8038 16.7269L11.768 16.5931L11.6342 16.6289L11.67 16.7627L11.8038 16.7269ZM14.9234 14.9236L15.0213 14.8257L14.9234 14.7278L14.8255 14.8257L14.9234 14.9236ZM15.3476 15.3478L15.2497 15.4457L15.3476 15.5436L15.4455 15.4457L15.3476 15.3478ZM17.3043 11.9587L17.438 11.9946L17.4739 11.8608L17.3401 11.825L17.3043 11.9587ZM16.7263 11.8039L16.5925 11.7681L16.5568 11.9018L16.6905 11.9376L16.7263 11.8039ZM16.7261 8.20031L16.6903 8.06657L16.5566 8.10238L16.5924 8.23607L16.7261 8.20031ZM17.3043 8.0454L17.3401 8.17914L17.4739 8.1433L17.438 8.00956L17.3043 8.0454ZM15.3476 4.65634L15.4455 4.55843L15.3476 4.46053L15.2497 4.55843L15.3476 4.65634ZM14.9231 5.08088L14.8252 5.17879L14.9231 5.27669L15.021 5.17878L14.9231 5.08088ZM11.8036 3.27794L11.6699 3.2421L11.634 3.37593L11.7679 3.4117L11.8036 3.27794ZM8.32202 5.86085H8.46048V5.72239H8.32202V5.86085ZM7.36202 5.86085V5.72239H7.22356V5.86085H7.36202ZM8.32202 14.1408V14.2793H8.46048V14.1408H8.32202ZM7.36202 14.1408H7.22356V14.2793H7.36202V14.1408ZM10.482 5.86085H10.6204V5.72239H10.482V5.86085ZM9.52197 5.86085V5.72239H9.3835V5.86085H9.52197ZM10.482 14.1408V14.2793H10.6204V14.1408H10.482ZM9.52197 14.1408H9.3835V14.2793H9.52197V14.1408ZM11.6819 5.86085V5.72239H11.5435V5.86085H11.6819ZM12.6419 5.86085H12.7804V5.72239H12.6419V5.86085ZM11.6819 14.1408H11.5435V14.2793H11.6819V14.1408ZM12.6419 14.1408V14.2793H12.7804V14.1408H12.6419ZM10 18.5385C14.7157 18.5385 18.5385 14.7157 18.5385 10H18.2615C18.2615 14.5627 14.5627 18.2615 10 18.2615V18.5385ZM1.46154 10C1.46154 14.7157 5.28434 18.5385 10 18.5385V18.2615C5.43728 18.2615 1.73846 14.5627 1.73846 10H1.46154ZM10 1.46154C5.28434 1.46154 1.46154 5.28434 1.46154 10H1.73846C1.73846 5.43728 5.43728 1.73846 10 1.73846V1.46154ZM18.5385 10C18.5385 5.28434 14.7157 1.46154 10 1.46154V1.73846C14.5627 1.73846 18.2615 5.43728 18.2615 10H18.5385ZM10 19.1385C15.047 19.1385 19.1385 15.047 19.1385 10H18.8615C18.8615 14.8941 14.8941 18.8615 10 18.8615V19.1385ZM0.861538 10C0.861538 15.047 4.95297 19.1385 10 19.1385V18.8615C5.10591 18.8615 1.13846 14.8941 1.13846 10H0.861538ZM10 0.861538C4.95297 0.861538 0.861538 4.95297 0.861538 10H1.13846C1.13846 5.10591 5.10591 1.13846 10 1.13846V0.861538ZM19.1385 10C19.1385 4.95297 15.047 0.861538 10 0.861538V1.13846C14.8941 1.13846 18.8615 5.10591 18.8615 10H19.1385ZM8.08105 2.83341C9.33941 2.49623 10.6644 2.49623 11.9227 2.83341L11.9944 2.56592C10.6891 2.21617 9.31469 2.21617 8.00938 2.56592L8.08105 2.83341ZM8.33388 3.24201L8.17896 2.66383L7.91147 2.7355L8.0664 3.31368L8.33388 3.24201ZM5.17842 5.17861C6.0128 4.34431 7.0621 3.72529 8.23589 3.41162L8.16439 3.14408C6.94245 3.47062 5.85058 4.11491 4.98261 4.98278L5.17842 5.17861ZM4.55825 4.75425L4.98261 5.1786L5.17842 4.98279L4.75407 4.55843L4.55825 4.75425ZM2.83323 8.08123C3.17041 6.82287 3.83288 5.67543 4.75407 4.75425L4.55825 4.55843C3.6027 5.51399 2.9155 6.70424 2.56574 8.00956L2.83323 8.08123ZM3.31313 8.06648L2.73532 7.91165L2.66365 8.17914L3.24146 8.33396L3.31313 8.06648ZM3.18017 10.0024C3.18017 9.39135 3.26049 8.79923 3.41106 8.23598L3.14353 8.16446C2.98678 8.75083 2.90325 9.36698 2.90325 10.0024H3.18017ZM3.41089 11.7682C3.26042 11.2052 3.18017 10.6133 3.18017 10.0024H2.90325C2.90325 10.6376 2.98671 11.2535 3.14335 11.8397L3.41089 11.7682ZM2.73532 12.0925L3.31295 11.9377L3.24128 11.6702L2.66365 11.825L2.73532 12.0925ZM4.75407 15.2499C3.83288 14.3287 3.17041 13.1813 2.83323 11.9229L2.56574 11.9946C2.9155 13.2999 3.6027 14.4901 4.55825 15.4457L4.75407 15.2499ZM4.98225 14.8259L4.55825 15.2499L4.75407 15.4457L5.17806 15.0217L4.98225 14.8259ZM8.23571 16.5932C7.06183 16.2795 6.01247 15.6603 5.17806 14.8259L4.98225 15.0217C5.85022 15.8897 6.94217 16.5341 8.16421 16.8607L8.23571 16.5932ZM8.17896 17.3403L8.3337 16.7628L8.06621 16.6911L7.91147 17.2686L8.17896 17.3403ZM11.9227 17.1707C10.6644 17.5079 9.33941 17.5079 8.08105 17.1707L8.00938 17.4382C9.31469 17.788 10.6891 17.788 11.9944 17.4382L11.9227 17.1707ZM11.67 16.7627L11.8248 17.3403L12.0923 17.2686L11.9375 16.691L11.67 16.7627ZM14.8255 14.8257C13.9912 15.6602 12.9419 16.2793 11.768 16.5931L11.8395 16.8606C13.0615 16.534 14.1534 15.8895 15.0214 15.0215L14.8255 14.8257ZM15.4455 15.2499L15.0213 14.8257L14.8255 15.0215L15.2497 15.4457L15.4455 15.2499ZM17.1705 11.9229C16.8334 13.1813 16.1709 14.3287 15.2497 15.2499L15.4455 15.4457C16.4011 14.4901 17.0883 13.2999 17.438 11.9946L17.1705 11.9229ZM16.6905 11.9376L17.2684 12.0925L17.3401 11.825L16.7622 11.6701L16.6905 11.9376ZM16.8232 10.0024C16.8232 10.6132 16.743 11.2051 16.5925 11.7681L16.8601 11.8396C17.0167 11.2535 17.1002 10.6376 17.1002 10.0024H16.8232ZM16.5924 8.23607C16.7429 8.7993 16.8232 9.39138 16.8232 10.0024H17.1002C17.1002 9.36702 17.0166 8.7509 16.8599 8.16455L16.5924 8.23607ZM17.2684 7.91165L16.6903 8.06657L16.762 8.33406L17.3401 8.17914L17.2684 7.91165ZM15.2497 4.75425C16.1709 5.67543 16.8334 6.82287 17.1705 8.08123L17.438 8.00956C17.0883 6.70425 16.4011 5.51399 15.4455 4.55843L15.2497 4.75425ZM15.021 5.17878L15.4455 4.75425L15.2497 4.55843L14.8252 4.98297L15.021 5.17878ZM11.7679 3.4117C12.9416 3.72543 13.9908 4.34448 14.8252 5.17879L15.021 4.98297C14.1531 4.11509 13.0613 3.47076 11.8394 3.14417L11.7679 3.4117ZM11.8248 2.66383L11.6699 3.2421L11.9374 3.31377L12.0923 2.7355L11.8248 2.66383ZM8.32202 5.72239H7.36202V5.99931H8.32202V5.72239ZM8.46048 14.1408V5.86085H8.18356V14.1408H8.46048ZM7.36202 14.2793H8.32202V14.0024H7.36202V14.2793ZM7.22356 5.86085V14.1408H7.50048V5.86085H7.22356ZM10.482 5.72239H9.52197V5.99931H10.482V5.72239ZM10.6204 14.1408V5.86085H10.3435V14.1408H10.6204ZM9.52197 14.2793H10.482V14.0024H9.52197V14.2793ZM9.3835 5.86085V14.1408H9.66043V5.86085H9.3835ZM11.6819 5.99931H12.6419V5.72239H11.6819V5.99931ZM11.8204 14.1408V5.86085H11.5435V14.1408H11.8204ZM12.6419 14.0024H11.6819V14.2793H12.6419V14.0024ZM12.5035 5.86085V14.1408H12.7804V5.86085H12.5035Z" fill="url(#paint4_radial_192_28344)" mask="url(#path-9-inside-4_192_28344)"/>
</g>
</g>
</g>
</g>
<defs>
<filter id="filter0_dd_192_28344" x="0.0399999" y="0.0399999" width="19.92" height="19.92" filterUnits="userSpaceOnUse" color-interpolation-filters="sRGB">
<feFlood flood-opacity="0" result="BackgroundImageFix"/>
<feColorMatrix in="SourceAlpha" type="matrix" values="0 0 0 0 0 0 0 0 0 0 0 0 0 0 0 0 0 0 127 0" result="hardAlpha"/>
<feOffset/>
<feGaussianBlur stdDeviation="0.12"/>
<feComposite in2="hardAlpha" operator="out"/>
<feColorMatrix type="matrix" values="0 0 0 0 0 0 0 0 0 0 0 0 0 0 0 0 0 0 0.15 0"/>
<feBlend mode="normal" in2="BackgroundImageFix" result="effect1_dropShadow_192_28344"/>
<feColorMatrix in="SourceAlpha" type="matrix" values="0 0 0 0 0 0 0 0 0 0 0 0 0 0 0 0 0 0 127 0" result="hardAlpha"/>
<feOffset/>
<feGaussianBlur stdDeviation="0.48"/>
<feComposite in2="hardAlpha" operator="out"/>
<feColorMatrix type="matrix" values="0 0 0 0 0 0 0 0 0 0 0 0 0 0 0 0 0 0 0.25 0"/>
<feBlend mode="normal" in2="effect1_dropShadow_192_28344" result="effect2_dropShadow_192_28344"/>
<feBlend mode="normal" in="SourceGraphic" in2="effect2_dropShadow_192_28344" result="shape"/>
</filter>
<filter id="filter1_dd_192_28344" x="-0.107692" y="-0.107692" width="20.2154" height="20.2154" filterUnits="userSpaceOnUse" color-interpolation-filters="sRGB">
<feFlood flood-opacity="0" result="BackgroundImageFix"/>
<feColorMatrix in="SourceAlpha" type="matrix" values="0 0 0 0 0 0 0 0 0 0 0 0 0 0 0 0 0 0 127 0" result="hardAlpha"/>
<feOffset/>
<feGaussianBlur stdDeviation="0.276923"/>
<feComposite in2="hardAlpha" operator="out"/>
<feColorMatrix type="matrix" values="0 0 0 0 0 0 0 0 0 0 0 0 0 0 0 0 0 0 0.25 0"/>
<feBlend mode="normal" in2="BackgroundImageFix" result="effect1_dropShadow_192_28344"/>
<feColorMatrix in="SourceAlpha" type="matrix" values="0 0 0 0 0 0 0 0 0 0 0 0 0 0 0 0 0 0 127 0" result="hardAlpha"/>
<feOffset/>
<feGaussianBlur stdDeviation="0.553846"/>
<feComposite in2="hardAlpha" operator="out"/>
<feColorMatrix type="matrix" values="0 0 0 0 0 0 0 0 0 0 0 0 0 0 0 0 0 0 0.1 0"/>
<feBlend mode="normal" in2="effect1_dropShadow_192_28344" result="effect2_dropShadow_192_28344"/>
<feBlend mode="normal" in="SourceGraphic" in2="effect2_dropShadow_192_28344" result="shape"/>
</filter>
<filter id="filter2_f_192_28344" x="0.584615" y="0.584615" width="18.8308" height="18.8308" filterUnits="userSpaceOnUse" color-interpolation-filters="sRGB">
<feFlood flood-opacity="0" result="BackgroundImageFix"/>
<feBlend mode="normal" in="SourceGraphic" in2="BackgroundImageFix" result="shape"/>
<feGaussianBlur stdDeviation="0.207692" result="effect1_foregroundBlur_192_28344"/>
</filter>
<filter id="filter3_f_192_28344" x="0.169231" y="0.169231" width="19.6615" height="19.6615" filterUnits="userSpaceOnUse" color-interpolation-filters="sRGB">
<feFlood flood-opacity="0" result="BackgroundImageFix"/>
<feBlend mode="normal" in="SourceGraphic" in2="BackgroundImageFix" result="shape"/>
<feGaussianBlur stdDeviation="0.415385" result="effect1_foregroundBlur_192_28344"/>
</filter>
<filter id="filter4_f_192_28344" x="-0.246154" y="-0.246154" width="20.4923" height="20.4923" filterUnits="userSpaceOnUse" color-interpolation-filters="sRGB">
<feFlood flood-opacity="0" result="BackgroundImageFix"/>
<feBlend mode="normal" in="SourceGraphic" in2="BackgroundImageFix" result="shape"/>
<feGaussianBlur stdDeviation="0.623077" result="effect1_foregroundBlur_192_28344"/>
</filter>
<radialGradient id="paint0_radial_192_28344" cx="0" cy="0" r="1" gradientUnits="userSpaceOnUse" gradientTransform="translate(19 19) rotate(-135) scale(25.4558 22.3713)">
<stop stop-color="#277782"/>
<stop offset="1" stop-color="#9FBBBF"/>
</radialGradient>
<radialGradient id="paint1_radial_192_28344" cx="0" cy="0" r="1" gradientUnits="userSpaceOnUse" gradientTransform="translate(21.121 -7.83791) rotate(122.004) scale(30.4368 21.1663)">
<stop stop-color="#26A69A"/>
<stop offset="1" stop-color="#B2F6FF"/>
</radialGradient>
<radialGradient id="paint2_radial_192_28344" cx="0" cy="0" r="1" gradientUnits="userSpaceOnUse" gradientTransform="translate(21.121 -7.83791) rotate(122.004) scale(30.4368 21.1663)">
<stop stop-color="#26A69A"/>
<stop offset="1" stop-color="#B2F6FF"/>
</radialGradient>
<radialGradient id="paint3_radial_192_28344" cx="0" cy="0" r="1" gradientUnits="userSpaceOnUse" gradientTransform="translate(21.121 -7.83791) rotate(122.004) scale(30.4368 21.1663)">
<stop stop-color="#26A69A"/>
<stop offset="1" stop-color="#B2F6FF"/>
</radialGradient>
<radialGradient id="paint4_radial_192_28344" cx="0" cy="0" r="1" gradientUnits="userSpaceOnUse" gradientTransform="translate(21.121 -7.83791) rotate(122.004) scale(30.4368 21.1663)">
<stop stop-color="#26A69A"/>
<stop offset="1" stop-color="#B2F6FF"/>
</radialGradient>
<clipPath id="clip0_192_28344">
<path d="M1 10C1 5.02944 5.02944 1 10 1C14.9706 1 19 5.02944 19 10C19 14.9706 14.9706 19 10 19C5.02944 19 1 14.9706 1 10Z" fill="white"/>
</clipPath>
</defs>
</svg>
