<svg width="144" height="144" viewBox="0 0 144 144" fill="none" xmlns="http://www.w3.org/2000/svg">
<g filter="url(#filter0_dd_192_28347)">
<g clip-path="url(#clip0_192_28347)">
<g filter="url(#filter1_dd_192_28347)">
<mask id="path-2-inside-1_192_28347" fill="white">
<path fill-rule="evenodd" clip-rule="evenodd" d="M132.667 72C132.667 105.505 105.505 132.667 72 132.667C38.4947 132.667 11.3333 105.505 11.3333 72C11.3333 38.4947 38.4947 11.3333 72 11.3333C105.505 11.3333 132.667 38.4947 132.667 72ZM137 72C137 107.899 107.899 137 72 137C36.1015 137 7 107.899 7 72C7 36.1015 36.1015 7 72 7C107.899 7 137 36.1015 137 72ZM86.13 19.2628C76.8722 16.7822 67.1246 16.7822 57.8669 19.2628L58.9858 23.4385C50.3346 25.7504 42.6026 30.3124 36.4552 36.4591L33.3904 33.3943C26.6133 40.1714 21.7395 48.6131 19.2589 57.8708L23.432 58.989C22.3221 63.1404 21.7305 67.5036 21.7305 72.0049C21.7305 76.5045 22.3217 80.8661 23.4307 85.016L19.2589 86.1339C21.7395 95.3916 26.6133 103.833 33.3904 110.61L36.4526 107.548C42.6001 113.696 50.3326 118.259 58.9845 120.571L57.8669 124.742C67.1246 127.222 76.8722 127.222 86.13 124.742L85.0122 120.57C93.6638 118.258 101.396 113.695 107.543 107.547L110.606 110.61C117.384 103.833 122.257 95.3916 124.738 86.1339L120.564 85.0154C121.673 80.8656 122.264 76.5043 122.264 72.0049C122.264 67.5038 121.672 63.1409 120.562 58.9897L124.738 57.8708C122.257 48.6131 117.384 40.1715 110.606 33.3943L107.54 36.4604C101.393 30.3136 93.6618 25.7514 85.0109 23.4392L86.13 19.2628ZM68.5312 42.1016H75.4646V101.902H68.5312V42.1016Z"/>
</mask>
<path fill-rule="evenodd" clip-rule="evenodd" d="M132.667 72C132.667 105.505 105.505 132.667 72 132.667C38.4947 132.667 11.3333 105.505 11.3333 72C11.3333 38.4947 38.4947 11.3333 72 11.3333C105.505 11.3333 132.667 38.4947 132.667 72ZM137 72C137 107.899 107.899 137 72 137C36.1015 137 7 107.899 7 72C7 36.1015 36.1015 7 72 7C107.899 7 137 36.1015 137 72ZM86.13 19.2628C76.8722 16.7822 67.1246 16.7822 57.8669 19.2628L58.9858 23.4385C50.3346 25.7504 42.6026 30.3124 36.4552 36.4591L33.3904 33.3943C26.6133 40.1714 21.7395 48.6131 19.2589 57.8708L23.432 58.989C22.3221 63.1404 21.7305 67.5036 21.7305 72.0049C21.7305 76.5045 22.3217 80.8661 23.4307 85.016L19.2589 86.1339C21.7395 95.3916 26.6133 103.833 33.3904 110.61L36.4526 107.548C42.6001 113.696 50.3326 118.259 58.9845 120.571L57.8669 124.742C67.1246 127.222 76.8722 127.222 86.13 124.742L85.0122 120.57C93.6638 118.258 101.396 113.695 107.543 107.547L110.606 110.61C117.384 103.833 122.257 95.3916 124.738 86.1339L120.564 85.0154C121.673 80.8656 122.264 76.5043 122.264 72.0049C122.264 67.5038 121.672 63.1409 120.562 58.9897L124.738 57.8708C122.257 48.6131 117.384 40.1715 110.606 33.3943L107.54 36.4604C101.393 30.3136 93.6618 25.7514 85.0109 23.4392L86.13 19.2628ZM68.5312 42.1016H75.4646V101.902H68.5312V42.1016Z" fill="url(#paint0_radial_192_28347)" shape-rendering="crispEdges"/>
<path d="M57.8669 19.2628L57.7375 18.7798L57.2545 18.9092L57.384 19.3922L57.8669 19.2628ZM86.13 19.2628L86.6129 19.3922L86.7423 18.9092L86.2594 18.7798L86.13 19.2628ZM58.9858 23.4385L59.1149 23.9216L59.5983 23.7924L59.4688 23.3091L58.9858 23.4385ZM36.4552 36.4591L36.1016 36.8126L36.4552 37.1662L36.8087 36.8127L36.4552 36.4591ZM33.3904 33.3943L33.744 33.0408L33.3904 32.6872L33.0368 33.0408L33.3904 33.3943ZM19.2589 57.8708L18.7759 57.7414L18.6465 58.2244L19.1295 58.3538L19.2589 57.8708ZM23.432 58.989L23.915 59.1181L24.0441 58.6354L23.5614 58.506L23.432 58.989ZM23.4307 85.016L23.5601 85.499L24.0427 85.3697L23.9137 84.887L23.4307 85.016ZM19.2589 86.1339L19.1295 85.6509L18.6465 85.7803L18.7759 86.2633L19.2589 86.1339ZM33.3904 110.61L33.0369 110.964L33.3904 111.317L33.744 110.964L33.3904 110.61ZM36.4526 107.548L36.8061 107.195L36.4526 106.841L36.099 107.195L36.4526 107.548ZM58.9845 120.571L59.4675 120.7L59.597 120.217L59.1136 120.088L58.9845 120.571ZM57.8669 124.742L57.384 124.612L57.2545 125.095L57.7375 125.225L57.8669 124.742ZM86.13 124.742L86.2594 125.225L86.7423 125.095L86.6129 124.612L86.13 124.742ZM85.0122 120.57L84.8831 120.087L84.3997 120.217L84.5292 120.7L85.0122 120.57ZM107.543 107.547L107.897 107.193L107.543 106.84L107.189 107.193L107.543 107.547ZM110.606 110.61L110.253 110.964L110.606 111.317L110.96 110.964L110.606 110.61ZM124.738 86.1339L125.221 86.2633L125.35 85.7803L124.867 85.6509L124.738 86.1339ZM120.564 85.0154L120.081 84.8863L119.952 85.369L120.434 85.4984L120.564 85.0154ZM120.562 58.9897L120.433 58.5067L119.95 58.636L120.079 59.1188L120.562 58.9897ZM124.738 57.8708L124.867 58.3538L125.35 58.2244L125.221 57.7414L124.738 57.8708ZM110.606 33.3943L110.96 33.0408L110.606 32.6872L110.253 33.0408L110.606 33.3943ZM107.54 36.4604L107.187 36.814L107.54 37.1675L107.894 36.814L107.54 36.4604ZM85.0109 23.4392L84.5279 23.3098L84.3984 23.793L84.8818 23.9222L85.0109 23.4392ZM75.4646 42.1016H75.9646V41.6016H75.4646V42.1016ZM68.5312 42.1016V41.6016H68.0312V42.1016H68.5312ZM75.4646 101.902V102.402H75.9646V101.902H75.4646ZM68.5312 101.902H68.0312V102.402H68.5312V101.902ZM72 133.167C105.781 133.167 133.167 105.781 133.167 72H132.167C132.167 105.229 105.229 132.167 72 132.167V133.167ZM10.8333 72C10.8333 105.781 38.2186 133.167 72 133.167V132.167C38.7709 132.167 11.8333 105.229 11.8333 72H10.8333ZM72 10.8333C38.2186 10.8333 10.8333 38.2186 10.8333 72H11.8333C11.8333 38.7709 38.7709 11.8333 72 11.8333V10.8333ZM133.167 72C133.167 38.2186 105.781 10.8333 72 10.8333V11.8333C105.229 11.8333 132.167 38.7709 132.167 72H133.167ZM72 137.5C108.175 137.5 137.5 108.175 137.5 72H136.5C136.5 107.622 107.622 136.5 72 136.5V137.5ZM6.5 72C6.5 108.175 35.8253 137.5 72 137.5V136.5C36.3776 136.5 7.5 107.622 7.5 72H6.5ZM72 6.5C35.8253 6.5 6.5 35.8253 6.5 72H7.5C7.5 36.3776 36.3776 7.5 72 7.5V6.5ZM137.5 72C137.5 35.8253 108.175 6.5 72 6.5V7.5C107.622 7.5 136.5 36.3776 136.5 72H137.5ZM57.9963 19.7458C67.1693 17.2879 76.8276 17.2879 86.0005 19.7458L86.2594 18.7798C76.9169 16.2765 67.08 16.2765 57.7375 18.7798L57.9963 19.7458ZM59.4688 23.3091L58.3499 19.1334L57.384 19.3922L58.5028 23.5679L59.4688 23.3091ZM36.8087 36.8127C42.8955 30.7266 50.5506 26.2102 59.1149 23.9216L58.8567 22.9555C50.1185 25.2906 42.3097 29.8982 36.1017 36.1055L36.8087 36.8127ZM33.0368 33.7479L36.1016 36.8126L36.8087 36.1055L33.744 33.0408L33.0368 33.7479ZM19.7419 58.0002C22.1997 48.8273 27.0289 40.4629 33.744 33.7479L33.0368 33.0408C26.1977 39.8799 21.2792 48.3989 18.7759 57.7414L19.7419 58.0002ZM23.5614 58.506L19.3883 57.3879L19.1295 58.3538L23.3026 59.472L23.5614 58.506ZM22.2305 72.0049C22.2305 67.5476 22.8163 63.2278 23.915 59.1181L22.9489 58.8599C21.8279 63.053 21.2305 67.4596 21.2305 72.0049H22.2305ZM23.9137 84.887C22.8159 80.7787 22.2305 76.4606 22.2305 72.0049H21.2305C21.2305 76.5485 21.8275 80.9534 22.9476 85.1451L23.9137 84.887ZM19.3883 86.6168L23.5601 85.499L23.3013 84.5331L19.1295 85.6509L19.3883 86.6168ZM33.744 110.257C27.0289 103.542 22.1997 95.1774 19.7419 86.0045L18.7759 86.2633C21.2792 95.6058 26.1977 104.125 33.0369 110.964L33.744 110.257ZM36.099 107.195L33.0369 110.257L33.744 110.964L36.8061 107.902L36.099 107.195ZM59.1136 120.088C50.5486 117.799 42.893 113.282 36.8061 107.195L36.099 107.902C42.3071 114.11 50.1165 118.719 58.8554 121.054L59.1136 120.088ZM58.3499 124.871L59.4675 120.7L58.5015 120.442L57.384 124.612L58.3499 124.871ZM86.0005 124.259C76.8276 126.717 67.1693 126.717 57.9963 124.259L57.7375 125.225C67.08 127.728 76.9169 127.728 86.2594 125.225L86.0005 124.259ZM84.5292 120.7L85.647 124.871L86.6129 124.612L85.4952 120.441L84.5292 120.7ZM107.189 107.193C101.103 113.281 93.4477 117.798 84.8831 120.087L85.1413 121.053C93.8798 118.717 101.689 114.109 107.897 107.9L107.189 107.193ZM110.96 110.257L107.897 107.193L107.189 107.9L110.253 110.964L110.96 110.257ZM124.255 86.0045C121.797 95.1774 116.968 103.542 110.253 110.257L110.96 110.964C117.799 104.125 122.718 95.6058 125.221 86.2633L124.255 86.0045ZM120.434 85.4984L124.609 86.6168L124.867 85.6509L120.693 84.5324L120.434 85.4984ZM121.764 72.0049C121.764 76.4603 121.178 80.7782 120.081 84.8863L121.047 85.1445C122.167 80.9529 122.764 76.5483 122.764 72.0049H121.764ZM120.079 59.1188C121.178 63.2283 121.764 67.5478 121.764 72.0049H122.764C122.764 67.4598 122.166 63.0535 121.046 58.8605L120.079 59.1188ZM124.609 57.3879L120.433 58.5067L120.692 59.4726L124.867 58.3538L124.609 57.3879ZM110.253 33.7479C116.968 40.4629 121.797 48.8273 124.255 58.0002L125.221 57.7414C122.718 48.3989 117.799 39.88 110.96 33.0408L110.253 33.7479ZM107.894 36.814L110.96 33.7479L110.253 33.0408L107.187 36.1069L107.894 36.814ZM84.8818 23.9222C93.4457 26.2112 101.1 30.7278 107.187 36.814L107.894 36.1068C101.686 29.8994 93.8778 25.2916 85.14 22.9561L84.8818 23.9222ZM85.647 19.1334L84.5279 23.3098L85.4939 23.5686L86.6129 19.3922L85.647 19.1334ZM75.4646 41.6016H68.5312V42.6016H75.4646V41.6016ZM75.9646 101.902V42.1016H74.9646V101.902H75.9646ZM68.5312 102.402H75.4646V101.402H68.5312V102.402ZM68.0312 42.1016V101.902H69.0312V42.1016H68.0312Z" fill="black" mask="url(#path-2-inside-1_192_28347)"/>
<path d="M57.8669 19.2628L57.7375 18.7798L57.2545 18.9092L57.384 19.3922L57.8669 19.2628ZM86.13 19.2628L86.6129 19.3922L86.7423 18.9092L86.2594 18.7798L86.13 19.2628ZM58.9858 23.4385L59.1149 23.9216L59.5983 23.7924L59.4688 23.3091L58.9858 23.4385ZM36.4552 36.4591L36.1016 36.8126L36.4552 37.1662L36.8087 36.8127L36.4552 36.4591ZM33.3904 33.3943L33.744 33.0408L33.3904 32.6872L33.0368 33.0408L33.3904 33.3943ZM19.2589 57.8708L18.7759 57.7414L18.6465 58.2244L19.1295 58.3538L19.2589 57.8708ZM23.432 58.989L23.915 59.1181L24.0441 58.6354L23.5614 58.506L23.432 58.989ZM23.4307 85.016L23.5601 85.499L24.0427 85.3697L23.9137 84.887L23.4307 85.016ZM19.2589 86.1339L19.1295 85.6509L18.6465 85.7803L18.7759 86.2633L19.2589 86.1339ZM33.3904 110.61L33.0369 110.964L33.3904 111.317L33.744 110.964L33.3904 110.61ZM36.4526 107.548L36.8061 107.195L36.4526 106.841L36.099 107.195L36.4526 107.548ZM58.9845 120.571L59.4675 120.7L59.597 120.217L59.1136 120.088L58.9845 120.571ZM57.8669 124.742L57.384 124.612L57.2545 125.095L57.7375 125.225L57.8669 124.742ZM86.13 124.742L86.2594 125.225L86.7423 125.095L86.6129 124.612L86.13 124.742ZM85.0122 120.57L84.8831 120.087L84.3997 120.217L84.5292 120.7L85.0122 120.57ZM107.543 107.547L107.897 107.193L107.543 106.84L107.189 107.193L107.543 107.547ZM110.606 110.61L110.253 110.964L110.606 111.317L110.96 110.964L110.606 110.61ZM124.738 86.1339L125.221 86.2633L125.35 85.7803L124.867 85.6509L124.738 86.1339ZM120.564 85.0154L120.081 84.8863L119.952 85.369L120.434 85.4984L120.564 85.0154ZM120.562 58.9897L120.433 58.5067L119.95 58.636L120.079 59.1188L120.562 58.9897ZM124.738 57.8708L124.867 58.3538L125.35 58.2244L125.221 57.7414L124.738 57.8708ZM110.606 33.3943L110.96 33.0408L110.606 32.6872L110.253 33.0408L110.606 33.3943ZM107.54 36.4604L107.187 36.814L107.54 37.1675L107.894 36.814L107.54 36.4604ZM85.0109 23.4392L84.5279 23.3098L84.3984 23.793L84.8818 23.9222L85.0109 23.4392ZM75.4646 42.1016H75.9646V41.6016H75.4646V42.1016ZM68.5312 42.1016V41.6016H68.0312V42.1016H68.5312ZM75.4646 101.902V102.402H75.9646V101.902H75.4646ZM68.5312 101.902H68.0312V102.402H68.5312V101.902ZM72 133.167C105.781 133.167 133.167 105.781 133.167 72H132.167C132.167 105.229 105.229 132.167 72 132.167V133.167ZM10.8333 72C10.8333 105.781 38.2186 133.167 72 133.167V132.167C38.7709 132.167 11.8333 105.229 11.8333 72H10.8333ZM72 10.8333C38.2186 10.8333 10.8333 38.2186 10.8333 72H11.8333C11.8333 38.7709 38.7709 11.8333 72 11.8333V10.8333ZM133.167 72C133.167 38.2186 105.781 10.8333 72 10.8333V11.8333C105.229 11.8333 132.167 38.7709 132.167 72H133.167ZM72 137.5C108.175 137.5 137.5 108.175 137.5 72H136.5C136.5 107.622 107.622 136.5 72 136.5V137.5ZM6.5 72C6.5 108.175 35.8253 137.5 72 137.5V136.5C36.3776 136.5 7.5 107.622 7.5 72H6.5ZM72 6.5C35.8253 6.5 6.5 35.8253 6.5 72H7.5C7.5 36.3776 36.3776 7.5 72 7.5V6.5ZM137.5 72C137.5 35.8253 108.175 6.5 72 6.5V7.5C107.622 7.5 136.5 36.3776 136.5 72H137.5ZM57.9963 19.7458C67.1693 17.2879 76.8276 17.2879 86.0005 19.7458L86.2594 18.7798C76.9169 16.2765 67.08 16.2765 57.7375 18.7798L57.9963 19.7458ZM59.4688 23.3091L58.3499 19.1334L57.384 19.3922L58.5028 23.5679L59.4688 23.3091ZM36.8087 36.8127C42.8955 30.7266 50.5506 26.2102 59.1149 23.9216L58.8567 22.9555C50.1185 25.2906 42.3097 29.8982 36.1017 36.1055L36.8087 36.8127ZM33.0368 33.7479L36.1016 36.8126L36.8087 36.1055L33.744 33.0408L33.0368 33.7479ZM19.7419 58.0002C22.1997 48.8273 27.0289 40.4629 33.744 33.7479L33.0368 33.0408C26.1977 39.8799 21.2792 48.3989 18.7759 57.7414L19.7419 58.0002ZM23.5614 58.506L19.3883 57.3879L19.1295 58.3538L23.3026 59.472L23.5614 58.506ZM22.2305 72.0049C22.2305 67.5476 22.8163 63.2278 23.915 59.1181L22.9489 58.8599C21.8279 63.053 21.2305 67.4596 21.2305 72.0049H22.2305ZM23.9137 84.887C22.8159 80.7787 22.2305 76.4606 22.2305 72.0049H21.2305C21.2305 76.5485 21.8275 80.9534 22.9476 85.1451L23.9137 84.887ZM19.3883 86.6168L23.5601 85.499L23.3013 84.5331L19.1295 85.6509L19.3883 86.6168ZM33.744 110.257C27.0289 103.542 22.1997 95.1774 19.7419 86.0045L18.7759 86.2633C21.2792 95.6058 26.1977 104.125 33.0369 110.964L33.744 110.257ZM36.099 107.195L33.0369 110.257L33.744 110.964L36.8061 107.902L36.099 107.195ZM59.1136 120.088C50.5486 117.799 42.893 113.282 36.8061 107.195L36.099 107.902C42.3071 114.11 50.1165 118.719 58.8554 121.054L59.1136 120.088ZM58.3499 124.871L59.4675 120.7L58.5015 120.442L57.384 124.612L58.3499 124.871ZM86.0005 124.259C76.8276 126.717 67.1693 126.717 57.9963 124.259L57.7375 125.225C67.08 127.728 76.9169 127.728 86.2594 125.225L86.0005 124.259ZM84.5292 120.7L85.647 124.871L86.6129 124.612L85.4952 120.441L84.5292 120.7ZM107.189 107.193C101.103 113.281 93.4477 117.798 84.8831 120.087L85.1413 121.053C93.8798 118.717 101.689 114.109 107.897 107.9L107.189 107.193ZM110.96 110.257L107.897 107.193L107.189 107.9L110.253 110.964L110.96 110.257ZM124.255 86.0045C121.797 95.1774 116.968 103.542 110.253 110.257L110.96 110.964C117.799 104.125 122.718 95.6058 125.221 86.2633L124.255 86.0045ZM120.434 85.4984L124.609 86.6168L124.867 85.6509L120.693 84.5324L120.434 85.4984ZM121.764 72.0049C121.764 76.4603 121.178 80.7782 120.081 84.8863L121.047 85.1445C122.167 80.9529 122.764 76.5483 122.764 72.0049H121.764ZM120.079 59.1188C121.178 63.2283 121.764 67.5478 121.764 72.0049H122.764C122.764 67.4598 122.166 63.0535 121.046 58.8605L120.079 59.1188ZM124.609 57.3879L120.433 58.5067L120.692 59.4726L124.867 58.3538L124.609 57.3879ZM110.253 33.7479C116.968 40.4629 121.797 48.8273 124.255 58.0002L125.221 57.7414C122.718 48.3989 117.799 39.88 110.96 33.0408L110.253 33.7479ZM107.894 36.814L110.96 33.7479L110.253 33.0408L107.187 36.1069L107.894 36.814ZM84.8818 23.9222C93.4457 26.2112 101.1 30.7278 107.187 36.814L107.894 36.1068C101.686 29.8994 93.8778 25.2916 85.14 22.9561L84.8818 23.9222ZM85.647 19.1334L84.5279 23.3098L85.4939 23.5686L86.6129 19.3922L85.647 19.1334ZM75.4646 41.6016H68.5312V42.6016H75.4646V41.6016ZM75.9646 101.902V42.1016H74.9646V101.902H75.9646ZM68.5312 102.402H75.4646V101.402H68.5312V102.402ZM68.0312 42.1016V101.902H69.0312V42.1016H68.0312Z" fill="url(#paint1_radial_192_28347)" mask="url(#path-2-inside-1_192_28347)"/>
</g>
<mask id="mask0_192_28347" style="mask-type:alpha" maskUnits="userSpaceOnUse" x="7" y="7" width="130" height="130">
<path fill-rule="evenodd" clip-rule="evenodd" d="M132.667 72C132.667 105.505 105.505 132.667 72 132.667C38.4947 132.667 11.3333 105.505 11.3333 72C11.3333 38.4947 38.4947 11.3333 72 11.3333C105.505 11.3333 132.667 38.4947 132.667 72ZM137 72C137 107.899 107.899 137 72 137C36.1015 137 7 107.899 7 72C7 36.1015 36.1015 7 72 7C107.899 7 137 36.1015 137 72ZM86.13 19.2628C76.8722 16.7822 67.1246 16.7822 57.8669 19.2628L58.9858 23.4385C50.3346 25.7504 42.6026 30.3124 36.4552 36.4591L33.3904 33.3943C26.6133 40.1714 21.7395 48.6131 19.2589 57.8708L23.432 58.989C22.3221 63.1404 21.7305 67.5036 21.7305 72.0049C21.7305 76.5045 22.3217 80.8661 23.4307 85.016L19.2589 86.1339C21.7395 95.3916 26.6133 103.833 33.3904 110.61L36.4526 107.548C42.6001 113.696 50.3326 118.259 58.9845 120.571L57.8669 124.742C67.1246 127.222 76.8722 127.222 86.13 124.742L85.0122 120.57C93.6638 118.258 101.396 113.695 107.543 107.547L110.606 110.61C117.384 103.833 122.257 95.3916 124.738 86.1339L120.564 85.0154C121.673 80.8656 122.264 76.5043 122.264 72.0049C122.264 67.5038 121.672 63.1409 120.562 58.9897L124.738 57.8708C122.257 48.6131 117.384 40.1715 110.606 33.3943L107.54 36.4604C101.393 30.3136 93.6618 25.7514 85.0109 23.4392L86.13 19.2628ZM68.5312 42.1016H75.4646V101.902H68.5312V42.1016Z" fill="#C4C4C4"/>
</mask>
<g mask="url(#mask0_192_28347)">
<g filter="url(#filter2_f_192_28347)">
<mask id="path-5-inside-2_192_28347" fill="white">
<path fill-rule="evenodd" clip-rule="evenodd" d="M132.667 72C132.667 105.505 105.505 132.667 72 132.667C38.4947 132.667 11.3333 105.505 11.3333 72C11.3333 38.4947 38.4947 11.3333 72 11.3333C105.505 11.3333 132.667 38.4947 132.667 72ZM137 72C137 107.899 107.899 137 72 137C36.1015 137 7 107.899 7 72C7 36.1015 36.1015 7 72 7C107.899 7 137 36.1015 137 72ZM86.13 19.2628C76.8722 16.7822 67.1246 16.7822 57.8669 19.2628L58.9858 23.4385C50.3346 25.7504 42.6026 30.3124 36.4552 36.4591L33.3904 33.3943C26.6133 40.1714 21.7395 48.6131 19.2589 57.8708L23.432 58.989C22.3221 63.1404 21.7305 67.5036 21.7305 72.0049C21.7305 76.5045 22.3217 80.8661 23.4307 85.016L19.2589 86.1339C21.7395 95.3916 26.6133 103.833 33.3904 110.61L36.4526 107.548C42.6001 113.696 50.3326 118.259 58.9845 120.571L57.8669 124.742C67.1246 127.222 76.8722 127.222 86.13 124.742L85.0122 120.57C93.6638 118.258 101.396 113.695 107.543 107.547L110.606 110.61C117.384 103.833 122.257 95.3916 124.738 86.1339L120.564 85.0154C121.673 80.8656 122.264 76.5043 122.264 72.0049C122.264 67.5038 121.672 63.1409 120.562 58.9897L124.738 57.8708C122.257 48.6131 117.384 40.1715 110.606 33.3943L107.54 36.4604C101.393 30.3136 93.6618 25.7514 85.0109 23.4392L86.13 19.2628ZM68.5312 42.1016H75.4646V101.902H68.5312V42.1016Z"/>
</mask>
<path d="M57.8669 19.2628L57.6081 18.2969L56.6422 18.5557L56.901 19.5216L57.8669 19.2628ZM86.13 19.2628L87.0959 19.5216L87.3547 18.5557L86.3888 18.2969L86.13 19.2628ZM58.9858 23.4385L59.244 24.4046L60.2107 24.1463L59.9517 23.1797L58.9858 23.4385ZM36.4552 36.4591L35.7481 37.1662L36.4551 37.8733L37.1623 37.1662L36.4552 36.4591ZM33.3904 33.3943L34.0975 32.6872L33.3904 31.9801L32.6833 32.6872L33.3904 33.3943ZM19.2589 57.8708L18.293 57.612L18.0341 58.5779L19.0001 58.8367L19.2589 57.8708ZM23.432 58.989L24.398 59.2473L24.6562 58.2817L23.6908 58.0231L23.432 58.989ZM23.4307 85.016L23.6895 85.982L24.6548 85.7233L24.3968 84.7579L23.4307 85.016ZM19.2589 86.1339L19.0001 85.1679L18.0341 85.4268L18.293 86.3927L19.2589 86.1339ZM33.3904 110.61L32.6833 111.317L33.3904 112.025L34.0975 111.317L33.3904 110.61ZM36.4526 107.548L37.1597 106.841L36.4526 106.134L35.7455 106.841L36.4526 107.548ZM58.9845 120.571L59.9504 120.83L60.2094 119.863L59.2427 119.605L58.9845 120.571ZM57.8669 124.742L56.901 124.483L56.6422 125.449L57.6081 125.708L57.8669 124.742ZM86.13 124.742L86.3888 125.708L87.3547 125.449L87.0959 124.483L86.13 124.742ZM85.0122 120.57L84.7539 119.604L83.7873 119.863L84.0463 120.829L85.0122 120.57ZM107.543 107.547L108.25 106.84L107.543 106.133L106.836 106.84L107.543 107.547ZM110.606 110.61L109.899 111.317L110.606 112.025L111.314 111.317L110.606 110.61ZM124.738 86.1339L125.704 86.3927L125.963 85.4268L124.997 85.1679L124.738 86.1339ZM120.564 85.0154L119.598 84.7572L119.34 85.7227L120.305 85.9813L120.564 85.0154ZM120.562 58.9897L120.304 58.0237L119.338 58.2824L119.596 59.2479L120.562 58.9897ZM124.738 57.8708L124.997 58.8368L125.963 58.5779L125.704 57.612L124.738 57.8708ZM110.606 33.3943L111.314 32.6872L110.606 31.9801L109.899 32.6872L110.606 33.3943ZM107.54 36.4604L106.833 37.1675L107.54 37.8746L108.247 37.1675L107.54 36.4604ZM85.0109 23.4392L84.045 23.1804L83.786 24.1469L84.7527 24.4053L85.0109 23.4392ZM75.4646 42.1016H76.4646V41.1016H75.4646V42.1016ZM68.5312 42.1016V41.1016H67.5312V42.1016H68.5312ZM75.4646 101.902V102.902H76.4646V101.902H75.4646ZM68.5312 101.902H67.5312V102.902H68.5312V101.902ZM72 133.667C106.058 133.667 133.667 106.058 133.667 72H131.667C131.667 104.953 104.953 131.667 72 131.667V133.667ZM10.3333 72C10.3333 106.058 37.9424 133.667 72 133.667V131.667C39.047 131.667 12.3333 104.953 12.3333 72H10.3333ZM72 10.3333C37.9424 10.3333 10.3333 37.9424 10.3333 72H12.3333C12.3333 39.047 39.047 12.3333 72 12.3333V10.3333ZM133.667 72C133.667 37.9424 106.058 10.3333 72 10.3333V12.3333C104.953 12.3333 131.667 39.047 131.667 72H133.667ZM72 138C108.451 138 138 108.451 138 72H136C136 107.346 107.346 136 72 136V138ZM6 72C6 108.451 35.5492 138 72 138V136C36.6538 136 8 107.346 8 72H6ZM72 6C35.5492 6 6 35.5492 6 72H8C8 36.6538 36.6538 8 72 8V6ZM138 72C138 35.5492 108.451 6 72 6V8C107.346 8 136 36.6538 136 72H138ZM58.1257 20.2287C67.2139 17.7936 76.783 17.7936 85.8711 20.2287L86.3888 18.2969C76.9615 15.7708 67.0354 15.7708 57.6081 18.2969L58.1257 20.2287ZM59.9517 23.1797L58.8328 19.004L56.901 19.5216L58.0199 23.6974L59.9517 23.1797ZM37.1623 37.1662C43.1884 31.1408 50.7666 26.67 59.244 24.4046L58.7276 22.4724C49.9025 24.8308 42.0167 29.484 35.7481 35.7519L37.1623 37.1662ZM32.6833 34.1014L35.7481 37.1662L37.1623 35.752L34.0975 32.6872L32.6833 34.1014ZM20.2248 58.1296C22.66 49.0415 27.4445 40.7544 34.0975 34.1014L32.6833 32.6872C25.7821 39.5885 20.819 48.1847 18.293 57.612L20.2248 58.1296ZM23.6908 58.0231L19.5177 56.9049L19.0001 58.8367L23.1731 59.9549L23.6908 58.0231ZM22.7305 72.0049C22.7305 67.5916 23.3105 63.3152 24.398 59.2473L22.4659 58.7307C21.3337 62.9657 20.7305 67.4156 20.7305 72.0049H22.7305ZM24.3968 84.7579C23.3101 80.6913 22.7305 76.4166 22.7305 72.0049H20.7305C20.7305 76.5925 21.3333 81.0408 22.4646 85.2742L24.3968 84.7579ZM19.5177 87.0998L23.6895 85.982L23.1718 84.0501L19.0001 85.1679L19.5177 87.0998ZM34.0975 109.903C27.4445 103.25 22.66 94.9632 20.2248 85.875L18.293 86.3927C20.819 95.82 25.7821 104.416 32.6833 111.317L34.0975 109.903ZM35.7455 106.841L32.6833 109.903L34.0975 111.317L37.1597 108.255L35.7455 106.841ZM59.2427 119.605C50.7647 117.339 43.186 112.868 37.1597 106.841L35.7455 108.255C42.0142 114.524 49.9005 119.178 58.7263 121.537L59.2427 119.605ZM58.8328 125.001L59.9504 120.83L58.0186 120.312L56.901 124.483L58.8328 125.001ZM85.8711 123.776C76.783 126.211 67.2139 126.211 58.1257 123.776L57.6081 125.708C67.0354 128.234 76.9615 128.234 86.3888 125.708L85.8711 123.776ZM84.0463 120.829L85.164 125.001L87.0959 124.483L85.9781 120.312L84.0463 120.829ZM106.836 106.84C100.81 112.866 93.2316 117.338 84.7539 119.604L85.2704 121.536C94.0959 119.177 101.982 114.523 108.25 108.254L106.836 106.84ZM111.314 109.903L108.25 106.84L106.836 108.254L109.899 111.317L111.314 109.903ZM123.772 85.875C121.337 94.9632 116.552 103.25 109.899 109.903L111.314 111.317C118.215 104.416 123.178 95.82 125.704 86.3927L123.772 85.875ZM120.305 85.9813L124.479 87.0998L124.997 85.1679L120.823 84.0495L120.305 85.9813ZM121.264 72.0049C121.264 76.4164 120.684 80.6909 119.598 84.7572L121.53 85.2735C122.661 81.0403 123.264 76.5922 123.264 72.0049H121.264ZM119.596 59.2479C120.684 63.3157 121.264 67.5918 121.264 72.0049H123.264C123.264 67.4159 122.661 62.9661 121.529 58.7314L119.596 59.2479ZM124.479 56.9049L120.304 58.0237L120.821 59.9556L124.997 58.8368L124.479 56.9049ZM109.899 34.1014C116.552 40.7544 121.337 49.0415 123.772 58.1297L125.704 57.612C123.178 48.1847 118.215 39.5885 111.314 32.6872L109.899 34.1014ZM108.247 37.1675L111.314 34.1014L109.899 32.6872L106.833 35.7533L108.247 37.1675ZM84.7527 24.4053C93.2297 26.671 100.808 31.142 106.833 37.1675L108.247 35.7533C101.979 29.4853 94.0939 24.8318 85.2691 22.4731L84.7527 24.4053ZM85.164 19.004L84.045 23.1804L85.9768 23.698L87.0959 19.5216L85.164 19.004ZM75.4646 41.1016H68.5312V43.1016H75.4646V41.1016ZM76.4646 101.902V42.1016H74.4646V101.902H76.4646ZM68.5312 102.902H75.4646V100.902H68.5312V102.902ZM67.5312 42.1016V101.902H69.5312V42.1016H67.5312Z" fill="black" mask="url(#path-5-inside-2_192_28347)"/>
<path d="M57.8669 19.2628L57.6081 18.2969L56.6422 18.5557L56.901 19.5216L57.8669 19.2628ZM86.13 19.2628L87.0959 19.5216L87.3547 18.5557L86.3888 18.2969L86.13 19.2628ZM58.9858 23.4385L59.244 24.4046L60.2107 24.1463L59.9517 23.1797L58.9858 23.4385ZM36.4552 36.4591L35.7481 37.1662L36.4551 37.8733L37.1623 37.1662L36.4552 36.4591ZM33.3904 33.3943L34.0975 32.6872L33.3904 31.9801L32.6833 32.6872L33.3904 33.3943ZM19.2589 57.8708L18.293 57.612L18.0341 58.5779L19.0001 58.8367L19.2589 57.8708ZM23.432 58.989L24.398 59.2473L24.6562 58.2817L23.6908 58.0231L23.432 58.989ZM23.4307 85.016L23.6895 85.982L24.6548 85.7233L24.3968 84.7579L23.4307 85.016ZM19.2589 86.1339L19.0001 85.1679L18.0341 85.4268L18.293 86.3927L19.2589 86.1339ZM33.3904 110.61L32.6833 111.317L33.3904 112.025L34.0975 111.317L33.3904 110.61ZM36.4526 107.548L37.1597 106.841L36.4526 106.134L35.7455 106.841L36.4526 107.548ZM58.9845 120.571L59.9504 120.83L60.2094 119.863L59.2427 119.605L58.9845 120.571ZM57.8669 124.742L56.901 124.483L56.6422 125.449L57.6081 125.708L57.8669 124.742ZM86.13 124.742L86.3888 125.708L87.3547 125.449L87.0959 124.483L86.13 124.742ZM85.0122 120.57L84.7539 119.604L83.7873 119.863L84.0463 120.829L85.0122 120.57ZM107.543 107.547L108.25 106.84L107.543 106.133L106.836 106.84L107.543 107.547ZM110.606 110.61L109.899 111.317L110.606 112.025L111.314 111.317L110.606 110.61ZM124.738 86.1339L125.704 86.3927L125.963 85.4268L124.997 85.1679L124.738 86.1339ZM120.564 85.0154L119.598 84.7572L119.34 85.7227L120.305 85.9813L120.564 85.0154ZM120.562 58.9897L120.304 58.0237L119.338 58.2824L119.596 59.2479L120.562 58.9897ZM124.738 57.8708L124.997 58.8368L125.963 58.5779L125.704 57.612L124.738 57.8708ZM110.606 33.3943L111.314 32.6872L110.606 31.9801L109.899 32.6872L110.606 33.3943ZM107.54 36.4604L106.833 37.1675L107.54 37.8746L108.247 37.1675L107.54 36.4604ZM85.0109 23.4392L84.045 23.1804L83.786 24.1469L84.7527 24.4053L85.0109 23.4392ZM75.4646 42.1016H76.4646V41.1016H75.4646V42.1016ZM68.5312 42.1016V41.1016H67.5312V42.1016H68.5312ZM75.4646 101.902V102.902H76.4646V101.902H75.4646ZM68.5312 101.902H67.5312V102.902H68.5312V101.902ZM72 133.667C106.058 133.667 133.667 106.058 133.667 72H131.667C131.667 104.953 104.953 131.667 72 131.667V133.667ZM10.3333 72C10.3333 106.058 37.9424 133.667 72 133.667V131.667C39.047 131.667 12.3333 104.953 12.3333 72H10.3333ZM72 10.3333C37.9424 10.3333 10.3333 37.9424 10.3333 72H12.3333C12.3333 39.047 39.047 12.3333 72 12.3333V10.3333ZM133.667 72C133.667 37.9424 106.058 10.3333 72 10.3333V12.3333C104.953 12.3333 131.667 39.047 131.667 72H133.667ZM72 138C108.451 138 138 108.451 138 72H136C136 107.346 107.346 136 72 136V138ZM6 72C6 108.451 35.5492 138 72 138V136C36.6538 136 8 107.346 8 72H6ZM72 6C35.5492 6 6 35.5492 6 72H8C8 36.6538 36.6538 8 72 8V6ZM138 72C138 35.5492 108.451 6 72 6V8C107.346 8 136 36.6538 136 72H138ZM58.1257 20.2287C67.2139 17.7936 76.783 17.7936 85.8711 20.2287L86.3888 18.2969C76.9615 15.7708 67.0354 15.7708 57.6081 18.2969L58.1257 20.2287ZM59.9517 23.1797L58.8328 19.004L56.901 19.5216L58.0199 23.6974L59.9517 23.1797ZM37.1623 37.1662C43.1884 31.1408 50.7666 26.67 59.244 24.4046L58.7276 22.4724C49.9025 24.8308 42.0167 29.484 35.7481 35.7519L37.1623 37.1662ZM32.6833 34.1014L35.7481 37.1662L37.1623 35.752L34.0975 32.6872L32.6833 34.1014ZM20.2248 58.1296C22.66 49.0415 27.4445 40.7544 34.0975 34.1014L32.6833 32.6872C25.7821 39.5885 20.819 48.1847 18.293 57.612L20.2248 58.1296ZM23.6908 58.0231L19.5177 56.9049L19.0001 58.8367L23.1731 59.9549L23.6908 58.0231ZM22.7305 72.0049C22.7305 67.5916 23.3105 63.3152 24.398 59.2473L22.4659 58.7307C21.3337 62.9657 20.7305 67.4156 20.7305 72.0049H22.7305ZM24.3968 84.7579C23.3101 80.6913 22.7305 76.4166 22.7305 72.0049H20.7305C20.7305 76.5925 21.3333 81.0408 22.4646 85.2742L24.3968 84.7579ZM19.5177 87.0998L23.6895 85.982L23.1718 84.0501L19.0001 85.1679L19.5177 87.0998ZM34.0975 109.903C27.4445 103.25 22.66 94.9632 20.2248 85.875L18.293 86.3927C20.819 95.82 25.7821 104.416 32.6833 111.317L34.0975 109.903ZM35.7455 106.841L32.6833 109.903L34.0975 111.317L37.1597 108.255L35.7455 106.841ZM59.2427 119.605C50.7647 117.339 43.186 112.868 37.1597 106.841L35.7455 108.255C42.0142 114.524 49.9005 119.178 58.7263 121.537L59.2427 119.605ZM58.8328 125.001L59.9504 120.83L58.0186 120.312L56.901 124.483L58.8328 125.001ZM85.8711 123.776C76.783 126.211 67.2139 126.211 58.1257 123.776L57.6081 125.708C67.0354 128.234 76.9615 128.234 86.3888 125.708L85.8711 123.776ZM84.0463 120.829L85.164 125.001L87.0959 124.483L85.9781 120.312L84.0463 120.829ZM106.836 106.84C100.81 112.866 93.2316 117.338 84.7539 119.604L85.2704 121.536C94.0959 119.177 101.982 114.523 108.25 108.254L106.836 106.84ZM111.314 109.903L108.25 106.84L106.836 108.254L109.899 111.317L111.314 109.903ZM123.772 85.875C121.337 94.9632 116.552 103.25 109.899 109.903L111.314 111.317C118.215 104.416 123.178 95.82 125.704 86.3927L123.772 85.875ZM120.305 85.9813L124.479 87.0998L124.997 85.1679L120.823 84.0495L120.305 85.9813ZM121.264 72.0049C121.264 76.4164 120.684 80.6909 119.598 84.7572L121.53 85.2735C122.661 81.0403 123.264 76.5922 123.264 72.0049H121.264ZM119.596 59.2479C120.684 63.3157 121.264 67.5918 121.264 72.0049H123.264C123.264 67.4159 122.661 62.9661 121.529 58.7314L119.596 59.2479ZM124.479 56.9049L120.304 58.0237L120.821 59.9556L124.997 58.8368L124.479 56.9049ZM109.899 34.1014C116.552 40.7544 121.337 49.0415 123.772 58.1297L125.704 57.612C123.178 48.1847 118.215 39.5885 111.314 32.6872L109.899 34.1014ZM108.247 37.1675L111.314 34.1014L109.899 32.6872L106.833 35.7533L108.247 37.1675ZM84.7527 24.4053C93.2297 26.671 100.808 31.142 106.833 37.1675L108.247 35.7533C101.979 29.4853 94.0939 24.8318 85.2691 22.4731L84.7527 24.4053ZM85.164 19.004L84.045 23.1804L85.9768 23.698L87.0959 19.5216L85.164 19.004ZM75.4646 41.1016H68.5312V43.1016H75.4646V41.1016ZM76.4646 101.902V42.1016H74.4646V101.902H76.4646ZM68.5312 102.902H75.4646V100.902H68.5312V102.902ZM67.5312 42.1016V101.902H69.5312V42.1016H67.5312Z" fill="url(#paint2_radial_192_28347)" mask="url(#path-5-inside-2_192_28347)"/>
</g>
<g filter="url(#filter3_f_192_28347)">
<mask id="path-7-inside-3_192_28347" fill="white">
<path fill-rule="evenodd" clip-rule="evenodd" d="M132.667 72C132.667 105.505 105.505 132.667 72 132.667C38.4947 132.667 11.3333 105.505 11.3333 72C11.3333 38.4947 38.4947 11.3333 72 11.3333C105.505 11.3333 132.667 38.4947 132.667 72ZM137 72C137 107.899 107.899 137 72 137C36.1015 137 7 107.899 7 72C7 36.1015 36.1015 7 72 7C107.899 7 137 36.1015 137 72ZM86.13 19.2628C76.8722 16.7822 67.1246 16.7822 57.8669 19.2628L58.9858 23.4385C50.3346 25.7504 42.6026 30.3124 36.4552 36.4591L33.3904 33.3943C26.6133 40.1714 21.7395 48.6131 19.2589 57.8708L23.432 58.989C22.3221 63.1404 21.7305 67.5036 21.7305 72.0049C21.7305 76.5045 22.3217 80.8661 23.4307 85.016L19.2589 86.1339C21.7395 95.3916 26.6133 103.833 33.3904 110.61L36.4526 107.548C42.6001 113.696 50.3326 118.259 58.9845 120.571L57.8669 124.742C67.1246 127.222 76.8722 127.222 86.13 124.742L85.0122 120.57C93.6638 118.258 101.396 113.695 107.543 107.547L110.606 110.61C117.384 103.833 122.257 95.3916 124.738 86.1339L120.564 85.0154C121.673 80.8656 122.264 76.5043 122.264 72.0049C122.264 67.5038 121.672 63.1409 120.562 58.9897L124.738 57.8708C122.257 48.6131 117.384 40.1715 110.606 33.3943L107.54 36.4604C101.393 30.3136 93.6618 25.7514 85.0109 23.4392L86.13 19.2628ZM68.5312 42.1016H75.4646V101.902H68.5312V42.1016Z"/>
</mask>
<path d="M57.8669 19.2628L57.6081 18.2969L56.6422 18.5557L56.901 19.5216L57.8669 19.2628ZM86.13 19.2628L87.0959 19.5216L87.3547 18.5557L86.3888 18.2969L86.13 19.2628ZM58.9858 23.4385L59.244 24.4046L60.2107 24.1463L59.9517 23.1797L58.9858 23.4385ZM36.4552 36.4591L35.7481 37.1662L36.4551 37.8733L37.1623 37.1662L36.4552 36.4591ZM33.3904 33.3943L34.0975 32.6872L33.3904 31.9801L32.6833 32.6872L33.3904 33.3943ZM19.2589 57.8708L18.293 57.612L18.0341 58.5779L19.0001 58.8367L19.2589 57.8708ZM23.432 58.989L24.398 59.2473L24.6562 58.2817L23.6908 58.0231L23.432 58.989ZM23.4307 85.016L23.6895 85.982L24.6548 85.7233L24.3968 84.7579L23.4307 85.016ZM19.2589 86.1339L19.0001 85.1679L18.0341 85.4268L18.293 86.3927L19.2589 86.1339ZM33.3904 110.61L32.6833 111.317L33.3904 112.025L34.0975 111.317L33.3904 110.61ZM36.4526 107.548L37.1597 106.841L36.4526 106.134L35.7455 106.841L36.4526 107.548ZM58.9845 120.571L59.9504 120.83L60.2094 119.863L59.2427 119.605L58.9845 120.571ZM57.8669 124.742L56.901 124.483L56.6422 125.449L57.6081 125.708L57.8669 124.742ZM86.13 124.742L86.3888 125.708L87.3547 125.449L87.0959 124.483L86.13 124.742ZM85.0122 120.57L84.7539 119.604L83.7873 119.863L84.0463 120.829L85.0122 120.57ZM107.543 107.547L108.25 106.84L107.543 106.133L106.836 106.84L107.543 107.547ZM110.606 110.61L109.899 111.317L110.606 112.025L111.314 111.317L110.606 110.61ZM124.738 86.1339L125.704 86.3927L125.963 85.4268L124.997 85.1679L124.738 86.1339ZM120.564 85.0154L119.598 84.7572L119.34 85.7227L120.305 85.9813L120.564 85.0154ZM120.562 58.9897L120.304 58.0237L119.338 58.2824L119.596 59.2479L120.562 58.9897ZM124.738 57.8708L124.997 58.8368L125.963 58.5779L125.704 57.612L124.738 57.8708ZM110.606 33.3943L111.314 32.6872L110.606 31.9801L109.899 32.6872L110.606 33.3943ZM107.54 36.4604L106.833 37.1675L107.54 37.8746L108.247 37.1675L107.54 36.4604ZM85.0109 23.4392L84.045 23.1804L83.786 24.1469L84.7527 24.4053L85.0109 23.4392ZM75.4646 42.1016H76.4646V41.1016H75.4646V42.1016ZM68.5312 42.1016V41.1016H67.5312V42.1016H68.5312ZM75.4646 101.902V102.902H76.4646V101.902H75.4646ZM68.5312 101.902H67.5312V102.902H68.5312V101.902ZM72 133.667C106.058 133.667 133.667 106.058 133.667 72H131.667C131.667 104.953 104.953 131.667 72 131.667V133.667ZM10.3333 72C10.3333 106.058 37.9424 133.667 72 133.667V131.667C39.047 131.667 12.3333 104.953 12.3333 72H10.3333ZM72 10.3333C37.9424 10.3333 10.3333 37.9424 10.3333 72H12.3333C12.3333 39.047 39.047 12.3333 72 12.3333V10.3333ZM133.667 72C133.667 37.9424 106.058 10.3333 72 10.3333V12.3333C104.953 12.3333 131.667 39.047 131.667 72H133.667ZM72 138C108.451 138 138 108.451 138 72H136C136 107.346 107.346 136 72 136V138ZM6 72C6 108.451 35.5492 138 72 138V136C36.6538 136 8 107.346 8 72H6ZM72 6C35.5492 6 6 35.5492 6 72H8C8 36.6538 36.6538 8 72 8V6ZM138 72C138 35.5492 108.451 6 72 6V8C107.346 8 136 36.6538 136 72H138ZM58.1257 20.2287C67.2139 17.7936 76.783 17.7936 85.8711 20.2287L86.3888 18.2969C76.9615 15.7708 67.0354 15.7708 57.6081 18.2969L58.1257 20.2287ZM59.9517 23.1797L58.8328 19.004L56.901 19.5216L58.0199 23.6974L59.9517 23.1797ZM37.1623 37.1662C43.1884 31.1408 50.7666 26.67 59.244 24.4046L58.7276 22.4724C49.9025 24.8308 42.0167 29.484 35.7481 35.7519L37.1623 37.1662ZM32.6833 34.1014L35.7481 37.1662L37.1623 35.752L34.0975 32.6872L32.6833 34.1014ZM20.2248 58.1296C22.66 49.0415 27.4445 40.7544 34.0975 34.1014L32.6833 32.6872C25.7821 39.5885 20.819 48.1847 18.293 57.612L20.2248 58.1296ZM23.6908 58.0231L19.5177 56.9049L19.0001 58.8367L23.1731 59.9549L23.6908 58.0231ZM22.7305 72.0049C22.7305 67.5916 23.3105 63.3152 24.398 59.2473L22.4659 58.7307C21.3337 62.9657 20.7305 67.4156 20.7305 72.0049H22.7305ZM24.3968 84.7579C23.3101 80.6913 22.7305 76.4166 22.7305 72.0049H20.7305C20.7305 76.5925 21.3333 81.0408 22.4646 85.2742L24.3968 84.7579ZM19.5177 87.0998L23.6895 85.982L23.1718 84.0501L19.0001 85.1679L19.5177 87.0998ZM34.0975 109.903C27.4445 103.25 22.66 94.9632 20.2248 85.875L18.293 86.3927C20.819 95.82 25.7821 104.416 32.6833 111.317L34.0975 109.903ZM35.7455 106.841L32.6833 109.903L34.0975 111.317L37.1597 108.255L35.7455 106.841ZM59.2427 119.605C50.7647 117.339 43.186 112.868 37.1597 106.841L35.7455 108.255C42.0142 114.524 49.9005 119.178 58.7263 121.537L59.2427 119.605ZM58.8328 125.001L59.9504 120.83L58.0186 120.312L56.901 124.483L58.8328 125.001ZM85.8711 123.776C76.783 126.211 67.2139 126.211 58.1257 123.776L57.6081 125.708C67.0354 128.234 76.9615 128.234 86.3888 125.708L85.8711 123.776ZM84.0463 120.829L85.164 125.001L87.0959 124.483L85.9781 120.312L84.0463 120.829ZM106.836 106.84C100.81 112.866 93.2316 117.338 84.7539 119.604L85.2704 121.536C94.0959 119.177 101.982 114.523 108.25 108.254L106.836 106.84ZM111.314 109.903L108.25 106.84L106.836 108.254L109.899 111.317L111.314 109.903ZM123.772 85.875C121.337 94.9632 116.552 103.25 109.899 109.903L111.314 111.317C118.215 104.416 123.178 95.82 125.704 86.3927L123.772 85.875ZM120.305 85.9813L124.479 87.0998L124.997 85.1679L120.823 84.0495L120.305 85.9813ZM121.264 72.0049C121.264 76.4164 120.684 80.6909 119.598 84.7572L121.53 85.2735C122.661 81.0403 123.264 76.5922 123.264 72.0049H121.264ZM119.596 59.2479C120.684 63.3157 121.264 67.5918 121.264 72.0049H123.264C123.264 67.4159 122.661 62.9661 121.529 58.7314L119.596 59.2479ZM124.479 56.9049L120.304 58.0237L120.821 59.9556L124.997 58.8368L124.479 56.9049ZM109.899 34.1014C116.552 40.7544 121.337 49.0415 123.772 58.1297L125.704 57.612C123.178 48.1847 118.215 39.5885 111.314 32.6872L109.899 34.1014ZM108.247 37.1675L111.314 34.1014L109.899 32.6872L106.833 35.7533L108.247 37.1675ZM84.7527 24.4053C93.2297 26.671 100.808 31.142 106.833 37.1675L108.247 35.7533C101.979 29.4853 94.0939 24.8318 85.2691 22.4731L84.7527 24.4053ZM85.164 19.004L84.045 23.1804L85.9768 23.698L87.0959 19.5216L85.164 19.004ZM75.4646 41.1016H68.5312V43.1016H75.4646V41.1016ZM76.4646 101.902V42.1016H74.4646V101.902H76.4646ZM68.5312 102.902H75.4646V100.902H68.5312V102.902ZM67.5312 42.1016V101.902H69.5312V42.1016H67.5312Z" fill="black" mask="url(#path-7-inside-3_192_28347)"/>
<path d="M57.8669 19.2628L57.6081 18.2969L56.6422 18.5557L56.901 19.5216L57.8669 19.2628ZM86.13 19.2628L87.0959 19.5216L87.3547 18.5557L86.3888 18.2969L86.13 19.2628ZM58.9858 23.4385L59.244 24.4046L60.2107 24.1463L59.9517 23.1797L58.9858 23.4385ZM36.4552 36.4591L35.7481 37.1662L36.4551 37.8733L37.1623 37.1662L36.4552 36.4591ZM33.3904 33.3943L34.0975 32.6872L33.3904 31.9801L32.6833 32.6872L33.3904 33.3943ZM19.2589 57.8708L18.293 57.612L18.0341 58.5779L19.0001 58.8367L19.2589 57.8708ZM23.432 58.989L24.398 59.2473L24.6562 58.2817L23.6908 58.0231L23.432 58.989ZM23.4307 85.016L23.6895 85.982L24.6548 85.7233L24.3968 84.7579L23.4307 85.016ZM19.2589 86.1339L19.0001 85.1679L18.0341 85.4268L18.293 86.3927L19.2589 86.1339ZM33.3904 110.61L32.6833 111.317L33.3904 112.025L34.0975 111.317L33.3904 110.61ZM36.4526 107.548L37.1597 106.841L36.4526 106.134L35.7455 106.841L36.4526 107.548ZM58.9845 120.571L59.9504 120.83L60.2094 119.863L59.2427 119.605L58.9845 120.571ZM57.8669 124.742L56.901 124.483L56.6422 125.449L57.6081 125.708L57.8669 124.742ZM86.13 124.742L86.3888 125.708L87.3547 125.449L87.0959 124.483L86.13 124.742ZM85.0122 120.57L84.7539 119.604L83.7873 119.863L84.0463 120.829L85.0122 120.57ZM107.543 107.547L108.25 106.84L107.543 106.133L106.836 106.84L107.543 107.547ZM110.606 110.61L109.899 111.317L110.606 112.025L111.314 111.317L110.606 110.61ZM124.738 86.1339L125.704 86.3927L125.963 85.4268L124.997 85.1679L124.738 86.1339ZM120.564 85.0154L119.598 84.7572L119.34 85.7227L120.305 85.9813L120.564 85.0154ZM120.562 58.9897L120.304 58.0237L119.338 58.2824L119.596 59.2479L120.562 58.9897ZM124.738 57.8708L124.997 58.8368L125.963 58.5779L125.704 57.612L124.738 57.8708ZM110.606 33.3943L111.314 32.6872L110.606 31.9801L109.899 32.6872L110.606 33.3943ZM107.54 36.4604L106.833 37.1675L107.54 37.8746L108.247 37.1675L107.54 36.4604ZM85.0109 23.4392L84.045 23.1804L83.786 24.1469L84.7527 24.4053L85.0109 23.4392ZM75.4646 42.1016H76.4646V41.1016H75.4646V42.1016ZM68.5312 42.1016V41.1016H67.5312V42.1016H68.5312ZM75.4646 101.902V102.902H76.4646V101.902H75.4646ZM68.5312 101.902H67.5312V102.902H68.5312V101.902ZM72 133.667C106.058 133.667 133.667 106.058 133.667 72H131.667C131.667 104.953 104.953 131.667 72 131.667V133.667ZM10.3333 72C10.3333 106.058 37.9424 133.667 72 133.667V131.667C39.047 131.667 12.3333 104.953 12.3333 72H10.3333ZM72 10.3333C37.9424 10.3333 10.3333 37.9424 10.3333 72H12.3333C12.3333 39.047 39.047 12.3333 72 12.3333V10.3333ZM133.667 72C133.667 37.9424 106.058 10.3333 72 10.3333V12.3333C104.953 12.3333 131.667 39.047 131.667 72H133.667ZM72 138C108.451 138 138 108.451 138 72H136C136 107.346 107.346 136 72 136V138ZM6 72C6 108.451 35.5492 138 72 138V136C36.6538 136 8 107.346 8 72H6ZM72 6C35.5492 6 6 35.5492 6 72H8C8 36.6538 36.6538 8 72 8V6ZM138 72C138 35.5492 108.451 6 72 6V8C107.346 8 136 36.6538 136 72H138ZM58.1257 20.2287C67.2139 17.7936 76.783 17.7936 85.8711 20.2287L86.3888 18.2969C76.9615 15.7708 67.0354 15.7708 57.6081 18.2969L58.1257 20.2287ZM59.9517 23.1797L58.8328 19.004L56.901 19.5216L58.0199 23.6974L59.9517 23.1797ZM37.1623 37.1662C43.1884 31.1408 50.7666 26.67 59.244 24.4046L58.7276 22.4724C49.9025 24.8308 42.0167 29.484 35.7481 35.7519L37.1623 37.1662ZM32.6833 34.1014L35.7481 37.1662L37.1623 35.752L34.0975 32.6872L32.6833 34.1014ZM20.2248 58.1296C22.66 49.0415 27.4445 40.7544 34.0975 34.1014L32.6833 32.6872C25.7821 39.5885 20.819 48.1847 18.293 57.612L20.2248 58.1296ZM23.6908 58.0231L19.5177 56.9049L19.0001 58.8367L23.1731 59.9549L23.6908 58.0231ZM22.7305 72.0049C22.7305 67.5916 23.3105 63.3152 24.398 59.2473L22.4659 58.7307C21.3337 62.9657 20.7305 67.4156 20.7305 72.0049H22.7305ZM24.3968 84.7579C23.3101 80.6913 22.7305 76.4166 22.7305 72.0049H20.7305C20.7305 76.5925 21.3333 81.0408 22.4646 85.2742L24.3968 84.7579ZM19.5177 87.0998L23.6895 85.982L23.1718 84.0501L19.0001 85.1679L19.5177 87.0998ZM34.0975 109.903C27.4445 103.25 22.66 94.9632 20.2248 85.875L18.293 86.3927C20.819 95.82 25.7821 104.416 32.6833 111.317L34.0975 109.903ZM35.7455 106.841L32.6833 109.903L34.0975 111.317L37.1597 108.255L35.7455 106.841ZM59.2427 119.605C50.7647 117.339 43.186 112.868 37.1597 106.841L35.7455 108.255C42.0142 114.524 49.9005 119.178 58.7263 121.537L59.2427 119.605ZM58.8328 125.001L59.9504 120.83L58.0186 120.312L56.901 124.483L58.8328 125.001ZM85.8711 123.776C76.783 126.211 67.2139 126.211 58.1257 123.776L57.6081 125.708C67.0354 128.234 76.9615 128.234 86.3888 125.708L85.8711 123.776ZM84.0463 120.829L85.164 125.001L87.0959 124.483L85.9781 120.312L84.0463 120.829ZM106.836 106.84C100.81 112.866 93.2316 117.338 84.7539 119.604L85.2704 121.536C94.0959 119.177 101.982 114.523 108.25 108.254L106.836 106.84ZM111.314 109.903L108.25 106.84L106.836 108.254L109.899 111.317L111.314 109.903ZM123.772 85.875C121.337 94.9632 116.552 103.25 109.899 109.903L111.314 111.317C118.215 104.416 123.178 95.82 125.704 86.3927L123.772 85.875ZM120.305 85.9813L124.479 87.0998L124.997 85.1679L120.823 84.0495L120.305 85.9813ZM121.264 72.0049C121.264 76.4164 120.684 80.6909 119.598 84.7572L121.53 85.2735C122.661 81.0403 123.264 76.5922 123.264 72.0049H121.264ZM119.596 59.2479C120.684 63.3157 121.264 67.5918 121.264 72.0049H123.264C123.264 67.4159 122.661 62.9661 121.529 58.7314L119.596 59.2479ZM124.479 56.9049L120.304 58.0237L120.821 59.9556L124.997 58.8368L124.479 56.9049ZM109.899 34.1014C116.552 40.7544 121.337 49.0415 123.772 58.1297L125.704 57.612C123.178 48.1847 118.215 39.5885 111.314 32.6872L109.899 34.1014ZM108.247 37.1675L111.314 34.1014L109.899 32.6872L106.833 35.7533L108.247 37.1675ZM84.7527 24.4053C93.2297 26.671 100.808 31.142 106.833 37.1675L108.247 35.7533C101.979 29.4853 94.0939 24.8318 85.2691 22.4731L84.7527 24.4053ZM85.164 19.004L84.045 23.1804L85.9768 23.698L87.0959 19.5216L85.164 19.004ZM75.4646 41.1016H68.5312V43.1016H75.4646V41.1016ZM76.4646 101.902V42.1016H74.4646V101.902H76.4646ZM68.5312 102.902H75.4646V100.902H68.5312V102.902ZM67.5312 42.1016V101.902H69.5312V42.1016H67.5312Z" fill="url(#paint3_radial_192_28347)" mask="url(#path-7-inside-3_192_28347)"/>
</g>
<g filter="url(#filter4_f_192_28347)">
<mask id="path-9-inside-4_192_28347" fill="white">
<path fill-rule="evenodd" clip-rule="evenodd" d="M132.667 72C132.667 105.505 105.505 132.667 72 132.667C38.4947 132.667 11.3333 105.505 11.3333 72C11.3333 38.4947 38.4947 11.3333 72 11.3333C105.505 11.3333 132.667 38.4947 132.667 72ZM137 72C137 107.899 107.899 137 72 137C36.1015 137 7 107.899 7 72C7 36.1015 36.1015 7 72 7C107.899 7 137 36.1015 137 72ZM86.13 19.2628C76.8722 16.7822 67.1246 16.7822 57.8669 19.2628L58.9858 23.4385C50.3346 25.7504 42.6026 30.3124 36.4552 36.4591L33.3904 33.3943C26.6133 40.1714 21.7395 48.6131 19.2589 57.8708L23.432 58.989C22.3221 63.1404 21.7305 67.5036 21.7305 72.0049C21.7305 76.5045 22.3217 80.8661 23.4307 85.016L19.2589 86.1339C21.7395 95.3916 26.6133 103.833 33.3904 110.61L36.4526 107.548C42.6001 113.696 50.3326 118.259 58.9845 120.571L57.8669 124.742C67.1246 127.222 76.8722 127.222 86.13 124.742L85.0122 120.57C93.6638 118.258 101.396 113.695 107.543 107.547L110.606 110.61C117.384 103.833 122.257 95.3916 124.738 86.1339L120.564 85.0154C121.673 80.8656 122.264 76.5043 122.264 72.0049C122.264 67.5038 121.672 63.1409 120.562 58.9897L124.738 57.8708C122.257 48.6131 117.384 40.1715 110.606 33.3943L107.54 36.4604C101.393 30.3136 93.6618 25.7514 85.0109 23.4392L86.13 19.2628ZM68.5312 42.1016H75.4646V101.902H68.5312V42.1016Z"/>
</mask>
<path d="M57.8669 19.2628L57.6081 18.2969L56.6422 18.5557L56.901 19.5216L57.8669 19.2628ZM86.13 19.2628L87.0959 19.5216L87.3547 18.5557L86.3888 18.2969L86.13 19.2628ZM58.9858 23.4385L59.244 24.4046L60.2107 24.1463L59.9517 23.1797L58.9858 23.4385ZM36.4552 36.4591L35.7481 37.1662L36.4551 37.8733L37.1623 37.1662L36.4552 36.4591ZM33.3904 33.3943L34.0975 32.6872L33.3904 31.9801L32.6833 32.6872L33.3904 33.3943ZM19.2589 57.8708L18.293 57.612L18.0341 58.5779L19.0001 58.8367L19.2589 57.8708ZM23.432 58.989L24.398 59.2473L24.6562 58.2817L23.6908 58.0231L23.432 58.989ZM23.4307 85.016L23.6895 85.982L24.6548 85.7233L24.3968 84.7579L23.4307 85.016ZM19.2589 86.1339L19.0001 85.1679L18.0341 85.4268L18.293 86.3927L19.2589 86.1339ZM33.3904 110.61L32.6833 111.317L33.3904 112.025L34.0975 111.317L33.3904 110.61ZM36.4526 107.548L37.1597 106.841L36.4526 106.134L35.7455 106.841L36.4526 107.548ZM58.9845 120.571L59.9504 120.83L60.2094 119.863L59.2427 119.605L58.9845 120.571ZM57.8669 124.742L56.901 124.483L56.6422 125.449L57.6081 125.708L57.8669 124.742ZM86.13 124.742L86.3888 125.708L87.3547 125.449L87.0959 124.483L86.13 124.742ZM85.0122 120.57L84.7539 119.604L83.7873 119.863L84.0463 120.829L85.0122 120.57ZM107.543 107.547L108.25 106.84L107.543 106.133L106.836 106.84L107.543 107.547ZM110.606 110.61L109.899 111.317L110.606 112.025L111.314 111.317L110.606 110.61ZM124.738 86.1339L125.704 86.3927L125.963 85.4268L124.997 85.1679L124.738 86.1339ZM120.564 85.0154L119.598 84.7572L119.34 85.7227L120.305 85.9813L120.564 85.0154ZM120.562 58.9897L120.304 58.0237L119.338 58.2824L119.596 59.2479L120.562 58.9897ZM124.738 57.8708L124.997 58.8368L125.963 58.5779L125.704 57.612L124.738 57.8708ZM110.606 33.3943L111.314 32.6872L110.606 31.9801L109.899 32.6872L110.606 33.3943ZM107.54 36.4604L106.833 37.1675L107.54 37.8746L108.247 37.1675L107.54 36.4604ZM85.0109 23.4392L84.045 23.1804L83.786 24.1469L84.7527 24.4053L85.0109 23.4392ZM75.4646 42.1016H76.4646V41.1016H75.4646V42.1016ZM68.5312 42.1016V41.1016H67.5312V42.1016H68.5312ZM75.4646 101.902V102.902H76.4646V101.902H75.4646ZM68.5312 101.902H67.5312V102.902H68.5312V101.902ZM72 133.667C106.058 133.667 133.667 106.058 133.667 72H131.667C131.667 104.953 104.953 131.667 72 131.667V133.667ZM10.3333 72C10.3333 106.058 37.9424 133.667 72 133.667V131.667C39.047 131.667 12.3333 104.953 12.3333 72H10.3333ZM72 10.3333C37.9424 10.3333 10.3333 37.9424 10.3333 72H12.3333C12.3333 39.047 39.047 12.3333 72 12.3333V10.3333ZM133.667 72C133.667 37.9424 106.058 10.3333 72 10.3333V12.3333C104.953 12.3333 131.667 39.047 131.667 72H133.667ZM72 138C108.451 138 138 108.451 138 72H136C136 107.346 107.346 136 72 136V138ZM6 72C6 108.451 35.5492 138 72 138V136C36.6538 136 8 107.346 8 72H6ZM72 6C35.5492 6 6 35.5492 6 72H8C8 36.6538 36.6538 8 72 8V6ZM138 72C138 35.5492 108.451 6 72 6V8C107.346 8 136 36.6538 136 72H138ZM58.1257 20.2287C67.2139 17.7936 76.783 17.7936 85.8711 20.2287L86.3888 18.2969C76.9615 15.7708 67.0354 15.7708 57.6081 18.2969L58.1257 20.2287ZM59.9517 23.1797L58.8328 19.004L56.901 19.5216L58.0199 23.6974L59.9517 23.1797ZM37.1623 37.1662C43.1884 31.1408 50.7666 26.67 59.244 24.4046L58.7276 22.4724C49.9025 24.8308 42.0167 29.484 35.7481 35.7519L37.1623 37.1662ZM32.6833 34.1014L35.7481 37.1662L37.1623 35.752L34.0975 32.6872L32.6833 34.1014ZM20.2248 58.1296C22.66 49.0415 27.4445 40.7544 34.0975 34.1014L32.6833 32.6872C25.7821 39.5885 20.819 48.1847 18.293 57.612L20.2248 58.1296ZM23.6908 58.0231L19.5177 56.9049L19.0001 58.8367L23.1731 59.9549L23.6908 58.0231ZM22.7305 72.0049C22.7305 67.5916 23.3105 63.3152 24.398 59.2473L22.4659 58.7307C21.3337 62.9657 20.7305 67.4156 20.7305 72.0049H22.7305ZM24.3968 84.7579C23.3101 80.6913 22.7305 76.4166 22.7305 72.0049H20.7305C20.7305 76.5925 21.3333 81.0408 22.4646 85.2742L24.3968 84.7579ZM19.5177 87.0998L23.6895 85.982L23.1718 84.0501L19.0001 85.1679L19.5177 87.0998ZM34.0975 109.903C27.4445 103.25 22.66 94.9632 20.2248 85.875L18.293 86.3927C20.819 95.82 25.7821 104.416 32.6833 111.317L34.0975 109.903ZM35.7455 106.841L32.6833 109.903L34.0975 111.317L37.1597 108.255L35.7455 106.841ZM59.2427 119.605C50.7647 117.339 43.186 112.868 37.1597 106.841L35.7455 108.255C42.0142 114.524 49.9005 119.178 58.7263 121.537L59.2427 119.605ZM58.8328 125.001L59.9504 120.83L58.0186 120.312L56.901 124.483L58.8328 125.001ZM85.8711 123.776C76.783 126.211 67.2139 126.211 58.1257 123.776L57.6081 125.708C67.0354 128.234 76.9615 128.234 86.3888 125.708L85.8711 123.776ZM84.0463 120.829L85.164 125.001L87.0959 124.483L85.9781 120.312L84.0463 120.829ZM106.836 106.84C100.81 112.866 93.2316 117.338 84.7539 119.604L85.2704 121.536C94.0959 119.177 101.982 114.523 108.25 108.254L106.836 106.84ZM111.314 109.903L108.25 106.84L106.836 108.254L109.899 111.317L111.314 109.903ZM123.772 85.875C121.337 94.9632 116.552 103.25 109.899 109.903L111.314 111.317C118.215 104.416 123.178 95.82 125.704 86.3927L123.772 85.875ZM120.305 85.9813L124.479 87.0998L124.997 85.1679L120.823 84.0495L120.305 85.9813ZM121.264 72.0049C121.264 76.4164 120.684 80.6909 119.598 84.7572L121.53 85.2735C122.661 81.0403 123.264 76.5922 123.264 72.0049H121.264ZM119.596 59.2479C120.684 63.3157 121.264 67.5918 121.264 72.0049H123.264C123.264 67.4159 122.661 62.9661 121.529 58.7314L119.596 59.2479ZM124.479 56.9049L120.304 58.0237L120.821 59.9556L124.997 58.8368L124.479 56.9049ZM109.899 34.1014C116.552 40.7544 121.337 49.0415 123.772 58.1297L125.704 57.612C123.178 48.1847 118.215 39.5885 111.314 32.6872L109.899 34.1014ZM108.247 37.1675L111.314 34.1014L109.899 32.6872L106.833 35.7533L108.247 37.1675ZM84.7527 24.4053C93.2297 26.671 100.808 31.142 106.833 37.1675L108.247 35.7533C101.979 29.4853 94.0939 24.8318 85.2691 22.4731L84.7527 24.4053ZM85.164 19.004L84.045 23.1804L85.9768 23.698L87.0959 19.5216L85.164 19.004ZM75.4646 41.1016H68.5312V43.1016H75.4646V41.1016ZM76.4646 101.902V42.1016H74.4646V101.902H76.4646ZM68.5312 102.902H75.4646V100.902H68.5312V102.902ZM67.5312 42.1016V101.902H69.5312V42.1016H67.5312Z" fill="black" mask="url(#path-9-inside-4_192_28347)"/>
<path d="M57.8669 19.2628L57.6081 18.2969L56.6422 18.5557L56.901 19.5216L57.8669 19.2628ZM86.13 19.2628L87.0959 19.5216L87.3547 18.5557L86.3888 18.2969L86.13 19.2628ZM58.9858 23.4385L59.244 24.4046L60.2107 24.1463L59.9517 23.1797L58.9858 23.4385ZM36.4552 36.4591L35.7481 37.1662L36.4551 37.8733L37.1623 37.1662L36.4552 36.4591ZM33.3904 33.3943L34.0975 32.6872L33.3904 31.9801L32.6833 32.6872L33.3904 33.3943ZM19.2589 57.8708L18.293 57.612L18.0341 58.5779L19.0001 58.8367L19.2589 57.8708ZM23.432 58.989L24.398 59.2473L24.6562 58.2817L23.6908 58.0231L23.432 58.989ZM23.4307 85.016L23.6895 85.982L24.6548 85.7233L24.3968 84.7579L23.4307 85.016ZM19.2589 86.1339L19.0001 85.1679L18.0341 85.4268L18.293 86.3927L19.2589 86.1339ZM33.3904 110.61L32.6833 111.317L33.3904 112.025L34.0975 111.317L33.3904 110.61ZM36.4526 107.548L37.1597 106.841L36.4526 106.134L35.7455 106.841L36.4526 107.548ZM58.9845 120.571L59.9504 120.83L60.2094 119.863L59.2427 119.605L58.9845 120.571ZM57.8669 124.742L56.901 124.483L56.6422 125.449L57.6081 125.708L57.8669 124.742ZM86.13 124.742L86.3888 125.708L87.3547 125.449L87.0959 124.483L86.13 124.742ZM85.0122 120.57L84.7539 119.604L83.7873 119.863L84.0463 120.829L85.0122 120.57ZM107.543 107.547L108.25 106.84L107.543 106.133L106.836 106.84L107.543 107.547ZM110.606 110.61L109.899 111.317L110.606 112.025L111.314 111.317L110.606 110.61ZM124.738 86.1339L125.704 86.3927L125.963 85.4268L124.997 85.1679L124.738 86.1339ZM120.564 85.0154L119.598 84.7572L119.34 85.7227L120.305 85.9813L120.564 85.0154ZM120.562 58.9897L120.304 58.0237L119.338 58.2824L119.596 59.2479L120.562 58.9897ZM124.738 57.8708L124.997 58.8368L125.963 58.5779L125.704 57.612L124.738 57.8708ZM110.606 33.3943L111.314 32.6872L110.606 31.9801L109.899 32.6872L110.606 33.3943ZM107.54 36.4604L106.833 37.1675L107.54 37.8746L108.247 37.1675L107.54 36.4604ZM85.0109 23.4392L84.045 23.1804L83.786 24.1469L84.7527 24.4053L85.0109 23.4392ZM75.4646 42.1016H76.4646V41.1016H75.4646V42.1016ZM68.5312 42.1016V41.1016H67.5312V42.1016H68.5312ZM75.4646 101.902V102.902H76.4646V101.902H75.4646ZM68.5312 101.902H67.5312V102.902H68.5312V101.902ZM72 133.667C106.058 133.667 133.667 106.058 133.667 72H131.667C131.667 104.953 104.953 131.667 72 131.667V133.667ZM10.3333 72C10.3333 106.058 37.9424 133.667 72 133.667V131.667C39.047 131.667 12.3333 104.953 12.3333 72H10.3333ZM72 10.3333C37.9424 10.3333 10.3333 37.9424 10.3333 72H12.3333C12.3333 39.047 39.047 12.3333 72 12.3333V10.3333ZM133.667 72C133.667 37.9424 106.058 10.3333 72 10.3333V12.3333C104.953 12.3333 131.667 39.047 131.667 72H133.667ZM72 138C108.451 138 138 108.451 138 72H136C136 107.346 107.346 136 72 136V138ZM6 72C6 108.451 35.5492 138 72 138V136C36.6538 136 8 107.346 8 72H6ZM72 6C35.5492 6 6 35.5492 6 72H8C8 36.6538 36.6538 8 72 8V6ZM138 72C138 35.5492 108.451 6 72 6V8C107.346 8 136 36.6538 136 72H138ZM58.1257 20.2287C67.2139 17.7936 76.783 17.7936 85.8711 20.2287L86.3888 18.2969C76.9615 15.7708 67.0354 15.7708 57.6081 18.2969L58.1257 20.2287ZM59.9517 23.1797L58.8328 19.004L56.901 19.5216L58.0199 23.6974L59.9517 23.1797ZM37.1623 37.1662C43.1884 31.1408 50.7666 26.67 59.244 24.4046L58.7276 22.4724C49.9025 24.8308 42.0167 29.484 35.7481 35.7519L37.1623 37.1662ZM32.6833 34.1014L35.7481 37.1662L37.1623 35.752L34.0975 32.6872L32.6833 34.1014ZM20.2248 58.1296C22.66 49.0415 27.4445 40.7544 34.0975 34.1014L32.6833 32.6872C25.7821 39.5885 20.819 48.1847 18.293 57.612L20.2248 58.1296ZM23.6908 58.0231L19.5177 56.9049L19.0001 58.8367L23.1731 59.9549L23.6908 58.0231ZM22.7305 72.0049C22.7305 67.5916 23.3105 63.3152 24.398 59.2473L22.4659 58.7307C21.3337 62.9657 20.7305 67.4156 20.7305 72.0049H22.7305ZM24.3968 84.7579C23.3101 80.6913 22.7305 76.4166 22.7305 72.0049H20.7305C20.7305 76.5925 21.3333 81.0408 22.4646 85.2742L24.3968 84.7579ZM19.5177 87.0998L23.6895 85.982L23.1718 84.0501L19.0001 85.1679L19.5177 87.0998ZM34.0975 109.903C27.4445 103.25 22.66 94.9632 20.2248 85.875L18.293 86.3927C20.819 95.82 25.7821 104.416 32.6833 111.317L34.0975 109.903ZM35.7455 106.841L32.6833 109.903L34.0975 111.317L37.1597 108.255L35.7455 106.841ZM59.2427 119.605C50.7647 117.339 43.186 112.868 37.1597 106.841L35.7455 108.255C42.0142 114.524 49.9005 119.178 58.7263 121.537L59.2427 119.605ZM58.8328 125.001L59.9504 120.83L58.0186 120.312L56.901 124.483L58.8328 125.001ZM85.8711 123.776C76.783 126.211 67.2139 126.211 58.1257 123.776L57.6081 125.708C67.0354 128.234 76.9615 128.234 86.3888 125.708L85.8711 123.776ZM84.0463 120.829L85.164 125.001L87.0959 124.483L85.9781 120.312L84.0463 120.829ZM106.836 106.84C100.81 112.866 93.2316 117.338 84.7539 119.604L85.2704 121.536C94.0959 119.177 101.982 114.523 108.25 108.254L106.836 106.84ZM111.314 109.903L108.25 106.84L106.836 108.254L109.899 111.317L111.314 109.903ZM123.772 85.875C121.337 94.9632 116.552 103.25 109.899 109.903L111.314 111.317C118.215 104.416 123.178 95.82 125.704 86.3927L123.772 85.875ZM120.305 85.9813L124.479 87.0998L124.997 85.1679L120.823 84.0495L120.305 85.9813ZM121.264 72.0049C121.264 76.4164 120.684 80.6909 119.598 84.7572L121.53 85.2735C122.661 81.0403 123.264 76.5922 123.264 72.0049H121.264ZM119.596 59.2479C120.684 63.3157 121.264 67.5918 121.264 72.0049H123.264C123.264 67.4159 122.661 62.9661 121.529 58.7314L119.596 59.2479ZM124.479 56.9049L120.304 58.0237L120.821 59.9556L124.997 58.8368L124.479 56.9049ZM109.899 34.1014C116.552 40.7544 121.337 49.0415 123.772 58.1297L125.704 57.612C123.178 48.1847 118.215 39.5885 111.314 32.6872L109.899 34.1014ZM108.247 37.1675L111.314 34.1014L109.899 32.6872L106.833 35.7533L108.247 37.1675ZM84.7527 24.4053C93.2297 26.671 100.808 31.142 106.833 37.1675L108.247 35.7533C101.979 29.4853 94.0939 24.8318 85.2691 22.4731L84.7527 24.4053ZM85.164 19.004L84.045 23.1804L85.9768 23.698L87.0959 19.5216L85.164 19.004ZM75.4646 41.1016H68.5312V43.1016H75.4646V41.1016ZM76.4646 101.902V42.1016H74.4646V101.902H76.4646ZM68.5312 102.902H75.4646V100.902H68.5312V102.902ZM67.5312 42.1016V101.902H69.5312V42.1016H67.5312Z" fill="url(#paint4_radial_192_28347)" mask="url(#path-9-inside-4_192_28347)"/>
</g>
</g>
</g>
</g>
<defs>
<filter id="filter0_dd_192_28347" x="0.0666656" y="0.0666656" width="143.867" height="143.867" filterUnits="userSpaceOnUse" color-interpolation-filters="sRGB">
<feFlood flood-opacity="0" result="BackgroundImageFix"/>
<feColorMatrix in="SourceAlpha" type="matrix" values="0 0 0 0 0 0 0 0 0 0 0 0 0 0 0 0 0 0 127 0" result="hardAlpha"/>
<feOffset/>
<feGaussianBlur stdDeviation="0.866667"/>
<feComposite in2="hardAlpha" operator="out"/>
<feColorMatrix type="matrix" values="0 0 0 0 0 0 0 0 0 0 0 0 0 0 0 0 0 0 0.15 0"/>
<feBlend mode="normal" in2="BackgroundImageFix" result="effect1_dropShadow_192_28347"/>
<feColorMatrix in="SourceAlpha" type="matrix" values="0 0 0 0 0 0 0 0 0 0 0 0 0 0 0 0 0 0 127 0" result="hardAlpha"/>
<feOffset/>
<feGaussianBlur stdDeviation="3.46667"/>
<feComposite in2="hardAlpha" operator="out"/>
<feColorMatrix type="matrix" values="0 0 0 0 0 0 0 0 0 0 0 0 0 0 0 0 0 0 0.25 0"/>
<feBlend mode="normal" in2="effect1_dropShadow_192_28347" result="effect2_dropShadow_192_28347"/>
<feBlend mode="normal" in="SourceGraphic" in2="effect2_dropShadow_192_28347" result="shape"/>
</filter>
<filter id="filter1_dd_192_28347" x="-1" y="-1" width="146" height="146" filterUnits="userSpaceOnUse" color-interpolation-filters="sRGB">
<feFlood flood-opacity="0" result="BackgroundImageFix"/>
<feColorMatrix in="SourceAlpha" type="matrix" values="0 0 0 0 0 0 0 0 0 0 0 0 0 0 0 0 0 0 127 0" result="hardAlpha"/>
<feOffset/>
<feGaussianBlur stdDeviation="2"/>
<feComposite in2="hardAlpha" operator="out"/>
<feColorMatrix type="matrix" values="0 0 0 0 0 0 0 0 0 0 0 0 0 0 0 0 0 0 0.25 0"/>
<feBlend mode="normal" in2="BackgroundImageFix" result="effect1_dropShadow_192_28347"/>
<feColorMatrix in="SourceAlpha" type="matrix" values="0 0 0 0 0 0 0 0 0 0 0 0 0 0 0 0 0 0 127 0" result="hardAlpha"/>
<feOffset/>
<feGaussianBlur stdDeviation="4"/>
<feComposite in2="hardAlpha" operator="out"/>
<feColorMatrix type="matrix" values="0 0 0 0 0 0 0 0 0 0 0 0 0 0 0 0 0 0 0.1 0"/>
<feBlend mode="normal" in2="effect1_dropShadow_192_28347" result="effect2_dropShadow_192_28347"/>
<feBlend mode="normal" in="SourceGraphic" in2="effect2_dropShadow_192_28347" result="shape"/>
</filter>
<filter id="filter2_f_192_28347" x="4" y="4" width="136" height="136" filterUnits="userSpaceOnUse" color-interpolation-filters="sRGB">
<feFlood flood-opacity="0" result="BackgroundImageFix"/>
<feBlend mode="normal" in="SourceGraphic" in2="BackgroundImageFix" result="shape"/>
<feGaussianBlur stdDeviation="1.5" result="effect1_foregroundBlur_192_28347"/>
</filter>
<filter id="filter3_f_192_28347" x="1" y="1" width="142" height="142" filterUnits="userSpaceOnUse" color-interpolation-filters="sRGB">
<feFlood flood-opacity="0" result="BackgroundImageFix"/>
<feBlend mode="normal" in="SourceGraphic" in2="BackgroundImageFix" result="shape"/>
<feGaussianBlur stdDeviation="3" result="effect1_foregroundBlur_192_28347"/>
</filter>
<filter id="filter4_f_192_28347" x="-2" y="-2" width="148" height="148" filterUnits="userSpaceOnUse" color-interpolation-filters="sRGB">
<feFlood flood-opacity="0" result="BackgroundImageFix"/>
<feBlend mode="normal" in="SourceGraphic" in2="BackgroundImageFix" result="shape"/>
<feGaussianBlur stdDeviation="4.5" result="effect1_foregroundBlur_192_28347"/>
</filter>
<radialGradient id="paint0_radial_192_28347" cx="0" cy="0" r="1" gradientUnits="userSpaceOnUse" gradientTransform="translate(72.1646 7) rotate(90) scale(130 130.329)">
<stop stop-color="#26A69A"/>
<stop offset="1" stop-color="#B2F6FF" stop-opacity="0.15"/>
</radialGradient>
<radialGradient id="paint1_radial_192_28347" cx="0" cy="0" r="1" gradientUnits="userSpaceOnUse" gradientTransform="translate(152.318 -56.8294) rotate(122.004) scale(219.821 152.868)">
<stop stop-color="#26A69A"/>
<stop offset="1" stop-color="#B2F6FF"/>
</radialGradient>
<radialGradient id="paint2_radial_192_28347" cx="0" cy="0" r="1" gradientUnits="userSpaceOnUse" gradientTransform="translate(152.318 -56.8294) rotate(122.004) scale(219.821 152.868)">
<stop stop-color="#26A69A"/>
<stop offset="1" stop-color="#B2F6FF"/>
</radialGradient>
<radialGradient id="paint3_radial_192_28347" cx="0" cy="0" r="1" gradientUnits="userSpaceOnUse" gradientTransform="translate(152.318 -56.8294) rotate(122.004) scale(219.821 152.868)">
<stop stop-color="#26A69A"/>
<stop offset="1" stop-color="#B2F6FF"/>
</radialGradient>
<radialGradient id="paint4_radial_192_28347" cx="0" cy="0" r="1" gradientUnits="userSpaceOnUse" gradientTransform="translate(152.318 -56.8294) rotate(122.004) scale(219.821 152.868)">
<stop stop-color="#26A69A"/>
<stop offset="1" stop-color="#B2F6FF"/>
</radialGradient>
<clipPath id="clip0_192_28347">
<path d="M7 72C7 107.899 36.1015 137 72 137C107.899 137 137 107.899 137 72C137 36.1015 107.899 7 72 7C36.1015 7 7 36.1015 7 72Z" fill="white"/>
</clipPath>
</defs>
</svg>
