<svg width="144" height="144" viewBox="0 0 144 144" fill="none" xmlns="http://www.w3.org/2000/svg">
<g filter="url(#filter0_dd_192_28613)">
<g clip-path="url(#clip0_192_28613)">
<g filter="url(#filter1_dd_192_28613)">
<mask id="path-2-inside-1_192_28613" fill="white">
<path fill-rule="evenodd" clip-rule="evenodd" d="M132.667 72C132.667 105.505 105.505 132.667 72 132.667C38.4947 132.667 11.3333 105.505 11.3333 72C11.3333 38.4947 38.4947 11.3333 72 11.3333C105.505 11.3333 132.667 38.4947 132.667 72ZM137 72C137 107.899 107.899 137 72 137C36.1015 137 7 107.899 7 72C7 36.1015 36.1015 7 72 7C107.899 7 137 36.1015 137 72ZM86.1339 19.2628C76.8761 16.7822 67.1285 16.7822 57.8708 19.2628L58.9897 23.4385C50.3385 25.7504 42.6065 30.3124 36.4591 36.4591L33.3943 33.3943C26.6172 40.1714 21.7434 48.6131 19.2628 57.8708L23.4359 58.989C22.326 63.1404 21.7344 67.5036 21.7344 72.0049C21.7344 76.5045 22.3256 80.8661 23.4346 85.016L19.2628 86.1339C21.7434 95.3916 26.6172 103.833 33.3943 110.61L36.4565 107.548C42.604 113.696 50.3365 118.259 58.9884 120.571L57.8708 124.742C67.1285 127.222 76.8761 127.222 86.1339 124.742L85.0161 120.57C93.6677 118.258 101.4 113.695 107.547 107.547L110.61 110.61C117.387 103.833 122.261 95.3916 124.742 86.1339L120.568 85.0154C121.677 80.8656 122.268 76.5043 122.268 72.0049C122.268 67.5038 121.676 63.1409 120.566 58.9897L124.742 57.8708C122.261 48.6131 117.388 40.1715 110.61 33.3943L107.544 36.4604C101.397 30.3136 93.6657 25.7514 85.0148 23.4392L86.1339 19.2628ZM52.9355 42.0977H59.8689V101.898H52.9355V42.0977ZM68.5352 42.0977H75.4685V101.898H68.5352V42.0977ZM91.0681 42.0977H84.1348V101.898H91.0681V42.0977Z"/>
</mask>
<path fill-rule="evenodd" clip-rule="evenodd" d="M132.667 72C132.667 105.505 105.505 132.667 72 132.667C38.4947 132.667 11.3333 105.505 11.3333 72C11.3333 38.4947 38.4947 11.3333 72 11.3333C105.505 11.3333 132.667 38.4947 132.667 72ZM137 72C137 107.899 107.899 137 72 137C36.1015 137 7 107.899 7 72C7 36.1015 36.1015 7 72 7C107.899 7 137 36.1015 137 72ZM86.1339 19.2628C76.8761 16.7822 67.1285 16.7822 57.8708 19.2628L58.9897 23.4385C50.3385 25.7504 42.6065 30.3124 36.4591 36.4591L33.3943 33.3943C26.6172 40.1714 21.7434 48.6131 19.2628 57.8708L23.4359 58.989C22.326 63.1404 21.7344 67.5036 21.7344 72.0049C21.7344 76.5045 22.3256 80.8661 23.4346 85.016L19.2628 86.1339C21.7434 95.3916 26.6172 103.833 33.3943 110.61L36.4565 107.548C42.604 113.696 50.3365 118.259 58.9884 120.571L57.8708 124.742C67.1285 127.222 76.8761 127.222 86.1339 124.742L85.0161 120.57C93.6677 118.258 101.4 113.695 107.547 107.547L110.61 110.61C117.387 103.833 122.261 95.3916 124.742 86.1339L120.568 85.0154C121.677 80.8656 122.268 76.5043 122.268 72.0049C122.268 67.5038 121.676 63.1409 120.566 58.9897L124.742 57.8708C122.261 48.6131 117.388 40.1715 110.61 33.3943L107.544 36.4604C101.397 30.3136 93.6657 25.7514 85.0148 23.4392L86.1339 19.2628ZM52.9355 42.0977H59.8689V101.898H52.9355V42.0977ZM68.5352 42.0977H75.4685V101.898H68.5352V42.0977ZM91.0681 42.0977H84.1348V101.898H91.0681V42.0977Z" fill="url(#paint0_radial_192_28613)" shape-rendering="crispEdges"/>
<path d="M57.8708 19.2628L57.7414 18.7798L57.2585 18.9092L57.3879 19.3922L57.8708 19.2628ZM86.1339 19.2628L86.6168 19.3922L86.7462 18.9092L86.2633 18.7798L86.1339 19.2628ZM58.9897 23.4385L59.1188 23.9216L59.6022 23.7924L59.4727 23.3091L58.9897 23.4385ZM36.4591 36.4591L36.1055 36.8126L36.4591 37.1662L36.8126 36.8127L36.4591 36.4591ZM33.3943 33.3943L33.7479 33.0408L33.3943 32.6872L33.0408 33.0408L33.3943 33.3943ZM19.2628 57.8708L18.7798 57.7414L18.6504 58.2244L19.1334 58.3538L19.2628 57.8708ZM23.4359 58.989L23.9189 59.1181L24.048 58.6354L23.5653 58.506L23.4359 58.989ZM23.4346 85.016L23.564 85.499L24.0466 85.3697L23.9176 84.887L23.4346 85.016ZM19.2628 86.1339L19.1334 85.6509L18.6504 85.7803L18.7798 86.2633L19.2628 86.1339ZM33.3943 110.61L33.0408 110.964L33.3943 111.317L33.7479 110.964L33.3943 110.61ZM36.4565 107.548L36.8101 107.195L36.4565 106.841L36.1029 107.195L36.4565 107.548ZM58.9884 120.571L59.4714 120.7L59.6009 120.217L59.1175 120.088L58.9884 120.571ZM57.8708 124.742L57.3879 124.612L57.2584 125.095L57.7414 125.225L57.8708 124.742ZM86.1339 124.742L86.2633 125.225L86.7462 125.095L86.6168 124.612L86.1339 124.742ZM85.0161 120.57L84.887 120.087L84.4036 120.217L84.5331 120.7L85.0161 120.57ZM107.547 107.547L107.9 107.193L107.547 106.84L107.193 107.193L107.547 107.547ZM110.61 110.61L110.257 110.964L110.61 111.317L110.964 110.964L110.61 110.61ZM124.742 86.1339L125.225 86.2633L125.354 85.7803L124.871 85.6509L124.742 86.1339ZM120.568 85.0154L120.085 84.8863L119.956 85.369L120.438 85.4984L120.568 85.0154ZM120.566 58.9897L120.437 58.5067L119.954 58.636L120.083 59.1188L120.566 58.9897ZM124.742 57.8708L124.871 58.3538L125.354 58.2244L125.225 57.7414L124.742 57.8708ZM110.61 33.3943L110.964 33.0408L110.61 32.6872L110.257 33.0408L110.61 33.3943ZM107.544 36.4604L107.191 36.814L107.544 37.1675L107.898 36.814L107.544 36.4604ZM85.0148 23.4392L84.5318 23.3098L84.4023 23.793L84.8857 23.9222L85.0148 23.4392ZM59.8689 42.0977H60.3689V41.5977H59.8689V42.0977ZM52.9355 42.0977V41.5977H52.4355V42.0977H52.9355ZM59.8689 101.898V102.398H60.3689V101.898H59.8689ZM52.9355 101.898H52.4355V102.398H52.9355V101.898ZM75.4685 42.0977H75.9685V41.5977H75.4685V42.0977ZM68.5352 42.0977V41.5977H68.0352V42.0977H68.5352ZM75.4685 101.898V102.398H75.9685V101.898H75.4685ZM68.5352 101.898H68.0352V102.398H68.5352V101.898ZM84.1348 42.0977V41.5977H83.6348V42.0977H84.1348ZM91.0681 42.0977H91.5681V41.5977H91.0681V42.0977ZM84.1348 101.898H83.6348V102.398H84.1348V101.898ZM91.0681 101.898V102.398H91.5681V101.898H91.0681ZM72 133.167C105.781 133.167 133.167 105.781 133.167 72H132.167C132.167 105.229 105.229 132.167 72 132.167V133.167ZM10.8333 72C10.8333 105.781 38.2186 133.167 72 133.167V132.167C38.7709 132.167 11.8333 105.229 11.8333 72H10.8333ZM72 10.8333C38.2186 10.8333 10.8333 38.2186 10.8333 72H11.8333C11.8333 38.7709 38.7709 11.8333 72 11.8333V10.8333ZM133.167 72C133.167 38.2186 105.781 10.8333 72 10.8333V11.8333C105.229 11.8333 132.167 38.7709 132.167 72H133.167ZM72 137.5C108.175 137.5 137.5 108.175 137.5 72H136.5C136.5 107.622 107.622 136.5 72 136.5V137.5ZM6.5 72C6.5 108.175 35.8253 137.5 72 137.5V136.5C36.3776 136.5 7.5 107.622 7.5 72H6.5ZM72 6.5C35.8253 6.5 6.5 35.8253 6.5 72H7.5C7.5 36.3776 36.3776 7.5 72 7.5V6.5ZM137.5 72C137.5 35.8253 108.175 6.5 72 6.5V7.5C107.622 7.5 136.5 36.3776 136.5 72H137.5ZM58.0002 19.7458C67.1732 17.2879 76.8315 17.2879 86.0044 19.7458L86.2633 18.7798C76.9208 16.2765 67.0839 16.2765 57.7414 18.7798L58.0002 19.7458ZM59.4727 23.3091L58.3538 19.1334L57.3879 19.3922L58.5067 23.5679L59.4727 23.3091ZM36.8126 36.8127C42.8994 30.7266 50.5545 26.2102 59.1188 23.9216L58.8606 22.9555C50.1224 25.2906 42.3136 29.8982 36.1056 36.1055L36.8126 36.8127ZM33.0408 33.7479L36.1055 36.8126L36.8126 36.1055L33.7479 33.0408L33.0408 33.7479ZM19.7458 58.0002C22.2036 48.8273 27.0328 40.4629 33.7479 33.7479L33.0408 33.0408C26.2016 39.8799 21.2831 48.3989 18.7798 57.7414L19.7458 58.0002ZM23.5653 58.506L19.3922 57.3879L19.1334 58.3538L23.3065 59.472L23.5653 58.506ZM22.2344 72.0049C22.2344 67.5476 22.8202 63.2278 23.9189 59.1181L22.9528 58.8599C21.8319 63.053 21.2344 67.4596 21.2344 72.0049H22.2344ZM23.9176 84.887C22.8198 80.7787 22.2344 76.4606 22.2344 72.0049H21.2344C21.2344 76.5485 21.8314 80.9534 22.9515 85.1451L23.9176 84.887ZM19.3922 86.6168L23.564 85.499L23.3052 84.5331L19.1334 85.6509L19.3922 86.6168ZM33.7479 110.257C27.0328 103.542 22.2036 95.1774 19.7458 86.0045L18.7798 86.2633C21.2831 95.6058 26.2016 104.125 33.0408 110.964L33.7479 110.257ZM36.1029 107.195L33.0408 110.257L33.7479 110.964L36.81 107.902L36.1029 107.195ZM59.1175 120.088C50.5525 117.799 42.8969 113.282 36.8101 107.195L36.1029 107.902C42.3111 114.11 50.1204 118.719 58.8593 121.054L59.1175 120.088ZM58.3538 124.871L59.4714 120.7L58.5054 120.442L57.3879 124.612L58.3538 124.871ZM86.0044 124.259C76.8315 126.717 67.1732 126.717 58.0002 124.259L57.7414 125.225C67.0839 127.728 76.9208 127.728 86.2633 125.225L86.0044 124.259ZM84.5331 120.7L85.6509 124.871L86.6168 124.612L85.4991 120.441L84.5331 120.7ZM107.193 107.193C101.107 113.281 93.4516 117.798 84.887 120.087L85.1452 121.053C93.8837 118.717 101.693 114.109 107.9 107.9L107.193 107.193ZM110.964 110.257L107.9 107.193L107.193 107.9L110.257 110.964L110.964 110.257ZM124.259 86.0045C121.801 95.1774 116.972 103.542 110.257 110.257L110.964 110.964C117.803 104.125 122.722 95.6058 125.225 86.2633L124.259 86.0045ZM120.438 85.4984L124.612 86.6168L124.871 85.6509L120.697 84.5324L120.438 85.4984ZM121.768 72.0049C121.768 76.4603 121.182 80.7782 120.085 84.8863L121.051 85.1445C122.171 80.9529 122.768 76.5483 122.768 72.0049H121.768ZM120.083 59.1188C121.182 63.2283 121.768 67.5478 121.768 72.0049H122.768C122.768 67.4598 122.17 63.0535 121.049 58.8605L120.083 59.1188ZM124.612 57.3879L120.437 58.5067L120.696 59.4726L124.871 58.3538L124.612 57.3879ZM110.257 33.7479C116.972 40.4629 121.801 48.8273 124.259 58.0002L125.225 57.7414C122.722 48.3989 117.803 39.88 110.964 33.0408L110.257 33.7479ZM107.898 36.814L110.964 33.7479L110.257 33.0408L107.191 36.1069L107.898 36.814ZM84.8857 23.9222C93.4496 26.2112 101.104 30.7278 107.191 36.814L107.898 36.1068C101.69 29.8994 93.8817 25.2916 85.1439 22.9561L84.8857 23.9222ZM85.6509 19.1334L84.5318 23.3098L85.4978 23.5686L86.6168 19.3922L85.6509 19.1334ZM59.8689 41.5977H52.9355V42.5977H59.8689V41.5977ZM60.3689 101.898V42.0977H59.3689V101.898H60.3689ZM52.9355 102.398H59.8689V101.398H52.9355V102.398ZM52.4355 42.0977V101.898H53.4355V42.0977H52.4355ZM75.4685 41.5977H68.5352V42.5977H75.4685V41.5977ZM75.9685 101.898V42.0977H74.9685V101.898H75.9685ZM68.5352 102.398H75.4685V101.398H68.5352V102.398ZM68.0352 42.0977V101.898H69.0352V42.0977H68.0352ZM84.1348 42.5977H91.0681V41.5977H84.1348V42.5977ZM84.6348 101.898V42.0977H83.6348V101.898H84.6348ZM91.0681 101.398H84.1348V102.398H91.0681V101.398ZM90.5681 42.0977V101.898H91.5681V42.0977H90.5681Z" fill="black" mask="url(#path-2-inside-1_192_28613)"/>
<path d="M57.8708 19.2628L57.7414 18.7798L57.2585 18.9092L57.3879 19.3922L57.8708 19.2628ZM86.1339 19.2628L86.6168 19.3922L86.7462 18.9092L86.2633 18.7798L86.1339 19.2628ZM58.9897 23.4385L59.1188 23.9216L59.6022 23.7924L59.4727 23.3091L58.9897 23.4385ZM36.4591 36.4591L36.1055 36.8126L36.4591 37.1662L36.8126 36.8127L36.4591 36.4591ZM33.3943 33.3943L33.7479 33.0408L33.3943 32.6872L33.0408 33.0408L33.3943 33.3943ZM19.2628 57.8708L18.7798 57.7414L18.6504 58.2244L19.1334 58.3538L19.2628 57.8708ZM23.4359 58.989L23.9189 59.1181L24.048 58.6354L23.5653 58.506L23.4359 58.989ZM23.4346 85.016L23.564 85.499L24.0466 85.3697L23.9176 84.887L23.4346 85.016ZM19.2628 86.1339L19.1334 85.6509L18.6504 85.7803L18.7798 86.2633L19.2628 86.1339ZM33.3943 110.61L33.0408 110.964L33.3943 111.317L33.7479 110.964L33.3943 110.61ZM36.4565 107.548L36.8101 107.195L36.4565 106.841L36.1029 107.195L36.4565 107.548ZM58.9884 120.571L59.4714 120.7L59.6009 120.217L59.1175 120.088L58.9884 120.571ZM57.8708 124.742L57.3879 124.612L57.2584 125.095L57.7414 125.225L57.8708 124.742ZM86.1339 124.742L86.2633 125.225L86.7462 125.095L86.6168 124.612L86.1339 124.742ZM85.0161 120.57L84.887 120.087L84.4036 120.217L84.5331 120.7L85.0161 120.57ZM107.547 107.547L107.9 107.193L107.547 106.84L107.193 107.193L107.547 107.547ZM110.61 110.61L110.257 110.964L110.61 111.317L110.964 110.964L110.61 110.61ZM124.742 86.1339L125.225 86.2633L125.354 85.7803L124.871 85.6509L124.742 86.1339ZM120.568 85.0154L120.085 84.8863L119.956 85.369L120.438 85.4984L120.568 85.0154ZM120.566 58.9897L120.437 58.5067L119.954 58.636L120.083 59.1188L120.566 58.9897ZM124.742 57.8708L124.871 58.3538L125.354 58.2244L125.225 57.7414L124.742 57.8708ZM110.61 33.3943L110.964 33.0408L110.61 32.6872L110.257 33.0408L110.61 33.3943ZM107.544 36.4604L107.191 36.814L107.544 37.1675L107.898 36.814L107.544 36.4604ZM85.0148 23.4392L84.5318 23.3098L84.4023 23.793L84.8857 23.9222L85.0148 23.4392ZM59.8689 42.0977H60.3689V41.5977H59.8689V42.0977ZM52.9355 42.0977V41.5977H52.4355V42.0977H52.9355ZM59.8689 101.898V102.398H60.3689V101.898H59.8689ZM52.9355 101.898H52.4355V102.398H52.9355V101.898ZM75.4685 42.0977H75.9685V41.5977H75.4685V42.0977ZM68.5352 42.0977V41.5977H68.0352V42.0977H68.5352ZM75.4685 101.898V102.398H75.9685V101.898H75.4685ZM68.5352 101.898H68.0352V102.398H68.5352V101.898ZM84.1348 42.0977V41.5977H83.6348V42.0977H84.1348ZM91.0681 42.0977H91.5681V41.5977H91.0681V42.0977ZM84.1348 101.898H83.6348V102.398H84.1348V101.898ZM91.0681 101.898V102.398H91.5681V101.898H91.0681ZM72 133.167C105.781 133.167 133.167 105.781 133.167 72H132.167C132.167 105.229 105.229 132.167 72 132.167V133.167ZM10.8333 72C10.8333 105.781 38.2186 133.167 72 133.167V132.167C38.7709 132.167 11.8333 105.229 11.8333 72H10.8333ZM72 10.8333C38.2186 10.8333 10.8333 38.2186 10.8333 72H11.8333C11.8333 38.7709 38.7709 11.8333 72 11.8333V10.8333ZM133.167 72C133.167 38.2186 105.781 10.8333 72 10.8333V11.8333C105.229 11.8333 132.167 38.7709 132.167 72H133.167ZM72 137.5C108.175 137.5 137.5 108.175 137.5 72H136.5C136.5 107.622 107.622 136.5 72 136.5V137.5ZM6.5 72C6.5 108.175 35.8253 137.5 72 137.5V136.5C36.3776 136.5 7.5 107.622 7.5 72H6.5ZM72 6.5C35.8253 6.5 6.5 35.8253 6.5 72H7.5C7.5 36.3776 36.3776 7.5 72 7.5V6.5ZM137.5 72C137.5 35.8253 108.175 6.5 72 6.5V7.5C107.622 7.5 136.5 36.3776 136.5 72H137.5ZM58.0002 19.7458C67.1732 17.2879 76.8315 17.2879 86.0044 19.7458L86.2633 18.7798C76.9208 16.2765 67.0839 16.2765 57.7414 18.7798L58.0002 19.7458ZM59.4727 23.3091L58.3538 19.1334L57.3879 19.3922L58.5067 23.5679L59.4727 23.3091ZM36.8126 36.8127C42.8994 30.7266 50.5545 26.2102 59.1188 23.9216L58.8606 22.9555C50.1224 25.2906 42.3136 29.8982 36.1056 36.1055L36.8126 36.8127ZM33.0408 33.7479L36.1055 36.8126L36.8126 36.1055L33.7479 33.0408L33.0408 33.7479ZM19.7458 58.0002C22.2036 48.8273 27.0328 40.4629 33.7479 33.7479L33.0408 33.0408C26.2016 39.8799 21.2831 48.3989 18.7798 57.7414L19.7458 58.0002ZM23.5653 58.506L19.3922 57.3879L19.1334 58.3538L23.3065 59.472L23.5653 58.506ZM22.2344 72.0049C22.2344 67.5476 22.8202 63.2278 23.9189 59.1181L22.9528 58.8599C21.8319 63.053 21.2344 67.4596 21.2344 72.0049H22.2344ZM23.9176 84.887C22.8198 80.7787 22.2344 76.4606 22.2344 72.0049H21.2344C21.2344 76.5485 21.8314 80.9534 22.9515 85.1451L23.9176 84.887ZM19.3922 86.6168L23.564 85.499L23.3052 84.5331L19.1334 85.6509L19.3922 86.6168ZM33.7479 110.257C27.0328 103.542 22.2036 95.1774 19.7458 86.0045L18.7798 86.2633C21.2831 95.6058 26.2016 104.125 33.0408 110.964L33.7479 110.257ZM36.1029 107.195L33.0408 110.257L33.7479 110.964L36.81 107.902L36.1029 107.195ZM59.1175 120.088C50.5525 117.799 42.8969 113.282 36.8101 107.195L36.1029 107.902C42.3111 114.11 50.1204 118.719 58.8593 121.054L59.1175 120.088ZM58.3538 124.871L59.4714 120.7L58.5054 120.442L57.3879 124.612L58.3538 124.871ZM86.0044 124.259C76.8315 126.717 67.1732 126.717 58.0002 124.259L57.7414 125.225C67.0839 127.728 76.9208 127.728 86.2633 125.225L86.0044 124.259ZM84.5331 120.7L85.6509 124.871L86.6168 124.612L85.4991 120.441L84.5331 120.7ZM107.193 107.193C101.107 113.281 93.4516 117.798 84.887 120.087L85.1452 121.053C93.8837 118.717 101.693 114.109 107.9 107.9L107.193 107.193ZM110.964 110.257L107.9 107.193L107.193 107.9L110.257 110.964L110.964 110.257ZM124.259 86.0045C121.801 95.1774 116.972 103.542 110.257 110.257L110.964 110.964C117.803 104.125 122.722 95.6058 125.225 86.2633L124.259 86.0045ZM120.438 85.4984L124.612 86.6168L124.871 85.6509L120.697 84.5324L120.438 85.4984ZM121.768 72.0049C121.768 76.4603 121.182 80.7782 120.085 84.8863L121.051 85.1445C122.171 80.9529 122.768 76.5483 122.768 72.0049H121.768ZM120.083 59.1188C121.182 63.2283 121.768 67.5478 121.768 72.0049H122.768C122.768 67.4598 122.17 63.0535 121.049 58.8605L120.083 59.1188ZM124.612 57.3879L120.437 58.5067L120.696 59.4726L124.871 58.3538L124.612 57.3879ZM110.257 33.7479C116.972 40.4629 121.801 48.8273 124.259 58.0002L125.225 57.7414C122.722 48.3989 117.803 39.88 110.964 33.0408L110.257 33.7479ZM107.898 36.814L110.964 33.7479L110.257 33.0408L107.191 36.1069L107.898 36.814ZM84.8857 23.9222C93.4496 26.2112 101.104 30.7278 107.191 36.814L107.898 36.1068C101.69 29.8994 93.8817 25.2916 85.1439 22.9561L84.8857 23.9222ZM85.6509 19.1334L84.5318 23.3098L85.4978 23.5686L86.6168 19.3922L85.6509 19.1334ZM59.8689 41.5977H52.9355V42.5977H59.8689V41.5977ZM60.3689 101.898V42.0977H59.3689V101.898H60.3689ZM52.9355 102.398H59.8689V101.398H52.9355V102.398ZM52.4355 42.0977V101.898H53.4355V42.0977H52.4355ZM75.4685 41.5977H68.5352V42.5977H75.4685V41.5977ZM75.9685 101.898V42.0977H74.9685V101.898H75.9685ZM68.5352 102.398H75.4685V101.398H68.5352V102.398ZM68.0352 42.0977V101.898H69.0352V42.0977H68.0352ZM84.1348 42.5977H91.0681V41.5977H84.1348V42.5977ZM84.6348 101.898V42.0977H83.6348V101.898H84.6348ZM91.0681 101.398H84.1348V102.398H91.0681V101.398ZM90.5681 42.0977V101.898H91.5681V42.0977H90.5681Z" fill="url(#paint1_radial_192_28613)" mask="url(#path-2-inside-1_192_28613)"/>
</g>
<mask id="mask0_192_28613" style="mask-type:alpha" maskUnits="userSpaceOnUse" x="7" y="7" width="130" height="130">
<path fill-rule="evenodd" clip-rule="evenodd" d="M132.667 72C132.667 105.505 105.505 132.667 72 132.667C38.4947 132.667 11.3333 105.505 11.3333 72C11.3333 38.4947 38.4947 11.3333 72 11.3333C105.505 11.3333 132.667 38.4947 132.667 72ZM137 72C137 107.899 107.899 137 72 137C36.1015 137 7 107.899 7 72C7 36.1015 36.1015 7 72 7C107.899 7 137 36.1015 137 72ZM86.1339 19.2628C76.8761 16.7822 67.1285 16.7822 57.8708 19.2628L58.9897 23.4385C50.3385 25.7504 42.6065 30.3124 36.4591 36.4591L33.3943 33.3943C26.6172 40.1714 21.7434 48.6131 19.2628 57.8708L23.4359 58.989C22.326 63.1404 21.7344 67.5036 21.7344 72.0049C21.7344 76.5045 22.3256 80.8661 23.4346 85.016L19.2628 86.1339C21.7434 95.3916 26.6172 103.833 33.3943 110.61L36.4565 107.548C42.604 113.696 50.3365 118.259 58.9884 120.571L57.8708 124.742C67.1285 127.222 76.8761 127.222 86.1339 124.742L85.0161 120.57C93.6677 118.258 101.4 113.695 107.547 107.547L110.61 110.61C117.387 103.833 122.261 95.3916 124.742 86.1339L120.568 85.0154C121.677 80.8656 122.268 76.5043 122.268 72.0049C122.268 67.5038 121.676 63.1409 120.566 58.9897L124.742 57.8708C122.261 48.6131 117.388 40.1715 110.61 33.3943L107.544 36.4604C101.397 30.3136 93.6657 25.7514 85.0148 23.4392L86.1339 19.2628ZM52.9355 42.0977H59.8689V101.898H52.9355V42.0977ZM68.5352 42.0977H75.4685V101.898H68.5352V42.0977ZM91.0681 42.0977H84.1348V101.898H91.0681V42.0977Z" fill="#C4C4C4"/>
</mask>
<g mask="url(#mask0_192_28613)">
<g filter="url(#filter2_f_192_28613)">
<mask id="path-5-inside-2_192_28613" fill="white">
<path fill-rule="evenodd" clip-rule="evenodd" d="M132.667 72C132.667 105.505 105.505 132.667 72 132.667C38.4947 132.667 11.3333 105.505 11.3333 72C11.3333 38.4947 38.4947 11.3333 72 11.3333C105.505 11.3333 132.667 38.4947 132.667 72ZM137 72C137 107.899 107.899 137 72 137C36.1015 137 7 107.899 7 72C7 36.1015 36.1015 7 72 7C107.899 7 137 36.1015 137 72ZM86.1339 19.2628C76.8761 16.7822 67.1285 16.7822 57.8708 19.2628L58.9897 23.4385C50.3385 25.7504 42.6065 30.3124 36.4591 36.4591L33.3943 33.3943C26.6172 40.1714 21.7434 48.6131 19.2628 57.8708L23.4359 58.989C22.326 63.1404 21.7344 67.5036 21.7344 72.0049C21.7344 76.5045 22.3256 80.8661 23.4346 85.016L19.2628 86.1339C21.7434 95.3916 26.6172 103.833 33.3943 110.61L36.4565 107.548C42.604 113.696 50.3365 118.259 58.9884 120.571L57.8708 124.742C67.1285 127.222 76.8761 127.222 86.1339 124.742L85.0161 120.57C93.6677 118.258 101.4 113.695 107.547 107.547L110.61 110.61C117.387 103.833 122.261 95.3916 124.742 86.1339L120.568 85.0154C121.677 80.8656 122.268 76.5043 122.268 72.0049C122.268 67.5038 121.676 63.1409 120.566 58.9897L124.742 57.8708C122.261 48.6131 117.388 40.1715 110.61 33.3943L107.544 36.4604C101.397 30.3136 93.6657 25.7514 85.0148 23.4392L86.1339 19.2628ZM52.9355 42.0977H59.8689V101.898H52.9355V42.0977ZM68.5352 42.0977H75.4685V101.898H68.5352V42.0977ZM91.0681 42.0977H84.1348V101.898H91.0681V42.0977Z"/>
</mask>
<path d="M57.8708 19.2628L57.612 18.2969L56.6461 18.5557L56.9049 19.5216L57.8708 19.2628ZM86.1339 19.2628L87.0998 19.5216L87.3586 18.5557L86.3927 18.2969L86.1339 19.2628ZM58.9897 23.4385L59.2479 24.4046L60.2146 24.1463L59.9556 23.1797L58.9897 23.4385ZM36.4591 36.4591L35.752 37.1662L36.4591 37.8733L37.1662 37.1662L36.4591 36.4591ZM33.3943 33.3943L34.1014 32.6872L33.3943 31.9801L32.6872 32.6872L33.3943 33.3943ZM19.2628 57.8708L18.2969 57.612L18.038 58.5779L19.004 58.8367L19.2628 57.8708ZM23.4359 58.989L24.4019 59.2473L24.6601 58.2817L23.6947 58.0231L23.4359 58.989ZM23.4346 85.016L23.6934 85.982L24.6587 85.7233L24.4007 84.7579L23.4346 85.016ZM19.2628 86.1339L19.004 85.1679L18.038 85.4268L18.2969 86.3927L19.2628 86.1339ZM33.3943 110.61L32.6872 111.317L33.3943 112.025L34.1014 111.317L33.3943 110.61ZM36.4565 107.548L37.1636 106.841L36.4565 106.134L35.7494 106.841L36.4565 107.548ZM58.9884 120.571L59.9543 120.83L60.2133 119.863L59.2466 119.605L58.9884 120.571ZM57.8708 124.742L56.9049 124.483L56.6461 125.449L57.612 125.708L57.8708 124.742ZM86.1339 124.742L86.3927 125.708L87.3586 125.449L87.0998 124.483L86.1339 124.742ZM85.0161 120.57L84.7579 119.604L83.7912 119.863L84.0502 120.829L85.0161 120.57ZM107.547 107.547L108.254 106.84L107.547 106.133L106.84 106.84L107.547 107.547ZM110.61 110.61L109.903 111.317L110.61 112.025L111.317 111.317L110.61 110.61ZM124.742 86.1339L125.708 86.3927L125.967 85.4268L125.001 85.1679L124.742 86.1339ZM120.568 85.0154L119.602 84.7572L119.344 85.7227L120.309 85.9813L120.568 85.0154ZM120.566 58.9897L120.308 58.0237L119.342 58.2824L119.6 59.2479L120.566 58.9897ZM124.742 57.8708L125.001 58.8368L125.967 58.5779L125.708 57.612L124.742 57.8708ZM110.61 33.3943L111.317 32.6872L110.61 31.9801L109.903 32.6872L110.61 33.3943ZM107.544 36.4604L106.837 37.1675L107.544 37.8746L108.251 37.1675L107.544 36.4604ZM85.0148 23.4392L84.0489 23.1804L83.7899 24.1469L84.7566 24.4053L85.0148 23.4392ZM59.8689 42.0977H60.8689V41.0977H59.8689V42.0977ZM52.9355 42.0977V41.0977H51.9355V42.0977H52.9355ZM59.8689 101.898V102.898H60.8689V101.898H59.8689ZM52.9355 101.898H51.9355V102.898H52.9355V101.898ZM75.4685 42.0977H76.4685V41.0977H75.4685V42.0977ZM68.5352 42.0977V41.0977H67.5352V42.0977H68.5352ZM75.4685 101.898V102.898H76.4685V101.898H75.4685ZM68.5352 101.898H67.5352V102.898H68.5352V101.898ZM84.1348 42.0977V41.0977H83.1348V42.0977H84.1348ZM91.0681 42.0977H92.0681V41.0977H91.0681V42.0977ZM84.1348 101.898H83.1348V102.898H84.1348V101.898ZM91.0681 101.898V102.898H92.0681V101.898H91.0681ZM72 133.667C106.058 133.667 133.667 106.058 133.667 72H131.667C131.667 104.953 104.953 131.667 72 131.667V133.667ZM10.3333 72C10.3333 106.058 37.9424 133.667 72 133.667V131.667C39.047 131.667 12.3333 104.953 12.3333 72H10.3333ZM72 10.3333C37.9424 10.3333 10.3333 37.9424 10.3333 72H12.3333C12.3333 39.047 39.047 12.3333 72 12.3333V10.3333ZM133.667 72C133.667 37.9424 106.058 10.3333 72 10.3333V12.3333C104.953 12.3333 131.667 39.047 131.667 72H133.667ZM72 138C108.451 138 138 108.451 138 72H136C136 107.346 107.346 136 72 136V138ZM6 72C6 108.451 35.5492 138 72 138V136C36.6538 136 8 107.346 8 72H6ZM72 6C35.5492 6 6 35.5492 6 72H8C8 36.6538 36.6538 8 72 8V6ZM138 72C138 35.5492 108.451 6 72 6V8C107.346 8 136 36.6538 136 72H138ZM58.1296 20.2287C67.2178 17.7936 76.7869 17.7936 85.875 20.2287L86.3927 18.2969C76.9654 15.7708 67.0393 15.7708 57.612 18.2969L58.1296 20.2287ZM59.9556 23.1797L58.8368 19.004L56.9049 19.5216L58.0238 23.6974L59.9556 23.1797ZM37.1662 37.1662C43.1923 31.1408 50.7705 26.67 59.2479 24.4046L58.7315 22.4724C49.9064 24.8308 42.0206 29.484 35.752 35.7519L37.1662 37.1662ZM32.6872 34.1014L35.752 37.1662L37.1662 35.752L34.1014 32.6872L32.6872 34.1014ZM20.2287 58.1296C22.6639 49.0415 27.4484 40.7544 34.1014 34.1014L32.6872 32.6872C25.786 39.5885 20.8229 48.1847 18.2969 57.612L20.2287 58.1296ZM23.6947 58.0231L19.5216 56.9049L19.004 58.8367L23.177 59.9549L23.6947 58.0231ZM22.7344 72.0049C22.7344 67.5916 23.3144 63.3152 24.4019 59.2473L22.4698 58.7307C21.3377 62.9657 20.7344 67.4156 20.7344 72.0049H22.7344ZM24.4007 84.7579C23.314 80.6913 22.7344 76.4166 22.7344 72.0049H20.7344C20.7344 76.5925 21.3372 81.0408 22.4685 85.2742L24.4007 84.7579ZM19.5216 87.0998L23.6934 85.982L23.1758 84.0501L19.004 85.1679L19.5216 87.0998ZM34.1014 109.903C27.4484 103.25 22.6639 94.9632 20.2287 85.875L18.2969 86.3927C20.8229 95.82 25.786 104.416 32.6872 111.317L34.1014 109.903ZM35.7494 106.841L32.6872 109.903L34.1014 111.317L37.1636 108.255L35.7494 106.841ZM59.2466 119.605C50.7686 117.339 43.1899 112.868 37.1636 106.841L35.7494 108.255C42.0181 114.524 49.9044 119.178 58.7302 121.537L59.2466 119.605ZM58.8368 125.001L59.9543 120.83L58.0225 120.312L56.9049 124.483L58.8368 125.001ZM85.875 123.776C76.7869 126.211 67.2178 126.211 58.1296 123.776L57.612 125.708C67.0393 128.234 76.9654 128.234 86.3927 125.708L85.875 123.776ZM84.0502 120.829L85.1679 125.001L87.0998 124.483L85.982 120.312L84.0502 120.829ZM106.84 106.84C100.814 112.866 93.2355 117.338 84.7579 119.604L85.2743 121.536C94.0998 119.177 101.986 114.523 108.254 108.254L106.84 106.84ZM111.317 109.903L108.254 106.84L106.84 108.254L109.903 111.317L111.317 109.903ZM123.776 85.875C121.341 94.9632 116.556 103.25 109.903 109.903L111.317 111.317C118.219 104.416 123.182 95.82 125.708 86.3927L123.776 85.875ZM120.309 85.9813L124.483 87.0998L125.001 85.1679L120.826 84.0495L120.309 85.9813ZM121.268 72.0049C121.268 76.4164 120.688 80.6909 119.602 84.7572L121.534 85.2735C122.665 81.0403 123.268 76.5922 123.268 72.0049H121.268ZM119.6 59.2479C120.688 63.3157 121.268 67.5918 121.268 72.0049H123.268C123.268 67.4159 122.664 62.9661 121.532 58.7314L119.6 59.2479ZM124.483 56.9049L120.308 58.0237L120.825 59.9556L125.001 58.8368L124.483 56.9049ZM109.903 34.1014C116.556 40.7544 121.341 49.0415 123.776 58.1297L125.708 57.612C123.182 48.1847 118.219 39.5885 111.317 32.6872L109.903 34.1014ZM108.251 37.1675L111.317 34.1014L109.903 32.6872L106.837 35.7533L108.251 37.1675ZM84.7566 24.4053C93.2336 26.671 100.811 31.142 106.837 37.1675L108.251 35.7533C101.983 29.4853 94.0978 24.8318 85.273 22.4731L84.7566 24.4053ZM85.1679 19.004L84.0489 23.1804L85.9807 23.698L87.0998 19.5216L85.1679 19.004ZM59.8689 41.0977H52.9355V43.0977H59.8689V41.0977ZM60.8689 101.898V42.0977H58.8689V101.898H60.8689ZM52.9355 102.898H59.8689V100.898H52.9355V102.898ZM51.9355 42.0977V101.898H53.9355V42.0977H51.9355ZM75.4685 41.0977H68.5352V43.0977H75.4685V41.0977ZM76.4685 101.898V42.0977H74.4685V101.898H76.4685ZM68.5352 102.898H75.4685V100.898H68.5352V102.898ZM67.5352 42.0977V101.898H69.5352V42.0977H67.5352ZM84.1348 43.0977H91.0681V41.0977H84.1348V43.0977ZM85.1348 101.898V42.0977H83.1348V101.898H85.1348ZM91.0681 100.898H84.1348V102.898H91.0681V100.898ZM90.0681 42.0977V101.898H92.0681V42.0977H90.0681Z" fill="black" mask="url(#path-5-inside-2_192_28613)"/>
<path d="M57.8708 19.2628L57.612 18.2969L56.6461 18.5557L56.9049 19.5216L57.8708 19.2628ZM86.1339 19.2628L87.0998 19.5216L87.3586 18.5557L86.3927 18.2969L86.1339 19.2628ZM58.9897 23.4385L59.2479 24.4046L60.2146 24.1463L59.9556 23.1797L58.9897 23.4385ZM36.4591 36.4591L35.752 37.1662L36.4591 37.8733L37.1662 37.1662L36.4591 36.4591ZM33.3943 33.3943L34.1014 32.6872L33.3943 31.9801L32.6872 32.6872L33.3943 33.3943ZM19.2628 57.8708L18.2969 57.612L18.038 58.5779L19.004 58.8367L19.2628 57.8708ZM23.4359 58.989L24.4019 59.2473L24.6601 58.2817L23.6947 58.0231L23.4359 58.989ZM23.4346 85.016L23.6934 85.982L24.6587 85.7233L24.4007 84.7579L23.4346 85.016ZM19.2628 86.1339L19.004 85.1679L18.038 85.4268L18.2969 86.3927L19.2628 86.1339ZM33.3943 110.61L32.6872 111.317L33.3943 112.025L34.1014 111.317L33.3943 110.61ZM36.4565 107.548L37.1636 106.841L36.4565 106.134L35.7494 106.841L36.4565 107.548ZM58.9884 120.571L59.9543 120.83L60.2133 119.863L59.2466 119.605L58.9884 120.571ZM57.8708 124.742L56.9049 124.483L56.6461 125.449L57.612 125.708L57.8708 124.742ZM86.1339 124.742L86.3927 125.708L87.3586 125.449L87.0998 124.483L86.1339 124.742ZM85.0161 120.57L84.7579 119.604L83.7912 119.863L84.0502 120.829L85.0161 120.57ZM107.547 107.547L108.254 106.84L107.547 106.133L106.84 106.84L107.547 107.547ZM110.61 110.61L109.903 111.317L110.61 112.025L111.317 111.317L110.61 110.61ZM124.742 86.1339L125.708 86.3927L125.967 85.4268L125.001 85.1679L124.742 86.1339ZM120.568 85.0154L119.602 84.7572L119.344 85.7227L120.309 85.9813L120.568 85.0154ZM120.566 58.9897L120.308 58.0237L119.342 58.2824L119.6 59.2479L120.566 58.9897ZM124.742 57.8708L125.001 58.8368L125.967 58.5779L125.708 57.612L124.742 57.8708ZM110.61 33.3943L111.317 32.6872L110.61 31.9801L109.903 32.6872L110.61 33.3943ZM107.544 36.4604L106.837 37.1675L107.544 37.8746L108.251 37.1675L107.544 36.4604ZM85.0148 23.4392L84.0489 23.1804L83.7899 24.1469L84.7566 24.4053L85.0148 23.4392ZM59.8689 42.0977H60.8689V41.0977H59.8689V42.0977ZM52.9355 42.0977V41.0977H51.9355V42.0977H52.9355ZM59.8689 101.898V102.898H60.8689V101.898H59.8689ZM52.9355 101.898H51.9355V102.898H52.9355V101.898ZM75.4685 42.0977H76.4685V41.0977H75.4685V42.0977ZM68.5352 42.0977V41.0977H67.5352V42.0977H68.5352ZM75.4685 101.898V102.898H76.4685V101.898H75.4685ZM68.5352 101.898H67.5352V102.898H68.5352V101.898ZM84.1348 42.0977V41.0977H83.1348V42.0977H84.1348ZM91.0681 42.0977H92.0681V41.0977H91.0681V42.0977ZM84.1348 101.898H83.1348V102.898H84.1348V101.898ZM91.0681 101.898V102.898H92.0681V101.898H91.0681ZM72 133.667C106.058 133.667 133.667 106.058 133.667 72H131.667C131.667 104.953 104.953 131.667 72 131.667V133.667ZM10.3333 72C10.3333 106.058 37.9424 133.667 72 133.667V131.667C39.047 131.667 12.3333 104.953 12.3333 72H10.3333ZM72 10.3333C37.9424 10.3333 10.3333 37.9424 10.3333 72H12.3333C12.3333 39.047 39.047 12.3333 72 12.3333V10.3333ZM133.667 72C133.667 37.9424 106.058 10.3333 72 10.3333V12.3333C104.953 12.3333 131.667 39.047 131.667 72H133.667ZM72 138C108.451 138 138 108.451 138 72H136C136 107.346 107.346 136 72 136V138ZM6 72C6 108.451 35.5492 138 72 138V136C36.6538 136 8 107.346 8 72H6ZM72 6C35.5492 6 6 35.5492 6 72H8C8 36.6538 36.6538 8 72 8V6ZM138 72C138 35.5492 108.451 6 72 6V8C107.346 8 136 36.6538 136 72H138ZM58.1296 20.2287C67.2178 17.7936 76.7869 17.7936 85.875 20.2287L86.3927 18.2969C76.9654 15.7708 67.0393 15.7708 57.612 18.2969L58.1296 20.2287ZM59.9556 23.1797L58.8368 19.004L56.9049 19.5216L58.0238 23.6974L59.9556 23.1797ZM37.1662 37.1662C43.1923 31.1408 50.7705 26.67 59.2479 24.4046L58.7315 22.4724C49.9064 24.8308 42.0206 29.484 35.752 35.7519L37.1662 37.1662ZM32.6872 34.1014L35.752 37.1662L37.1662 35.752L34.1014 32.6872L32.6872 34.1014ZM20.2287 58.1296C22.6639 49.0415 27.4484 40.7544 34.1014 34.1014L32.6872 32.6872C25.786 39.5885 20.8229 48.1847 18.2969 57.612L20.2287 58.1296ZM23.6947 58.0231L19.5216 56.9049L19.004 58.8367L23.177 59.9549L23.6947 58.0231ZM22.7344 72.0049C22.7344 67.5916 23.3144 63.3152 24.4019 59.2473L22.4698 58.7307C21.3377 62.9657 20.7344 67.4156 20.7344 72.0049H22.7344ZM24.4007 84.7579C23.314 80.6913 22.7344 76.4166 22.7344 72.0049H20.7344C20.7344 76.5925 21.3372 81.0408 22.4685 85.2742L24.4007 84.7579ZM19.5216 87.0998L23.6934 85.982L23.1758 84.0501L19.004 85.1679L19.5216 87.0998ZM34.1014 109.903C27.4484 103.25 22.6639 94.9632 20.2287 85.875L18.2969 86.3927C20.8229 95.82 25.786 104.416 32.6872 111.317L34.1014 109.903ZM35.7494 106.841L32.6872 109.903L34.1014 111.317L37.1636 108.255L35.7494 106.841ZM59.2466 119.605C50.7686 117.339 43.1899 112.868 37.1636 106.841L35.7494 108.255C42.0181 114.524 49.9044 119.178 58.7302 121.537L59.2466 119.605ZM58.8368 125.001L59.9543 120.83L58.0225 120.312L56.9049 124.483L58.8368 125.001ZM85.875 123.776C76.7869 126.211 67.2178 126.211 58.1296 123.776L57.612 125.708C67.0393 128.234 76.9654 128.234 86.3927 125.708L85.875 123.776ZM84.0502 120.829L85.1679 125.001L87.0998 124.483L85.982 120.312L84.0502 120.829ZM106.84 106.84C100.814 112.866 93.2355 117.338 84.7579 119.604L85.2743 121.536C94.0998 119.177 101.986 114.523 108.254 108.254L106.84 106.84ZM111.317 109.903L108.254 106.84L106.84 108.254L109.903 111.317L111.317 109.903ZM123.776 85.875C121.341 94.9632 116.556 103.25 109.903 109.903L111.317 111.317C118.219 104.416 123.182 95.82 125.708 86.3927L123.776 85.875ZM120.309 85.9813L124.483 87.0998L125.001 85.1679L120.826 84.0495L120.309 85.9813ZM121.268 72.0049C121.268 76.4164 120.688 80.6909 119.602 84.7572L121.534 85.2735C122.665 81.0403 123.268 76.5922 123.268 72.0049H121.268ZM119.6 59.2479C120.688 63.3157 121.268 67.5918 121.268 72.0049H123.268C123.268 67.4159 122.664 62.9661 121.532 58.7314L119.6 59.2479ZM124.483 56.9049L120.308 58.0237L120.825 59.9556L125.001 58.8368L124.483 56.9049ZM109.903 34.1014C116.556 40.7544 121.341 49.0415 123.776 58.1297L125.708 57.612C123.182 48.1847 118.219 39.5885 111.317 32.6872L109.903 34.1014ZM108.251 37.1675L111.317 34.1014L109.903 32.6872L106.837 35.7533L108.251 37.1675ZM84.7566 24.4053C93.2336 26.671 100.811 31.142 106.837 37.1675L108.251 35.7533C101.983 29.4853 94.0978 24.8318 85.273 22.4731L84.7566 24.4053ZM85.1679 19.004L84.0489 23.1804L85.9807 23.698L87.0998 19.5216L85.1679 19.004ZM59.8689 41.0977H52.9355V43.0977H59.8689V41.0977ZM60.8689 101.898V42.0977H58.8689V101.898H60.8689ZM52.9355 102.898H59.8689V100.898H52.9355V102.898ZM51.9355 42.0977V101.898H53.9355V42.0977H51.9355ZM75.4685 41.0977H68.5352V43.0977H75.4685V41.0977ZM76.4685 101.898V42.0977H74.4685V101.898H76.4685ZM68.5352 102.898H75.4685V100.898H68.5352V102.898ZM67.5352 42.0977V101.898H69.5352V42.0977H67.5352ZM84.1348 43.0977H91.0681V41.0977H84.1348V43.0977ZM85.1348 101.898V42.0977H83.1348V101.898H85.1348ZM91.0681 100.898H84.1348V102.898H91.0681V100.898ZM90.0681 42.0977V101.898H92.0681V42.0977H90.0681Z" fill="url(#paint2_radial_192_28613)" mask="url(#path-5-inside-2_192_28613)"/>
</g>
<g filter="url(#filter3_f_192_28613)">
<mask id="path-7-inside-3_192_28613" fill="white">
<path fill-rule="evenodd" clip-rule="evenodd" d="M132.667 72C132.667 105.505 105.505 132.667 72 132.667C38.4947 132.667 11.3333 105.505 11.3333 72C11.3333 38.4947 38.4947 11.3333 72 11.3333C105.505 11.3333 132.667 38.4947 132.667 72ZM137 72C137 107.899 107.899 137 72 137C36.1015 137 7 107.899 7 72C7 36.1015 36.1015 7 72 7C107.899 7 137 36.1015 137 72ZM86.1339 19.2628C76.8761 16.7822 67.1285 16.7822 57.8708 19.2628L58.9897 23.4385C50.3385 25.7504 42.6065 30.3124 36.4591 36.4591L33.3943 33.3943C26.6172 40.1714 21.7434 48.6131 19.2628 57.8708L23.4359 58.989C22.326 63.1404 21.7344 67.5036 21.7344 72.0049C21.7344 76.5045 22.3256 80.8661 23.4346 85.016L19.2628 86.1339C21.7434 95.3916 26.6172 103.833 33.3943 110.61L36.4565 107.548C42.604 113.696 50.3365 118.259 58.9884 120.571L57.8708 124.742C67.1285 127.222 76.8761 127.222 86.1339 124.742L85.0161 120.57C93.6677 118.258 101.4 113.695 107.547 107.547L110.61 110.61C117.387 103.833 122.261 95.3916 124.742 86.1339L120.568 85.0154C121.677 80.8656 122.268 76.5043 122.268 72.0049C122.268 67.5038 121.676 63.1409 120.566 58.9897L124.742 57.8708C122.261 48.6131 117.388 40.1715 110.61 33.3943L107.544 36.4604C101.397 30.3136 93.6657 25.7514 85.0148 23.4392L86.1339 19.2628ZM52.9355 42.0977H59.8689V101.898H52.9355V42.0977ZM68.5352 42.0977H75.4685V101.898H68.5352V42.0977ZM91.0681 42.0977H84.1348V101.898H91.0681V42.0977Z"/>
</mask>
<path d="M57.8708 19.2628L57.612 18.2969L56.6461 18.5557L56.9049 19.5216L57.8708 19.2628ZM86.1339 19.2628L87.0998 19.5216L87.3586 18.5557L86.3927 18.2969L86.1339 19.2628ZM58.9897 23.4385L59.2479 24.4046L60.2146 24.1463L59.9556 23.1797L58.9897 23.4385ZM36.4591 36.4591L35.752 37.1662L36.4591 37.8733L37.1662 37.1662L36.4591 36.4591ZM33.3943 33.3943L34.1014 32.6872L33.3943 31.9801L32.6872 32.6872L33.3943 33.3943ZM19.2628 57.8708L18.2969 57.612L18.038 58.5779L19.004 58.8367L19.2628 57.8708ZM23.4359 58.989L24.4019 59.2473L24.6601 58.2817L23.6947 58.0231L23.4359 58.989ZM23.4346 85.016L23.6934 85.982L24.6587 85.7233L24.4007 84.7579L23.4346 85.016ZM19.2628 86.1339L19.004 85.1679L18.038 85.4268L18.2969 86.3927L19.2628 86.1339ZM33.3943 110.61L32.6872 111.317L33.3943 112.025L34.1014 111.317L33.3943 110.61ZM36.4565 107.548L37.1636 106.841L36.4565 106.134L35.7494 106.841L36.4565 107.548ZM58.9884 120.571L59.9543 120.83L60.2133 119.863L59.2466 119.605L58.9884 120.571ZM57.8708 124.742L56.9049 124.483L56.6461 125.449L57.612 125.708L57.8708 124.742ZM86.1339 124.742L86.3927 125.708L87.3586 125.449L87.0998 124.483L86.1339 124.742ZM85.0161 120.57L84.7579 119.604L83.7912 119.863L84.0502 120.829L85.0161 120.57ZM107.547 107.547L108.254 106.84L107.547 106.133L106.84 106.84L107.547 107.547ZM110.61 110.61L109.903 111.317L110.61 112.025L111.317 111.317L110.61 110.61ZM124.742 86.1339L125.708 86.3927L125.967 85.4268L125.001 85.1679L124.742 86.1339ZM120.568 85.0154L119.602 84.7572L119.344 85.7227L120.309 85.9813L120.568 85.0154ZM120.566 58.9897L120.308 58.0237L119.342 58.2824L119.6 59.2479L120.566 58.9897ZM124.742 57.8708L125.001 58.8368L125.967 58.5779L125.708 57.612L124.742 57.8708ZM110.61 33.3943L111.317 32.6872L110.61 31.9801L109.903 32.6872L110.61 33.3943ZM107.544 36.4604L106.837 37.1675L107.544 37.8746L108.251 37.1675L107.544 36.4604ZM85.0148 23.4392L84.0489 23.1804L83.7899 24.1469L84.7566 24.4053L85.0148 23.4392ZM59.8689 42.0977H60.8689V41.0977H59.8689V42.0977ZM52.9355 42.0977V41.0977H51.9355V42.0977H52.9355ZM59.8689 101.898V102.898H60.8689V101.898H59.8689ZM52.9355 101.898H51.9355V102.898H52.9355V101.898ZM75.4685 42.0977H76.4685V41.0977H75.4685V42.0977ZM68.5352 42.0977V41.0977H67.5352V42.0977H68.5352ZM75.4685 101.898V102.898H76.4685V101.898H75.4685ZM68.5352 101.898H67.5352V102.898H68.5352V101.898ZM84.1348 42.0977V41.0977H83.1348V42.0977H84.1348ZM91.0681 42.0977H92.0681V41.0977H91.0681V42.0977ZM84.1348 101.898H83.1348V102.898H84.1348V101.898ZM91.0681 101.898V102.898H92.0681V101.898H91.0681ZM72 133.667C106.058 133.667 133.667 106.058 133.667 72H131.667C131.667 104.953 104.953 131.667 72 131.667V133.667ZM10.3333 72C10.3333 106.058 37.9424 133.667 72 133.667V131.667C39.047 131.667 12.3333 104.953 12.3333 72H10.3333ZM72 10.3333C37.9424 10.3333 10.3333 37.9424 10.3333 72H12.3333C12.3333 39.047 39.047 12.3333 72 12.3333V10.3333ZM133.667 72C133.667 37.9424 106.058 10.3333 72 10.3333V12.3333C104.953 12.3333 131.667 39.047 131.667 72H133.667ZM72 138C108.451 138 138 108.451 138 72H136C136 107.346 107.346 136 72 136V138ZM6 72C6 108.451 35.5492 138 72 138V136C36.6538 136 8 107.346 8 72H6ZM72 6C35.5492 6 6 35.5492 6 72H8C8 36.6538 36.6538 8 72 8V6ZM138 72C138 35.5492 108.451 6 72 6V8C107.346 8 136 36.6538 136 72H138ZM58.1296 20.2287C67.2178 17.7936 76.7869 17.7936 85.875 20.2287L86.3927 18.2969C76.9654 15.7708 67.0393 15.7708 57.612 18.2969L58.1296 20.2287ZM59.9556 23.1797L58.8368 19.004L56.9049 19.5216L58.0238 23.6974L59.9556 23.1797ZM37.1662 37.1662C43.1923 31.1408 50.7705 26.67 59.2479 24.4046L58.7315 22.4724C49.9064 24.8308 42.0206 29.484 35.752 35.7519L37.1662 37.1662ZM32.6872 34.1014L35.752 37.1662L37.1662 35.752L34.1014 32.6872L32.6872 34.1014ZM20.2287 58.1296C22.6639 49.0415 27.4484 40.7544 34.1014 34.1014L32.6872 32.6872C25.786 39.5885 20.8229 48.1847 18.2969 57.612L20.2287 58.1296ZM23.6947 58.0231L19.5216 56.9049L19.004 58.8367L23.177 59.9549L23.6947 58.0231ZM22.7344 72.0049C22.7344 67.5916 23.3144 63.3152 24.4019 59.2473L22.4698 58.7307C21.3377 62.9657 20.7344 67.4156 20.7344 72.0049H22.7344ZM24.4007 84.7579C23.314 80.6913 22.7344 76.4166 22.7344 72.0049H20.7344C20.7344 76.5925 21.3372 81.0408 22.4685 85.2742L24.4007 84.7579ZM19.5216 87.0998L23.6934 85.982L23.1758 84.0501L19.004 85.1679L19.5216 87.0998ZM34.1014 109.903C27.4484 103.25 22.6639 94.9632 20.2287 85.875L18.2969 86.3927C20.8229 95.82 25.786 104.416 32.6872 111.317L34.1014 109.903ZM35.7494 106.841L32.6872 109.903L34.1014 111.317L37.1636 108.255L35.7494 106.841ZM59.2466 119.605C50.7686 117.339 43.1899 112.868 37.1636 106.841L35.7494 108.255C42.0181 114.524 49.9044 119.178 58.7302 121.537L59.2466 119.605ZM58.8368 125.001L59.9543 120.83L58.0225 120.312L56.9049 124.483L58.8368 125.001ZM85.875 123.776C76.7869 126.211 67.2178 126.211 58.1296 123.776L57.612 125.708C67.0393 128.234 76.9654 128.234 86.3927 125.708L85.875 123.776ZM84.0502 120.829L85.1679 125.001L87.0998 124.483L85.982 120.312L84.0502 120.829ZM106.84 106.84C100.814 112.866 93.2355 117.338 84.7579 119.604L85.2743 121.536C94.0998 119.177 101.986 114.523 108.254 108.254L106.84 106.84ZM111.317 109.903L108.254 106.84L106.84 108.254L109.903 111.317L111.317 109.903ZM123.776 85.875C121.341 94.9632 116.556 103.25 109.903 109.903L111.317 111.317C118.219 104.416 123.182 95.82 125.708 86.3927L123.776 85.875ZM120.309 85.9813L124.483 87.0998L125.001 85.1679L120.826 84.0495L120.309 85.9813ZM121.268 72.0049C121.268 76.4164 120.688 80.6909 119.602 84.7572L121.534 85.2735C122.665 81.0403 123.268 76.5922 123.268 72.0049H121.268ZM119.6 59.2479C120.688 63.3157 121.268 67.5918 121.268 72.0049H123.268C123.268 67.4159 122.664 62.9661 121.532 58.7314L119.6 59.2479ZM124.483 56.9049L120.308 58.0237L120.825 59.9556L125.001 58.8368L124.483 56.9049ZM109.903 34.1014C116.556 40.7544 121.341 49.0415 123.776 58.1297L125.708 57.612C123.182 48.1847 118.219 39.5885 111.317 32.6872L109.903 34.1014ZM108.251 37.1675L111.317 34.1014L109.903 32.6872L106.837 35.7533L108.251 37.1675ZM84.7566 24.4053C93.2336 26.671 100.811 31.142 106.837 37.1675L108.251 35.7533C101.983 29.4853 94.0978 24.8318 85.273 22.4731L84.7566 24.4053ZM85.1679 19.004L84.0489 23.1804L85.9807 23.698L87.0998 19.5216L85.1679 19.004ZM59.8689 41.0977H52.9355V43.0977H59.8689V41.0977ZM60.8689 101.898V42.0977H58.8689V101.898H60.8689ZM52.9355 102.898H59.8689V100.898H52.9355V102.898ZM51.9355 42.0977V101.898H53.9355V42.0977H51.9355ZM75.4685 41.0977H68.5352V43.0977H75.4685V41.0977ZM76.4685 101.898V42.0977H74.4685V101.898H76.4685ZM68.5352 102.898H75.4685V100.898H68.5352V102.898ZM67.5352 42.0977V101.898H69.5352V42.0977H67.5352ZM84.1348 43.0977H91.0681V41.0977H84.1348V43.0977ZM85.1348 101.898V42.0977H83.1348V101.898H85.1348ZM91.0681 100.898H84.1348V102.898H91.0681V100.898ZM90.0681 42.0977V101.898H92.0681V42.0977H90.0681Z" fill="black" mask="url(#path-7-inside-3_192_28613)"/>
<path d="M57.8708 19.2628L57.612 18.2969L56.6461 18.5557L56.9049 19.5216L57.8708 19.2628ZM86.1339 19.2628L87.0998 19.5216L87.3586 18.5557L86.3927 18.2969L86.1339 19.2628ZM58.9897 23.4385L59.2479 24.4046L60.2146 24.1463L59.9556 23.1797L58.9897 23.4385ZM36.4591 36.4591L35.752 37.1662L36.4591 37.8733L37.1662 37.1662L36.4591 36.4591ZM33.3943 33.3943L34.1014 32.6872L33.3943 31.9801L32.6872 32.6872L33.3943 33.3943ZM19.2628 57.8708L18.2969 57.612L18.038 58.5779L19.004 58.8367L19.2628 57.8708ZM23.4359 58.989L24.4019 59.2473L24.6601 58.2817L23.6947 58.0231L23.4359 58.989ZM23.4346 85.016L23.6934 85.982L24.6587 85.7233L24.4007 84.7579L23.4346 85.016ZM19.2628 86.1339L19.004 85.1679L18.038 85.4268L18.2969 86.3927L19.2628 86.1339ZM33.3943 110.61L32.6872 111.317L33.3943 112.025L34.1014 111.317L33.3943 110.61ZM36.4565 107.548L37.1636 106.841L36.4565 106.134L35.7494 106.841L36.4565 107.548ZM58.9884 120.571L59.9543 120.83L60.2133 119.863L59.2466 119.605L58.9884 120.571ZM57.8708 124.742L56.9049 124.483L56.6461 125.449L57.612 125.708L57.8708 124.742ZM86.1339 124.742L86.3927 125.708L87.3586 125.449L87.0998 124.483L86.1339 124.742ZM85.0161 120.57L84.7579 119.604L83.7912 119.863L84.0502 120.829L85.0161 120.57ZM107.547 107.547L108.254 106.84L107.547 106.133L106.84 106.84L107.547 107.547ZM110.61 110.61L109.903 111.317L110.61 112.025L111.317 111.317L110.61 110.61ZM124.742 86.1339L125.708 86.3927L125.967 85.4268L125.001 85.1679L124.742 86.1339ZM120.568 85.0154L119.602 84.7572L119.344 85.7227L120.309 85.9813L120.568 85.0154ZM120.566 58.9897L120.308 58.0237L119.342 58.2824L119.6 59.2479L120.566 58.9897ZM124.742 57.8708L125.001 58.8368L125.967 58.5779L125.708 57.612L124.742 57.8708ZM110.61 33.3943L111.317 32.6872L110.61 31.9801L109.903 32.6872L110.61 33.3943ZM107.544 36.4604L106.837 37.1675L107.544 37.8746L108.251 37.1675L107.544 36.4604ZM85.0148 23.4392L84.0489 23.1804L83.7899 24.1469L84.7566 24.4053L85.0148 23.4392ZM59.8689 42.0977H60.8689V41.0977H59.8689V42.0977ZM52.9355 42.0977V41.0977H51.9355V42.0977H52.9355ZM59.8689 101.898V102.898H60.8689V101.898H59.8689ZM52.9355 101.898H51.9355V102.898H52.9355V101.898ZM75.4685 42.0977H76.4685V41.0977H75.4685V42.0977ZM68.5352 42.0977V41.0977H67.5352V42.0977H68.5352ZM75.4685 101.898V102.898H76.4685V101.898H75.4685ZM68.5352 101.898H67.5352V102.898H68.5352V101.898ZM84.1348 42.0977V41.0977H83.1348V42.0977H84.1348ZM91.0681 42.0977H92.0681V41.0977H91.0681V42.0977ZM84.1348 101.898H83.1348V102.898H84.1348V101.898ZM91.0681 101.898V102.898H92.0681V101.898H91.0681ZM72 133.667C106.058 133.667 133.667 106.058 133.667 72H131.667C131.667 104.953 104.953 131.667 72 131.667V133.667ZM10.3333 72C10.3333 106.058 37.9424 133.667 72 133.667V131.667C39.047 131.667 12.3333 104.953 12.3333 72H10.3333ZM72 10.3333C37.9424 10.3333 10.3333 37.9424 10.3333 72H12.3333C12.3333 39.047 39.047 12.3333 72 12.3333V10.3333ZM133.667 72C133.667 37.9424 106.058 10.3333 72 10.3333V12.3333C104.953 12.3333 131.667 39.047 131.667 72H133.667ZM72 138C108.451 138 138 108.451 138 72H136C136 107.346 107.346 136 72 136V138ZM6 72C6 108.451 35.5492 138 72 138V136C36.6538 136 8 107.346 8 72H6ZM72 6C35.5492 6 6 35.5492 6 72H8C8 36.6538 36.6538 8 72 8V6ZM138 72C138 35.5492 108.451 6 72 6V8C107.346 8 136 36.6538 136 72H138ZM58.1296 20.2287C67.2178 17.7936 76.7869 17.7936 85.875 20.2287L86.3927 18.2969C76.9654 15.7708 67.0393 15.7708 57.612 18.2969L58.1296 20.2287ZM59.9556 23.1797L58.8368 19.004L56.9049 19.5216L58.0238 23.6974L59.9556 23.1797ZM37.1662 37.1662C43.1923 31.1408 50.7705 26.67 59.2479 24.4046L58.7315 22.4724C49.9064 24.8308 42.0206 29.484 35.752 35.7519L37.1662 37.1662ZM32.6872 34.1014L35.752 37.1662L37.1662 35.752L34.1014 32.6872L32.6872 34.1014ZM20.2287 58.1296C22.6639 49.0415 27.4484 40.7544 34.1014 34.1014L32.6872 32.6872C25.786 39.5885 20.8229 48.1847 18.2969 57.612L20.2287 58.1296ZM23.6947 58.0231L19.5216 56.9049L19.004 58.8367L23.177 59.9549L23.6947 58.0231ZM22.7344 72.0049C22.7344 67.5916 23.3144 63.3152 24.4019 59.2473L22.4698 58.7307C21.3377 62.9657 20.7344 67.4156 20.7344 72.0049H22.7344ZM24.4007 84.7579C23.314 80.6913 22.7344 76.4166 22.7344 72.0049H20.7344C20.7344 76.5925 21.3372 81.0408 22.4685 85.2742L24.4007 84.7579ZM19.5216 87.0998L23.6934 85.982L23.1758 84.0501L19.004 85.1679L19.5216 87.0998ZM34.1014 109.903C27.4484 103.25 22.6639 94.9632 20.2287 85.875L18.2969 86.3927C20.8229 95.82 25.786 104.416 32.6872 111.317L34.1014 109.903ZM35.7494 106.841L32.6872 109.903L34.1014 111.317L37.1636 108.255L35.7494 106.841ZM59.2466 119.605C50.7686 117.339 43.1899 112.868 37.1636 106.841L35.7494 108.255C42.0181 114.524 49.9044 119.178 58.7302 121.537L59.2466 119.605ZM58.8368 125.001L59.9543 120.83L58.0225 120.312L56.9049 124.483L58.8368 125.001ZM85.875 123.776C76.7869 126.211 67.2178 126.211 58.1296 123.776L57.612 125.708C67.0393 128.234 76.9654 128.234 86.3927 125.708L85.875 123.776ZM84.0502 120.829L85.1679 125.001L87.0998 124.483L85.982 120.312L84.0502 120.829ZM106.84 106.84C100.814 112.866 93.2355 117.338 84.7579 119.604L85.2743 121.536C94.0998 119.177 101.986 114.523 108.254 108.254L106.84 106.84ZM111.317 109.903L108.254 106.84L106.84 108.254L109.903 111.317L111.317 109.903ZM123.776 85.875C121.341 94.9632 116.556 103.25 109.903 109.903L111.317 111.317C118.219 104.416 123.182 95.82 125.708 86.3927L123.776 85.875ZM120.309 85.9813L124.483 87.0998L125.001 85.1679L120.826 84.0495L120.309 85.9813ZM121.268 72.0049C121.268 76.4164 120.688 80.6909 119.602 84.7572L121.534 85.2735C122.665 81.0403 123.268 76.5922 123.268 72.0049H121.268ZM119.6 59.2479C120.688 63.3157 121.268 67.5918 121.268 72.0049H123.268C123.268 67.4159 122.664 62.9661 121.532 58.7314L119.6 59.2479ZM124.483 56.9049L120.308 58.0237L120.825 59.9556L125.001 58.8368L124.483 56.9049ZM109.903 34.1014C116.556 40.7544 121.341 49.0415 123.776 58.1297L125.708 57.612C123.182 48.1847 118.219 39.5885 111.317 32.6872L109.903 34.1014ZM108.251 37.1675L111.317 34.1014L109.903 32.6872L106.837 35.7533L108.251 37.1675ZM84.7566 24.4053C93.2336 26.671 100.811 31.142 106.837 37.1675L108.251 35.7533C101.983 29.4853 94.0978 24.8318 85.273 22.4731L84.7566 24.4053ZM85.1679 19.004L84.0489 23.1804L85.9807 23.698L87.0998 19.5216L85.1679 19.004ZM59.8689 41.0977H52.9355V43.0977H59.8689V41.0977ZM60.8689 101.898V42.0977H58.8689V101.898H60.8689ZM52.9355 102.898H59.8689V100.898H52.9355V102.898ZM51.9355 42.0977V101.898H53.9355V42.0977H51.9355ZM75.4685 41.0977H68.5352V43.0977H75.4685V41.0977ZM76.4685 101.898V42.0977H74.4685V101.898H76.4685ZM68.5352 102.898H75.4685V100.898H68.5352V102.898ZM67.5352 42.0977V101.898H69.5352V42.0977H67.5352ZM84.1348 43.0977H91.0681V41.0977H84.1348V43.0977ZM85.1348 101.898V42.0977H83.1348V101.898H85.1348ZM91.0681 100.898H84.1348V102.898H91.0681V100.898ZM90.0681 42.0977V101.898H92.0681V42.0977H90.0681Z" fill="url(#paint3_radial_192_28613)" mask="url(#path-7-inside-3_192_28613)"/>
</g>
<g filter="url(#filter4_f_192_28613)">
<mask id="path-9-inside-4_192_28613" fill="white">
<path fill-rule="evenodd" clip-rule="evenodd" d="M132.667 72C132.667 105.505 105.505 132.667 72 132.667C38.4947 132.667 11.3333 105.505 11.3333 72C11.3333 38.4947 38.4947 11.3333 72 11.3333C105.505 11.3333 132.667 38.4947 132.667 72ZM137 72C137 107.899 107.899 137 72 137C36.1015 137 7 107.899 7 72C7 36.1015 36.1015 7 72 7C107.899 7 137 36.1015 137 72ZM86.1339 19.2628C76.8761 16.7822 67.1285 16.7822 57.8708 19.2628L58.9897 23.4385C50.3385 25.7504 42.6065 30.3124 36.4591 36.4591L33.3943 33.3943C26.6172 40.1714 21.7434 48.6131 19.2628 57.8708L23.4359 58.989C22.326 63.1404 21.7344 67.5036 21.7344 72.0049C21.7344 76.5045 22.3256 80.8661 23.4346 85.016L19.2628 86.1339C21.7434 95.3916 26.6172 103.833 33.3943 110.61L36.4565 107.548C42.604 113.696 50.3365 118.259 58.9884 120.571L57.8708 124.742C67.1285 127.222 76.8761 127.222 86.1339 124.742L85.0161 120.57C93.6677 118.258 101.4 113.695 107.547 107.547L110.61 110.61C117.387 103.833 122.261 95.3916 124.742 86.1339L120.568 85.0154C121.677 80.8656 122.268 76.5043 122.268 72.0049C122.268 67.5038 121.676 63.1409 120.566 58.9897L124.742 57.8708C122.261 48.6131 117.388 40.1715 110.61 33.3943L107.544 36.4604C101.397 30.3136 93.6657 25.7514 85.0148 23.4392L86.1339 19.2628ZM52.9355 42.0977H59.8689V101.898H52.9355V42.0977ZM68.5352 42.0977H75.4685V101.898H68.5352V42.0977ZM91.0681 42.0977H84.1348V101.898H91.0681V42.0977Z"/>
</mask>
<path d="M57.8708 19.2628L57.612 18.2969L56.6461 18.5557L56.9049 19.5216L57.8708 19.2628ZM86.1339 19.2628L87.0998 19.5216L87.3586 18.5557L86.3927 18.2969L86.1339 19.2628ZM58.9897 23.4385L59.2479 24.4046L60.2146 24.1463L59.9556 23.1797L58.9897 23.4385ZM36.4591 36.4591L35.752 37.1662L36.4591 37.8733L37.1662 37.1662L36.4591 36.4591ZM33.3943 33.3943L34.1014 32.6872L33.3943 31.9801L32.6872 32.6872L33.3943 33.3943ZM19.2628 57.8708L18.2969 57.612L18.038 58.5779L19.004 58.8367L19.2628 57.8708ZM23.4359 58.989L24.4019 59.2473L24.6601 58.2817L23.6947 58.0231L23.4359 58.989ZM23.4346 85.016L23.6934 85.982L24.6587 85.7233L24.4007 84.7579L23.4346 85.016ZM19.2628 86.1339L19.004 85.1679L18.038 85.4268L18.2969 86.3927L19.2628 86.1339ZM33.3943 110.61L32.6872 111.317L33.3943 112.025L34.1014 111.317L33.3943 110.61ZM36.4565 107.548L37.1636 106.841L36.4565 106.134L35.7494 106.841L36.4565 107.548ZM58.9884 120.571L59.9543 120.83L60.2133 119.863L59.2466 119.605L58.9884 120.571ZM57.8708 124.742L56.9049 124.483L56.6461 125.449L57.612 125.708L57.8708 124.742ZM86.1339 124.742L86.3927 125.708L87.3586 125.449L87.0998 124.483L86.1339 124.742ZM85.0161 120.57L84.7579 119.604L83.7912 119.863L84.0502 120.829L85.0161 120.57ZM107.547 107.547L108.254 106.84L107.547 106.133L106.84 106.84L107.547 107.547ZM110.61 110.61L109.903 111.317L110.61 112.025L111.317 111.317L110.61 110.61ZM124.742 86.1339L125.708 86.3927L125.967 85.4268L125.001 85.1679L124.742 86.1339ZM120.568 85.0154L119.602 84.7572L119.344 85.7227L120.309 85.9813L120.568 85.0154ZM120.566 58.9897L120.308 58.0237L119.342 58.2824L119.6 59.2479L120.566 58.9897ZM124.742 57.8708L125.001 58.8368L125.967 58.5779L125.708 57.612L124.742 57.8708ZM110.61 33.3943L111.317 32.6872L110.61 31.9801L109.903 32.6872L110.61 33.3943ZM107.544 36.4604L106.837 37.1675L107.544 37.8746L108.251 37.1675L107.544 36.4604ZM85.0148 23.4392L84.0489 23.1804L83.7899 24.1469L84.7566 24.4053L85.0148 23.4392ZM59.8689 42.0977H60.8689V41.0977H59.8689V42.0977ZM52.9355 42.0977V41.0977H51.9355V42.0977H52.9355ZM59.8689 101.898V102.898H60.8689V101.898H59.8689ZM52.9355 101.898H51.9355V102.898H52.9355V101.898ZM75.4685 42.0977H76.4685V41.0977H75.4685V42.0977ZM68.5352 42.0977V41.0977H67.5352V42.0977H68.5352ZM75.4685 101.898V102.898H76.4685V101.898H75.4685ZM68.5352 101.898H67.5352V102.898H68.5352V101.898ZM84.1348 42.0977V41.0977H83.1348V42.0977H84.1348ZM91.0681 42.0977H92.0681V41.0977H91.0681V42.0977ZM84.1348 101.898H83.1348V102.898H84.1348V101.898ZM91.0681 101.898V102.898H92.0681V101.898H91.0681ZM72 133.667C106.058 133.667 133.667 106.058 133.667 72H131.667C131.667 104.953 104.953 131.667 72 131.667V133.667ZM10.3333 72C10.3333 106.058 37.9424 133.667 72 133.667V131.667C39.047 131.667 12.3333 104.953 12.3333 72H10.3333ZM72 10.3333C37.9424 10.3333 10.3333 37.9424 10.3333 72H12.3333C12.3333 39.047 39.047 12.3333 72 12.3333V10.3333ZM133.667 72C133.667 37.9424 106.058 10.3333 72 10.3333V12.3333C104.953 12.3333 131.667 39.047 131.667 72H133.667ZM72 138C108.451 138 138 108.451 138 72H136C136 107.346 107.346 136 72 136V138ZM6 72C6 108.451 35.5492 138 72 138V136C36.6538 136 8 107.346 8 72H6ZM72 6C35.5492 6 6 35.5492 6 72H8C8 36.6538 36.6538 8 72 8V6ZM138 72C138 35.5492 108.451 6 72 6V8C107.346 8 136 36.6538 136 72H138ZM58.1296 20.2287C67.2178 17.7936 76.7869 17.7936 85.875 20.2287L86.3927 18.2969C76.9654 15.7708 67.0393 15.7708 57.612 18.2969L58.1296 20.2287ZM59.9556 23.1797L58.8368 19.004L56.9049 19.5216L58.0238 23.6974L59.9556 23.1797ZM37.1662 37.1662C43.1923 31.1408 50.7705 26.67 59.2479 24.4046L58.7315 22.4724C49.9064 24.8308 42.0206 29.484 35.752 35.7519L37.1662 37.1662ZM32.6872 34.1014L35.752 37.1662L37.1662 35.752L34.1014 32.6872L32.6872 34.1014ZM20.2287 58.1296C22.6639 49.0415 27.4484 40.7544 34.1014 34.1014L32.6872 32.6872C25.786 39.5885 20.8229 48.1847 18.2969 57.612L20.2287 58.1296ZM23.6947 58.0231L19.5216 56.9049L19.004 58.8367L23.177 59.9549L23.6947 58.0231ZM22.7344 72.0049C22.7344 67.5916 23.3144 63.3152 24.4019 59.2473L22.4698 58.7307C21.3377 62.9657 20.7344 67.4156 20.7344 72.0049H22.7344ZM24.4007 84.7579C23.314 80.6913 22.7344 76.4166 22.7344 72.0049H20.7344C20.7344 76.5925 21.3372 81.0408 22.4685 85.2742L24.4007 84.7579ZM19.5216 87.0998L23.6934 85.982L23.1758 84.0501L19.004 85.1679L19.5216 87.0998ZM34.1014 109.903C27.4484 103.25 22.6639 94.9632 20.2287 85.875L18.2969 86.3927C20.8229 95.82 25.786 104.416 32.6872 111.317L34.1014 109.903ZM35.7494 106.841L32.6872 109.903L34.1014 111.317L37.1636 108.255L35.7494 106.841ZM59.2466 119.605C50.7686 117.339 43.1899 112.868 37.1636 106.841L35.7494 108.255C42.0181 114.524 49.9044 119.178 58.7302 121.537L59.2466 119.605ZM58.8368 125.001L59.9543 120.83L58.0225 120.312L56.9049 124.483L58.8368 125.001ZM85.875 123.776C76.7869 126.211 67.2178 126.211 58.1296 123.776L57.612 125.708C67.0393 128.234 76.9654 128.234 86.3927 125.708L85.875 123.776ZM84.0502 120.829L85.1679 125.001L87.0998 124.483L85.982 120.312L84.0502 120.829ZM106.84 106.84C100.814 112.866 93.2355 117.338 84.7579 119.604L85.2743 121.536C94.0998 119.177 101.986 114.523 108.254 108.254L106.84 106.84ZM111.317 109.903L108.254 106.84L106.84 108.254L109.903 111.317L111.317 109.903ZM123.776 85.875C121.341 94.9632 116.556 103.25 109.903 109.903L111.317 111.317C118.219 104.416 123.182 95.82 125.708 86.3927L123.776 85.875ZM120.309 85.9813L124.483 87.0998L125.001 85.1679L120.826 84.0495L120.309 85.9813ZM121.268 72.0049C121.268 76.4164 120.688 80.6909 119.602 84.7572L121.534 85.2735C122.665 81.0403 123.268 76.5922 123.268 72.0049H121.268ZM119.6 59.2479C120.688 63.3157 121.268 67.5918 121.268 72.0049H123.268C123.268 67.4159 122.664 62.9661 121.532 58.7314L119.6 59.2479ZM124.483 56.9049L120.308 58.0237L120.825 59.9556L125.001 58.8368L124.483 56.9049ZM109.903 34.1014C116.556 40.7544 121.341 49.0415 123.776 58.1297L125.708 57.612C123.182 48.1847 118.219 39.5885 111.317 32.6872L109.903 34.1014ZM108.251 37.1675L111.317 34.1014L109.903 32.6872L106.837 35.7533L108.251 37.1675ZM84.7566 24.4053C93.2336 26.671 100.811 31.142 106.837 37.1675L108.251 35.7533C101.983 29.4853 94.0978 24.8318 85.273 22.4731L84.7566 24.4053ZM85.1679 19.004L84.0489 23.1804L85.9807 23.698L87.0998 19.5216L85.1679 19.004ZM59.8689 41.0977H52.9355V43.0977H59.8689V41.0977ZM60.8689 101.898V42.0977H58.8689V101.898H60.8689ZM52.9355 102.898H59.8689V100.898H52.9355V102.898ZM51.9355 42.0977V101.898H53.9355V42.0977H51.9355ZM75.4685 41.0977H68.5352V43.0977H75.4685V41.0977ZM76.4685 101.898V42.0977H74.4685V101.898H76.4685ZM68.5352 102.898H75.4685V100.898H68.5352V102.898ZM67.5352 42.0977V101.898H69.5352V42.0977H67.5352ZM84.1348 43.0977H91.0681V41.0977H84.1348V43.0977ZM85.1348 101.898V42.0977H83.1348V101.898H85.1348ZM91.0681 100.898H84.1348V102.898H91.0681V100.898ZM90.0681 42.0977V101.898H92.0681V42.0977H90.0681Z" fill="black" mask="url(#path-9-inside-4_192_28613)"/>
<path d="M57.8708 19.2628L57.612 18.2969L56.6461 18.5557L56.9049 19.5216L57.8708 19.2628ZM86.1339 19.2628L87.0998 19.5216L87.3586 18.5557L86.3927 18.2969L86.1339 19.2628ZM58.9897 23.4385L59.2479 24.4046L60.2146 24.1463L59.9556 23.1797L58.9897 23.4385ZM36.4591 36.4591L35.752 37.1662L36.4591 37.8733L37.1662 37.1662L36.4591 36.4591ZM33.3943 33.3943L34.1014 32.6872L33.3943 31.9801L32.6872 32.6872L33.3943 33.3943ZM19.2628 57.8708L18.2969 57.612L18.038 58.5779L19.004 58.8367L19.2628 57.8708ZM23.4359 58.989L24.4019 59.2473L24.6601 58.2817L23.6947 58.0231L23.4359 58.989ZM23.4346 85.016L23.6934 85.982L24.6587 85.7233L24.4007 84.7579L23.4346 85.016ZM19.2628 86.1339L19.004 85.1679L18.038 85.4268L18.2969 86.3927L19.2628 86.1339ZM33.3943 110.61L32.6872 111.317L33.3943 112.025L34.1014 111.317L33.3943 110.61ZM36.4565 107.548L37.1636 106.841L36.4565 106.134L35.7494 106.841L36.4565 107.548ZM58.9884 120.571L59.9543 120.83L60.2133 119.863L59.2466 119.605L58.9884 120.571ZM57.8708 124.742L56.9049 124.483L56.6461 125.449L57.612 125.708L57.8708 124.742ZM86.1339 124.742L86.3927 125.708L87.3586 125.449L87.0998 124.483L86.1339 124.742ZM85.0161 120.57L84.7579 119.604L83.7912 119.863L84.0502 120.829L85.0161 120.57ZM107.547 107.547L108.254 106.84L107.547 106.133L106.84 106.84L107.547 107.547ZM110.61 110.61L109.903 111.317L110.61 112.025L111.317 111.317L110.61 110.61ZM124.742 86.1339L125.708 86.3927L125.967 85.4268L125.001 85.1679L124.742 86.1339ZM120.568 85.0154L119.602 84.7572L119.344 85.7227L120.309 85.9813L120.568 85.0154ZM120.566 58.9897L120.308 58.0237L119.342 58.2824L119.6 59.2479L120.566 58.9897ZM124.742 57.8708L125.001 58.8368L125.967 58.5779L125.708 57.612L124.742 57.8708ZM110.61 33.3943L111.317 32.6872L110.61 31.9801L109.903 32.6872L110.61 33.3943ZM107.544 36.4604L106.837 37.1675L107.544 37.8746L108.251 37.1675L107.544 36.4604ZM85.0148 23.4392L84.0489 23.1804L83.7899 24.1469L84.7566 24.4053L85.0148 23.4392ZM59.8689 42.0977H60.8689V41.0977H59.8689V42.0977ZM52.9355 42.0977V41.0977H51.9355V42.0977H52.9355ZM59.8689 101.898V102.898H60.8689V101.898H59.8689ZM52.9355 101.898H51.9355V102.898H52.9355V101.898ZM75.4685 42.0977H76.4685V41.0977H75.4685V42.0977ZM68.5352 42.0977V41.0977H67.5352V42.0977H68.5352ZM75.4685 101.898V102.898H76.4685V101.898H75.4685ZM68.5352 101.898H67.5352V102.898H68.5352V101.898ZM84.1348 42.0977V41.0977H83.1348V42.0977H84.1348ZM91.0681 42.0977H92.0681V41.0977H91.0681V42.0977ZM84.1348 101.898H83.1348V102.898H84.1348V101.898ZM91.0681 101.898V102.898H92.0681V101.898H91.0681ZM72 133.667C106.058 133.667 133.667 106.058 133.667 72H131.667C131.667 104.953 104.953 131.667 72 131.667V133.667ZM10.3333 72C10.3333 106.058 37.9424 133.667 72 133.667V131.667C39.047 131.667 12.3333 104.953 12.3333 72H10.3333ZM72 10.3333C37.9424 10.3333 10.3333 37.9424 10.3333 72H12.3333C12.3333 39.047 39.047 12.3333 72 12.3333V10.3333ZM133.667 72C133.667 37.9424 106.058 10.3333 72 10.3333V12.3333C104.953 12.3333 131.667 39.047 131.667 72H133.667ZM72 138C108.451 138 138 108.451 138 72H136C136 107.346 107.346 136 72 136V138ZM6 72C6 108.451 35.5492 138 72 138V136C36.6538 136 8 107.346 8 72H6ZM72 6C35.5492 6 6 35.5492 6 72H8C8 36.6538 36.6538 8 72 8V6ZM138 72C138 35.5492 108.451 6 72 6V8C107.346 8 136 36.6538 136 72H138ZM58.1296 20.2287C67.2178 17.7936 76.7869 17.7936 85.875 20.2287L86.3927 18.2969C76.9654 15.7708 67.0393 15.7708 57.612 18.2969L58.1296 20.2287ZM59.9556 23.1797L58.8368 19.004L56.9049 19.5216L58.0238 23.6974L59.9556 23.1797ZM37.1662 37.1662C43.1923 31.1408 50.7705 26.67 59.2479 24.4046L58.7315 22.4724C49.9064 24.8308 42.0206 29.484 35.752 35.7519L37.1662 37.1662ZM32.6872 34.1014L35.752 37.1662L37.1662 35.752L34.1014 32.6872L32.6872 34.1014ZM20.2287 58.1296C22.6639 49.0415 27.4484 40.7544 34.1014 34.1014L32.6872 32.6872C25.786 39.5885 20.8229 48.1847 18.2969 57.612L20.2287 58.1296ZM23.6947 58.0231L19.5216 56.9049L19.004 58.8367L23.177 59.9549L23.6947 58.0231ZM22.7344 72.0049C22.7344 67.5916 23.3144 63.3152 24.4019 59.2473L22.4698 58.7307C21.3377 62.9657 20.7344 67.4156 20.7344 72.0049H22.7344ZM24.4007 84.7579C23.314 80.6913 22.7344 76.4166 22.7344 72.0049H20.7344C20.7344 76.5925 21.3372 81.0408 22.4685 85.2742L24.4007 84.7579ZM19.5216 87.0998L23.6934 85.982L23.1758 84.0501L19.004 85.1679L19.5216 87.0998ZM34.1014 109.903C27.4484 103.25 22.6639 94.9632 20.2287 85.875L18.2969 86.3927C20.8229 95.82 25.786 104.416 32.6872 111.317L34.1014 109.903ZM35.7494 106.841L32.6872 109.903L34.1014 111.317L37.1636 108.255L35.7494 106.841ZM59.2466 119.605C50.7686 117.339 43.1899 112.868 37.1636 106.841L35.7494 108.255C42.0181 114.524 49.9044 119.178 58.7302 121.537L59.2466 119.605ZM58.8368 125.001L59.9543 120.83L58.0225 120.312L56.9049 124.483L58.8368 125.001ZM85.875 123.776C76.7869 126.211 67.2178 126.211 58.1296 123.776L57.612 125.708C67.0393 128.234 76.9654 128.234 86.3927 125.708L85.875 123.776ZM84.0502 120.829L85.1679 125.001L87.0998 124.483L85.982 120.312L84.0502 120.829ZM106.84 106.84C100.814 112.866 93.2355 117.338 84.7579 119.604L85.2743 121.536C94.0998 119.177 101.986 114.523 108.254 108.254L106.84 106.84ZM111.317 109.903L108.254 106.84L106.84 108.254L109.903 111.317L111.317 109.903ZM123.776 85.875C121.341 94.9632 116.556 103.25 109.903 109.903L111.317 111.317C118.219 104.416 123.182 95.82 125.708 86.3927L123.776 85.875ZM120.309 85.9813L124.483 87.0998L125.001 85.1679L120.826 84.0495L120.309 85.9813ZM121.268 72.0049C121.268 76.4164 120.688 80.6909 119.602 84.7572L121.534 85.2735C122.665 81.0403 123.268 76.5922 123.268 72.0049H121.268ZM119.6 59.2479C120.688 63.3157 121.268 67.5918 121.268 72.0049H123.268C123.268 67.4159 122.664 62.9661 121.532 58.7314L119.6 59.2479ZM124.483 56.9049L120.308 58.0237L120.825 59.9556L125.001 58.8368L124.483 56.9049ZM109.903 34.1014C116.556 40.7544 121.341 49.0415 123.776 58.1297L125.708 57.612C123.182 48.1847 118.219 39.5885 111.317 32.6872L109.903 34.1014ZM108.251 37.1675L111.317 34.1014L109.903 32.6872L106.837 35.7533L108.251 37.1675ZM84.7566 24.4053C93.2336 26.671 100.811 31.142 106.837 37.1675L108.251 35.7533C101.983 29.4853 94.0978 24.8318 85.273 22.4731L84.7566 24.4053ZM85.1679 19.004L84.0489 23.1804L85.9807 23.698L87.0998 19.5216L85.1679 19.004ZM59.8689 41.0977H52.9355V43.0977H59.8689V41.0977ZM60.8689 101.898V42.0977H58.8689V101.898H60.8689ZM52.9355 102.898H59.8689V100.898H52.9355V102.898ZM51.9355 42.0977V101.898H53.9355V42.0977H51.9355ZM75.4685 41.0977H68.5352V43.0977H75.4685V41.0977ZM76.4685 101.898V42.0977H74.4685V101.898H76.4685ZM68.5352 102.898H75.4685V100.898H68.5352V102.898ZM67.5352 42.0977V101.898H69.5352V42.0977H67.5352ZM84.1348 43.0977H91.0681V41.0977H84.1348V43.0977ZM85.1348 101.898V42.0977H83.1348V101.898H85.1348ZM91.0681 100.898H84.1348V102.898H91.0681V100.898ZM90.0681 42.0977V101.898H92.0681V42.0977H90.0681Z" fill="url(#paint4_radial_192_28613)" mask="url(#path-9-inside-4_192_28613)"/>
</g>
</g>
</g>
</g>
<defs>
<filter id="filter0_dd_192_28613" x="0.0666656" y="0.0666656" width="143.867" height="143.867" filterUnits="userSpaceOnUse" color-interpolation-filters="sRGB">
<feFlood flood-opacity="0" result="BackgroundImageFix"/>
<feColorMatrix in="SourceAlpha" type="matrix" values="0 0 0 0 0 0 0 0 0 0 0 0 0 0 0 0 0 0 127 0" result="hardAlpha"/>
<feOffset/>
<feGaussianBlur stdDeviation="0.866667"/>
<feComposite in2="hardAlpha" operator="out"/>
<feColorMatrix type="matrix" values="0 0 0 0 0 0 0 0 0 0 0 0 0 0 0 0 0 0 0.15 0"/>
<feBlend mode="normal" in2="BackgroundImageFix" result="effect1_dropShadow_192_28613"/>
<feColorMatrix in="SourceAlpha" type="matrix" values="0 0 0 0 0 0 0 0 0 0 0 0 0 0 0 0 0 0 127 0" result="hardAlpha"/>
<feOffset/>
<feGaussianBlur stdDeviation="3.46667"/>
<feComposite in2="hardAlpha" operator="out"/>
<feColorMatrix type="matrix" values="0 0 0 0 0 0 0 0 0 0 0 0 0 0 0 0 0 0 0.25 0"/>
<feBlend mode="normal" in2="effect1_dropShadow_192_28613" result="effect2_dropShadow_192_28613"/>
<feBlend mode="normal" in="SourceGraphic" in2="effect2_dropShadow_192_28613" result="shape"/>
</filter>
<filter id="filter1_dd_192_28613" x="-1" y="-1" width="146" height="146" filterUnits="userSpaceOnUse" color-interpolation-filters="sRGB">
<feFlood flood-opacity="0" result="BackgroundImageFix"/>
<feColorMatrix in="SourceAlpha" type="matrix" values="0 0 0 0 0 0 0 0 0 0 0 0 0 0 0 0 0 0 127 0" result="hardAlpha"/>
<feOffset/>
<feGaussianBlur stdDeviation="2"/>
<feComposite in2="hardAlpha" operator="out"/>
<feColorMatrix type="matrix" values="0 0 0 0 0 0 0 0 0 0 0 0 0 0 0 0 0 0 0.25 0"/>
<feBlend mode="normal" in2="BackgroundImageFix" result="effect1_dropShadow_192_28613"/>
<feColorMatrix in="SourceAlpha" type="matrix" values="0 0 0 0 0 0 0 0 0 0 0 0 0 0 0 0 0 0 127 0" result="hardAlpha"/>
<feOffset/>
<feGaussianBlur stdDeviation="4"/>
<feComposite in2="hardAlpha" operator="out"/>
<feColorMatrix type="matrix" values="0 0 0 0 0 0 0 0 0 0 0 0 0 0 0 0 0 0 0.1 0"/>
<feBlend mode="normal" in2="effect1_dropShadow_192_28613" result="effect2_dropShadow_192_28613"/>
<feBlend mode="normal" in="SourceGraphic" in2="effect2_dropShadow_192_28613" result="shape"/>
</filter>
<filter id="filter2_f_192_28613" x="4" y="4" width="136" height="136" filterUnits="userSpaceOnUse" color-interpolation-filters="sRGB">
<feFlood flood-opacity="0" result="BackgroundImageFix"/>
<feBlend mode="normal" in="SourceGraphic" in2="BackgroundImageFix" result="shape"/>
<feGaussianBlur stdDeviation="1.5" result="effect1_foregroundBlur_192_28613"/>
</filter>
<filter id="filter3_f_192_28613" x="1" y="1" width="142" height="142" filterUnits="userSpaceOnUse" color-interpolation-filters="sRGB">
<feFlood flood-opacity="0" result="BackgroundImageFix"/>
<feBlend mode="normal" in="SourceGraphic" in2="BackgroundImageFix" result="shape"/>
<feGaussianBlur stdDeviation="3" result="effect1_foregroundBlur_192_28613"/>
</filter>
<filter id="filter4_f_192_28613" x="-2" y="-2" width="148" height="148" filterUnits="userSpaceOnUse" color-interpolation-filters="sRGB">
<feFlood flood-opacity="0" result="BackgroundImageFix"/>
<feBlend mode="normal" in="SourceGraphic" in2="BackgroundImageFix" result="shape"/>
<feGaussianBlur stdDeviation="4.5" result="effect1_foregroundBlur_192_28613"/>
</filter>
<radialGradient id="paint0_radial_192_28613" cx="0" cy="0" r="1" gradientUnits="userSpaceOnUse" gradientTransform="translate(72.1646 7) rotate(90) scale(130 130.329)">
<stop stop-color="#26A69A"/>
<stop offset="1" stop-color="#B2F6FF" stop-opacity="0.15"/>
</radialGradient>
<radialGradient id="paint1_radial_192_28613" cx="0" cy="0" r="1" gradientUnits="userSpaceOnUse" gradientTransform="translate(152.318 -56.8294) rotate(122.004) scale(219.821 152.868)">
<stop stop-color="#26A69A"/>
<stop offset="1" stop-color="#B2F6FF"/>
</radialGradient>
<radialGradient id="paint2_radial_192_28613" cx="0" cy="0" r="1" gradientUnits="userSpaceOnUse" gradientTransform="translate(152.318 -56.8294) rotate(122.004) scale(219.821 152.868)">
<stop stop-color="#26A69A"/>
<stop offset="1" stop-color="#B2F6FF"/>
</radialGradient>
<radialGradient id="paint3_radial_192_28613" cx="0" cy="0" r="1" gradientUnits="userSpaceOnUse" gradientTransform="translate(152.318 -56.8294) rotate(122.004) scale(219.821 152.868)">
<stop stop-color="#26A69A"/>
<stop offset="1" stop-color="#B2F6FF"/>
</radialGradient>
<radialGradient id="paint4_radial_192_28613" cx="0" cy="0" r="1" gradientUnits="userSpaceOnUse" gradientTransform="translate(152.318 -56.8294) rotate(122.004) scale(219.821 152.868)">
<stop stop-color="#26A69A"/>
<stop offset="1" stop-color="#B2F6FF"/>
</radialGradient>
<clipPath id="clip0_192_28613">
<path d="M7 72C7 36.1015 36.1015 7 72 7C107.899 7 137 36.1015 137 72C137 107.899 107.899 137 72 137C36.1015 137 7 107.899 7 72Z" fill="white"/>
</clipPath>
</defs>
</svg>
