<svg width="20" height="20" viewBox="0 0 20 20" fill="none" xmlns="http://www.w3.org/2000/svg">
<g filter="url(#filter0_dd_192_28338)">
<g clip-path="url(#clip0_192_28338)">
<g filter="url(#filter1_dd_192_28338)">
<mask id="path-2-inside-1_192_28338" fill="white">
<path fill-rule="evenodd" clip-rule="evenodd" d="M18.4 10C18.4 14.6392 14.6392 18.4 10 18.4C5.36081 18.4 1.6 14.6392 1.6 10C1.6 5.36081 5.36081 1.6 10 1.6C14.6392 1.6 18.4 5.36081 18.4 10ZM19 10C19 14.9706 14.9706 19 10 19C5.02944 19 1 14.9706 1 10C1 5.02944 5.02944 1 10 1C14.9706 1 19 5.02944 19 10ZM11.9569 2.69967C10.6751 2.3562 9.32543 2.3562 8.04359 2.69967L8.19852 3.27785C7.00065 3.59795 5.93007 4.22961 5.07889 5.08069L4.65454 4.65634C3.71617 5.59471 3.04133 6.76355 2.69787 8.04539L3.27568 8.20022C3.12201 8.77503 3.04008 9.37916 3.04008 10.0024C3.04008 10.6254 3.12194 11.2293 3.2755 11.804L2.69787 11.9587C3.04133 13.2406 3.71617 14.4094 4.65454 15.3478L5.07853 14.9238C5.92972 15.775 7.00037 16.4068 8.19834 16.727L8.04359 17.3045C9.32543 17.6479 10.6751 17.6479 11.9569 17.3045L11.8022 16.7269C13.0001 16.4067 14.0707 15.7749 14.9218 14.9236L15.346 15.3478C16.2844 14.4094 16.9592 13.2406 17.3027 11.9587L16.7247 11.8039C16.8782 11.2293 16.9601 10.6254 16.9601 10.0024C16.9601 9.37919 16.8782 8.7751 16.7245 8.20031L17.3027 8.04539C16.9592 6.76356 16.2844 5.59471 15.346 4.65634L14.9215 5.08087C14.0703 4.22978 12.9998 3.59809 11.802 3.27794L11.9569 2.69967ZM9.51995 5.86109H10.48V14.1411H9.51995V5.86109Z"/>
</mask>
<path fill-rule="evenodd" clip-rule="evenodd" d="M18.4 10C18.4 14.6392 14.6392 18.4 10 18.4C5.36081 18.4 1.6 14.6392 1.6 10C1.6 5.36081 5.36081 1.6 10 1.6C14.6392 1.6 18.4 5.36081 18.4 10ZM19 10C19 14.9706 14.9706 19 10 19C5.02944 19 1 14.9706 1 10C1 5.02944 5.02944 1 10 1C14.9706 1 19 5.02944 19 10ZM11.9569 2.69967C10.6751 2.3562 9.32543 2.3562 8.04359 2.69967L8.19852 3.27785C7.00065 3.59795 5.93007 4.22961 5.07889 5.08069L4.65454 4.65634C3.71617 5.59471 3.04133 6.76355 2.69787 8.04539L3.27568 8.20022C3.12201 8.77503 3.04008 9.37916 3.04008 10.0024C3.04008 10.6254 3.12194 11.2293 3.2755 11.804L2.69787 11.9587C3.04133 13.2406 3.71617 14.4094 4.65454 15.3478L5.07853 14.9238C5.92972 15.775 7.00037 16.4068 8.19834 16.727L8.04359 17.3045C9.32543 17.6479 10.6751 17.6479 11.9569 17.3045L11.8022 16.7269C13.0001 16.4067 14.0707 15.7749 14.9218 14.9236L15.346 15.3478C16.2844 14.4094 16.9592 13.2406 17.3027 11.9587L16.7247 11.8039C16.8782 11.2293 16.9601 10.6254 16.9601 10.0024C16.9601 9.37919 16.8782 8.7751 16.7245 8.20031L17.3027 8.04539C16.9592 6.76356 16.2844 5.59471 15.346 4.65634L14.9215 5.08087C14.0703 4.22978 12.9998 3.59809 11.802 3.27794L11.9569 2.69967ZM9.51995 5.86109H10.48V14.1411H9.51995V5.86109Z" fill="url(#paint0_radial_192_28338)"/>
<path d="M8.04359 2.69967L8.02567 2.63279L7.9588 2.65071L7.97672 2.71758L8.04359 2.69967ZM11.9569 2.69967L12.0238 2.71758L12.0417 2.65071L11.9749 2.63279L11.9569 2.69967ZM8.19852 3.27785L8.21639 3.34473L8.28332 3.32684L8.26539 3.25993L8.19852 3.27785ZM5.07889 5.08069L5.02994 5.12965L5.07889 5.1786L5.12784 5.12965L5.07889 5.08069ZM4.65454 4.65634L4.70349 4.60738L4.65454 4.55843L4.60558 4.60738L4.65454 4.65634ZM2.69787 8.04539L2.63099 8.02747L2.61308 8.09435L2.67995 8.11226L2.69787 8.04539ZM3.27568 8.20022L3.34256 8.2181L3.36043 8.15125L3.29359 8.13335L3.27568 8.20022ZM3.2755 11.804L3.29341 11.8708L3.36024 11.8529L3.34238 11.7861L3.2755 11.804ZM2.69787 11.9587L2.67995 11.8919L2.61308 11.9098L2.63099 11.9767L2.69787 11.9587ZM4.65454 15.3478L4.60558 15.3967L4.65454 15.4457L4.70349 15.3967L4.65454 15.3478ZM5.07853 14.9238L5.12749 14.8748L5.07853 14.8259L5.02958 14.8748L5.07853 14.9238ZM8.19834 16.727L8.26521 16.7449L8.28314 16.678L8.21621 16.6601L8.19834 16.727ZM8.04359 17.3045L7.97672 17.2865L7.9588 17.3534L8.02567 17.3713L8.04359 17.3045ZM11.9569 17.3045L11.9749 17.3713L12.0417 17.3534L12.0238 17.2865L11.9569 17.3045ZM11.8022 16.7269L11.7843 16.66L11.7174 16.6779L11.7353 16.7448L11.8022 16.7269ZM14.9218 14.9236L14.9708 14.8747L14.9218 14.8257L14.8729 14.8747L14.9218 14.9236ZM15.346 15.3478L15.297 15.3967L15.346 15.4457L15.3949 15.3967L15.346 15.3478ZM17.3027 11.9587L17.3695 11.9767L17.3875 11.9098L17.3206 11.8919L17.3027 11.9587ZM16.7247 11.8039L16.6578 11.786L16.64 11.8528L16.7068 11.8707L16.7247 11.8039ZM16.7245 8.20031L16.7066 8.13344L16.6398 8.15134L16.6576 8.21819L16.7245 8.20031ZM17.3027 8.04539L17.3206 8.11227L17.3875 8.09435L17.3695 8.02748L17.3027 8.04539ZM15.346 4.65634L15.3949 4.60739L15.346 4.55843L15.297 4.60739L15.346 4.65634ZM14.9215 5.08087L14.8725 5.12983L14.9215 5.17878L14.9704 5.12983L14.9215 5.08087ZM11.802 3.27794L11.7351 3.26002L11.7172 3.32693L11.7841 3.34482L11.802 3.27794ZM10.48 5.86109H10.5492V5.79186H10.48V5.86109ZM9.51995 5.86109V5.79186H9.45072V5.86109H9.51995ZM10.48 14.1411V14.2103H10.5492V14.1411H10.48ZM9.51995 14.1411H9.45072V14.2103H9.51995V14.1411ZM10 18.4692C14.6774 18.4692 18.4692 14.6774 18.4692 10H18.3308C18.3308 14.601 14.601 18.3308 10 18.3308V18.4692ZM1.53077 10C1.53077 14.6774 5.32257 18.4692 10 18.4692V18.3308C5.39904 18.3308 1.66923 14.601 1.66923 10H1.53077ZM10 1.53077C5.32257 1.53077 1.53077 5.32257 1.53077 10H1.66923C1.66923 5.39904 5.39904 1.66923 10 1.66923V1.53077ZM18.4692 10C18.4692 5.32257 14.6774 1.53077 10 1.53077V1.66923C14.601 1.66923 18.3308 5.39904 18.3308 10H18.4692ZM10 19.0692C15.0088 19.0692 19.0692 15.0088 19.0692 10H18.9308C18.9308 14.9323 14.9323 18.9308 10 18.9308V19.0692ZM0.930769 10C0.930769 15.0088 4.9912 19.0692 10 19.0692V18.9308C5.06767 18.9308 1.06923 14.9323 1.06923 10H0.930769ZM10 0.930769C4.9912 0.930769 0.930769 4.9912 0.930769 10H1.06923C1.06923 5.06767 5.06767 1.06923 10 1.06923V0.930769ZM19.0692 10C19.0692 4.9912 15.0088 0.930769 10 0.930769V1.06923C14.9323 1.06923 18.9308 5.06767 18.9308 10H19.0692ZM8.06151 2.76654C9.33161 2.42622 10.6689 2.42622 11.939 2.76654L11.9749 2.63279C10.6813 2.28618 9.31925 2.28618 8.02567 2.63279L8.06151 2.76654ZM8.26539 3.25993L8.11046 2.68175L7.97672 2.71758L8.13164 3.29576L8.26539 3.25993ZM5.12784 5.12965C5.97062 4.28696 7.03056 3.66162 8.21639 3.34473L8.18064 3.21096C6.97074 3.53428 5.88951 4.17226 5.02994 5.03174L5.12784 5.12965ZM4.60558 4.70529L5.02994 5.12965L5.12784 5.03174L4.70349 4.60738L4.60558 4.70529ZM2.76474 8.06331C3.10506 6.79321 3.77371 5.63507 4.70349 4.70529L4.60558 4.60738C3.65862 5.55435 2.97761 6.7339 2.63099 8.02747L2.76474 8.06331ZM3.29359 8.13335L2.71578 7.97852L2.67995 8.11226L3.25776 8.26709L3.29359 8.13335ZM3.10932 10.0024C3.10932 9.38525 3.19044 8.78713 3.34256 8.2181L3.20879 8.18234C3.05358 8.76293 2.97085 9.37307 2.97085 10.0024H3.10932ZM3.34238 11.7861C3.19037 11.2173 3.10932 10.6194 3.10932 10.0024H2.97085C2.97085 10.6315 3.05352 11.2414 3.20861 11.8218L3.34238 11.7861ZM2.71578 12.0256L3.29341 11.8708L3.25758 11.7371L2.67995 11.8919L2.71578 12.0256ZM4.70349 15.2988C3.77371 14.3691 3.10506 13.2109 2.76474 11.9408L2.63099 11.9767C2.97761 13.2702 3.65862 14.4498 4.60558 15.3967L4.70349 15.2988ZM5.02958 14.8748L4.60558 15.2988L4.70349 15.3967L5.12748 14.9728L5.02958 14.8748ZM8.21621 16.6601C7.03029 16.3431 5.97028 15.7177 5.12749 14.8748L5.02958 14.9728C5.88916 15.8324 6.97046 16.4705 8.18046 16.7938L8.21621 16.6601ZM8.11046 17.3224L8.26521 16.7449L8.13146 16.709L7.97672 17.2865L8.11046 17.3224ZM11.939 17.2376C10.6689 17.5779 9.33161 17.5779 8.06151 17.2376L8.02567 17.3713C9.31925 17.7179 10.6813 17.7179 11.9749 17.3713L11.939 17.2376ZM11.7353 16.7448L11.8901 17.3224L12.0238 17.2865L11.869 16.7089L11.7353 16.7448ZM14.8729 14.8747C14.0301 15.7175 12.9702 16.343 11.7843 16.66L11.82 16.7937C13.03 16.4703 14.1112 15.8322 14.9708 14.9726L14.8729 14.8747ZM15.3949 15.2988L14.9708 14.8747L14.8729 14.9726L15.297 15.3967L15.3949 15.2988ZM17.2358 11.9408C16.8955 13.2109 16.2268 14.3691 15.297 15.2988L15.3949 15.3967C16.3419 14.4498 17.0229 13.2702 17.3695 11.9767L17.2358 11.9408ZM16.7068 11.8707L17.2847 12.0256L17.3206 11.8919L16.7426 11.737L16.7068 11.8707ZM16.8909 10.0024C16.8909 10.6193 16.8098 11.2172 16.6578 11.786L16.7916 11.8217C16.9467 11.2414 17.0293 10.6315 17.0293 10.0024H16.8909ZM16.6576 8.21819C16.8097 8.7872 16.8909 9.38528 16.8909 10.0024H17.0293C17.0293 9.3731 16.9466 8.763 16.7914 8.18243L16.6576 8.21819ZM17.2847 7.97852L16.7066 8.13344L16.7424 8.26718L17.3206 8.11227L17.2847 7.97852ZM15.297 4.70529C16.2268 5.63507 16.8955 6.79321 17.2358 8.06331L17.3695 8.02748C17.0229 6.7339 16.3419 5.55435 15.3949 4.60739L15.297 4.70529ZM14.9704 5.12983L15.3949 4.70529L15.297 4.60739L14.8725 5.03192L14.9704 5.12983ZM11.7841 3.34482C12.9699 3.66176 14.0298 4.28713 14.8725 5.12983L14.9704 5.03192C14.1109 4.17243 13.0297 3.53443 11.8199 3.21105L11.7841 3.34482ZM11.8901 2.68175L11.7351 3.26002L11.8689 3.29585L12.0238 2.71758L11.8901 2.68175ZM10.48 5.79186H9.51995V5.93032H10.48V5.79186ZM10.5492 14.1411V5.86109H10.4107V14.1411H10.5492ZM9.51995 14.2103H10.48V14.0719H9.51995V14.2103ZM9.45072 5.86109V14.1411H9.58918V5.86109H9.45072Z" fill="black" mask="url(#path-2-inside-1_192_28338)"/>
<path d="M8.04359 2.69967L8.02567 2.63279L7.9588 2.65071L7.97672 2.71758L8.04359 2.69967ZM11.9569 2.69967L12.0238 2.71758L12.0417 2.65071L11.9749 2.63279L11.9569 2.69967ZM8.19852 3.27785L8.21639 3.34473L8.28332 3.32684L8.26539 3.25993L8.19852 3.27785ZM5.07889 5.08069L5.02994 5.12965L5.07889 5.1786L5.12784 5.12965L5.07889 5.08069ZM4.65454 4.65634L4.70349 4.60738L4.65454 4.55843L4.60558 4.60738L4.65454 4.65634ZM2.69787 8.04539L2.63099 8.02747L2.61308 8.09435L2.67995 8.11226L2.69787 8.04539ZM3.27568 8.20022L3.34256 8.2181L3.36043 8.15125L3.29359 8.13335L3.27568 8.20022ZM3.2755 11.804L3.29341 11.8708L3.36024 11.8529L3.34238 11.7861L3.2755 11.804ZM2.69787 11.9587L2.67995 11.8919L2.61308 11.9098L2.63099 11.9767L2.69787 11.9587ZM4.65454 15.3478L4.60558 15.3967L4.65454 15.4457L4.70349 15.3967L4.65454 15.3478ZM5.07853 14.9238L5.12749 14.8748L5.07853 14.8259L5.02958 14.8748L5.07853 14.9238ZM8.19834 16.727L8.26521 16.7449L8.28314 16.678L8.21621 16.6601L8.19834 16.727ZM8.04359 17.3045L7.97672 17.2865L7.9588 17.3534L8.02567 17.3713L8.04359 17.3045ZM11.9569 17.3045L11.9749 17.3713L12.0417 17.3534L12.0238 17.2865L11.9569 17.3045ZM11.8022 16.7269L11.7843 16.66L11.7174 16.6779L11.7353 16.7448L11.8022 16.7269ZM14.9218 14.9236L14.9708 14.8747L14.9218 14.8257L14.8729 14.8747L14.9218 14.9236ZM15.346 15.3478L15.297 15.3967L15.346 15.4457L15.3949 15.3967L15.346 15.3478ZM17.3027 11.9587L17.3695 11.9767L17.3875 11.9098L17.3206 11.8919L17.3027 11.9587ZM16.7247 11.8039L16.6578 11.786L16.64 11.8528L16.7068 11.8707L16.7247 11.8039ZM16.7245 8.20031L16.7066 8.13344L16.6398 8.15134L16.6576 8.21819L16.7245 8.20031ZM17.3027 8.04539L17.3206 8.11227L17.3875 8.09435L17.3695 8.02748L17.3027 8.04539ZM15.346 4.65634L15.3949 4.60739L15.346 4.55843L15.297 4.60739L15.346 4.65634ZM14.9215 5.08087L14.8725 5.12983L14.9215 5.17878L14.9704 5.12983L14.9215 5.08087ZM11.802 3.27794L11.7351 3.26002L11.7172 3.32693L11.7841 3.34482L11.802 3.27794ZM10.48 5.86109H10.5492V5.79186H10.48V5.86109ZM9.51995 5.86109V5.79186H9.45072V5.86109H9.51995ZM10.48 14.1411V14.2103H10.5492V14.1411H10.48ZM9.51995 14.1411H9.45072V14.2103H9.51995V14.1411ZM10 18.4692C14.6774 18.4692 18.4692 14.6774 18.4692 10H18.3308C18.3308 14.601 14.601 18.3308 10 18.3308V18.4692ZM1.53077 10C1.53077 14.6774 5.32257 18.4692 10 18.4692V18.3308C5.39904 18.3308 1.66923 14.601 1.66923 10H1.53077ZM10 1.53077C5.32257 1.53077 1.53077 5.32257 1.53077 10H1.66923C1.66923 5.39904 5.39904 1.66923 10 1.66923V1.53077ZM18.4692 10C18.4692 5.32257 14.6774 1.53077 10 1.53077V1.66923C14.601 1.66923 18.3308 5.39904 18.3308 10H18.4692ZM10 19.0692C15.0088 19.0692 19.0692 15.0088 19.0692 10H18.9308C18.9308 14.9323 14.9323 18.9308 10 18.9308V19.0692ZM0.930769 10C0.930769 15.0088 4.9912 19.0692 10 19.0692V18.9308C5.06767 18.9308 1.06923 14.9323 1.06923 10H0.930769ZM10 0.930769C4.9912 0.930769 0.930769 4.9912 0.930769 10H1.06923C1.06923 5.06767 5.06767 1.06923 10 1.06923V0.930769ZM19.0692 10C19.0692 4.9912 15.0088 0.930769 10 0.930769V1.06923C14.9323 1.06923 18.9308 5.06767 18.9308 10H19.0692ZM8.06151 2.76654C9.33161 2.42622 10.6689 2.42622 11.939 2.76654L11.9749 2.63279C10.6813 2.28618 9.31925 2.28618 8.02567 2.63279L8.06151 2.76654ZM8.26539 3.25993L8.11046 2.68175L7.97672 2.71758L8.13164 3.29576L8.26539 3.25993ZM5.12784 5.12965C5.97062 4.28696 7.03056 3.66162 8.21639 3.34473L8.18064 3.21096C6.97074 3.53428 5.88951 4.17226 5.02994 5.03174L5.12784 5.12965ZM4.60558 4.70529L5.02994 5.12965L5.12784 5.03174L4.70349 4.60738L4.60558 4.70529ZM2.76474 8.06331C3.10506 6.79321 3.77371 5.63507 4.70349 4.70529L4.60558 4.60738C3.65862 5.55435 2.97761 6.7339 2.63099 8.02747L2.76474 8.06331ZM3.29359 8.13335L2.71578 7.97852L2.67995 8.11226L3.25776 8.26709L3.29359 8.13335ZM3.10932 10.0024C3.10932 9.38525 3.19044 8.78713 3.34256 8.2181L3.20879 8.18234C3.05358 8.76293 2.97085 9.37307 2.97085 10.0024H3.10932ZM3.34238 11.7861C3.19037 11.2173 3.10932 10.6194 3.10932 10.0024H2.97085C2.97085 10.6315 3.05352 11.2414 3.20861 11.8218L3.34238 11.7861ZM2.71578 12.0256L3.29341 11.8708L3.25758 11.7371L2.67995 11.8919L2.71578 12.0256ZM4.70349 15.2988C3.77371 14.3691 3.10506 13.2109 2.76474 11.9408L2.63099 11.9767C2.97761 13.2702 3.65862 14.4498 4.60558 15.3967L4.70349 15.2988ZM5.02958 14.8748L4.60558 15.2988L4.70349 15.3967L5.12748 14.9728L5.02958 14.8748ZM8.21621 16.6601C7.03029 16.3431 5.97028 15.7177 5.12749 14.8748L5.02958 14.9728C5.88916 15.8324 6.97046 16.4705 8.18046 16.7938L8.21621 16.6601ZM8.11046 17.3224L8.26521 16.7449L8.13146 16.709L7.97672 17.2865L8.11046 17.3224ZM11.939 17.2376C10.6689 17.5779 9.33161 17.5779 8.06151 17.2376L8.02567 17.3713C9.31925 17.7179 10.6813 17.7179 11.9749 17.3713L11.939 17.2376ZM11.7353 16.7448L11.8901 17.3224L12.0238 17.2865L11.869 16.7089L11.7353 16.7448ZM14.8729 14.8747C14.0301 15.7175 12.9702 16.343 11.7843 16.66L11.82 16.7937C13.03 16.4703 14.1112 15.8322 14.9708 14.9726L14.8729 14.8747ZM15.3949 15.2988L14.9708 14.8747L14.8729 14.9726L15.297 15.3967L15.3949 15.2988ZM17.2358 11.9408C16.8955 13.2109 16.2268 14.3691 15.297 15.2988L15.3949 15.3967C16.3419 14.4498 17.0229 13.2702 17.3695 11.9767L17.2358 11.9408ZM16.7068 11.8707L17.2847 12.0256L17.3206 11.8919L16.7426 11.737L16.7068 11.8707ZM16.8909 10.0024C16.8909 10.6193 16.8098 11.2172 16.6578 11.786L16.7916 11.8217C16.9467 11.2414 17.0293 10.6315 17.0293 10.0024H16.8909ZM16.6576 8.21819C16.8097 8.7872 16.8909 9.38528 16.8909 10.0024H17.0293C17.0293 9.3731 16.9466 8.763 16.7914 8.18243L16.6576 8.21819ZM17.2847 7.97852L16.7066 8.13344L16.7424 8.26718L17.3206 8.11227L17.2847 7.97852ZM15.297 4.70529C16.2268 5.63507 16.8955 6.79321 17.2358 8.06331L17.3695 8.02748C17.0229 6.7339 16.3419 5.55435 15.3949 4.60739L15.297 4.70529ZM14.9704 5.12983L15.3949 4.70529L15.297 4.60739L14.8725 5.03192L14.9704 5.12983ZM11.7841 3.34482C12.9699 3.66176 14.0298 4.28713 14.8725 5.12983L14.9704 5.03192C14.1109 4.17243 13.0297 3.53443 11.8199 3.21105L11.7841 3.34482ZM11.8901 2.68175L11.7351 3.26002L11.8689 3.29585L12.0238 2.71758L11.8901 2.68175ZM10.48 5.79186H9.51995V5.93032H10.48V5.79186ZM10.5492 14.1411V5.86109H10.4107V14.1411H10.5492ZM9.51995 14.2103H10.48V14.0719H9.51995V14.2103ZM9.45072 5.86109V14.1411H9.58918V5.86109H9.45072Z" fill="url(#paint1_radial_192_28338)" mask="url(#path-2-inside-1_192_28338)"/>
</g>
<mask id="mask0_192_28338" style="mask-type:alpha" maskUnits="userSpaceOnUse" x="1" y="1" width="18" height="18">
<path fill-rule="evenodd" clip-rule="evenodd" d="M18.4 10C18.4 14.6392 14.6392 18.4 10 18.4C5.36081 18.4 1.6 14.6392 1.6 10C1.6 5.36081 5.36081 1.6 10 1.6C14.6392 1.6 18.4 5.36081 18.4 10ZM19 10C19 14.9706 14.9706 19 10 19C5.02944 19 1 14.9706 1 10C1 5.02944 5.02944 1 10 1C14.9706 1 19 5.02944 19 10ZM11.9569 2.69967C10.6751 2.3562 9.32543 2.3562 8.04359 2.69967L8.19852 3.27785C7.00065 3.59795 5.93007 4.22961 5.07889 5.08069L4.65454 4.65634C3.71617 5.59471 3.04133 6.76355 2.69787 8.04539L3.27568 8.20022C3.12201 8.77503 3.04008 9.37916 3.04008 10.0024C3.04008 10.6254 3.12194 11.2293 3.2755 11.804L2.69787 11.9587C3.04133 13.2406 3.71617 14.4094 4.65454 15.3478L5.07853 14.9238C5.92972 15.775 7.00037 16.4068 8.19834 16.727L8.04359 17.3045C9.32543 17.6479 10.6751 17.6479 11.9569 17.3045L11.8022 16.7269C13.0001 16.4067 14.0707 15.7749 14.9218 14.9236L15.346 15.3478C16.2844 14.4094 16.9592 13.2406 17.3027 11.9587L16.7247 11.8039C16.8782 11.2293 16.9601 10.6254 16.9601 10.0024C16.9601 9.37919 16.8782 8.7751 16.7245 8.20031L17.3027 8.04539C16.9592 6.76356 16.2844 5.59471 15.346 4.65634L14.9215 5.08087C14.0703 4.22978 12.9998 3.59809 11.802 3.27794L11.9569 2.69967ZM9.51995 5.86109H10.48V14.1411H9.51995V5.86109Z" fill="#C4C4C4"/>
</mask>
<g mask="url(#mask0_192_28338)">
<g filter="url(#filter2_f_192_28338)">
<mask id="path-5-inside-2_192_28338" fill="white">
<path fill-rule="evenodd" clip-rule="evenodd" d="M18.4 10C18.4 14.6392 14.6392 18.4 10 18.4C5.36081 18.4 1.6 14.6392 1.6 10C1.6 5.36081 5.36081 1.6 10 1.6C14.6392 1.6 18.4 5.36081 18.4 10ZM19 10C19 14.9706 14.9706 19 10 19C5.02944 19 1 14.9706 1 10C1 5.02944 5.02944 1 10 1C14.9706 1 19 5.02944 19 10ZM11.9569 2.69967C10.6751 2.3562 9.32543 2.3562 8.04359 2.69967L8.19852 3.27785C7.00065 3.59795 5.93007 4.22961 5.07889 5.08069L4.65454 4.65634C3.71617 5.59471 3.04133 6.76355 2.69787 8.04539L3.27568 8.20022C3.12201 8.77503 3.04008 9.37916 3.04008 10.0024C3.04008 10.6254 3.12194 11.2293 3.2755 11.804L2.69787 11.9587C3.04133 13.2406 3.71617 14.4094 4.65454 15.3478L5.07853 14.9238C5.92972 15.775 7.00037 16.4068 8.19834 16.727L8.04359 17.3045C9.32543 17.6479 10.6751 17.6479 11.9569 17.3045L11.8022 16.7269C13.0001 16.4067 14.0707 15.7749 14.9218 14.9236L15.346 15.3478C16.2844 14.4094 16.9592 13.2406 17.3027 11.9587L16.7247 11.8039C16.8782 11.2293 16.9601 10.6254 16.9601 10.0024C16.9601 9.37919 16.8782 8.7751 16.7245 8.20031L17.3027 8.04539C16.9592 6.76356 16.2844 5.59471 15.346 4.65634L14.9215 5.08087C14.0703 4.22978 12.9998 3.59809 11.802 3.27794L11.9569 2.69967ZM9.51995 5.86109H10.48V14.1411H9.51995V5.86109Z"/>
</mask>
<path d="M8.04359 2.69967L8.00776 2.56592L7.87401 2.60176L7.90985 2.7355L8.04359 2.69967ZM11.9569 2.69967L12.0907 2.7355L12.1265 2.60176L11.9928 2.56592L11.9569 2.69967ZM8.19852 3.27785L8.23426 3.41161L8.36812 3.37584L8.33226 3.24201L8.19852 3.27785ZM5.07889 5.08069L4.98098 5.1786L5.07889 5.2765L5.17679 5.1786L5.07889 5.08069ZM4.65454 4.65634L4.75244 4.55843L4.65454 4.46052L4.55663 4.55843L4.65454 4.65634ZM2.69787 8.04539L2.56412 8.00956L2.52829 8.1433L2.66203 8.17914L2.69787 8.04539ZM3.27568 8.20022L3.40944 8.23598L3.44518 8.10229L3.31151 8.06647L3.27568 8.20022ZM3.2755 11.804L3.31133 11.9377L3.44499 11.9019L3.40926 11.7682L3.2755 11.804ZM2.69787 11.9587L2.66203 11.825L2.52829 11.8608L2.56412 11.9946L2.69787 11.9587ZM4.65454 15.3478L4.55663 15.4457L4.65454 15.5436L4.75244 15.4457L4.65454 15.3478ZM5.07853 14.9238L5.17644 14.8259L5.07853 14.728L4.98062 14.8259L5.07853 14.9238ZM8.19834 16.727L8.33208 16.7628L8.36794 16.629L8.23409 16.5932L8.19834 16.727ZM8.04359 17.3045L7.90985 17.2686L7.87401 17.4024L8.00776 17.4382L8.04359 17.3045ZM11.9569 17.3045L11.9928 17.4382L12.1265 17.4024L12.0907 17.2686L11.9569 17.3045ZM11.8022 16.7269L11.7664 16.5931L11.6326 16.6289L11.6684 16.7627L11.8022 16.7269ZM14.9218 14.9236L15.0197 14.8257L14.9218 14.7278L14.8239 14.8257L14.9218 14.9236ZM15.346 15.3478L15.2481 15.4457L15.346 15.5436L15.4439 15.4457L15.346 15.3478ZM17.3027 11.9587L17.4364 11.9946L17.4722 11.8608L17.3385 11.825L17.3027 11.9587ZM16.7247 11.8039L16.5909 11.7681L16.5552 11.9018L16.6889 11.9376L16.7247 11.8039ZM16.7245 8.20031L16.6887 8.06657L16.555 8.10238L16.5908 8.23607L16.7245 8.20031ZM17.3027 8.04539L17.3385 8.17914L17.4722 8.1433L17.4364 8.00956L17.3027 8.04539ZM15.346 4.65634L15.4439 4.55843L15.346 4.46053L15.2481 4.55843L15.346 4.65634ZM14.9215 5.08087L14.8236 5.17878L14.9215 5.27669L15.0194 5.17878L14.9215 5.08087ZM11.802 3.27794L11.6682 3.2421L11.6324 3.37593L11.7662 3.4117L11.802 3.27794ZM10.48 5.86109H10.6184V5.72262H10.48V5.86109ZM9.51995 5.86109V5.72262H9.38149V5.86109H9.51995ZM10.48 14.1411V14.2795H10.6184V14.1411H10.48ZM9.51995 14.1411H9.38149V14.2795H9.51995V14.1411ZM10 18.5385C14.7157 18.5385 18.5385 14.7157 18.5385 10H18.2615C18.2615 14.5627 14.5627 18.2615 10 18.2615V18.5385ZM1.46154 10C1.46154 14.7157 5.28434 18.5385 10 18.5385V18.2615C5.43728 18.2615 1.73846 14.5627 1.73846 10H1.46154ZM10 1.46154C5.28434 1.46154 1.46154 5.28434 1.46154 10H1.73846C1.73846 5.43728 5.43728 1.73846 10 1.73846V1.46154ZM18.5385 10C18.5385 5.28434 14.7157 1.46154 10 1.46154V1.73846C14.5627 1.73846 18.2615 5.43728 18.2615 10H18.5385ZM10 19.1385C15.047 19.1385 19.1385 15.047 19.1385 10H18.8615C18.8615 14.8941 14.8941 18.8615 10 18.8615V19.1385ZM0.861538 10C0.861538 15.047 4.95297 19.1385 10 19.1385V18.8615C5.10591 18.8615 1.13846 14.8941 1.13846 10H0.861538ZM10 0.861538C4.95297 0.861538 0.861538 4.95297 0.861538 10H1.13846C1.13846 5.10591 5.10591 1.13846 10 1.13846V0.861538ZM19.1385 10C19.1385 4.95297 15.047 0.861538 10 0.861538V1.13846C14.8941 1.13846 18.8615 5.10591 18.8615 10H19.1385ZM8.07943 2.83341C9.33779 2.49623 10.6627 2.49623 11.9211 2.83341L11.9928 2.56592C10.6875 2.21616 9.31307 2.21616 8.00776 2.56592L8.07943 2.83341ZM8.33226 3.24201L8.17734 2.66383L7.90985 2.7355L8.06477 3.31368L8.33226 3.24201ZM5.17679 5.1786C6.01118 4.34431 7.06047 3.72528 8.23426 3.41161L8.16277 3.14408C6.94083 3.47062 5.84895 4.11491 4.98099 4.98278L5.17679 5.1786ZM4.55663 4.75425L4.98098 5.1786L5.1768 4.98279L4.75244 4.55843L4.55663 4.75425ZM2.83161 8.08123C3.16879 6.82287 3.83126 5.67543 4.75244 4.75425L4.55663 4.55843C3.60107 5.51399 2.91388 6.70424 2.56412 8.00956L2.83161 8.08123ZM3.31151 8.06647L2.7337 7.91165L2.66203 8.17914L3.23984 8.33396L3.31151 8.06647ZM3.17855 10.0024C3.17855 9.39134 3.25886 8.79923 3.40944 8.23598L3.14191 8.16446C2.98515 8.75083 2.90162 9.36698 2.90162 10.0024H3.17855ZM3.40926 11.7682C3.2588 11.2052 3.17855 10.6133 3.17855 10.0024H2.90162C2.90162 10.6376 2.98509 11.2535 3.14173 11.8397L3.40926 11.7682ZM2.7337 12.0925L3.31133 11.9377L3.23966 11.6702L2.66203 11.825L2.7337 12.0925ZM4.75244 15.2499C3.83126 14.3287 3.16879 13.1813 2.83161 11.9229L2.56412 11.9946C2.91388 13.2999 3.60107 14.4901 4.55663 15.4457L4.75244 15.2499ZM4.98062 14.8259L4.55663 15.2499L4.75244 15.4457L5.17644 15.0217L4.98062 14.8259ZM8.23409 16.5932C7.0602 16.2795 6.01084 15.6603 5.17644 14.8259L4.98062 15.0217C5.8486 15.8897 6.94054 16.5341 8.16258 16.8607L8.23409 16.5932ZM8.17734 17.3403L8.33208 16.7628L8.06459 16.6911L7.90985 17.2686L8.17734 17.3403ZM11.9211 17.1707C10.6627 17.5079 9.33779 17.5079 8.07943 17.1707L8.00776 17.4382C9.31307 17.788 10.6875 17.788 11.9928 17.4382L11.9211 17.1707ZM11.6684 16.7627L11.8232 17.3403L12.0907 17.2686L11.9359 16.691L11.6684 16.7627ZM14.8239 14.8257C13.9895 15.6602 12.9402 16.2793 11.7664 16.5931L11.8379 16.8606C13.0599 16.534 14.1518 15.8895 15.0197 15.0215L14.8239 14.8257ZM15.4439 15.2499L15.0197 14.8257L14.8239 15.0215L15.2481 15.4457L15.4439 15.2499ZM17.1689 11.9229C16.8317 13.1813 16.1693 14.3287 15.2481 15.2499L15.4439 15.4457C16.3995 14.4901 17.0866 13.2999 17.4364 11.9946L17.1689 11.9229ZM16.6889 11.9376L17.2668 12.0925L17.3385 11.825L16.7605 11.6701L16.6889 11.9376ZM16.8216 10.0024C16.8216 10.6132 16.7414 11.2051 16.5909 11.7681L16.8585 11.8396C17.0151 11.2535 17.0985 10.6376 17.0985 10.0024H16.8216ZM16.5908 8.23607C16.7413 8.79929 16.8216 9.39137 16.8216 10.0024H17.0985C17.0985 9.36701 17.015 8.7509 16.8583 8.16455L16.5908 8.23607ZM17.2668 7.91165L16.6887 8.06657L16.7604 8.33405L17.3385 8.17914L17.2668 7.91165ZM15.2481 4.75425C16.1693 5.67543 16.8317 6.82287 17.1689 8.08123L17.4364 8.00956C17.0867 6.70424 16.3995 5.51399 15.4439 4.55843L15.2481 4.75425ZM15.0194 5.17878L15.4439 4.75425L15.2481 4.55843L14.8236 4.98297L15.0194 5.17878ZM11.7662 3.4117C12.94 3.72542 13.9892 4.34447 14.8236 5.17878L15.0194 4.98297C14.1515 4.11508 13.0596 3.47076 11.8377 3.14417L11.7662 3.4117ZM11.8232 2.66383L11.6682 3.2421L11.9357 3.31377L12.0907 2.7355L11.8232 2.66383ZM10.48 5.72262H9.51995V5.99955H10.48V5.72262ZM10.6184 14.1411V5.86109H10.3415V14.1411H10.6184ZM9.51995 14.2795H10.48V14.0026H9.51995V14.2795ZM9.38149 5.86109V14.1411H9.65841V5.86109H9.38149Z" fill="black" mask="url(#path-5-inside-2_192_28338)"/>
<path d="M8.04359 2.69967L8.00776 2.56592L7.87401 2.60176L7.90985 2.7355L8.04359 2.69967ZM11.9569 2.69967L12.0907 2.7355L12.1265 2.60176L11.9928 2.56592L11.9569 2.69967ZM8.19852 3.27785L8.23426 3.41161L8.36812 3.37584L8.33226 3.24201L8.19852 3.27785ZM5.07889 5.08069L4.98098 5.1786L5.07889 5.2765L5.17679 5.1786L5.07889 5.08069ZM4.65454 4.65634L4.75244 4.55843L4.65454 4.46052L4.55663 4.55843L4.65454 4.65634ZM2.69787 8.04539L2.56412 8.00956L2.52829 8.1433L2.66203 8.17914L2.69787 8.04539ZM3.27568 8.20022L3.40944 8.23598L3.44518 8.10229L3.31151 8.06647L3.27568 8.20022ZM3.2755 11.804L3.31133 11.9377L3.44499 11.9019L3.40926 11.7682L3.2755 11.804ZM2.69787 11.9587L2.66203 11.825L2.52829 11.8608L2.56412 11.9946L2.69787 11.9587ZM4.65454 15.3478L4.55663 15.4457L4.65454 15.5436L4.75244 15.4457L4.65454 15.3478ZM5.07853 14.9238L5.17644 14.8259L5.07853 14.728L4.98062 14.8259L5.07853 14.9238ZM8.19834 16.727L8.33208 16.7628L8.36794 16.629L8.23409 16.5932L8.19834 16.727ZM8.04359 17.3045L7.90985 17.2686L7.87401 17.4024L8.00776 17.4382L8.04359 17.3045ZM11.9569 17.3045L11.9928 17.4382L12.1265 17.4024L12.0907 17.2686L11.9569 17.3045ZM11.8022 16.7269L11.7664 16.5931L11.6326 16.6289L11.6684 16.7627L11.8022 16.7269ZM14.9218 14.9236L15.0197 14.8257L14.9218 14.7278L14.8239 14.8257L14.9218 14.9236ZM15.346 15.3478L15.2481 15.4457L15.346 15.5436L15.4439 15.4457L15.346 15.3478ZM17.3027 11.9587L17.4364 11.9946L17.4722 11.8608L17.3385 11.825L17.3027 11.9587ZM16.7247 11.8039L16.5909 11.7681L16.5552 11.9018L16.6889 11.9376L16.7247 11.8039ZM16.7245 8.20031L16.6887 8.06657L16.555 8.10238L16.5908 8.23607L16.7245 8.20031ZM17.3027 8.04539L17.3385 8.17914L17.4722 8.1433L17.4364 8.00956L17.3027 8.04539ZM15.346 4.65634L15.4439 4.55843L15.346 4.46053L15.2481 4.55843L15.346 4.65634ZM14.9215 5.08087L14.8236 5.17878L14.9215 5.27669L15.0194 5.17878L14.9215 5.08087ZM11.802 3.27794L11.6682 3.2421L11.6324 3.37593L11.7662 3.4117L11.802 3.27794ZM10.48 5.86109H10.6184V5.72262H10.48V5.86109ZM9.51995 5.86109V5.72262H9.38149V5.86109H9.51995ZM10.48 14.1411V14.2795H10.6184V14.1411H10.48ZM9.51995 14.1411H9.38149V14.2795H9.51995V14.1411ZM10 18.5385C14.7157 18.5385 18.5385 14.7157 18.5385 10H18.2615C18.2615 14.5627 14.5627 18.2615 10 18.2615V18.5385ZM1.46154 10C1.46154 14.7157 5.28434 18.5385 10 18.5385V18.2615C5.43728 18.2615 1.73846 14.5627 1.73846 10H1.46154ZM10 1.46154C5.28434 1.46154 1.46154 5.28434 1.46154 10H1.73846C1.73846 5.43728 5.43728 1.73846 10 1.73846V1.46154ZM18.5385 10C18.5385 5.28434 14.7157 1.46154 10 1.46154V1.73846C14.5627 1.73846 18.2615 5.43728 18.2615 10H18.5385ZM10 19.1385C15.047 19.1385 19.1385 15.047 19.1385 10H18.8615C18.8615 14.8941 14.8941 18.8615 10 18.8615V19.1385ZM0.861538 10C0.861538 15.047 4.95297 19.1385 10 19.1385V18.8615C5.10591 18.8615 1.13846 14.8941 1.13846 10H0.861538ZM10 0.861538C4.95297 0.861538 0.861538 4.95297 0.861538 10H1.13846C1.13846 5.10591 5.10591 1.13846 10 1.13846V0.861538ZM19.1385 10C19.1385 4.95297 15.047 0.861538 10 0.861538V1.13846C14.8941 1.13846 18.8615 5.10591 18.8615 10H19.1385ZM8.07943 2.83341C9.33779 2.49623 10.6627 2.49623 11.9211 2.83341L11.9928 2.56592C10.6875 2.21616 9.31307 2.21616 8.00776 2.56592L8.07943 2.83341ZM8.33226 3.24201L8.17734 2.66383L7.90985 2.7355L8.06477 3.31368L8.33226 3.24201ZM5.17679 5.1786C6.01118 4.34431 7.06047 3.72528 8.23426 3.41161L8.16277 3.14408C6.94083 3.47062 5.84895 4.11491 4.98099 4.98278L5.17679 5.1786ZM4.55663 4.75425L4.98098 5.1786L5.1768 4.98279L4.75244 4.55843L4.55663 4.75425ZM2.83161 8.08123C3.16879 6.82287 3.83126 5.67543 4.75244 4.75425L4.55663 4.55843C3.60107 5.51399 2.91388 6.70424 2.56412 8.00956L2.83161 8.08123ZM3.31151 8.06647L2.7337 7.91165L2.66203 8.17914L3.23984 8.33396L3.31151 8.06647ZM3.17855 10.0024C3.17855 9.39134 3.25886 8.79923 3.40944 8.23598L3.14191 8.16446C2.98515 8.75083 2.90162 9.36698 2.90162 10.0024H3.17855ZM3.40926 11.7682C3.2588 11.2052 3.17855 10.6133 3.17855 10.0024H2.90162C2.90162 10.6376 2.98509 11.2535 3.14173 11.8397L3.40926 11.7682ZM2.7337 12.0925L3.31133 11.9377L3.23966 11.6702L2.66203 11.825L2.7337 12.0925ZM4.75244 15.2499C3.83126 14.3287 3.16879 13.1813 2.83161 11.9229L2.56412 11.9946C2.91388 13.2999 3.60107 14.4901 4.55663 15.4457L4.75244 15.2499ZM4.98062 14.8259L4.55663 15.2499L4.75244 15.4457L5.17644 15.0217L4.98062 14.8259ZM8.23409 16.5932C7.0602 16.2795 6.01084 15.6603 5.17644 14.8259L4.98062 15.0217C5.8486 15.8897 6.94054 16.5341 8.16258 16.8607L8.23409 16.5932ZM8.17734 17.3403L8.33208 16.7628L8.06459 16.6911L7.90985 17.2686L8.17734 17.3403ZM11.9211 17.1707C10.6627 17.5079 9.33779 17.5079 8.07943 17.1707L8.00776 17.4382C9.31307 17.788 10.6875 17.788 11.9928 17.4382L11.9211 17.1707ZM11.6684 16.7627L11.8232 17.3403L12.0907 17.2686L11.9359 16.691L11.6684 16.7627ZM14.8239 14.8257C13.9895 15.6602 12.9402 16.2793 11.7664 16.5931L11.8379 16.8606C13.0599 16.534 14.1518 15.8895 15.0197 15.0215L14.8239 14.8257ZM15.4439 15.2499L15.0197 14.8257L14.8239 15.0215L15.2481 15.4457L15.4439 15.2499ZM17.1689 11.9229C16.8317 13.1813 16.1693 14.3287 15.2481 15.2499L15.4439 15.4457C16.3995 14.4901 17.0866 13.2999 17.4364 11.9946L17.1689 11.9229ZM16.6889 11.9376L17.2668 12.0925L17.3385 11.825L16.7605 11.6701L16.6889 11.9376ZM16.8216 10.0024C16.8216 10.6132 16.7414 11.2051 16.5909 11.7681L16.8585 11.8396C17.0151 11.2535 17.0985 10.6376 17.0985 10.0024H16.8216ZM16.5908 8.23607C16.7413 8.79929 16.8216 9.39137 16.8216 10.0024H17.0985C17.0985 9.36701 17.015 8.7509 16.8583 8.16455L16.5908 8.23607ZM17.2668 7.91165L16.6887 8.06657L16.7604 8.33405L17.3385 8.17914L17.2668 7.91165ZM15.2481 4.75425C16.1693 5.67543 16.8317 6.82287 17.1689 8.08123L17.4364 8.00956C17.0867 6.70424 16.3995 5.51399 15.4439 4.55843L15.2481 4.75425ZM15.0194 5.17878L15.4439 4.75425L15.2481 4.55843L14.8236 4.98297L15.0194 5.17878ZM11.7662 3.4117C12.94 3.72542 13.9892 4.34447 14.8236 5.17878L15.0194 4.98297C14.1515 4.11508 13.0596 3.47076 11.8377 3.14417L11.7662 3.4117ZM11.8232 2.66383L11.6682 3.2421L11.9357 3.31377L12.0907 2.7355L11.8232 2.66383ZM10.48 5.72262H9.51995V5.99955H10.48V5.72262ZM10.6184 14.1411V5.86109H10.3415V14.1411H10.6184ZM9.51995 14.2795H10.48V14.0026H9.51995V14.2795ZM9.38149 5.86109V14.1411H9.65841V5.86109H9.38149Z" fill="url(#paint2_radial_192_28338)" mask="url(#path-5-inside-2_192_28338)"/>
</g>
<g filter="url(#filter3_f_192_28338)">
<mask id="path-7-inside-3_192_28338" fill="white">
<path fill-rule="evenodd" clip-rule="evenodd" d="M18.4 10C18.4 14.6392 14.6392 18.4 10 18.4C5.36081 18.4 1.6 14.6392 1.6 10C1.6 5.36081 5.36081 1.6 10 1.6C14.6392 1.6 18.4 5.36081 18.4 10ZM19 10C19 14.9706 14.9706 19 10 19C5.02944 19 1 14.9706 1 10C1 5.02944 5.02944 1 10 1C14.9706 1 19 5.02944 19 10ZM11.9569 2.69967C10.6751 2.3562 9.32543 2.3562 8.04359 2.69967L8.19852 3.27785C7.00065 3.59795 5.93007 4.22961 5.07889 5.08069L4.65454 4.65634C3.71617 5.59471 3.04133 6.76355 2.69787 8.04539L3.27568 8.20022C3.12201 8.77503 3.04008 9.37916 3.04008 10.0024C3.04008 10.6254 3.12194 11.2293 3.2755 11.804L2.69787 11.9587C3.04133 13.2406 3.71617 14.4094 4.65454 15.3478L5.07853 14.9238C5.92972 15.775 7.00037 16.4068 8.19834 16.727L8.04359 17.3045C9.32543 17.6479 10.6751 17.6479 11.9569 17.3045L11.8022 16.7269C13.0001 16.4067 14.0707 15.7749 14.9218 14.9236L15.346 15.3478C16.2844 14.4094 16.9592 13.2406 17.3027 11.9587L16.7247 11.8039C16.8782 11.2293 16.9601 10.6254 16.9601 10.0024C16.9601 9.37919 16.8782 8.7751 16.7245 8.20031L17.3027 8.04539C16.9592 6.76356 16.2844 5.59471 15.346 4.65634L14.9215 5.08087C14.0703 4.22978 12.9998 3.59809 11.802 3.27794L11.9569 2.69967ZM9.51995 5.86109H10.48V14.1411H9.51995V5.86109Z"/>
</mask>
<path d="M8.04359 2.69967L8.00776 2.56592L7.87401 2.60176L7.90985 2.7355L8.04359 2.69967ZM11.9569 2.69967L12.0907 2.7355L12.1265 2.60176L11.9928 2.56592L11.9569 2.69967ZM8.19852 3.27785L8.23426 3.41161L8.36812 3.37584L8.33226 3.24201L8.19852 3.27785ZM5.07889 5.08069L4.98098 5.1786L5.07889 5.2765L5.17679 5.1786L5.07889 5.08069ZM4.65454 4.65634L4.75244 4.55843L4.65454 4.46052L4.55663 4.55843L4.65454 4.65634ZM2.69787 8.04539L2.56412 8.00956L2.52829 8.1433L2.66203 8.17914L2.69787 8.04539ZM3.27568 8.20022L3.40944 8.23598L3.44518 8.10229L3.31151 8.06647L3.27568 8.20022ZM3.2755 11.804L3.31133 11.9377L3.44499 11.9019L3.40926 11.7682L3.2755 11.804ZM2.69787 11.9587L2.66203 11.825L2.52829 11.8608L2.56412 11.9946L2.69787 11.9587ZM4.65454 15.3478L4.55663 15.4457L4.65454 15.5436L4.75244 15.4457L4.65454 15.3478ZM5.07853 14.9238L5.17644 14.8259L5.07853 14.728L4.98062 14.8259L5.07853 14.9238ZM8.19834 16.727L8.33208 16.7628L8.36794 16.629L8.23409 16.5932L8.19834 16.727ZM8.04359 17.3045L7.90985 17.2686L7.87401 17.4024L8.00776 17.4382L8.04359 17.3045ZM11.9569 17.3045L11.9928 17.4382L12.1265 17.4024L12.0907 17.2686L11.9569 17.3045ZM11.8022 16.7269L11.7664 16.5931L11.6326 16.6289L11.6684 16.7627L11.8022 16.7269ZM14.9218 14.9236L15.0197 14.8257L14.9218 14.7278L14.8239 14.8257L14.9218 14.9236ZM15.346 15.3478L15.2481 15.4457L15.346 15.5436L15.4439 15.4457L15.346 15.3478ZM17.3027 11.9587L17.4364 11.9946L17.4722 11.8608L17.3385 11.825L17.3027 11.9587ZM16.7247 11.8039L16.5909 11.7681L16.5552 11.9018L16.6889 11.9376L16.7247 11.8039ZM16.7245 8.20031L16.6887 8.06657L16.555 8.10238L16.5908 8.23607L16.7245 8.20031ZM17.3027 8.04539L17.3385 8.17914L17.4722 8.1433L17.4364 8.00956L17.3027 8.04539ZM15.346 4.65634L15.4439 4.55843L15.346 4.46053L15.2481 4.55843L15.346 4.65634ZM14.9215 5.08087L14.8236 5.17878L14.9215 5.27669L15.0194 5.17878L14.9215 5.08087ZM11.802 3.27794L11.6682 3.2421L11.6324 3.37593L11.7662 3.4117L11.802 3.27794ZM10.48 5.86109H10.6184V5.72262H10.48V5.86109ZM9.51995 5.86109V5.72262H9.38149V5.86109H9.51995ZM10.48 14.1411V14.2795H10.6184V14.1411H10.48ZM9.51995 14.1411H9.38149V14.2795H9.51995V14.1411ZM10 18.5385C14.7157 18.5385 18.5385 14.7157 18.5385 10H18.2615C18.2615 14.5627 14.5627 18.2615 10 18.2615V18.5385ZM1.46154 10C1.46154 14.7157 5.28434 18.5385 10 18.5385V18.2615C5.43728 18.2615 1.73846 14.5627 1.73846 10H1.46154ZM10 1.46154C5.28434 1.46154 1.46154 5.28434 1.46154 10H1.73846C1.73846 5.43728 5.43728 1.73846 10 1.73846V1.46154ZM18.5385 10C18.5385 5.28434 14.7157 1.46154 10 1.46154V1.73846C14.5627 1.73846 18.2615 5.43728 18.2615 10H18.5385ZM10 19.1385C15.047 19.1385 19.1385 15.047 19.1385 10H18.8615C18.8615 14.8941 14.8941 18.8615 10 18.8615V19.1385ZM0.861538 10C0.861538 15.047 4.95297 19.1385 10 19.1385V18.8615C5.10591 18.8615 1.13846 14.8941 1.13846 10H0.861538ZM10 0.861538C4.95297 0.861538 0.861538 4.95297 0.861538 10H1.13846C1.13846 5.10591 5.10591 1.13846 10 1.13846V0.861538ZM19.1385 10C19.1385 4.95297 15.047 0.861538 10 0.861538V1.13846C14.8941 1.13846 18.8615 5.10591 18.8615 10H19.1385ZM8.07943 2.83341C9.33779 2.49623 10.6627 2.49623 11.9211 2.83341L11.9928 2.56592C10.6875 2.21616 9.31307 2.21616 8.00776 2.56592L8.07943 2.83341ZM8.33226 3.24201L8.17734 2.66383L7.90985 2.7355L8.06477 3.31368L8.33226 3.24201ZM5.17679 5.1786C6.01118 4.34431 7.06047 3.72528 8.23426 3.41161L8.16277 3.14408C6.94083 3.47062 5.84895 4.11491 4.98099 4.98278L5.17679 5.1786ZM4.55663 4.75425L4.98098 5.1786L5.1768 4.98279L4.75244 4.55843L4.55663 4.75425ZM2.83161 8.08123C3.16879 6.82287 3.83126 5.67543 4.75244 4.75425L4.55663 4.55843C3.60107 5.51399 2.91388 6.70424 2.56412 8.00956L2.83161 8.08123ZM3.31151 8.06647L2.7337 7.91165L2.66203 8.17914L3.23984 8.33396L3.31151 8.06647ZM3.17855 10.0024C3.17855 9.39134 3.25886 8.79923 3.40944 8.23598L3.14191 8.16446C2.98515 8.75083 2.90162 9.36698 2.90162 10.0024H3.17855ZM3.40926 11.7682C3.2588 11.2052 3.17855 10.6133 3.17855 10.0024H2.90162C2.90162 10.6376 2.98509 11.2535 3.14173 11.8397L3.40926 11.7682ZM2.7337 12.0925L3.31133 11.9377L3.23966 11.6702L2.66203 11.825L2.7337 12.0925ZM4.75244 15.2499C3.83126 14.3287 3.16879 13.1813 2.83161 11.9229L2.56412 11.9946C2.91388 13.2999 3.60107 14.4901 4.55663 15.4457L4.75244 15.2499ZM4.98062 14.8259L4.55663 15.2499L4.75244 15.4457L5.17644 15.0217L4.98062 14.8259ZM8.23409 16.5932C7.0602 16.2795 6.01084 15.6603 5.17644 14.8259L4.98062 15.0217C5.8486 15.8897 6.94054 16.5341 8.16258 16.8607L8.23409 16.5932ZM8.17734 17.3403L8.33208 16.7628L8.06459 16.6911L7.90985 17.2686L8.17734 17.3403ZM11.9211 17.1707C10.6627 17.5079 9.33779 17.5079 8.07943 17.1707L8.00776 17.4382C9.31307 17.788 10.6875 17.788 11.9928 17.4382L11.9211 17.1707ZM11.6684 16.7627L11.8232 17.3403L12.0907 17.2686L11.9359 16.691L11.6684 16.7627ZM14.8239 14.8257C13.9895 15.6602 12.9402 16.2793 11.7664 16.5931L11.8379 16.8606C13.0599 16.534 14.1518 15.8895 15.0197 15.0215L14.8239 14.8257ZM15.4439 15.2499L15.0197 14.8257L14.8239 15.0215L15.2481 15.4457L15.4439 15.2499ZM17.1689 11.9229C16.8317 13.1813 16.1693 14.3287 15.2481 15.2499L15.4439 15.4457C16.3995 14.4901 17.0866 13.2999 17.4364 11.9946L17.1689 11.9229ZM16.6889 11.9376L17.2668 12.0925L17.3385 11.825L16.7605 11.6701L16.6889 11.9376ZM16.8216 10.0024C16.8216 10.6132 16.7414 11.2051 16.5909 11.7681L16.8585 11.8396C17.0151 11.2535 17.0985 10.6376 17.0985 10.0024H16.8216ZM16.5908 8.23607C16.7413 8.79929 16.8216 9.39137 16.8216 10.0024H17.0985C17.0985 9.36701 17.015 8.7509 16.8583 8.16455L16.5908 8.23607ZM17.2668 7.91165L16.6887 8.06657L16.7604 8.33405L17.3385 8.17914L17.2668 7.91165ZM15.2481 4.75425C16.1693 5.67543 16.8317 6.82287 17.1689 8.08123L17.4364 8.00956C17.0867 6.70424 16.3995 5.51399 15.4439 4.55843L15.2481 4.75425ZM15.0194 5.17878L15.4439 4.75425L15.2481 4.55843L14.8236 4.98297L15.0194 5.17878ZM11.7662 3.4117C12.94 3.72542 13.9892 4.34447 14.8236 5.17878L15.0194 4.98297C14.1515 4.11508 13.0596 3.47076 11.8377 3.14417L11.7662 3.4117ZM11.8232 2.66383L11.6682 3.2421L11.9357 3.31377L12.0907 2.7355L11.8232 2.66383ZM10.48 5.72262H9.51995V5.99955H10.48V5.72262ZM10.6184 14.1411V5.86109H10.3415V14.1411H10.6184ZM9.51995 14.2795H10.48V14.0026H9.51995V14.2795ZM9.38149 5.86109V14.1411H9.65841V5.86109H9.38149Z" fill="black" mask="url(#path-7-inside-3_192_28338)"/>
<path d="M8.04359 2.69967L8.00776 2.56592L7.87401 2.60176L7.90985 2.7355L8.04359 2.69967ZM11.9569 2.69967L12.0907 2.7355L12.1265 2.60176L11.9928 2.56592L11.9569 2.69967ZM8.19852 3.27785L8.23426 3.41161L8.36812 3.37584L8.33226 3.24201L8.19852 3.27785ZM5.07889 5.08069L4.98098 5.1786L5.07889 5.2765L5.17679 5.1786L5.07889 5.08069ZM4.65454 4.65634L4.75244 4.55843L4.65454 4.46052L4.55663 4.55843L4.65454 4.65634ZM2.69787 8.04539L2.56412 8.00956L2.52829 8.1433L2.66203 8.17914L2.69787 8.04539ZM3.27568 8.20022L3.40944 8.23598L3.44518 8.10229L3.31151 8.06647L3.27568 8.20022ZM3.2755 11.804L3.31133 11.9377L3.44499 11.9019L3.40926 11.7682L3.2755 11.804ZM2.69787 11.9587L2.66203 11.825L2.52829 11.8608L2.56412 11.9946L2.69787 11.9587ZM4.65454 15.3478L4.55663 15.4457L4.65454 15.5436L4.75244 15.4457L4.65454 15.3478ZM5.07853 14.9238L5.17644 14.8259L5.07853 14.728L4.98062 14.8259L5.07853 14.9238ZM8.19834 16.727L8.33208 16.7628L8.36794 16.629L8.23409 16.5932L8.19834 16.727ZM8.04359 17.3045L7.90985 17.2686L7.87401 17.4024L8.00776 17.4382L8.04359 17.3045ZM11.9569 17.3045L11.9928 17.4382L12.1265 17.4024L12.0907 17.2686L11.9569 17.3045ZM11.8022 16.7269L11.7664 16.5931L11.6326 16.6289L11.6684 16.7627L11.8022 16.7269ZM14.9218 14.9236L15.0197 14.8257L14.9218 14.7278L14.8239 14.8257L14.9218 14.9236ZM15.346 15.3478L15.2481 15.4457L15.346 15.5436L15.4439 15.4457L15.346 15.3478ZM17.3027 11.9587L17.4364 11.9946L17.4722 11.8608L17.3385 11.825L17.3027 11.9587ZM16.7247 11.8039L16.5909 11.7681L16.5552 11.9018L16.6889 11.9376L16.7247 11.8039ZM16.7245 8.20031L16.6887 8.06657L16.555 8.10238L16.5908 8.23607L16.7245 8.20031ZM17.3027 8.04539L17.3385 8.17914L17.4722 8.1433L17.4364 8.00956L17.3027 8.04539ZM15.346 4.65634L15.4439 4.55843L15.346 4.46053L15.2481 4.55843L15.346 4.65634ZM14.9215 5.08087L14.8236 5.17878L14.9215 5.27669L15.0194 5.17878L14.9215 5.08087ZM11.802 3.27794L11.6682 3.2421L11.6324 3.37593L11.7662 3.4117L11.802 3.27794ZM10.48 5.86109H10.6184V5.72262H10.48V5.86109ZM9.51995 5.86109V5.72262H9.38149V5.86109H9.51995ZM10.48 14.1411V14.2795H10.6184V14.1411H10.48ZM9.51995 14.1411H9.38149V14.2795H9.51995V14.1411ZM10 18.5385C14.7157 18.5385 18.5385 14.7157 18.5385 10H18.2615C18.2615 14.5627 14.5627 18.2615 10 18.2615V18.5385ZM1.46154 10C1.46154 14.7157 5.28434 18.5385 10 18.5385V18.2615C5.43728 18.2615 1.73846 14.5627 1.73846 10H1.46154ZM10 1.46154C5.28434 1.46154 1.46154 5.28434 1.46154 10H1.73846C1.73846 5.43728 5.43728 1.73846 10 1.73846V1.46154ZM18.5385 10C18.5385 5.28434 14.7157 1.46154 10 1.46154V1.73846C14.5627 1.73846 18.2615 5.43728 18.2615 10H18.5385ZM10 19.1385C15.047 19.1385 19.1385 15.047 19.1385 10H18.8615C18.8615 14.8941 14.8941 18.8615 10 18.8615V19.1385ZM0.861538 10C0.861538 15.047 4.95297 19.1385 10 19.1385V18.8615C5.10591 18.8615 1.13846 14.8941 1.13846 10H0.861538ZM10 0.861538C4.95297 0.861538 0.861538 4.95297 0.861538 10H1.13846C1.13846 5.10591 5.10591 1.13846 10 1.13846V0.861538ZM19.1385 10C19.1385 4.95297 15.047 0.861538 10 0.861538V1.13846C14.8941 1.13846 18.8615 5.10591 18.8615 10H19.1385ZM8.07943 2.83341C9.33779 2.49623 10.6627 2.49623 11.9211 2.83341L11.9928 2.56592C10.6875 2.21616 9.31307 2.21616 8.00776 2.56592L8.07943 2.83341ZM8.33226 3.24201L8.17734 2.66383L7.90985 2.7355L8.06477 3.31368L8.33226 3.24201ZM5.17679 5.1786C6.01118 4.34431 7.06047 3.72528 8.23426 3.41161L8.16277 3.14408C6.94083 3.47062 5.84895 4.11491 4.98099 4.98278L5.17679 5.1786ZM4.55663 4.75425L4.98098 5.1786L5.1768 4.98279L4.75244 4.55843L4.55663 4.75425ZM2.83161 8.08123C3.16879 6.82287 3.83126 5.67543 4.75244 4.75425L4.55663 4.55843C3.60107 5.51399 2.91388 6.70424 2.56412 8.00956L2.83161 8.08123ZM3.31151 8.06647L2.7337 7.91165L2.66203 8.17914L3.23984 8.33396L3.31151 8.06647ZM3.17855 10.0024C3.17855 9.39134 3.25886 8.79923 3.40944 8.23598L3.14191 8.16446C2.98515 8.75083 2.90162 9.36698 2.90162 10.0024H3.17855ZM3.40926 11.7682C3.2588 11.2052 3.17855 10.6133 3.17855 10.0024H2.90162C2.90162 10.6376 2.98509 11.2535 3.14173 11.8397L3.40926 11.7682ZM2.7337 12.0925L3.31133 11.9377L3.23966 11.6702L2.66203 11.825L2.7337 12.0925ZM4.75244 15.2499C3.83126 14.3287 3.16879 13.1813 2.83161 11.9229L2.56412 11.9946C2.91388 13.2999 3.60107 14.4901 4.55663 15.4457L4.75244 15.2499ZM4.98062 14.8259L4.55663 15.2499L4.75244 15.4457L5.17644 15.0217L4.98062 14.8259ZM8.23409 16.5932C7.0602 16.2795 6.01084 15.6603 5.17644 14.8259L4.98062 15.0217C5.8486 15.8897 6.94054 16.5341 8.16258 16.8607L8.23409 16.5932ZM8.17734 17.3403L8.33208 16.7628L8.06459 16.6911L7.90985 17.2686L8.17734 17.3403ZM11.9211 17.1707C10.6627 17.5079 9.33779 17.5079 8.07943 17.1707L8.00776 17.4382C9.31307 17.788 10.6875 17.788 11.9928 17.4382L11.9211 17.1707ZM11.6684 16.7627L11.8232 17.3403L12.0907 17.2686L11.9359 16.691L11.6684 16.7627ZM14.8239 14.8257C13.9895 15.6602 12.9402 16.2793 11.7664 16.5931L11.8379 16.8606C13.0599 16.534 14.1518 15.8895 15.0197 15.0215L14.8239 14.8257ZM15.4439 15.2499L15.0197 14.8257L14.8239 15.0215L15.2481 15.4457L15.4439 15.2499ZM17.1689 11.9229C16.8317 13.1813 16.1693 14.3287 15.2481 15.2499L15.4439 15.4457C16.3995 14.4901 17.0866 13.2999 17.4364 11.9946L17.1689 11.9229ZM16.6889 11.9376L17.2668 12.0925L17.3385 11.825L16.7605 11.6701L16.6889 11.9376ZM16.8216 10.0024C16.8216 10.6132 16.7414 11.2051 16.5909 11.7681L16.8585 11.8396C17.0151 11.2535 17.0985 10.6376 17.0985 10.0024H16.8216ZM16.5908 8.23607C16.7413 8.79929 16.8216 9.39137 16.8216 10.0024H17.0985C17.0985 9.36701 17.015 8.7509 16.8583 8.16455L16.5908 8.23607ZM17.2668 7.91165L16.6887 8.06657L16.7604 8.33405L17.3385 8.17914L17.2668 7.91165ZM15.2481 4.75425C16.1693 5.67543 16.8317 6.82287 17.1689 8.08123L17.4364 8.00956C17.0867 6.70424 16.3995 5.51399 15.4439 4.55843L15.2481 4.75425ZM15.0194 5.17878L15.4439 4.75425L15.2481 4.55843L14.8236 4.98297L15.0194 5.17878ZM11.7662 3.4117C12.94 3.72542 13.9892 4.34447 14.8236 5.17878L15.0194 4.98297C14.1515 4.11508 13.0596 3.47076 11.8377 3.14417L11.7662 3.4117ZM11.8232 2.66383L11.6682 3.2421L11.9357 3.31377L12.0907 2.7355L11.8232 2.66383ZM10.48 5.72262H9.51995V5.99955H10.48V5.72262ZM10.6184 14.1411V5.86109H10.3415V14.1411H10.6184ZM9.51995 14.2795H10.48V14.0026H9.51995V14.2795ZM9.38149 5.86109V14.1411H9.65841V5.86109H9.38149Z" fill="url(#paint3_radial_192_28338)" mask="url(#path-7-inside-3_192_28338)"/>
</g>
<g filter="url(#filter4_f_192_28338)">
<mask id="path-9-inside-4_192_28338" fill="white">
<path fill-rule="evenodd" clip-rule="evenodd" d="M18.4 10C18.4 14.6392 14.6392 18.4 10 18.4C5.36081 18.4 1.6 14.6392 1.6 10C1.6 5.36081 5.36081 1.6 10 1.6C14.6392 1.6 18.4 5.36081 18.4 10ZM19 10C19 14.9706 14.9706 19 10 19C5.02944 19 1 14.9706 1 10C1 5.02944 5.02944 1 10 1C14.9706 1 19 5.02944 19 10ZM11.9569 2.69967C10.6751 2.3562 9.32543 2.3562 8.04359 2.69967L8.19852 3.27785C7.00065 3.59795 5.93007 4.22961 5.07889 5.08069L4.65454 4.65634C3.71617 5.59471 3.04133 6.76355 2.69787 8.04539L3.27568 8.20022C3.12201 8.77503 3.04008 9.37916 3.04008 10.0024C3.04008 10.6254 3.12194 11.2293 3.2755 11.804L2.69787 11.9587C3.04133 13.2406 3.71617 14.4094 4.65454 15.3478L5.07853 14.9238C5.92972 15.775 7.00037 16.4068 8.19834 16.727L8.04359 17.3045C9.32543 17.6479 10.6751 17.6479 11.9569 17.3045L11.8022 16.7269C13.0001 16.4067 14.0707 15.7749 14.9218 14.9236L15.346 15.3478C16.2844 14.4094 16.9592 13.2406 17.3027 11.9587L16.7247 11.8039C16.8782 11.2293 16.9601 10.6254 16.9601 10.0024C16.9601 9.37919 16.8782 8.7751 16.7245 8.20031L17.3027 8.04539C16.9592 6.76356 16.2844 5.59471 15.346 4.65634L14.9215 5.08087C14.0703 4.22978 12.9998 3.59809 11.802 3.27794L11.9569 2.69967ZM9.51995 5.86109H10.48V14.1411H9.51995V5.86109Z"/>
</mask>
<path d="M8.04359 2.69967L8.00776 2.56592L7.87401 2.60176L7.90985 2.7355L8.04359 2.69967ZM11.9569 2.69967L12.0907 2.7355L12.1265 2.60176L11.9928 2.56592L11.9569 2.69967ZM8.19852 3.27785L8.23426 3.41161L8.36812 3.37584L8.33226 3.24201L8.19852 3.27785ZM5.07889 5.08069L4.98098 5.1786L5.07889 5.2765L5.17679 5.1786L5.07889 5.08069ZM4.65454 4.65634L4.75244 4.55843L4.65454 4.46052L4.55663 4.55843L4.65454 4.65634ZM2.69787 8.04539L2.56412 8.00956L2.52829 8.1433L2.66203 8.17914L2.69787 8.04539ZM3.27568 8.20022L3.40944 8.23598L3.44518 8.10229L3.31151 8.06647L3.27568 8.20022ZM3.2755 11.804L3.31133 11.9377L3.44499 11.9019L3.40926 11.7682L3.2755 11.804ZM2.69787 11.9587L2.66203 11.825L2.52829 11.8608L2.56412 11.9946L2.69787 11.9587ZM4.65454 15.3478L4.55663 15.4457L4.65454 15.5436L4.75244 15.4457L4.65454 15.3478ZM5.07853 14.9238L5.17644 14.8259L5.07853 14.728L4.98062 14.8259L5.07853 14.9238ZM8.19834 16.727L8.33208 16.7628L8.36794 16.629L8.23409 16.5932L8.19834 16.727ZM8.04359 17.3045L7.90985 17.2686L7.87401 17.4024L8.00776 17.4382L8.04359 17.3045ZM11.9569 17.3045L11.9928 17.4382L12.1265 17.4024L12.0907 17.2686L11.9569 17.3045ZM11.8022 16.7269L11.7664 16.5931L11.6326 16.6289L11.6684 16.7627L11.8022 16.7269ZM14.9218 14.9236L15.0197 14.8257L14.9218 14.7278L14.8239 14.8257L14.9218 14.9236ZM15.346 15.3478L15.2481 15.4457L15.346 15.5436L15.4439 15.4457L15.346 15.3478ZM17.3027 11.9587L17.4364 11.9946L17.4722 11.8608L17.3385 11.825L17.3027 11.9587ZM16.7247 11.8039L16.5909 11.7681L16.5552 11.9018L16.6889 11.9376L16.7247 11.8039ZM16.7245 8.20031L16.6887 8.06657L16.555 8.10238L16.5908 8.23607L16.7245 8.20031ZM17.3027 8.04539L17.3385 8.17914L17.4722 8.1433L17.4364 8.00956L17.3027 8.04539ZM15.346 4.65634L15.4439 4.55843L15.346 4.46053L15.2481 4.55843L15.346 4.65634ZM14.9215 5.08087L14.8236 5.17878L14.9215 5.27669L15.0194 5.17878L14.9215 5.08087ZM11.802 3.27794L11.6682 3.2421L11.6324 3.37593L11.7662 3.4117L11.802 3.27794ZM10.48 5.86109H10.6184V5.72262H10.48V5.86109ZM9.51995 5.86109V5.72262H9.38149V5.86109H9.51995ZM10.48 14.1411V14.2795H10.6184V14.1411H10.48ZM9.51995 14.1411H9.38149V14.2795H9.51995V14.1411ZM10 18.5385C14.7157 18.5385 18.5385 14.7157 18.5385 10H18.2615C18.2615 14.5627 14.5627 18.2615 10 18.2615V18.5385ZM1.46154 10C1.46154 14.7157 5.28434 18.5385 10 18.5385V18.2615C5.43728 18.2615 1.73846 14.5627 1.73846 10H1.46154ZM10 1.46154C5.28434 1.46154 1.46154 5.28434 1.46154 10H1.73846C1.73846 5.43728 5.43728 1.73846 10 1.73846V1.46154ZM18.5385 10C18.5385 5.28434 14.7157 1.46154 10 1.46154V1.73846C14.5627 1.73846 18.2615 5.43728 18.2615 10H18.5385ZM10 19.1385C15.047 19.1385 19.1385 15.047 19.1385 10H18.8615C18.8615 14.8941 14.8941 18.8615 10 18.8615V19.1385ZM0.861538 10C0.861538 15.047 4.95297 19.1385 10 19.1385V18.8615C5.10591 18.8615 1.13846 14.8941 1.13846 10H0.861538ZM10 0.861538C4.95297 0.861538 0.861538 4.95297 0.861538 10H1.13846C1.13846 5.10591 5.10591 1.13846 10 1.13846V0.861538ZM19.1385 10C19.1385 4.95297 15.047 0.861538 10 0.861538V1.13846C14.8941 1.13846 18.8615 5.10591 18.8615 10H19.1385ZM8.07943 2.83341C9.33779 2.49623 10.6627 2.49623 11.9211 2.83341L11.9928 2.56592C10.6875 2.21616 9.31307 2.21616 8.00776 2.56592L8.07943 2.83341ZM8.33226 3.24201L8.17734 2.66383L7.90985 2.7355L8.06477 3.31368L8.33226 3.24201ZM5.17679 5.1786C6.01118 4.34431 7.06047 3.72528 8.23426 3.41161L8.16277 3.14408C6.94083 3.47062 5.84895 4.11491 4.98099 4.98278L5.17679 5.1786ZM4.55663 4.75425L4.98098 5.1786L5.1768 4.98279L4.75244 4.55843L4.55663 4.75425ZM2.83161 8.08123C3.16879 6.82287 3.83126 5.67543 4.75244 4.75425L4.55663 4.55843C3.60107 5.51399 2.91388 6.70424 2.56412 8.00956L2.83161 8.08123ZM3.31151 8.06647L2.7337 7.91165L2.66203 8.17914L3.23984 8.33396L3.31151 8.06647ZM3.17855 10.0024C3.17855 9.39134 3.25886 8.79923 3.40944 8.23598L3.14191 8.16446C2.98515 8.75083 2.90162 9.36698 2.90162 10.0024H3.17855ZM3.40926 11.7682C3.2588 11.2052 3.17855 10.6133 3.17855 10.0024H2.90162C2.90162 10.6376 2.98509 11.2535 3.14173 11.8397L3.40926 11.7682ZM2.7337 12.0925L3.31133 11.9377L3.23966 11.6702L2.66203 11.825L2.7337 12.0925ZM4.75244 15.2499C3.83126 14.3287 3.16879 13.1813 2.83161 11.9229L2.56412 11.9946C2.91388 13.2999 3.60107 14.4901 4.55663 15.4457L4.75244 15.2499ZM4.98062 14.8259L4.55663 15.2499L4.75244 15.4457L5.17644 15.0217L4.98062 14.8259ZM8.23409 16.5932C7.0602 16.2795 6.01084 15.6603 5.17644 14.8259L4.98062 15.0217C5.8486 15.8897 6.94054 16.5341 8.16258 16.8607L8.23409 16.5932ZM8.17734 17.3403L8.33208 16.7628L8.06459 16.6911L7.90985 17.2686L8.17734 17.3403ZM11.9211 17.1707C10.6627 17.5079 9.33779 17.5079 8.07943 17.1707L8.00776 17.4382C9.31307 17.788 10.6875 17.788 11.9928 17.4382L11.9211 17.1707ZM11.6684 16.7627L11.8232 17.3403L12.0907 17.2686L11.9359 16.691L11.6684 16.7627ZM14.8239 14.8257C13.9895 15.6602 12.9402 16.2793 11.7664 16.5931L11.8379 16.8606C13.0599 16.534 14.1518 15.8895 15.0197 15.0215L14.8239 14.8257ZM15.4439 15.2499L15.0197 14.8257L14.8239 15.0215L15.2481 15.4457L15.4439 15.2499ZM17.1689 11.9229C16.8317 13.1813 16.1693 14.3287 15.2481 15.2499L15.4439 15.4457C16.3995 14.4901 17.0866 13.2999 17.4364 11.9946L17.1689 11.9229ZM16.6889 11.9376L17.2668 12.0925L17.3385 11.825L16.7605 11.6701L16.6889 11.9376ZM16.8216 10.0024C16.8216 10.6132 16.7414 11.2051 16.5909 11.7681L16.8585 11.8396C17.0151 11.2535 17.0985 10.6376 17.0985 10.0024H16.8216ZM16.5908 8.23607C16.7413 8.79929 16.8216 9.39137 16.8216 10.0024H17.0985C17.0985 9.36701 17.015 8.7509 16.8583 8.16455L16.5908 8.23607ZM17.2668 7.91165L16.6887 8.06657L16.7604 8.33405L17.3385 8.17914L17.2668 7.91165ZM15.2481 4.75425C16.1693 5.67543 16.8317 6.82287 17.1689 8.08123L17.4364 8.00956C17.0867 6.70424 16.3995 5.51399 15.4439 4.55843L15.2481 4.75425ZM15.0194 5.17878L15.4439 4.75425L15.2481 4.55843L14.8236 4.98297L15.0194 5.17878ZM11.7662 3.4117C12.94 3.72542 13.9892 4.34447 14.8236 5.17878L15.0194 4.98297C14.1515 4.11508 13.0596 3.47076 11.8377 3.14417L11.7662 3.4117ZM11.8232 2.66383L11.6682 3.2421L11.9357 3.31377L12.0907 2.7355L11.8232 2.66383ZM10.48 5.72262H9.51995V5.99955H10.48V5.72262ZM10.6184 14.1411V5.86109H10.3415V14.1411H10.6184ZM9.51995 14.2795H10.48V14.0026H9.51995V14.2795ZM9.38149 5.86109V14.1411H9.65841V5.86109H9.38149Z" fill="black" mask="url(#path-9-inside-4_192_28338)"/>
<path d="M8.04359 2.69967L8.00776 2.56592L7.87401 2.60176L7.90985 2.7355L8.04359 2.69967ZM11.9569 2.69967L12.0907 2.7355L12.1265 2.60176L11.9928 2.56592L11.9569 2.69967ZM8.19852 3.27785L8.23426 3.41161L8.36812 3.37584L8.33226 3.24201L8.19852 3.27785ZM5.07889 5.08069L4.98098 5.1786L5.07889 5.2765L5.17679 5.1786L5.07889 5.08069ZM4.65454 4.65634L4.75244 4.55843L4.65454 4.46052L4.55663 4.55843L4.65454 4.65634ZM2.69787 8.04539L2.56412 8.00956L2.52829 8.1433L2.66203 8.17914L2.69787 8.04539ZM3.27568 8.20022L3.40944 8.23598L3.44518 8.10229L3.31151 8.06647L3.27568 8.20022ZM3.2755 11.804L3.31133 11.9377L3.44499 11.9019L3.40926 11.7682L3.2755 11.804ZM2.69787 11.9587L2.66203 11.825L2.52829 11.8608L2.56412 11.9946L2.69787 11.9587ZM4.65454 15.3478L4.55663 15.4457L4.65454 15.5436L4.75244 15.4457L4.65454 15.3478ZM5.07853 14.9238L5.17644 14.8259L5.07853 14.728L4.98062 14.8259L5.07853 14.9238ZM8.19834 16.727L8.33208 16.7628L8.36794 16.629L8.23409 16.5932L8.19834 16.727ZM8.04359 17.3045L7.90985 17.2686L7.87401 17.4024L8.00776 17.4382L8.04359 17.3045ZM11.9569 17.3045L11.9928 17.4382L12.1265 17.4024L12.0907 17.2686L11.9569 17.3045ZM11.8022 16.7269L11.7664 16.5931L11.6326 16.6289L11.6684 16.7627L11.8022 16.7269ZM14.9218 14.9236L15.0197 14.8257L14.9218 14.7278L14.8239 14.8257L14.9218 14.9236ZM15.346 15.3478L15.2481 15.4457L15.346 15.5436L15.4439 15.4457L15.346 15.3478ZM17.3027 11.9587L17.4364 11.9946L17.4722 11.8608L17.3385 11.825L17.3027 11.9587ZM16.7247 11.8039L16.5909 11.7681L16.5552 11.9018L16.6889 11.9376L16.7247 11.8039ZM16.7245 8.20031L16.6887 8.06657L16.555 8.10238L16.5908 8.23607L16.7245 8.20031ZM17.3027 8.04539L17.3385 8.17914L17.4722 8.1433L17.4364 8.00956L17.3027 8.04539ZM15.346 4.65634L15.4439 4.55843L15.346 4.46053L15.2481 4.55843L15.346 4.65634ZM14.9215 5.08087L14.8236 5.17878L14.9215 5.27669L15.0194 5.17878L14.9215 5.08087ZM11.802 3.27794L11.6682 3.2421L11.6324 3.37593L11.7662 3.4117L11.802 3.27794ZM10.48 5.86109H10.6184V5.72262H10.48V5.86109ZM9.51995 5.86109V5.72262H9.38149V5.86109H9.51995ZM10.48 14.1411V14.2795H10.6184V14.1411H10.48ZM9.51995 14.1411H9.38149V14.2795H9.51995V14.1411ZM10 18.5385C14.7157 18.5385 18.5385 14.7157 18.5385 10H18.2615C18.2615 14.5627 14.5627 18.2615 10 18.2615V18.5385ZM1.46154 10C1.46154 14.7157 5.28434 18.5385 10 18.5385V18.2615C5.43728 18.2615 1.73846 14.5627 1.73846 10H1.46154ZM10 1.46154C5.28434 1.46154 1.46154 5.28434 1.46154 10H1.73846C1.73846 5.43728 5.43728 1.73846 10 1.73846V1.46154ZM18.5385 10C18.5385 5.28434 14.7157 1.46154 10 1.46154V1.73846C14.5627 1.73846 18.2615 5.43728 18.2615 10H18.5385ZM10 19.1385C15.047 19.1385 19.1385 15.047 19.1385 10H18.8615C18.8615 14.8941 14.8941 18.8615 10 18.8615V19.1385ZM0.861538 10C0.861538 15.047 4.95297 19.1385 10 19.1385V18.8615C5.10591 18.8615 1.13846 14.8941 1.13846 10H0.861538ZM10 0.861538C4.95297 0.861538 0.861538 4.95297 0.861538 10H1.13846C1.13846 5.10591 5.10591 1.13846 10 1.13846V0.861538ZM19.1385 10C19.1385 4.95297 15.047 0.861538 10 0.861538V1.13846C14.8941 1.13846 18.8615 5.10591 18.8615 10H19.1385ZM8.07943 2.83341C9.33779 2.49623 10.6627 2.49623 11.9211 2.83341L11.9928 2.56592C10.6875 2.21616 9.31307 2.21616 8.00776 2.56592L8.07943 2.83341ZM8.33226 3.24201L8.17734 2.66383L7.90985 2.7355L8.06477 3.31368L8.33226 3.24201ZM5.17679 5.1786C6.01118 4.34431 7.06047 3.72528 8.23426 3.41161L8.16277 3.14408C6.94083 3.47062 5.84895 4.11491 4.98099 4.98278L5.17679 5.1786ZM4.55663 4.75425L4.98098 5.1786L5.1768 4.98279L4.75244 4.55843L4.55663 4.75425ZM2.83161 8.08123C3.16879 6.82287 3.83126 5.67543 4.75244 4.75425L4.55663 4.55843C3.60107 5.51399 2.91388 6.70424 2.56412 8.00956L2.83161 8.08123ZM3.31151 8.06647L2.7337 7.91165L2.66203 8.17914L3.23984 8.33396L3.31151 8.06647ZM3.17855 10.0024C3.17855 9.39134 3.25886 8.79923 3.40944 8.23598L3.14191 8.16446C2.98515 8.75083 2.90162 9.36698 2.90162 10.0024H3.17855ZM3.40926 11.7682C3.2588 11.2052 3.17855 10.6133 3.17855 10.0024H2.90162C2.90162 10.6376 2.98509 11.2535 3.14173 11.8397L3.40926 11.7682ZM2.7337 12.0925L3.31133 11.9377L3.23966 11.6702L2.66203 11.825L2.7337 12.0925ZM4.75244 15.2499C3.83126 14.3287 3.16879 13.1813 2.83161 11.9229L2.56412 11.9946C2.91388 13.2999 3.60107 14.4901 4.55663 15.4457L4.75244 15.2499ZM4.98062 14.8259L4.55663 15.2499L4.75244 15.4457L5.17644 15.0217L4.98062 14.8259ZM8.23409 16.5932C7.0602 16.2795 6.01084 15.6603 5.17644 14.8259L4.98062 15.0217C5.8486 15.8897 6.94054 16.5341 8.16258 16.8607L8.23409 16.5932ZM8.17734 17.3403L8.33208 16.7628L8.06459 16.6911L7.90985 17.2686L8.17734 17.3403ZM11.9211 17.1707C10.6627 17.5079 9.33779 17.5079 8.07943 17.1707L8.00776 17.4382C9.31307 17.788 10.6875 17.788 11.9928 17.4382L11.9211 17.1707ZM11.6684 16.7627L11.8232 17.3403L12.0907 17.2686L11.9359 16.691L11.6684 16.7627ZM14.8239 14.8257C13.9895 15.6602 12.9402 16.2793 11.7664 16.5931L11.8379 16.8606C13.0599 16.534 14.1518 15.8895 15.0197 15.0215L14.8239 14.8257ZM15.4439 15.2499L15.0197 14.8257L14.8239 15.0215L15.2481 15.4457L15.4439 15.2499ZM17.1689 11.9229C16.8317 13.1813 16.1693 14.3287 15.2481 15.2499L15.4439 15.4457C16.3995 14.4901 17.0866 13.2999 17.4364 11.9946L17.1689 11.9229ZM16.6889 11.9376L17.2668 12.0925L17.3385 11.825L16.7605 11.6701L16.6889 11.9376ZM16.8216 10.0024C16.8216 10.6132 16.7414 11.2051 16.5909 11.7681L16.8585 11.8396C17.0151 11.2535 17.0985 10.6376 17.0985 10.0024H16.8216ZM16.5908 8.23607C16.7413 8.79929 16.8216 9.39137 16.8216 10.0024H17.0985C17.0985 9.36701 17.015 8.7509 16.8583 8.16455L16.5908 8.23607ZM17.2668 7.91165L16.6887 8.06657L16.7604 8.33405L17.3385 8.17914L17.2668 7.91165ZM15.2481 4.75425C16.1693 5.67543 16.8317 6.82287 17.1689 8.08123L17.4364 8.00956C17.0867 6.70424 16.3995 5.51399 15.4439 4.55843L15.2481 4.75425ZM15.0194 5.17878L15.4439 4.75425L15.2481 4.55843L14.8236 4.98297L15.0194 5.17878ZM11.7662 3.4117C12.94 3.72542 13.9892 4.34447 14.8236 5.17878L15.0194 4.98297C14.1515 4.11508 13.0596 3.47076 11.8377 3.14417L11.7662 3.4117ZM11.8232 2.66383L11.6682 3.2421L11.9357 3.31377L12.0907 2.7355L11.8232 2.66383ZM10.48 5.72262H9.51995V5.99955H10.48V5.72262ZM10.6184 14.1411V5.86109H10.3415V14.1411H10.6184ZM9.51995 14.2795H10.48V14.0026H9.51995V14.2795ZM9.38149 5.86109V14.1411H9.65841V5.86109H9.38149Z" fill="url(#paint4_radial_192_28338)" mask="url(#path-9-inside-4_192_28338)"/>
</g>
</g>
</g>
</g>
<defs>
<filter id="filter0_dd_192_28338" x="0.0399999" y="0.0399999" width="19.92" height="19.92" filterUnits="userSpaceOnUse" color-interpolation-filters="sRGB">
<feFlood flood-opacity="0" result="BackgroundImageFix"/>
<feColorMatrix in="SourceAlpha" type="matrix" values="0 0 0 0 0 0 0 0 0 0 0 0 0 0 0 0 0 0 127 0" result="hardAlpha"/>
<feOffset/>
<feGaussianBlur stdDeviation="0.12"/>
<feComposite in2="hardAlpha" operator="out"/>
<feColorMatrix type="matrix" values="0 0 0 0 0 0 0 0 0 0 0 0 0 0 0 0 0 0 0.15 0"/>
<feBlend mode="normal" in2="BackgroundImageFix" result="effect1_dropShadow_192_28338"/>
<feColorMatrix in="SourceAlpha" type="matrix" values="0 0 0 0 0 0 0 0 0 0 0 0 0 0 0 0 0 0 127 0" result="hardAlpha"/>
<feOffset/>
<feGaussianBlur stdDeviation="0.48"/>
<feComposite in2="hardAlpha" operator="out"/>
<feColorMatrix type="matrix" values="0 0 0 0 0 0 0 0 0 0 0 0 0 0 0 0 0 0 0.25 0"/>
<feBlend mode="normal" in2="effect1_dropShadow_192_28338" result="effect2_dropShadow_192_28338"/>
<feBlend mode="normal" in="SourceGraphic" in2="effect2_dropShadow_192_28338" result="shape"/>
</filter>
<filter id="filter1_dd_192_28338" x="-0.107692" y="-0.107692" width="20.2154" height="20.2154" filterUnits="userSpaceOnUse" color-interpolation-filters="sRGB">
<feFlood flood-opacity="0" result="BackgroundImageFix"/>
<feColorMatrix in="SourceAlpha" type="matrix" values="0 0 0 0 0 0 0 0 0 0 0 0 0 0 0 0 0 0 127 0" result="hardAlpha"/>
<feOffset/>
<feGaussianBlur stdDeviation="0.276923"/>
<feComposite in2="hardAlpha" operator="out"/>
<feColorMatrix type="matrix" values="0 0 0 0 0 0 0 0 0 0 0 0 0 0 0 0 0 0 0.25 0"/>
<feBlend mode="normal" in2="BackgroundImageFix" result="effect1_dropShadow_192_28338"/>
<feColorMatrix in="SourceAlpha" type="matrix" values="0 0 0 0 0 0 0 0 0 0 0 0 0 0 0 0 0 0 127 0" result="hardAlpha"/>
<feOffset/>
<feGaussianBlur stdDeviation="0.553846"/>
<feComposite in2="hardAlpha" operator="out"/>
<feColorMatrix type="matrix" values="0 0 0 0 0 0 0 0 0 0 0 0 0 0 0 0 0 0 0.1 0"/>
<feBlend mode="normal" in2="effect1_dropShadow_192_28338" result="effect2_dropShadow_192_28338"/>
<feBlend mode="normal" in="SourceGraphic" in2="effect2_dropShadow_192_28338" result="shape"/>
</filter>
<filter id="filter2_f_192_28338" x="0.584615" y="0.584615" width="18.8308" height="18.8308" filterUnits="userSpaceOnUse" color-interpolation-filters="sRGB">
<feFlood flood-opacity="0" result="BackgroundImageFix"/>
<feBlend mode="normal" in="SourceGraphic" in2="BackgroundImageFix" result="shape"/>
<feGaussianBlur stdDeviation="0.207692" result="effect1_foregroundBlur_192_28338"/>
</filter>
<filter id="filter3_f_192_28338" x="0.169231" y="0.169231" width="19.6615" height="19.6615" filterUnits="userSpaceOnUse" color-interpolation-filters="sRGB">
<feFlood flood-opacity="0" result="BackgroundImageFix"/>
<feBlend mode="normal" in="SourceGraphic" in2="BackgroundImageFix" result="shape"/>
<feGaussianBlur stdDeviation="0.415385" result="effect1_foregroundBlur_192_28338"/>
</filter>
<filter id="filter4_f_192_28338" x="-0.246154" y="-0.246154" width="20.4923" height="20.4923" filterUnits="userSpaceOnUse" color-interpolation-filters="sRGB">
<feFlood flood-opacity="0" result="BackgroundImageFix"/>
<feBlend mode="normal" in="SourceGraphic" in2="BackgroundImageFix" result="shape"/>
<feGaussianBlur stdDeviation="0.623077" result="effect1_foregroundBlur_192_28338"/>
</filter>
<radialGradient id="paint0_radial_192_28338" cx="0" cy="0" r="1" gradientUnits="userSpaceOnUse" gradientTransform="translate(19 19) rotate(-135) scale(25.4558 22.3713)">
<stop stop-color="#277782"/>
<stop offset="1" stop-color="#9FBBBF"/>
</radialGradient>
<radialGradient id="paint1_radial_192_28338" cx="0" cy="0" r="1" gradientUnits="userSpaceOnUse" gradientTransform="translate(21.121 -7.83791) rotate(122.004) scale(30.4368 21.1663)">
<stop stop-color="#26A69A"/>
<stop offset="1" stop-color="#B2F6FF"/>
</radialGradient>
<radialGradient id="paint2_radial_192_28338" cx="0" cy="0" r="1" gradientUnits="userSpaceOnUse" gradientTransform="translate(21.121 -7.83791) rotate(122.004) scale(30.4368 21.1663)">
<stop stop-color="#26A69A"/>
<stop offset="1" stop-color="#B2F6FF"/>
</radialGradient>
<radialGradient id="paint3_radial_192_28338" cx="0" cy="0" r="1" gradientUnits="userSpaceOnUse" gradientTransform="translate(21.121 -7.83791) rotate(122.004) scale(30.4368 21.1663)">
<stop stop-color="#26A69A"/>
<stop offset="1" stop-color="#B2F6FF"/>
</radialGradient>
<radialGradient id="paint4_radial_192_28338" cx="0" cy="0" r="1" gradientUnits="userSpaceOnUse" gradientTransform="translate(21.121 -7.83791) rotate(122.004) scale(30.4368 21.1663)">
<stop stop-color="#26A69A"/>
<stop offset="1" stop-color="#B2F6FF"/>
</radialGradient>
<clipPath id="clip0_192_28338">
<path d="M1 10C1 14.9706 5.02944 19 10 19C14.9706 19 19 14.9706 19 10C19 5.02944 14.9706 1 10 1C5.02944 1 1 5.02944 1 10Z" fill="white"/>
</clipPath>
</defs>
</svg>
