<svg width="116" height="135" viewBox="0 0 116 135" fill="none" xmlns="http://www.w3.org/2000/svg">
<g filter="url(#filter0_ddii_195_28726)">
<path d="M35.7891 111.807H79.4707C83.873 111.807 87.1953 110.658 89.4375 108.361C91.6797 106.092 92.8008 102.756 92.8008 98.3535V61.6445H62.1211C57.0352 61.6445 54.4922 59.1016 54.4922 54.0156V23.0078H35.7891C31.3867 23.0078 28.0645 24.1562 25.8223 26.4531C23.5801 28.7227 22.459 32.0586 22.459 36.4609V98.3535C22.459 102.783 23.5801 106.133 25.8223 108.402C28.0645 110.672 31.3867 111.807 35.7891 111.807ZM62.8594 55.6562H92.3496C92.2402 54.7266 91.8574 53.7969 91.2012 52.8672C90.5723 51.9375 89.7246 50.9258 88.6582 49.832L66.2637 27.1094C65.252 26.0703 64.2676 25.2227 63.3105 24.5664C62.3809 23.9102 61.4512 23.5273 60.5215 23.418V53.3184C60.5215 54.877 61.3008 55.6562 62.8594 55.6562ZM57.6914 69.3555C58.6211 69.3555 59.4277 69.6699 60.1113 70.2988C60.7949 70.9277 61.1367 71.707 61.1367 72.6367V86.2129L60.8086 92.3652L63.8848 89.166L67.248 85.7207C67.5762 85.4199 67.9316 85.1738 68.3145 84.9824C68.7246 84.791 69.1484 84.6953 69.5859 84.6953C70.4609 84.6953 71.1992 84.9824 71.8008 85.5566C72.4023 86.1035 72.7031 86.8145 72.7031 87.6895C72.7031 88.1543 72.6074 88.5918 72.416 89.002C72.2246 89.3848 71.9512 89.7266 71.5957 90.0273L60.3164 100.445C59.8516 100.855 59.4141 101.143 59.0039 101.307C58.5938 101.498 58.1562 101.594 57.6914 101.594C57.1992 101.594 56.748 101.498 56.3379 101.307C55.9551 101.143 55.5312 100.855 55.0664 100.445L43.7871 90.0273C43.4316 89.7266 43.1582 89.3848 42.9668 89.002C42.7754 88.5918 42.6797 88.1543 42.6797 87.6895C42.6797 86.8145 42.9668 86.1035 43.541 85.5566C44.1426 84.9824 44.9082 84.6953 45.8379 84.6953C46.2207 84.6953 46.6172 84.791 47.0273 84.9824C47.4375 85.1738 47.793 85.4199 48.0938 85.7207L51.457 89.166L54.5742 92.3652L54.2871 86.2129V72.6367C54.2871 71.707 54.6152 70.9277 55.2715 70.2988C55.9551 69.6699 56.7617 69.3555 57.6914 69.3555Z" fill="url(#paint0_radial_195_28726)"/>
<path d="M89.4375 108.361L89.1529 108.08L89.1513 108.082L89.4375 108.361ZM92.8008 61.6445H93.2008V61.2445H92.8008V61.6445ZM54.4922 23.0078H54.8922V22.6078H54.4922V23.0078ZM25.8223 26.4531L26.1068 26.7343L26.1085 26.7325L25.8223 26.4531ZM92.3496 55.6562V56.0563H92.7994L92.7469 55.6095L92.3496 55.6562ZM91.2012 52.8672L90.8698 53.0914L90.8744 53.0979L91.2012 52.8672ZM88.6582 49.832L88.9446 49.5528L88.9431 49.5513L88.6582 49.832ZM66.2637 27.1094L65.9771 27.3884L65.9788 27.3902L66.2637 27.1094ZM63.3105 24.5664L63.0799 24.8932L63.0843 24.8963L63.3105 24.5664ZM60.5215 23.418L60.5682 23.0207L60.1215 22.9682V23.418H60.5215ZM61.1367 86.2129L61.5362 86.2342L61.5367 86.2235V86.2129H61.1367ZM60.8086 92.3652L60.4092 92.3439L60.3519 93.4173L61.0969 92.6425L60.8086 92.3652ZM63.8848 89.166L63.5985 88.8866L63.5964 88.8888L63.8848 89.166ZM67.248 85.7207L66.9778 85.4258L66.9696 85.4333L66.9618 85.4413L67.248 85.7207ZM68.3145 84.9824L68.1452 84.6198L68.1356 84.6246L68.3145 84.9824ZM71.8008 85.5566L71.5245 85.8461L71.5317 85.8526L71.8008 85.5566ZM72.416 89.002L72.7739 89.1809L72.7785 89.1711L72.416 89.002ZM71.5957 90.0273L71.3373 89.722L71.3307 89.7276L71.3243 89.7335L71.5957 90.0273ZM60.3164 100.445L60.5811 100.745L60.5878 100.739L60.3164 100.445ZM59.0039 101.307L58.8554 100.935L58.8449 100.939L58.8348 100.944L59.0039 101.307ZM56.3379 101.307L56.5071 100.944L56.4955 100.939L56.3379 101.307ZM55.0664 100.445L54.7949 100.739L54.8018 100.745L55.0664 100.445ZM43.7871 90.0273L44.0585 89.7335L44.0521 89.7276L44.0455 89.722L43.7871 90.0273ZM42.9668 89.002L42.6042 89.1712L42.609 89.1808L42.9668 89.002ZM43.541 85.5566L43.8169 85.8463L43.8172 85.846L43.541 85.5566ZM48.0938 85.7207L48.38 85.4413L48.3766 85.4379L48.0938 85.7207ZM51.457 89.166L51.7435 88.8869L51.7433 88.8866L51.457 89.166ZM54.5742 92.3652L54.2877 92.6444L55.0229 93.3989L54.9738 92.3466L54.5742 92.3652ZM54.2871 86.2129H53.8871V86.2222L53.8875 86.2315L54.2871 86.2129ZM55.2715 70.2988L55.0006 70.0044L54.9947 70.01L55.2715 70.2988ZM35.7891 112.207H79.4707V111.407H35.7891V112.207ZM79.4707 112.207C83.9397 112.207 87.3817 111.04 89.7237 108.641L89.1513 108.082C87.0089 110.277 83.8064 111.407 79.4707 111.407V112.207ZM89.7221 108.642C92.0626 106.273 93.2008 102.82 93.2008 98.3535H92.4008C92.4008 102.691 91.2968 105.91 89.1529 108.08L89.7221 108.642ZM93.2008 98.3535V61.6445H92.4008V98.3535H93.2008ZM92.8008 61.2445H62.1211V62.0445H92.8008V61.2445ZM62.1211 61.2445C59.6398 61.2445 57.8523 60.6245 56.6823 59.4545C55.5122 58.2845 54.8922 56.4969 54.8922 54.0156H54.0922C54.0922 56.6203 54.7436 58.6472 56.1166 60.0201C57.4895 61.3931 59.5165 62.0445 62.1211 62.0445V61.2445ZM54.8922 54.0156V23.0078H54.0922V54.0156H54.8922ZM54.4922 22.6078H35.7891V23.4078H54.4922V22.6078ZM35.7891 22.6078C31.3201 22.6078 27.878 23.7746 25.536 26.1737L26.1085 26.7325C28.2509 24.5379 31.4534 23.4078 35.7891 23.4078V22.6078ZM25.5377 26.172C23.1972 28.5411 22.059 31.9941 22.059 36.4609H22.859C22.859 32.1231 23.963 28.9042 26.1068 26.7342L25.5377 26.172ZM22.059 36.4609V98.3535H22.859V36.4609H22.059ZM22.059 98.3535C22.059 102.847 23.1967 106.314 25.5377 108.683L26.1068 108.121C23.9634 105.952 22.859 102.72 22.859 98.3535H22.059ZM25.5377 108.683C27.8799 111.054 31.3213 112.207 35.7891 112.207V111.407C31.4521 111.407 28.249 110.29 26.1068 108.121L25.5377 108.683ZM62.8594 56.0563H92.3496V55.2562H62.8594V56.0563ZM92.7469 55.6095C92.6282 54.6007 92.2144 53.609 91.528 52.6365L90.8744 53.0979C91.5004 53.9847 91.8523 54.8524 91.9523 55.703L92.7469 55.6095ZM91.5325 52.6431C90.8865 51.6881 90.0221 50.6579 88.9446 49.5528L88.3718 50.1113C89.4271 51.1936 90.258 52.1869 90.8699 53.0913L91.5325 52.6431ZM88.9431 49.5513L66.5486 26.8286L65.9788 27.3902L88.3733 50.1128L88.9431 49.5513ZM66.5503 26.8303C65.5245 25.7768 64.5201 24.9108 63.5368 24.2365L63.0843 24.8963C64.015 25.5345 64.9794 26.3638 65.9771 27.3884L66.5503 26.8303ZM63.5412 24.2396C62.5687 23.5531 61.577 23.1394 60.5682 23.0207L60.4747 23.8152C61.3254 23.9153 62.193 24.2672 63.0799 24.8932L63.5412 24.2396ZM60.1215 23.418V53.3184H60.9215V23.418H60.1215ZM60.1215 53.3184C60.1215 54.1593 60.332 54.8635 60.8231 55.3546C61.3142 55.8457 62.0184 56.0563 62.8594 56.0563V55.2562C62.1417 55.2562 61.677 55.0771 61.3888 54.7889C61.1006 54.5008 60.9215 54.036 60.9215 53.3184H60.1215ZM57.6914 69.7555C58.5209 69.7555 59.2308 70.0323 59.8405 70.5932L60.3822 70.0045C59.6247 69.3076 58.7213 68.9555 57.6914 68.9555V69.7555ZM59.8405 70.5932C60.4417 71.1463 60.7367 71.8188 60.7367 72.6367H61.5367C61.5367 71.5953 61.1482 70.7092 60.3822 70.0045L59.8405 70.5932ZM60.7367 72.6367V86.2129H61.5367V72.6367H60.7367ZM60.7373 86.1916L60.4092 92.3439L61.208 92.3865L61.5362 86.2342L60.7373 86.1916ZM61.0969 92.6425L64.1731 89.4433L63.5964 88.8888L60.5203 92.088L61.0969 92.6425ZM64.171 89.4454L67.5343 86.0001L66.9618 85.4413L63.5985 88.8866L64.171 89.4454ZM67.5183 86.0156C67.8202 85.7389 68.1451 85.5143 68.4933 85.3402L68.1356 84.6246C67.7182 84.8333 67.3322 85.101 66.9778 85.4258L67.5183 86.0156ZM68.4836 85.3449C68.8427 85.1773 69.2089 85.0953 69.5859 85.0953V84.2953C69.0879 84.2953 68.6065 84.4047 68.1453 84.6199L68.4836 85.3449ZM69.5859 85.0953C70.364 85.0953 71.0016 85.3468 71.5246 85.846L72.077 85.2673C71.3968 84.6181 70.5579 84.2953 69.5859 84.2953V85.0953ZM71.5317 85.8526C72.043 86.3174 72.3031 86.9175 72.3031 87.6895H73.1031C73.1031 86.7114 72.7617 85.8896 72.0699 85.2607L71.5317 85.8526ZM72.3031 87.6895C72.3031 88.0975 72.2196 88.4771 72.0535 88.8328L72.7785 89.1711C72.9953 88.7065 73.1031 88.2111 73.1031 87.6895H72.3031ZM72.0582 88.8231C71.8931 89.1533 71.6551 89.4531 71.3373 89.722L71.8541 90.3327C72.2472 90 72.5561 89.6162 72.7738 89.1808L72.0582 88.8231ZM71.3243 89.7335L60.045 100.151L60.5878 100.739L71.8671 90.3212L71.3243 89.7335ZM60.0518 100.145C59.6085 100.537 59.2096 100.794 58.8554 100.935L59.1525 101.678C59.6185 101.492 60.0947 101.174 60.5811 100.745L60.0518 100.145ZM58.8348 100.944C58.479 101.11 58.0994 101.194 57.6914 101.194V101.994C58.2131 101.994 58.7085 101.886 59.1731 101.669L58.8348 100.944ZM57.6914 101.194C57.2525 101.194 56.8597 101.109 56.507 100.944L56.1687 101.669C56.6364 101.887 57.146 101.994 57.6914 101.994V101.194ZM56.4955 100.939C56.1658 100.798 55.778 100.54 55.3311 100.145L54.8018 100.745C55.2845 101.171 55.7444 101.487 56.1803 101.674L56.4955 100.939ZM55.3378 100.151L44.0585 89.7335L43.5157 90.3212L54.795 100.739L55.3378 100.151ZM44.0455 89.722C43.7277 89.4531 43.4897 89.1533 43.3246 88.8231L42.609 89.1808C42.8267 89.6162 43.1356 90 43.5287 90.3327L44.0455 89.722ZM43.3293 88.8328C43.1633 88.4771 43.0797 88.0975 43.0797 87.6895H42.2797C42.2797 88.2111 42.3875 88.7065 42.6043 89.1711L43.3293 88.8328ZM43.0797 87.6895C43.0797 86.9114 43.3306 86.3094 43.8169 85.8463L43.2652 85.267C42.603 85.8976 42.2797 86.7175 42.2797 87.6895H43.0797ZM43.8172 85.846C44.3354 85.3514 44.9979 85.0953 45.8379 85.0953V84.2953C44.8185 84.2953 43.9498 84.6134 43.2648 85.2673L43.8172 85.846ZM45.8379 85.0953C46.1525 85.0953 46.4914 85.1737 46.8582 85.3449L47.1965 84.6199C46.7429 84.4083 46.2889 84.2953 45.8379 84.2953V85.0953ZM46.8582 85.3449C47.2288 85.5179 47.5452 85.7378 47.8109 86.0035L48.3766 85.4379C48.0408 85.1021 47.6462 84.8298 47.1965 84.6199L46.8582 85.3449ZM47.8075 86.0001L51.1708 89.4454L51.7433 88.8866L48.38 85.4413L47.8075 86.0001ZM51.1705 89.4452L54.2877 92.6444L54.8607 92.0861L51.7435 88.8869L51.1705 89.4452ZM54.9738 92.3466L54.6867 86.1942L53.8875 86.2315L54.1747 92.3839L54.9738 92.3466ZM54.6871 86.2129V72.6367H53.8871V86.2129H54.6871ZM54.6871 72.6367C54.6871 71.8133 54.9727 71.1392 55.5482 70.5876L54.9947 70.01C54.2577 70.7163 53.8871 71.6008 53.8871 72.6367H54.6871ZM55.5423 70.5932C56.152 70.0323 56.8619 69.7555 57.6914 69.7555V68.9555C56.6615 68.9555 55.7582 69.3076 55.0007 70.0045L55.5423 70.5932Z" fill="#CAFFFA"/>
</g>
<defs>
<filter id="filter0_ddii_195_28726" x="0.151295" y="0.700123" width="114.957" height="133.414" filterUnits="userSpaceOnUse" color-interpolation-filters="sRGB">
<feFlood flood-opacity="0" result="BackgroundImageFix"/>
<feColorMatrix in="SourceAlpha" type="matrix" values="0 0 0 0 0 0 0 0 0 0 0 0 0 0 0 0 0 0 127 0" result="hardAlpha"/>
<feOffset/>
<feGaussianBlur stdDeviation="11.1538"/>
<feComposite in2="hardAlpha" operator="out"/>
<feColorMatrix type="matrix" values="0 0 0 0 0.792157 0 0 0 0 1 0 0 0 0 0.980392 0 0 0 0.25 0"/>
<feBlend mode="normal" in2="BackgroundImageFix" result="effect1_dropShadow_195_28726"/>
<feColorMatrix in="SourceAlpha" type="matrix" values="0 0 0 0 0 0 0 0 0 0 0 0 0 0 0 0 0 0 127 0" result="hardAlpha"/>
<feOffset/>
<feGaussianBlur stdDeviation="5.57692"/>
<feComposite in2="hardAlpha" operator="out"/>
<feColorMatrix type="matrix" values="0 0 0 0 0.792157 0 0 0 0 1 0 0 0 0 0.980392 0 0 0 0.5 0"/>
<feBlend mode="normal" in2="effect1_dropShadow_195_28726" result="effect2_dropShadow_195_28726"/>
<feBlend mode="normal" in="SourceGraphic" in2="effect2_dropShadow_195_28726" result="shape"/>
<feColorMatrix in="SourceAlpha" type="matrix" values="0 0 0 0 0 0 0 0 0 0 0 0 0 0 0 0 0 0 127 0" result="hardAlpha"/>
<feOffset/>
<feGaussianBlur stdDeviation="11.1538"/>
<feComposite in2="hardAlpha" operator="arithmetic" k2="-1" k3="1"/>
<feColorMatrix type="matrix" values="0 0 0 0 0.929412 0 0 0 0 1 0 0 0 0 0.992157 0 0 0 0.25 0"/>
<feBlend mode="normal" in2="shape" result="effect3_innerShadow_195_28726"/>
<feColorMatrix in="SourceAlpha" type="matrix" values="0 0 0 0 0 0 0 0 0 0 0 0 0 0 0 0 0 0 127 0" result="hardAlpha"/>
<feOffset/>
<feGaussianBlur stdDeviation="5.57692"/>
<feComposite in2="hardAlpha" operator="arithmetic" k2="-1" k3="1"/>
<feColorMatrix type="matrix" values="0 0 0 0 0.929427 0 0 0 0 1 0 0 0 0 0.993342 0 0 0 0.5 0"/>
<feBlend mode="normal" in2="effect3_innerShadow_195_28726" result="effect4_innerShadow_195_28726"/>
</filter>
<radialGradient id="paint0_radial_195_28726" cx="0" cy="0" r="1" gradientUnits="userSpaceOnUse" gradientTransform="translate(98 13) rotate(125.219) scale(126.594 85.5589)">
<stop stop-color="#26A69A"/>
<stop offset="1" stop-color="#B2F6FF"/>
</radialGradient>
</defs>
</svg>
