<svg width="10" height="15" viewBox="0 0 10 15" fill="none" xmlns="http://www.w3.org/2000/svg">
<path d="M0.9375 7.85938C0.9375 8.01562 0.966146 8.16406 1.02344 8.30469C1.08594 8.4401 1.18229 8.57031 1.3125 8.69531L7.32812 14.5781C7.52604 14.776 7.76823 14.875 8.05469 14.875C8.2526 14.875 8.42969 14.8281 8.58594 14.7344C8.7474 14.6406 8.875 14.5156 8.96875 14.3594C9.06771 14.2031 9.11719 14.026 9.11719 13.8281C9.11719 13.5417 9.00781 13.2865 8.78906 13.0625L3.4375 7.85938L8.78906 2.65625C9.00781 2.4375 9.11719 2.18229 9.11719 1.89062C9.11719 1.69792 9.06771 1.52344 8.96875 1.36719C8.875 1.20573 8.7474 1.07812 8.58594 0.984375C8.42969 0.890625 8.2526 0.84375 8.05469 0.84375C7.76823 0.84375 7.52604 0.942708 7.32812 1.14062L1.3125 7.02344C1.1875 7.14844 1.09375 7.27865 1.03125 7.41406C0.973958 7.54948 0.942708 7.69792 0.9375 7.85938Z" fill="black"/>
<path d="M0.9375 7.85938C0.9375 8.01562 0.966146 8.16406 1.02344 8.30469C1.08594 8.4401 1.18229 8.57031 1.3125 8.69531L7.32812 14.5781C7.52604 14.776 7.76823 14.875 8.05469 14.875C8.2526 14.875 8.42969 14.8281 8.58594 14.7344C8.7474 14.6406 8.875 14.5156 8.96875 14.3594C9.06771 14.2031 9.11719 14.026 9.11719 13.8281C9.11719 13.5417 9.00781 13.2865 8.78906 13.0625L3.4375 7.85938L8.78906 2.65625C9.00781 2.4375 9.11719 2.18229 9.11719 1.89062C9.11719 1.69792 9.06771 1.52344 8.96875 1.36719C8.875 1.20573 8.7474 1.07812 8.58594 0.984375C8.42969 0.890625 8.2526 0.84375 8.05469 0.84375C7.76823 0.84375 7.52604 0.942708 7.32812 1.14062L1.3125 7.02344C1.1875 7.14844 1.09375 7.27865 1.03125 7.41406C0.973958 7.54948 0.942708 7.69792 0.9375 7.85938Z" fill="url(#paint0_radial_195_28758)"/>
<defs>
<radialGradient id="paint0_radial_195_28758" cx="0" cy="0" r="1" gradientUnits="userSpaceOnUse" gradientTransform="translate(14.5318 -10.8289) rotate(113.152) scale(29.631 16.5748)">
<stop stop-color="#26A69A"/>
<stop offset="1" stop-color="#B2F6FF"/>
</radialGradient>
</defs>
</svg>
