<svg width="150" height="134" viewBox="0 0 150 134" fill="none" xmlns="http://www.w3.org/2000/svg">
<g filter="url(#filter0_ddii_290_28574)">
<path fill-rule="evenodd" clip-rule="evenodd" d="M37.0495 61.9955C60.6718 51.8347 76.4237 45.136 84.3052 41.8995C106.808 32.6588 111.484 31.0536 114.532 31.0006C115.202 30.9889 116.701 31.1529 117.672 31.9307C118.492 32.5874 118.717 33.4745 118.825 34.0972C118.933 34.7198 119.068 36.1382 118.961 37.2465C117.741 49.8964 112.465 80.5943 109.78 94.7624C108.645 100.757 106.408 102.768 104.243 102.964C99.537 103.392 95.9638 99.8941 91.4062 96.9445C84.2743 92.329 80.2453 89.4559 73.3227 84.952C65.3223 79.747 70.5086 76.8862 75.068 72.211C76.2612 70.9874 96.9943 52.369 97.3956 50.6801C97.4458 50.4688 97.4924 49.6814 97.0186 49.2657C96.5448 48.8499 95.8455 48.9921 95.3409 49.1052C94.6256 49.2654 83.2324 56.7 61.1614 71.409C57.9275 73.6014 54.9983 74.6696 52.3739 74.6136C49.4806 74.5519 43.9152 72.9985 39.7779 71.6708C34.7033 70.0422 30.6701 69.1812 31.0213 66.4154C31.2042 64.9748 33.2137 63.5015 37.0495 61.9955Z" fill="white" fill-opacity="0.01" shape-rendering="crispEdges"/>
<path fill-rule="evenodd" clip-rule="evenodd" d="M37.0495 61.9955C60.6718 51.8347 76.4237 45.136 84.3052 41.8995C106.808 32.6588 111.484 31.0536 114.532 31.0006C115.202 30.9889 116.701 31.1529 117.672 31.9307C118.492 32.5874 118.717 33.4745 118.825 34.0972C118.933 34.7198 119.068 36.1382 118.961 37.2465C117.741 49.8964 112.465 80.5943 109.78 94.7624C108.645 100.757 106.408 102.768 104.243 102.964C99.537 103.392 95.9638 99.8941 91.4062 96.9445C84.2743 92.329 80.2453 89.4559 73.3227 84.952C65.3223 79.747 70.5086 76.8862 75.068 72.211C76.2612 70.9874 96.9943 52.369 97.3956 50.6801C97.4458 50.4688 97.4924 49.6814 97.0186 49.2657C96.5448 48.8499 95.8455 48.9921 95.3409 49.1052C94.6256 49.2654 83.2324 56.7 61.1614 71.409C57.9275 73.6014 54.9983 74.6696 52.3739 74.6136C49.4806 74.5519 43.9152 72.9985 39.7779 71.6708C34.7033 70.0422 30.6701 69.1812 31.0213 66.4154C31.2042 64.9748 33.2137 63.5015 37.0495 61.9955Z" stroke="#CAFFFA" stroke-width="2" shape-rendering="crispEdges"/>
</g>
<defs>
<filter id="filter0_ddii_290_28574" x="0" y="0" width="150" height="134" filterUnits="userSpaceOnUse" color-interpolation-filters="sRGB">
<feFlood flood-opacity="0" result="BackgroundImageFix"/>
<feColorMatrix in="SourceAlpha" type="matrix" values="0 0 0 0 0 0 0 0 0 0 0 0 0 0 0 0 0 0 127 0" result="hardAlpha"/>
<feOffset/>
<feGaussianBlur stdDeviation="15"/>
<feComposite in2="hardAlpha" operator="out"/>
<feColorMatrix type="matrix" values="0 0 0 0 0 0 0 0 0 0 0 0 0 0 0 0 0 0 0.25 0"/>
<feBlend mode="normal" in2="BackgroundImageFix" result="effect1_dropShadow_290_28574"/>
<feColorMatrix in="SourceAlpha" type="matrix" values="0 0 0 0 0 0 0 0 0 0 0 0 0 0 0 0 0 0 127 0" result="hardAlpha"/>
<feOffset/>
<feGaussianBlur stdDeviation="7.5"/>
<feComposite in2="hardAlpha" operator="out"/>
<feColorMatrix type="matrix" values="0 0 0 0 0 0 0 0 0 0 0 0 0 0 0 0 0 0 0.5 0"/>
<feBlend mode="normal" in2="effect1_dropShadow_290_28574" result="effect2_dropShadow_290_28574"/>
<feBlend mode="normal" in="SourceGraphic" in2="effect2_dropShadow_290_28574" result="shape"/>
<feColorMatrix in="SourceAlpha" type="matrix" values="0 0 0 0 0 0 0 0 0 0 0 0 0 0 0 0 0 0 127 0" result="hardAlpha"/>
<feOffset/>
<feGaussianBlur stdDeviation="15"/>
<feComposite in2="hardAlpha" operator="arithmetic" k2="-1" k3="1"/>
<feColorMatrix type="matrix" values="0 0 0 0 0 0 0 0 0 0 0 0 0 0 0 0 0 0 0.25 0"/>
<feBlend mode="normal" in2="shape" result="effect3_innerShadow_290_28574"/>
<feColorMatrix in="SourceAlpha" type="matrix" values="0 0 0 0 0 0 0 0 0 0 0 0 0 0 0 0 0 0 127 0" result="hardAlpha"/>
<feOffset/>
<feGaussianBlur stdDeviation="7.5"/>
<feComposite in2="hardAlpha" operator="arithmetic" k2="-1" k3="1"/>
<feColorMatrix type="matrix" values="0 0 0 0 0 0 0 0 0 0 0 0 0 0 0 0 0 0 0.5 0"/>
<feBlend mode="normal" in2="effect3_innerShadow_290_28574" result="effect4_innerShadow_290_28574"/>
</filter>
</defs>
</svg>
