<svg width="116" height="136" viewBox="0 0 116 136" fill="none" xmlns="http://www.w3.org/2000/svg">
<g filter="url(#filter0_ddii_290_28632)">
<path d="M36.1582 112.399H79.8398C84.2422 112.399 87.5645 111.251 89.8066 108.954C92.0488 106.685 93.1699 103.349 93.1699 98.9463V62.2373H62.4902C57.4043 62.2373 54.8613 59.6943 54.8613 54.6084V23.6006H36.1582C31.7559 23.6006 28.4336 24.749 26.1914 27.0459C23.9492 29.3154 22.8281 32.6514 22.8281 37.0537V98.9463C22.8281 103.376 23.9492 106.726 26.1914 108.995C28.4336 111.265 31.7559 112.399 36.1582 112.399ZM63.2285 56.249H92.7188C92.6094 55.3193 92.2266 54.3896 91.5703 53.46C90.9414 52.5303 90.0938 51.5186 89.0273 50.4248L66.6328 27.7021C65.6211 26.6631 64.6367 25.8154 63.6797 25.1592C62.75 24.5029 61.8203 24.1201 60.8906 24.0107V53.9111C60.8906 55.4697 61.6699 56.249 63.2285 56.249ZM58.0605 69.9482C58.9902 69.9482 59.7969 70.2627 60.4805 70.8916C61.1641 71.5205 61.5059 72.2998 61.5059 73.2295V86.8057L61.1777 92.958L64.2539 89.7588L67.6172 86.3135C67.9453 86.0127 68.3008 85.7666 68.6836 85.5752C69.0938 85.3838 69.5176 85.2881 69.9551 85.2881C70.8301 85.2881 71.5684 85.5752 72.1699 86.1494C72.7715 86.6963 73.0723 87.4072 73.0723 88.2822C73.0723 88.7471 72.9766 89.1846 72.7852 89.5947C72.5938 89.9775 72.3203 90.3193 71.9648 90.6201L60.6855 101.038C60.2207 101.448 59.7832 101.735 59.373 101.899C58.9629 102.091 58.5254 102.187 58.0605 102.187C57.5684 102.187 57.1172 102.091 56.707 101.899C56.3242 101.735 55.9004 101.448 55.4355 101.038L44.1562 90.6201C43.8008 90.3193 43.5273 89.9775 43.3359 89.5947C43.1445 89.1846 43.0488 88.7471 43.0488 88.2822C43.0488 87.4072 43.3359 86.6963 43.9102 86.1494C44.5117 85.5752 45.2773 85.2881 46.207 85.2881C46.5898 85.2881 46.9863 85.3838 47.3965 85.5752C47.8066 85.7666 48.1621 86.0127 48.4629 86.3135L54.9434 92.958L54.6562 86.8057V73.2295C54.6562 72.2998 54.9844 71.5205 55.6406 70.8916C56.3242 70.2627 57.1309 69.9482 58.0605 69.9482Z" fill="url(#paint0_radial_290_28632)"/>
<path d="M36.1582 112.399H79.8398C84.2422 112.399 87.5645 111.251 89.8066 108.954C92.0488 106.685 93.1699 103.349 93.1699 98.9463V62.2373H62.4902C57.4043 62.2373 54.8613 59.6943 54.8613 54.6084V23.6006H36.1582C31.7559 23.6006 28.4336 24.749 26.1914 27.0459C23.9492 29.3154 22.8281 32.6514 22.8281 37.0537V98.9463C22.8281 103.376 23.9492 106.726 26.1914 108.995C28.4336 111.265 31.7559 112.399 36.1582 112.399ZM63.2285 56.249H92.7188C92.6094 55.3193 92.2266 54.3896 91.5703 53.46C90.9414 52.5303 90.0938 51.5186 89.0273 50.4248L66.6328 27.7021C65.6211 26.6631 64.6367 25.8154 63.6797 25.1592C62.75 24.5029 61.8203 24.1201 60.8906 24.0107V53.9111C60.8906 55.4697 61.6699 56.249 63.2285 56.249ZM58.0605 69.9482C58.9902 69.9482 59.7969 70.2627 60.4805 70.8916C61.1641 71.5205 61.5059 72.2998 61.5059 73.2295V86.8057L61.1777 92.958L64.2539 89.7588L67.6172 86.3135C67.9453 86.0127 68.3008 85.7666 68.6836 85.5752C69.0938 85.3838 69.5176 85.2881 69.9551 85.2881C70.8301 85.2881 71.5684 85.5752 72.1699 86.1494C72.7715 86.6963 73.0723 87.4072 73.0723 88.2822C73.0723 88.7471 72.9766 89.1846 72.7852 89.5947C72.5938 89.9775 72.3203 90.3193 71.9648 90.6201L60.6855 101.038C60.2207 101.448 59.7832 101.735 59.373 101.899C58.9629 102.091 58.5254 102.187 58.0605 102.187C57.5684 102.187 57.1172 102.091 56.707 101.899C56.3242 101.735 55.9004 101.448 55.4355 101.038L44.1562 90.6201C43.8008 90.3193 43.5273 89.9775 43.3359 89.5947C43.1445 89.1846 43.0488 88.7471 43.0488 88.2822C43.0488 87.4072 43.3359 86.6963 43.9102 86.1494C44.5117 85.5752 45.2773 85.2881 46.207 85.2881C46.5898 85.2881 46.9863 85.3838 47.3965 85.5752C47.8066 85.7666 48.1621 86.0127 48.4629 86.3135L54.9434 92.958L54.6562 86.8057V73.2295C54.6562 72.2998 54.9844 71.5205 55.6406 70.8916C56.3242 70.2627 57.1309 69.9482 58.0605 69.9482Z" stroke="#CAFFFA" stroke-width="0.8"/>
</g>
<defs>
<filter id="filter0_ddii_290_28632" x="0.120045" y="0.892994" width="115.758" height="134.214" filterUnits="userSpaceOnUse" color-interpolation-filters="sRGB">
<feFlood flood-opacity="0" result="BackgroundImageFix"/>
<feColorMatrix in="SourceAlpha" type="matrix" values="0 0 0 0 0 0 0 0 0 0 0 0 0 0 0 0 0 0 127 0" result="hardAlpha"/>
<feOffset/>
<feGaussianBlur stdDeviation="11.1538"/>
<feComposite in2="hardAlpha" operator="out"/>
<feColorMatrix type="matrix" values="0 0 0 0 0.792157 0 0 0 0 1 0 0 0 0 0.980392 0 0 0 0.25 0"/>
<feBlend mode="normal" in2="BackgroundImageFix" result="effect1_dropShadow_290_28632"/>
<feColorMatrix in="SourceAlpha" type="matrix" values="0 0 0 0 0 0 0 0 0 0 0 0 0 0 0 0 0 0 127 0" result="hardAlpha"/>
<feOffset/>
<feGaussianBlur stdDeviation="5.57692"/>
<feComposite in2="hardAlpha" operator="out"/>
<feColorMatrix type="matrix" values="0 0 0 0 0.792157 0 0 0 0 1 0 0 0 0 0.980392 0 0 0 0.5 0"/>
<feBlend mode="normal" in2="effect1_dropShadow_290_28632" result="effect2_dropShadow_290_28632"/>
<feBlend mode="normal" in="SourceGraphic" in2="effect2_dropShadow_290_28632" result="shape"/>
<feColorMatrix in="SourceAlpha" type="matrix" values="0 0 0 0 0 0 0 0 0 0 0 0 0 0 0 0 0 0 127 0" result="hardAlpha"/>
<feOffset/>
<feGaussianBlur stdDeviation="11.1538"/>
<feComposite in2="hardAlpha" operator="arithmetic" k2="-1" k3="1"/>
<feColorMatrix type="matrix" values="0 0 0 0 0.929412 0 0 0 0 1 0 0 0 0 0.992157 0 0 0 0.25 0"/>
<feBlend mode="normal" in2="shape" result="effect3_innerShadow_290_28632"/>
<feColorMatrix in="SourceAlpha" type="matrix" values="0 0 0 0 0 0 0 0 0 0 0 0 0 0 0 0 0 0 127 0" result="hardAlpha"/>
<feOffset/>
<feGaussianBlur stdDeviation="5.57692"/>
<feComposite in2="hardAlpha" operator="arithmetic" k2="-1" k3="1"/>
<feColorMatrix type="matrix" values="0 0 0 0 0.929427 0 0 0 0 1 0 0 0 0 0.993342 0 0 0 0.5 0"/>
<feBlend mode="normal" in2="effect3_innerShadow_290_28632" result="effect4_innerShadow_290_28632"/>
</filter>
<radialGradient id="paint0_radial_290_28632" cx="0" cy="0" r="1" gradientUnits="userSpaceOnUse" gradientTransform="translate(98.3691 13.5928) rotate(125.219) scale(126.594 85.5589)">
<stop stop-color="#26A69A"/>
<stop offset="1" stop-color="#B2F6FF"/>
</radialGradient>
</defs>
</svg>
