<svg width="132" height="150" viewBox="0 0 132 150" fill="none" xmlns="http://www.w3.org/2000/svg">
<g filter="url(#filter0_ddddiiii_290_29065)">
<path d="M44.1582 119.399H87.8398C92.2422 119.399 95.5645 118.251 97.8066 115.954C100.049 113.685 101.17 110.349 101.17 105.946V69.2373H70.4902C65.4043 69.2373 62.8613 66.6943 62.8613 61.6084V30.6006H44.1582C39.7559 30.6006 36.4336 31.749 34.1914 34.0459C31.9492 36.3154 30.8281 39.6514 30.8281 44.0537V105.946C30.8281 110.376 31.9492 113.726 34.1914 115.995C36.4336 118.265 39.7559 119.399 44.1582 119.399ZM71.2285 63.249H100.719C100.609 62.3193 100.227 61.3896 99.5703 60.46C98.9414 59.5303 98.0938 58.5186 97.0273 57.4248L74.6328 34.7021C73.6211 33.6631 72.6367 32.8154 71.6797 32.1592C70.75 31.5029 69.8203 31.1201 68.8906 31.0107V60.9111C68.8906 62.4697 69.6699 63.249 71.2285 63.249ZM66.0605 76.9482C66.9902 76.9482 67.7969 77.2627 68.4805 77.8916C69.1641 78.5205 69.5059 79.2998 69.5059 80.2295V93.8057L69.1777 99.958L72.2539 96.7588L75.6172 93.3135C75.9453 93.0127 76.3008 92.7666 76.6836 92.5752C77.0938 92.3838 77.5176 92.2881 77.9551 92.2881C78.8301 92.2881 79.5684 92.5752 80.1699 93.1494C80.7715 93.6963 81.0723 94.4072 81.0723 95.2822C81.0723 95.7471 80.9766 96.1846 80.7852 96.5947C80.5938 96.9775 80.3203 97.3193 79.9648 97.6201L68.6855 108.038C68.2207 108.448 67.7832 108.735 67.373 108.899C66.9629 109.091 66.5254 109.187 66.0605 109.187C65.5684 109.187 65.1172 109.091 64.707 108.899C64.3242 108.735 63.9004 108.448 63.4355 108.038L52.1562 97.6201C51.8008 97.3193 51.5273 96.9775 51.3359 96.5947C51.1445 96.1846 51.0488 95.7471 51.0488 95.2822C51.0488 94.4072 51.3359 93.6963 51.9102 93.1494C52.5117 92.5752 53.2773 92.2881 54.207 92.2881C54.5898 92.2881 54.9863 92.3838 55.3965 92.5752C55.8066 92.7666 56.1621 93.0127 56.4629 93.3135L62.9434 99.958L62.6562 93.8057V80.2295C62.6562 79.2998 62.9844 78.5205 63.6406 77.8916C64.3242 77.2627 65.1309 76.9482 66.0605 76.9482Z" fill="white" fill-opacity="0.01" shape-rendering="crispEdges"/>
<path d="M44.1582 119.399H87.8398C92.2422 119.399 95.5645 118.251 97.8066 115.954C100.049 113.685 101.17 110.349 101.17 105.946V69.2373H70.4902C65.4043 69.2373 62.8613 66.6943 62.8613 61.6084V30.6006H44.1582C39.7559 30.6006 36.4336 31.749 34.1914 34.0459C31.9492 36.3154 30.8281 39.6514 30.8281 44.0537V105.946C30.8281 110.376 31.9492 113.726 34.1914 115.995C36.4336 118.265 39.7559 119.399 44.1582 119.399ZM71.2285 63.249H100.719C100.609 62.3193 100.227 61.3896 99.5703 60.46C98.9414 59.5303 98.0938 58.5186 97.0273 57.4248L74.6328 34.7021C73.6211 33.6631 72.6367 32.8154 71.6797 32.1592C70.75 31.5029 69.8203 31.1201 68.8906 31.0107V60.9111C68.8906 62.4697 69.6699 63.249 71.2285 63.249ZM66.0605 76.9482C66.9902 76.9482 67.7969 77.2627 68.4805 77.8916C69.1641 78.5205 69.5059 79.2998 69.5059 80.2295V93.8057L69.1777 99.958L72.2539 96.7588L75.6172 93.3135C75.9453 93.0127 76.3008 92.7666 76.6836 92.5752C77.0938 92.3838 77.5176 92.2881 77.9551 92.2881C78.8301 92.2881 79.5684 92.5752 80.1699 93.1494C80.7715 93.6963 81.0723 94.4072 81.0723 95.2822C81.0723 95.7471 80.9766 96.1846 80.7852 96.5947C80.5938 96.9775 80.3203 97.3193 79.9648 97.6201L68.6855 108.038C68.2207 108.448 67.7832 108.735 67.373 108.899C66.9629 109.091 66.5254 109.187 66.0605 109.187C65.5684 109.187 65.1172 109.091 64.707 108.899C64.3242 108.735 63.9004 108.448 63.4355 108.038L52.1562 97.6201C51.8008 97.3193 51.5273 96.9775 51.3359 96.5947C51.1445 96.1846 51.0488 95.7471 51.0488 95.2822C51.0488 94.4072 51.3359 93.6963 51.9102 93.1494C52.5117 92.5752 53.2773 92.2881 54.207 92.2881C54.5898 92.2881 54.9863 92.3838 55.3965 92.5752C55.8066 92.7666 56.1621 93.0127 56.4629 93.3135L62.9434 99.958L62.6562 93.8057V80.2295C62.6562 79.2998 62.9844 78.5205 63.6406 77.8916C64.3242 77.2627 65.1309 76.9482 66.0605 76.9482Z" stroke="#CAFFFA" shape-rendering="crispEdges"/>
</g>
<defs>
<filter id="filter0_ddddiiii_290_29065" x="0.328125" y="0.100586" width="131.342" height="149.799" filterUnits="userSpaceOnUse" color-interpolation-filters="sRGB">
<feFlood flood-opacity="0" result="BackgroundImageFix"/>
<feColorMatrix in="SourceAlpha" type="matrix" values="0 0 0 0 0 0 0 0 0 0 0 0 0 0 0 0 0 0 127 0" result="hardAlpha"/>
<feOffset/>
<feGaussianBlur stdDeviation="11.1538"/>
<feComposite in2="hardAlpha" operator="out"/>
<feColorMatrix type="matrix" values="0 0 0 0 0.792157 0 0 0 0 1 0 0 0 0 0.980392 0 0 0 0.25 0"/>
<feBlend mode="normal" in2="BackgroundImageFix" result="effect1_dropShadow_290_29065"/>
<feColorMatrix in="SourceAlpha" type="matrix" values="0 0 0 0 0 0 0 0 0 0 0 0 0 0 0 0 0 0 127 0" result="hardAlpha"/>
<feOffset/>
<feGaussianBlur stdDeviation="5.57692"/>
<feComposite in2="hardAlpha" operator="out"/>
<feColorMatrix type="matrix" values="0 0 0 0 0.792157 0 0 0 0 1 0 0 0 0 0.980392 0 0 0 0.5 0"/>
<feBlend mode="normal" in2="effect1_dropShadow_290_29065" result="effect2_dropShadow_290_29065"/>
<feColorMatrix in="SourceAlpha" type="matrix" values="0 0 0 0 0 0 0 0 0 0 0 0 0 0 0 0 0 0 127 0" result="hardAlpha"/>
<feOffset/>
<feGaussianBlur stdDeviation="15"/>
<feComposite in2="hardAlpha" operator="out"/>
<feColorMatrix type="matrix" values="0 0 0 0 0 0 0 0 0 0 0 0 0 0 0 0 0 0 0.25 0"/>
<feBlend mode="normal" in2="effect2_dropShadow_290_29065" result="effect3_dropShadow_290_29065"/>
<feColorMatrix in="SourceAlpha" type="matrix" values="0 0 0 0 0 0 0 0 0 0 0 0 0 0 0 0 0 0 127 0" result="hardAlpha"/>
<feOffset/>
<feGaussianBlur stdDeviation="7.5"/>
<feComposite in2="hardAlpha" operator="out"/>
<feColorMatrix type="matrix" values="0 0 0 0 0 0 0 0 0 0 0 0 0 0 0 0 0 0 0.5 0"/>
<feBlend mode="normal" in2="effect3_dropShadow_290_29065" result="effect4_dropShadow_290_29065"/>
<feBlend mode="normal" in="SourceGraphic" in2="effect4_dropShadow_290_29065" result="shape"/>
<feColorMatrix in="SourceAlpha" type="matrix" values="0 0 0 0 0 0 0 0 0 0 0 0 0 0 0 0 0 0 127 0" result="hardAlpha"/>
<feOffset/>
<feGaussianBlur stdDeviation="11.1538"/>
<feComposite in2="hardAlpha" operator="arithmetic" k2="-1" k3="1"/>
<feColorMatrix type="matrix" values="0 0 0 0 0.929412 0 0 0 0 1 0 0 0 0 0.992157 0 0 0 0.25 0"/>
<feBlend mode="normal" in2="shape" result="effect5_innerShadow_290_29065"/>
<feColorMatrix in="SourceAlpha" type="matrix" values="0 0 0 0 0 0 0 0 0 0 0 0 0 0 0 0 0 0 127 0" result="hardAlpha"/>
<feOffset/>
<feGaussianBlur stdDeviation="5.57692"/>
<feComposite in2="hardAlpha" operator="arithmetic" k2="-1" k3="1"/>
<feColorMatrix type="matrix" values="0 0 0 0 0.929427 0 0 0 0 1 0 0 0 0 0.993342 0 0 0 0.5 0"/>
<feBlend mode="normal" in2="effect5_innerShadow_290_29065" result="effect6_innerShadow_290_29065"/>
<feColorMatrix in="SourceAlpha" type="matrix" values="0 0 0 0 0 0 0 0 0 0 0 0 0 0 0 0 0 0 127 0" result="hardAlpha"/>
<feOffset/>
<feGaussianBlur stdDeviation="15"/>
<feComposite in2="hardAlpha" operator="arithmetic" k2="-1" k3="1"/>
<feColorMatrix type="matrix" values="0 0 0 0 0 0 0 0 0 0 0 0 0 0 0 0 0 0 0.25 0"/>
<feBlend mode="normal" in2="effect6_innerShadow_290_29065" result="effect7_innerShadow_290_29065"/>
<feColorMatrix in="SourceAlpha" type="matrix" values="0 0 0 0 0 0 0 0 0 0 0 0 0 0 0 0 0 0 127 0" result="hardAlpha"/>
<feOffset/>
<feGaussianBlur stdDeviation="7.5"/>
<feComposite in2="hardAlpha" operator="arithmetic" k2="-1" k3="1"/>
<feColorMatrix type="matrix" values="0 0 0 0 0 0 0 0 0 0 0 0 0 0 0 0 0 0 0.5 0"/>
<feBlend mode="normal" in2="effect7_innerShadow_290_29065" result="effect8_innerShadow_290_29065"/>
</filter>
</defs>
</svg>
