<svg width="138" height="138" viewBox="0 0 138 138" fill="none" xmlns="http://www.w3.org/2000/svg">
<g filter="url(#filter0_ddii_195_28744)">
<mask id="path-1-inside-1_195_28744" fill="white">
<path fill-rule="evenodd" clip-rule="evenodd" d="M69 115C94.4051 115 115 94.4051 115 69C115 43.5949 94.4051 23 69 23C43.5949 23 23 43.5949 23 69C23 94.4051 43.5949 115 69 115ZM97.883 55.3629L95.8229 60.7193C95.7293 60.9625 95.3853 60.9625 95.2917 60.7193L93.2316 55.3629C93.2027 55.2877 93.1433 55.2283 93.0681 55.1994L87.7117 53.1393C87.4685 53.0457 87.4685 52.7017 87.7117 52.6081L93.0681 50.548C93.1433 50.5191 93.2027 50.4597 93.2316 50.3845L95.2917 45.0281C95.3853 44.7849 95.7293 44.7849 95.8229 45.0281L97.883 50.3845C97.9119 50.4597 97.9713 50.5191 98.0465 50.548L103.403 52.6081C103.646 52.7017 103.646 53.0457 103.403 53.1393L98.0465 55.1994C97.9713 55.2283 97.9119 55.2877 97.883 55.3629ZM48.8379 50.502C48.1831 50.502 47.6523 51.0327 47.6523 51.6875C47.6523 52.3423 48.1831 52.8731 48.8379 52.8731H59.7451C60.3999 52.8731 60.9307 52.3423 60.9307 51.6875C60.9307 51.0327 60.3999 50.502 59.7451 50.502H48.8379ZM47.6573 69.4751C47.6573 73.1418 44.6848 76.1143 41.0181 76.1143C37.3514 76.1143 34.3789 73.1418 34.3789 69.4751C34.3789 65.8084 37.3514 62.8359 41.0181 62.8359C44.6848 62.8359 47.6573 65.8084 47.6573 69.4751ZM97.9287 69.4751C97.9287 73.1418 94.9563 76.1143 91.2896 76.1143C87.6228 76.1143 84.6504 73.1418 84.6504 69.4751C84.6504 65.8084 87.6228 62.8359 91.2896 62.8359C94.9563 62.8359 97.9287 65.8084 97.9287 69.4751ZM71.3691 51.6875C71.3691 51.0327 71.8999 50.502 72.5547 50.502H83.4619C84.1167 50.502 84.6475 51.0327 84.6475 51.6875C84.6475 52.3423 84.1167 52.8731 83.4619 52.8731H72.5547C71.8999 52.8731 71.3691 52.3423 71.3691 51.6875ZM55.8411 80.3842C58.1726 83.5459 61.9233 85.5968 66.153 85.5968C70.3827 85.5968 74.1335 83.5459 76.4649 80.3842C77.1435 79.464 78.4425 79.132 79.3729 79.7966C80.1406 80.3449 80.3863 81.3878 79.8529 82.1659C76.8623 86.5286 71.8419 89.3906 66.153 89.3906C60.4642 89.3906 55.4438 86.5286 52.4532 82.1659C51.9198 81.3878 52.1655 80.3449 52.9331 79.7966C53.8635 79.132 55.1625 79.464 55.8411 80.3842ZM50.9766 59.2762C50.9766 57.8357 52.1443 56.668 53.5848 56.668C55.0253 56.668 56.193 57.8357 56.193 59.2762V69.235C56.193 70.6755 55.0253 71.8432 53.5848 71.8432C52.1443 71.8432 50.9766 70.6755 50.9766 69.235V59.2762ZM78.7157 56.668C77.2752 56.668 76.1074 57.8357 76.1074 59.2762V69.235C76.1074 70.6755 77.2752 71.8432 78.7157 71.8432C80.1562 71.8432 81.3239 70.6755 81.3239 69.235V59.2762C81.3239 57.8357 80.1562 56.668 78.7157 56.668Z"/>
</mask>
<path fill-rule="evenodd" clip-rule="evenodd" d="M69 115C94.4051 115 115 94.4051 115 69C115 43.5949 94.4051 23 69 23C43.5949 23 23 43.5949 23 69C23 94.4051 43.5949 115 69 115ZM97.883 55.3629L95.8229 60.7193C95.7293 60.9625 95.3853 60.9625 95.2917 60.7193L93.2316 55.3629C93.2027 55.2877 93.1433 55.2283 93.0681 55.1994L87.7117 53.1393C87.4685 53.0457 87.4685 52.7017 87.7117 52.6081L93.0681 50.548C93.1433 50.5191 93.2027 50.4597 93.2316 50.3845L95.2917 45.0281C95.3853 44.7849 95.7293 44.7849 95.8229 45.0281L97.883 50.3845C97.9119 50.4597 97.9713 50.5191 98.0465 50.548L103.403 52.6081C103.646 52.7017 103.646 53.0457 103.403 53.1393L98.0465 55.1994C97.9713 55.2283 97.9119 55.2877 97.883 55.3629ZM48.8379 50.502C48.1831 50.502 47.6523 51.0327 47.6523 51.6875C47.6523 52.3423 48.1831 52.8731 48.8379 52.8731H59.7451C60.3999 52.8731 60.9307 52.3423 60.9307 51.6875C60.9307 51.0327 60.3999 50.502 59.7451 50.502H48.8379ZM47.6573 69.4751C47.6573 73.1418 44.6848 76.1143 41.0181 76.1143C37.3514 76.1143 34.3789 73.1418 34.3789 69.4751C34.3789 65.8084 37.3514 62.8359 41.0181 62.8359C44.6848 62.8359 47.6573 65.8084 47.6573 69.4751ZM97.9287 69.4751C97.9287 73.1418 94.9563 76.1143 91.2896 76.1143C87.6228 76.1143 84.6504 73.1418 84.6504 69.4751C84.6504 65.8084 87.6228 62.8359 91.2896 62.8359C94.9563 62.8359 97.9287 65.8084 97.9287 69.4751ZM71.3691 51.6875C71.3691 51.0327 71.8999 50.502 72.5547 50.502H83.4619C84.1167 50.502 84.6475 51.0327 84.6475 51.6875C84.6475 52.3423 84.1167 52.8731 83.4619 52.8731H72.5547C71.8999 52.8731 71.3691 52.3423 71.3691 51.6875ZM55.8411 80.3842C58.1726 83.5459 61.9233 85.5968 66.153 85.5968C70.3827 85.5968 74.1335 83.5459 76.4649 80.3842C77.1435 79.464 78.4425 79.132 79.3729 79.7966C80.1406 80.3449 80.3863 81.3878 79.8529 82.1659C76.8623 86.5286 71.8419 89.3906 66.153 89.3906C60.4642 89.3906 55.4438 86.5286 52.4532 82.1659C51.9198 81.3878 52.1655 80.3449 52.9331 79.7966C53.8635 79.132 55.1625 79.464 55.8411 80.3842ZM50.9766 59.2762C50.9766 57.8357 52.1443 56.668 53.5848 56.668C55.0253 56.668 56.193 57.8357 56.193 59.2762V69.235C56.193 70.6755 55.0253 71.8432 53.5848 71.8432C52.1443 71.8432 50.9766 70.6755 50.9766 69.235V59.2762ZM78.7157 56.668C77.2752 56.668 76.1074 57.8357 76.1074 59.2762V69.235C76.1074 70.6755 77.2752 71.8432 78.7157 71.8432C80.1562 71.8432 81.3239 70.6755 81.3239 69.235V59.2762C81.3239 57.8357 80.1562 56.668 78.7157 56.668Z" fill="url(#paint0_radial_195_28744)"/>
<path d="M95.8229 60.7193L96.5695 61.0065V61.0065L95.8229 60.7193ZM97.883 55.3629L98.6297 55.65L98.6297 55.65L97.883 55.3629ZM95.2917 60.7193L94.545 61.0065V61.0065L95.2917 60.7193ZM93.2316 55.3629L92.4849 55.65L92.4849 55.65L93.2316 55.3629ZM93.0681 55.1994L92.7809 55.9461H92.7809L93.0681 55.1994ZM87.7117 53.1393L87.4245 53.8859V53.8859L87.7117 53.1393ZM87.7117 52.6081L87.4245 51.8614V51.8615L87.7117 52.6081ZM93.0681 50.548L93.3553 51.2946L93.3553 51.2946L93.0681 50.548ZM93.2316 50.3845L92.4849 50.0973L92.4849 50.0974L93.2316 50.3845ZM95.2917 45.0281L94.545 44.7409V44.7409L95.2917 45.0281ZM95.8229 45.0281L96.5695 44.7409V44.7409L95.8229 45.0281ZM97.883 50.3845L98.6297 50.0974L98.6297 50.0973L97.883 50.3845ZM98.0465 50.548L97.7593 51.2946L97.7593 51.2946L98.0465 50.548ZM103.403 52.6081L103.116 53.3548L103.116 53.3548L103.403 52.6081ZM103.403 53.1393L103.116 52.3926L103.116 52.3926L103.403 53.1393ZM98.0465 55.1994L98.3336 55.9461H98.3336L98.0465 55.1994ZM55.8411 80.3842L55.1973 80.859L55.1973 80.859L55.8411 80.3842ZM76.4649 80.3842L77.1088 80.859L77.1088 80.859L76.4649 80.3842ZM79.3729 79.7966L79.8379 79.1456L79.3729 79.7966ZM79.8529 82.1659L79.193 81.7136L79.8529 82.1659ZM52.4532 82.1659L53.113 81.7136L52.4532 82.1659ZM52.9331 79.7966L52.4681 79.1456L52.9331 79.7966ZM114.2 69C114.2 93.9633 93.9633 114.2 69 114.2V115.8C94.8469 115.8 115.8 94.8469 115.8 69H114.2ZM69 23.8C93.9633 23.8 114.2 44.0367 114.2 69H115.8C115.8 43.1531 94.8469 22.2 69 22.2V23.8ZM23.8 69C23.8 44.0367 44.0367 23.8 69 23.8V22.2C43.1531 22.2 22.2 43.1531 22.2 69H23.8ZM69 114.2C44.0367 114.2 23.8 93.9633 23.8 69H22.2C22.2 94.8469 43.1531 115.8 69 115.8V114.2ZM96.5695 61.0065L98.6297 55.65L97.1364 55.0757L95.0762 60.4321L96.5695 61.0065ZM94.545 61.0065C94.9016 61.9334 96.213 61.9334 96.5695 61.0065L95.0762 60.4321C95.2456 59.9916 95.8689 59.9916 96.0384 60.4321L94.545 61.0065ZM92.4849 55.65L94.545 61.0065L96.0384 60.4321L93.9782 55.0757L92.4849 55.65ZM92.7809 55.9461C92.6448 55.8938 92.5372 55.7862 92.4849 55.65L93.9782 55.0757C93.8681 54.7892 93.6417 54.5629 93.3553 54.4528L92.7809 55.9461ZM87.4245 53.8859L92.7809 55.9461L93.3553 54.4528L87.9989 52.3926L87.4245 53.8859ZM87.4245 51.8615C86.4976 52.218 86.4976 53.5294 87.4245 53.8859L87.9989 52.3926C88.4394 52.562 88.4394 53.1854 87.9989 53.3548L87.4245 51.8615ZM92.7809 49.8013L87.4245 51.8614L87.9989 53.3548L93.3553 51.2946L92.7809 49.8013ZM92.4849 50.0974C92.5372 49.9612 92.6448 49.8536 92.7809 49.8013L93.3553 51.2946C93.6417 51.1845 93.8681 50.9581 93.9782 50.6717L92.4849 50.0974ZM94.545 44.7409L92.4849 50.0973L93.9782 50.6717L96.0384 45.3153L94.545 44.7409ZM96.5695 44.7409C96.213 43.814 94.9016 43.814 94.545 44.7409L96.0384 45.3153C95.8689 45.7558 95.2456 45.7559 95.0762 45.3153L96.5695 44.7409ZM98.6297 50.0973L96.5695 44.7409L95.0762 45.3153L97.1364 50.6717L98.6297 50.0973ZM98.3336 49.8013C98.4697 49.8536 98.5773 49.9612 98.6297 50.0974L97.1363 50.6717C97.2465 50.9581 97.4729 51.1845 97.7593 51.2946L98.3336 49.8013ZM103.69 51.8615L98.3336 49.8013L97.7593 51.2946L103.116 53.3548L103.69 51.8615ZM103.69 53.8859C104.617 53.5294 104.617 52.218 103.69 51.8614L103.116 53.3548C102.675 53.1854 102.675 52.562 103.116 52.3926L103.69 53.8859ZM98.3336 55.9461L103.69 53.8859L103.116 52.3926L97.7593 54.4528L98.3336 55.9461ZM98.6297 55.65C98.5773 55.7862 98.4698 55.8938 98.3336 55.9461L97.7593 54.4528C97.4729 54.5629 97.2465 54.7892 97.1363 55.0757L98.6297 55.65ZM48.4523 51.6875C48.4523 51.4746 48.625 51.302 48.8379 51.302V49.702C47.7413 49.702 46.8523 50.5909 46.8523 51.6875H48.4523ZM48.8379 52.0731C48.625 52.0731 48.4523 51.9005 48.4523 51.6875H46.8523C46.8523 52.7841 47.7413 53.6731 48.8379 53.6731V52.0731ZM59.7451 52.0731H48.8379V53.6731H59.7451V52.0731ZM60.1307 51.6875C60.1307 51.9005 59.9581 52.0731 59.7451 52.0731V53.6731C60.8417 53.6731 61.7307 52.7841 61.7307 51.6875H60.1307ZM59.7451 51.302C59.9581 51.302 60.1307 51.4746 60.1307 51.6875H61.7307C61.7307 50.5909 60.8417 49.702 59.7451 49.702V51.302ZM48.8379 51.302H59.7451V49.702H48.8379V51.302ZM41.0181 76.9143C45.1266 76.9143 48.4573 73.5837 48.4573 69.4751H46.8573C46.8573 72.7 44.243 75.3143 41.0181 75.3143V76.9143ZM33.5789 69.4751C33.5789 73.5837 36.9095 76.9143 41.0181 76.9143V75.3143C37.7932 75.3143 35.1789 72.7 35.1789 69.4751H33.5789ZM41.0181 62.0359C36.9095 62.0359 33.5789 65.3666 33.5789 69.4751H35.1789C35.1789 66.2502 37.7932 63.6359 41.0181 63.6359V62.0359ZM48.4573 69.4751C48.4573 65.3666 45.1266 62.0359 41.0181 62.0359V63.6359C44.243 63.6359 46.8573 66.2502 46.8573 69.4751H48.4573ZM91.2896 76.9143C95.3981 76.9143 98.7287 73.5837 98.7287 69.4751H97.1287C97.1287 72.7 94.5145 75.3143 91.2896 75.3143V76.9143ZM83.8504 69.4751C83.8504 73.5837 87.181 76.9143 91.2896 76.9143V75.3143C88.0647 75.3143 85.4504 72.7 85.4504 69.4751H83.8504ZM91.2896 62.0359C87.181 62.0359 83.8504 65.3666 83.8504 69.4751H85.4504C85.4504 66.2502 88.0647 63.6359 91.2896 63.6359V62.0359ZM98.7287 69.4751C98.7287 65.3666 95.3981 62.0359 91.2896 62.0359V63.6359C94.5145 63.6359 97.1287 66.2502 97.1287 69.4751H98.7287ZM72.5547 49.702C71.4581 49.702 70.5691 50.5909 70.5691 51.6875H72.1691C72.1691 51.4746 72.3418 51.302 72.5547 51.302V49.702ZM83.4619 49.702H72.5547V51.302H83.4619V49.702ZM85.4475 51.6875C85.4475 50.5909 84.5585 49.702 83.4619 49.702V51.302C83.6749 51.302 83.8475 51.4746 83.8475 51.6875H85.4475ZM83.4619 53.6731C84.5585 53.6731 85.4475 52.7841 85.4475 51.6875H83.8475C83.8475 51.9005 83.6749 52.0731 83.4619 52.0731V53.6731ZM72.5547 53.6731H83.4619V52.0731H72.5547V53.6731ZM70.5691 51.6875C70.5691 52.7841 71.4581 53.6731 72.5547 53.6731V52.0731C72.3418 52.0731 72.1691 51.9005 72.1691 51.6875H70.5691ZM66.153 84.7968C62.1881 84.7968 58.6721 82.8754 56.485 79.9094L55.1973 80.859C57.673 84.2164 61.6585 86.3968 66.153 86.3968V84.7968ZM75.8211 79.9094C73.6339 82.8754 70.1179 84.7968 66.153 84.7968V86.3968C70.6476 86.3968 74.633 84.2164 77.1088 80.859L75.8211 79.9094ZM79.8379 79.1456C78.4837 78.1783 76.7064 78.7089 75.8211 79.9094L77.1088 80.859C77.5807 80.2192 78.4013 80.0857 78.9079 80.4476L79.8379 79.1456ZM80.5127 82.6182C81.3214 81.4387 80.9172 79.9166 79.8379 79.1456L78.9079 80.4476C79.3639 80.7733 79.4512 81.337 79.193 81.7136L80.5127 82.6182ZM66.153 90.1906C72.1168 90.1906 77.3793 87.1892 80.5127 82.6182L79.193 81.7136C76.3452 85.868 71.567 88.5906 66.153 88.5906V90.1906ZM51.7933 82.6182C54.9267 87.1892 60.1893 90.1906 66.153 90.1906V88.5906C60.7391 88.5906 55.9609 85.868 53.113 81.7136L51.7933 82.6182ZM52.4681 79.1456C51.3888 79.9166 50.9847 81.4386 51.7933 82.6182L53.113 81.7136C52.8548 81.337 52.9421 80.7733 53.3981 80.4476L52.4681 79.1456ZM56.485 79.9094C55.5996 78.7089 53.8224 78.1783 52.4681 79.1456L53.3981 80.4476C53.9047 80.0857 54.7254 80.2192 55.1973 80.859L56.485 79.9094ZM53.5848 55.868C51.7025 55.868 50.1766 57.3939 50.1766 59.2762H51.7766C51.7766 58.2775 52.5861 57.468 53.5848 57.468V55.868ZM56.993 59.2762C56.993 57.3939 55.4671 55.868 53.5848 55.868V57.468C54.5835 57.468 55.393 58.2775 55.393 59.2762H56.993ZM56.993 69.235V59.2762H55.393V69.235H56.993ZM53.5848 72.6432C55.4671 72.6432 56.993 71.1173 56.993 69.235H55.393C55.393 70.2336 54.5835 71.0432 53.5848 71.0432V72.6432ZM50.1766 69.235C50.1766 71.1173 51.7025 72.6432 53.5848 72.6432V71.0432C52.5861 71.0432 51.7766 70.2336 51.7766 69.235H50.1766ZM50.1766 59.2762V69.235H51.7766V59.2762H50.1766ZM76.9074 59.2762C76.9074 58.2775 77.717 57.468 78.7157 57.468V55.868C76.8333 55.868 75.3074 57.3939 75.3074 59.2762H76.9074ZM76.9074 69.235V59.2762H75.3074V69.235H76.9074ZM78.7157 71.0432C77.717 71.0432 76.9074 70.2336 76.9074 69.235H75.3074C75.3074 71.1173 76.8333 72.6432 78.7157 72.6432V71.0432ZM80.5239 69.235C80.5239 70.2336 79.7143 71.0432 78.7157 71.0432V72.6432C80.598 72.6432 82.1239 71.1173 82.1239 69.235H80.5239ZM80.5239 59.2762V69.235H82.1239V59.2762H80.5239ZM78.7157 57.468C79.7143 57.468 80.5239 58.2775 80.5239 59.2762H82.1239C82.1239 57.3939 80.598 55.868 78.7157 55.868V57.468Z" fill="#CAFFFA" mask="url(#path-1-inside-1_195_28744)"/>
</g>
<defs>
<filter id="filter0_ddii_195_28744" x="0.69231" y="0.69231" width="136.615" height="136.615" filterUnits="userSpaceOnUse" color-interpolation-filters="sRGB">
<feFlood flood-opacity="0" result="BackgroundImageFix"/>
<feColorMatrix in="SourceAlpha" type="matrix" values="0 0 0 0 0 0 0 0 0 0 0 0 0 0 0 0 0 0 127 0" result="hardAlpha"/>
<feOffset/>
<feGaussianBlur stdDeviation="11.1538"/>
<feComposite in2="hardAlpha" operator="out"/>
<feColorMatrix type="matrix" values="0 0 0 0 0.792157 0 0 0 0 1 0 0 0 0 0.980392 0 0 0 0.25 0"/>
<feBlend mode="normal" in2="BackgroundImageFix" result="effect1_dropShadow_195_28744"/>
<feColorMatrix in="SourceAlpha" type="matrix" values="0 0 0 0 0 0 0 0 0 0 0 0 0 0 0 0 0 0 127 0" result="hardAlpha"/>
<feOffset/>
<feGaussianBlur stdDeviation="5.57692"/>
<feComposite in2="hardAlpha" operator="out"/>
<feColorMatrix type="matrix" values="0 0 0 0 0.792157 0 0 0 0 1 0 0 0 0 0.980392 0 0 0 0.5 0"/>
<feBlend mode="normal" in2="effect1_dropShadow_195_28744" result="effect2_dropShadow_195_28744"/>
<feBlend mode="normal" in="SourceGraphic" in2="effect2_dropShadow_195_28744" result="shape"/>
<feColorMatrix in="SourceAlpha" type="matrix" values="0 0 0 0 0 0 0 0 0 0 0 0 0 0 0 0 0 0 127 0" result="hardAlpha"/>
<feOffset/>
<feGaussianBlur stdDeviation="11.1538"/>
<feComposite in2="hardAlpha" operator="arithmetic" k2="-1" k3="1"/>
<feColorMatrix type="matrix" values="0 0 0 0 0.929412 0 0 0 0 1 0 0 0 0 0.992157 0 0 0 0.25 0"/>
<feBlend mode="normal" in2="shape" result="effect3_innerShadow_195_28744"/>
<feColorMatrix in="SourceAlpha" type="matrix" values="0 0 0 0 0 0 0 0 0 0 0 0 0 0 0 0 0 0 127 0" result="hardAlpha"/>
<feOffset/>
<feGaussianBlur stdDeviation="5.57692"/>
<feComposite in2="hardAlpha" operator="arithmetic" k2="-1" k3="1"/>
<feColorMatrix type="matrix" values="0 0 0 0 0.929427 0 0 0 0 1 0 0 0 0 0.993342 0 0 0 0.5 0"/>
<feBlend mode="normal" in2="effect3_innerShadow_195_28744" result="effect4_innerShadow_195_28744"/>
</filter>
<radialGradient id="paint0_radial_195_28744" cx="0" cy="0" r="1" gradientUnits="userSpaceOnUse" gradientTransform="translate(125.84 -22.1715) rotate(122.004) scale(155.566 108.183)">
<stop stop-color="#26A69A"/>
<stop offset="1" stop-color="#B2F6FF"/>
</radialGradient>
</defs>
</svg>
