<svg width="154" height="154" viewBox="0 0 154 154" fill="none" xmlns="http://www.w3.org/2000/svg">
<g filter="url(#filter0_ddii_290_28598)">
<path fill-rule="evenodd" clip-rule="evenodd" d="M77 123C102.405 123 123 102.405 123 77C123 51.5949 102.405 31 77 31C51.5949 31 31 51.5949 31 77C31 102.405 51.5949 123 77 123ZM105.883 63.3629L103.823 68.7193C103.729 68.9625 103.385 68.9625 103.292 68.7193L101.232 63.3629C101.203 63.2877 101.143 63.2283 101.068 63.1994L95.7117 61.1393C95.4685 61.0457 95.4685 60.7017 95.7117 60.6081L101.068 58.548C101.143 58.5191 101.203 58.4597 101.232 58.3845L103.292 53.0281C103.385 52.7849 103.729 52.7849 103.823 53.0281L105.883 58.3845C105.912 58.4597 105.971 58.5191 106.046 58.548L111.403 60.6081C111.646 60.7017 111.646 61.0457 111.403 61.1393L106.046 63.1994C105.971 63.2283 105.912 63.2877 105.883 63.3629ZM56.8379 58.502C56.1831 58.502 55.6523 59.0327 55.6523 59.6875C55.6523 60.3423 56.1831 60.8731 56.8379 60.8731H67.7451C68.3999 60.8731 68.9307 60.3423 68.9307 59.6875C68.9307 59.0327 68.3999 58.502 67.7451 58.502H56.8379ZM55.6573 77.4751C55.6573 81.1418 52.6848 84.1143 49.0181 84.1143C45.3514 84.1143 42.3789 81.1418 42.3789 77.4751C42.3789 73.8084 45.3514 70.8359 49.0181 70.8359C52.6848 70.8359 55.6573 73.8084 55.6573 77.4751ZM105.929 77.4751C105.929 81.1418 102.956 84.1143 99.2896 84.1143C95.6228 84.1143 92.6504 81.1418 92.6504 77.4751C92.6504 73.8084 95.6228 70.8359 99.2896 70.8359C102.956 70.8359 105.929 73.8084 105.929 77.4751ZM79.3691 59.6875C79.3691 59.0327 79.8999 58.502 80.5547 58.502H91.4619C92.1167 58.502 92.6475 59.0327 92.6475 59.6875C92.6475 60.3423 92.1167 60.8731 91.4619 60.8731H80.5547C79.8999 60.8731 79.3691 60.3423 79.3691 59.6875ZM63.8411 88.3842C66.1726 91.5459 69.9233 93.5968 74.153 93.5968C78.3827 93.5968 82.1335 91.5459 84.4649 88.3842C85.1435 87.464 86.4425 87.132 87.3729 87.7966C88.1406 88.3449 88.3863 89.3878 87.8529 90.1659C84.8623 94.5286 79.8419 97.3906 74.153 97.3906C68.4642 97.3906 63.4438 94.5286 60.4532 90.1659C59.9198 89.3878 60.1655 88.3449 60.9331 87.7966C61.8635 87.132 63.1625 87.464 63.8411 88.3842ZM58.9766 67.2762C58.9766 65.8357 60.1443 64.668 61.5848 64.668C63.0253 64.668 64.193 65.8357 64.193 67.2762V77.235C64.193 78.6755 63.0253 79.8432 61.5848 79.8432C60.1443 79.8432 58.9766 78.6755 58.9766 77.235V67.2762ZM86.7157 64.668C85.2752 64.668 84.1074 65.8357 84.1074 67.2762V77.235C84.1074 78.6755 85.2752 79.8432 86.7157 79.8432C88.1562 79.8432 89.3239 78.6755 89.3239 77.235V67.2762C89.3239 65.8357 88.1562 64.668 86.7157 64.668Z" fill="white" fill-opacity="0.01" shape-rendering="crispEdges"/>
<path d="M103.823 68.7193L104.756 69.0783V69.0783L103.823 68.7193ZM105.883 63.3629L106.816 63.7218L106.816 63.7218L105.883 63.3629ZM103.292 68.7193L102.358 69.0783V69.0783L103.292 68.7193ZM101.232 63.3629L100.298 63.7218L100.298 63.7218L101.232 63.3629ZM101.068 63.1994L100.709 64.1328L100.709 64.1328L101.068 63.1994ZM95.7117 61.1393L95.3527 62.0726L95.3527 62.0726L95.7117 61.1393ZM95.7117 60.6081L95.3527 59.6748L95.3527 59.6748L95.7117 60.6081ZM101.068 58.548L101.427 59.4813L101.427 59.4813L101.068 58.548ZM101.232 58.3845L100.298 58.0256L100.298 58.0256L101.232 58.3845ZM103.292 53.0281L102.358 52.6691V52.6691L103.292 53.0281ZM103.823 53.0281L104.756 52.6691V52.6691L103.823 53.0281ZM105.883 58.3845L106.816 58.0256L106.816 58.0256L105.883 58.3845ZM106.046 58.548L105.687 59.4813L105.687 59.4813L106.046 58.548ZM111.403 60.6081L111.044 61.5415L111.044 61.5415L111.403 60.6081ZM111.403 61.1393L111.044 60.2059L111.044 60.2059L111.403 61.1393ZM106.046 63.1994L106.405 64.1328L106.405 64.1328L106.046 63.1994ZM63.8411 88.3842L63.0363 88.9777V88.9777L63.8411 88.3842ZM84.4649 88.3842L85.2698 88.9777L84.4649 88.3842ZM87.3729 87.7966L87.9542 86.9829L87.3729 87.7966ZM87.8529 90.1659L87.0281 89.6005L87.8529 90.1659ZM60.4532 90.1659L61.278 89.6005L60.4532 90.1659ZM60.9331 87.7966L60.3519 86.9829L60.9331 87.7966ZM122 77C122 101.853 101.853 122 77 122V124C102.957 124 124 102.957 124 77H122ZM77 32C101.853 32 122 52.1472 122 77H124C124 51.0426 102.957 30 77 30V32ZM32 77C32 52.1472 52.1472 32 77 32V30C51.0426 30 30 51.0426 30 77H32ZM77 122C52.1472 122 32 101.853 32 77H30C30 102.957 51.0426 124 77 124V122ZM104.756 69.0783L106.816 63.7218L104.95 63.0039L102.89 68.3603L104.756 69.0783ZM102.358 69.0783C102.781 70.1762 104.334 70.1762 104.756 69.0783L102.89 68.3603C103.125 67.7488 103.99 67.7488 104.225 68.3603L102.358 69.0783ZM100.298 63.7218L102.358 69.0783L104.225 68.3603L102.165 63.0039L100.298 63.7218ZM100.709 64.1328C100.52 64.0601 100.371 63.9108 100.298 63.7218L102.165 63.0039C102.034 62.6646 101.766 62.3966 101.427 62.2661L100.709 64.1328ZM95.3527 62.0726L100.709 64.1328L101.427 62.2661L96.0707 60.2059L95.3527 62.0726ZM95.3527 59.6748C94.2548 60.097 94.2548 61.6503 95.3527 62.0726L96.0707 60.2059C96.6822 60.4411 96.6822 61.3063 96.0707 61.5415L95.3527 59.6748ZM100.709 57.6146L95.3527 59.6748L96.0707 61.5415L101.427 59.4813L100.709 57.6146ZM100.298 58.0256C100.371 57.8366 100.52 57.6873 100.709 57.6146L101.427 59.4813C101.766 59.3508 102.034 59.0828 102.165 58.7435L100.298 58.0256ZM102.358 52.6691L100.298 58.0256L102.165 58.7435L104.225 53.3871L102.358 52.6691ZM104.756 52.6691C104.334 51.5712 102.781 51.5712 102.358 52.6691L104.225 53.3871C103.99 53.9986 103.125 53.9986 102.89 53.3871L104.756 52.6691ZM106.816 58.0256L104.756 52.6691L102.89 53.3871L104.95 58.7435L106.816 58.0256ZM106.405 57.6146C106.594 57.6873 106.744 57.8366 106.816 58.0256L104.95 58.7435C105.08 59.0828 105.348 59.3508 105.687 59.4813L106.405 57.6146ZM111.762 59.6748L106.405 57.6146L105.687 59.4813L111.044 61.5415L111.762 59.6748ZM111.762 62.0726C112.86 61.6504 112.86 60.097 111.762 59.6748L111.044 61.5415C110.432 61.3063 110.432 60.4411 111.044 60.2059L111.762 62.0726ZM106.405 64.1328L111.762 62.0726L111.044 60.2059L105.687 62.2661L106.405 64.1328ZM106.816 63.7218C106.744 63.9108 106.594 64.0601 106.405 64.1328L105.687 62.2661C105.348 62.3966 105.08 62.6646 104.95 63.0039L106.816 63.7218ZM56.6523 59.6875C56.6523 59.585 56.7354 59.502 56.8379 59.502V57.502C55.6309 57.502 54.6523 58.4805 54.6523 59.6875H56.6523ZM56.8379 59.8731C56.7354 59.8731 56.6523 59.79 56.6523 59.6875H54.6523C54.6523 60.8946 55.6309 61.8731 56.8379 61.8731V59.8731ZM67.7451 59.8731H56.8379V61.8731H67.7451V59.8731ZM67.9307 59.6875C67.9307 59.79 67.8476 59.8731 67.7451 59.8731V61.8731C68.9522 61.8731 69.9307 60.8946 69.9307 59.6875H67.9307ZM67.7451 59.502C67.8476 59.502 67.9307 59.585 67.9307 59.6875H69.9307C69.9307 58.4805 68.9522 57.502 67.7451 57.502V59.502ZM56.8379 59.502H67.7451V57.502H56.8379V59.502ZM49.0181 85.1143C53.2371 85.1143 56.6573 81.6941 56.6573 77.4751H54.6573C54.6573 80.5895 52.1325 83.1143 49.0181 83.1143V85.1143ZM41.3789 77.4751C41.3789 81.6941 44.7991 85.1143 49.0181 85.1143V83.1143C45.9037 83.1143 43.3789 80.5895 43.3789 77.4751H41.3789ZM49.0181 69.8359C44.7991 69.8359 41.3789 73.2561 41.3789 77.4751H43.3789C43.3789 74.3607 45.9037 71.8359 49.0181 71.8359V69.8359ZM56.6573 77.4751C56.6573 73.2561 53.2371 69.8359 49.0181 69.8359V71.8359C52.1325 71.8359 54.6573 74.3607 54.6573 77.4751H56.6573ZM99.2896 85.1143C103.509 85.1143 106.929 81.6941 106.929 77.4751H104.929C104.929 80.5895 102.404 83.1143 99.2896 83.1143V85.1143ZM91.6504 77.4751C91.6504 81.6941 95.0706 85.1143 99.2896 85.1143V83.1143C96.1751 83.1143 93.6504 80.5895 93.6504 77.4751H91.6504ZM99.2896 69.8359C95.0706 69.8359 91.6504 73.2561 91.6504 77.4751H93.6504C93.6504 74.3607 96.1751 71.8359 99.2896 71.8359V69.8359ZM106.929 77.4751C106.929 73.2561 103.509 69.8359 99.2896 69.8359V71.8359C102.404 71.8359 104.929 74.3607 104.929 77.4751H106.929ZM80.5547 57.502C79.3477 57.502 78.3691 58.4805 78.3691 59.6875H80.3691C80.3691 59.585 80.4522 59.502 80.5547 59.502V57.502ZM91.4619 57.502H80.5547V59.502H91.4619V57.502ZM93.6475 59.6875C93.6475 58.4805 92.669 57.502 91.4619 57.502V59.502C91.5644 59.502 91.6475 59.585 91.6475 59.6875H93.6475ZM91.4619 61.8731C92.669 61.8731 93.6475 60.8946 93.6475 59.6875H91.6475C91.6475 59.79 91.5644 59.8731 91.4619 59.8731V61.8731ZM80.5547 61.8731H91.4619V59.8731H80.5547V61.8731ZM78.3691 59.6875C78.3691 60.8946 79.3477 61.8731 80.5547 61.8731V59.8731C80.4522 59.8731 80.3691 59.79 80.3691 59.6875H78.3691ZM74.153 92.5968C70.2543 92.5968 66.797 90.7078 64.646 87.7907L63.0363 88.9777C65.5481 92.384 69.5923 94.5968 74.153 94.5968V92.5968ZM83.6601 87.7907C81.509 90.7078 78.0517 92.5968 74.153 92.5968V94.5968C78.7138 94.5968 82.7579 92.384 85.2698 88.9777L83.6601 87.7907ZM87.9542 86.9829C86.494 85.9399 84.5971 86.5201 83.6601 87.7907L85.2698 88.9777C85.6899 88.4079 86.391 88.3242 86.7917 88.6103L87.9542 86.9829ZM88.6777 90.7313C89.5551 89.4514 89.1114 87.8095 87.9542 86.9829L86.7917 88.6103C87.1698 88.8804 87.2174 89.3243 87.0281 89.6005L88.6777 90.7313ZM74.153 98.3906C80.1855 98.3906 85.5086 95.3544 88.6777 90.7313L87.0281 89.6005C84.2159 93.7028 79.4982 96.3906 74.153 96.3906V98.3906ZM59.6283 90.7313C62.7975 95.3544 68.1205 98.3906 74.153 98.3906V96.3906C68.8078 96.3906 64.0901 93.7029 61.278 89.6005L59.6283 90.7313ZM60.3519 86.9829C59.1946 87.8095 58.7509 89.4514 59.6283 90.7313L61.278 89.6005C61.0886 89.3243 61.1363 88.8804 61.5143 88.6103L60.3519 86.9829ZM64.646 87.7907C63.7089 86.5201 61.8121 85.9399 60.3519 86.9829L61.5143 88.6103C61.915 88.3242 62.6161 88.4079 63.0363 88.9777L64.646 87.7907ZM61.5848 63.668C59.592 63.668 57.9766 65.2834 57.9766 67.2762H59.9766C59.9766 66.388 60.6966 65.668 61.5848 65.668V63.668ZM65.193 67.2762C65.193 65.2834 63.5776 63.668 61.5848 63.668V65.668C62.473 65.668 63.193 66.388 63.193 67.2762H65.193ZM65.193 77.235V67.2762H63.193V77.235H65.193ZM61.5848 80.8432C63.5776 80.8432 65.193 79.2278 65.193 77.235H63.193C63.193 78.1232 62.473 78.8432 61.5848 78.8432V80.8432ZM57.9766 77.235C57.9766 79.2278 59.592 80.8432 61.5848 80.8432V78.8432C60.6966 78.8432 59.9766 78.1232 59.9766 77.235H57.9766ZM57.9766 67.2762V77.235H59.9766V67.2762H57.9766ZM85.1074 67.2762C85.1074 66.388 85.8275 65.668 86.7157 65.668V63.668C84.7229 63.668 83.1074 65.2834 83.1074 67.2762H85.1074ZM85.1074 77.235V67.2762H83.1074V77.235H85.1074ZM86.7157 78.8432C85.8275 78.8432 85.1074 78.1232 85.1074 77.235H83.1074C83.1074 79.2278 84.7229 80.8432 86.7157 80.8432V78.8432ZM88.3239 77.235C88.3239 78.1232 87.6039 78.8432 86.7157 78.8432V80.8432C88.7084 80.8432 90.3239 79.2278 90.3239 77.235H88.3239ZM88.3239 67.2762V77.235H90.3239V67.2762H88.3239ZM86.7157 65.668C87.6039 65.668 88.3239 66.388 88.3239 67.2762H90.3239C90.3239 65.2834 88.7084 63.668 86.7157 63.668V65.668Z" fill="#CAFFFA"/>
</g>
<defs>
<filter id="filter0_ddii_290_28598" x="0" y="0" width="154" height="154" filterUnits="userSpaceOnUse" color-interpolation-filters="sRGB">
<feFlood flood-opacity="0" result="BackgroundImageFix"/>
<feColorMatrix in="SourceAlpha" type="matrix" values="0 0 0 0 0 0 0 0 0 0 0 0 0 0 0 0 0 0 127 0" result="hardAlpha"/>
<feOffset/>
<feGaussianBlur stdDeviation="15"/>
<feComposite in2="hardAlpha" operator="out"/>
<feColorMatrix type="matrix" values="0 0 0 0 0 0 0 0 0 0 0 0 0 0 0 0 0 0 0.25 0"/>
<feBlend mode="normal" in2="BackgroundImageFix" result="effect1_dropShadow_290_28598"/>
<feColorMatrix in="SourceAlpha" type="matrix" values="0 0 0 0 0 0 0 0 0 0 0 0 0 0 0 0 0 0 127 0" result="hardAlpha"/>
<feOffset/>
<feGaussianBlur stdDeviation="7.5"/>
<feComposite in2="hardAlpha" operator="out"/>
<feColorMatrix type="matrix" values="0 0 0 0 0 0 0 0 0 0 0 0 0 0 0 0 0 0 0.5 0"/>
<feBlend mode="normal" in2="effect1_dropShadow_290_28598" result="effect2_dropShadow_290_28598"/>
<feBlend mode="normal" in="SourceGraphic" in2="effect2_dropShadow_290_28598" result="shape"/>
<feColorMatrix in="SourceAlpha" type="matrix" values="0 0 0 0 0 0 0 0 0 0 0 0 0 0 0 0 0 0 127 0" result="hardAlpha"/>
<feOffset/>
<feGaussianBlur stdDeviation="15"/>
<feComposite in2="hardAlpha" operator="arithmetic" k2="-1" k3="1"/>
<feColorMatrix type="matrix" values="0 0 0 0 0 0 0 0 0 0 0 0 0 0 0 0 0 0 0.25 0"/>
<feBlend mode="normal" in2="shape" result="effect3_innerShadow_290_28598"/>
<feColorMatrix in="SourceAlpha" type="matrix" values="0 0 0 0 0 0 0 0 0 0 0 0 0 0 0 0 0 0 127 0" result="hardAlpha"/>
<feOffset/>
<feGaussianBlur stdDeviation="7.5"/>
<feComposite in2="hardAlpha" operator="arithmetic" k2="-1" k3="1"/>
<feColorMatrix type="matrix" values="0 0 0 0 0 0 0 0 0 0 0 0 0 0 0 0 0 0 0.5 0"/>
<feBlend mode="normal" in2="effect3_innerShadow_290_28598" result="effect4_innerShadow_290_28598"/>
</filter>
</defs>
</svg>
