<svg width="1488" height="139" viewBox="0 0 1488 139" fill="none" xmlns="http://www.w3.org/2000/svg">
<g filter="url(#filter0_bd_306_4321)">
<mask id="path-1-inside-1_306_4321" fill="white">
<path fill-rule="evenodd" clip-rule="evenodd" d="M643 0H19V90H643L668 115H810L835 90H1459V0H835H810H668H643Z"/>
</mask>
<path fill-rule="evenodd" clip-rule="evenodd" d="M643 0H19V90H643L668 115H810L835 90H1459V0H835H810H668H643Z" fill="url(#paint0_linear_306_4321)" shape-rendering="crispEdges"/>
<path d="M19 0V-1H18V0H19ZM19 90H18V91H19V90ZM643 90L643.707 89.2929L643.414 89H643V90ZM668 115L667.293 115.707L667.586 116H668V115ZM810 115V116H810.414L810.707 115.707L810 115ZM835 90V89H834.586L834.293 89.2929L835 90ZM1459 90V91H1460V90H1459ZM1459 0H1460V-1H1459V0ZM19 1H643V-1H19V1ZM20 90V0H18V90H20ZM643 89H19V91H643V89ZM642.293 90.7071L667.293 115.707L668.707 114.293L643.707 89.2929L642.293 90.7071ZM668 116H810V114H668V116ZM810.707 115.707L835.707 90.7071L834.293 89.2929L809.293 114.293L810.707 115.707ZM835 91H1459V89H835V91ZM1460 90V0H1458V90H1460ZM1459 -1H835V1H1459V-1ZM835 -1H810V1H835V-1ZM810 -1H668V1H810V-1ZM668 -1H643V1H668V-1Z" fill="url(#paint1_radial_306_4321)" fill-opacity="0.65" mask="url(#path-1-inside-1_306_4321)"/>
<path d="M19 0V-1H18V0H19ZM19 90H18V91H19V90ZM643 90L643.707 89.2929L643.414 89H643V90ZM668 115L667.293 115.707L667.586 116H668V115ZM810 115V116H810.414L810.707 115.707L810 115ZM835 90V89H834.586L834.293 89.2929L835 90ZM1459 90V91H1460V90H1459ZM1459 0H1460V-1H1459V0ZM19 1H643V-1H19V1ZM20 90V0H18V90H20ZM643 89H19V91H643V89ZM642.293 90.7071L667.293 115.707L668.707 114.293L643.707 89.2929L642.293 90.7071ZM668 116H810V114H668V116ZM810.707 115.707L835.707 90.7071L834.293 89.2929L809.293 114.293L810.707 115.707ZM835 91H1459V89H835V91ZM1460 90V0H1458V90H1460ZM1459 -1H835V1H1459V-1ZM835 -1H810V1H835V-1ZM810 -1H668V1H810V-1ZM668 -1H643V1H668V-1Z" fill="url(#paint2_radial_306_4321)" fill-opacity="0.65" mask="url(#path-1-inside-1_306_4321)"/>
</g>
<defs>
<filter id="filter0_bd_306_4321" x="-11" y="-30" width="1500" height="175" filterUnits="userSpaceOnUse" color-interpolation-filters="sRGB">
<feFlood flood-opacity="0" result="BackgroundImageFix"/>
<feGaussianBlur in="BackgroundImage" stdDeviation="15"/>
<feComposite in2="SourceAlpha" operator="in" result="effect1_backgroundBlur_306_4321"/>
<feColorMatrix in="SourceAlpha" type="matrix" values="0 0 0 0 0 0 0 0 0 0 0 0 0 0 0 0 0 0 127 0" result="hardAlpha"/>
<feOffset dx="5"/>
<feGaussianBlur stdDeviation="12"/>
<feComposite in2="hardAlpha" operator="out"/>
<feColorMatrix type="matrix" values="0 0 0 0 0 0 0 0 0 0 0 0 0 0 0 0 0 0 0.75 0"/>
<feBlend mode="normal" in2="effect1_backgroundBlur_306_4321" result="effect2_dropShadow_306_4321"/>
<feBlend mode="normal" in="SourceGraphic" in2="effect2_dropShadow_306_4321" result="shape"/>
</filter>
<linearGradient id="paint0_linear_306_4321" x1="759.755" y1="-1.24541e-07" x2="759.755" y2="137.972" gradientUnits="userSpaceOnUse">
<stop/>
<stop offset="1" stop-opacity="0.1"/>
</linearGradient>
<radialGradient id="paint1_radial_306_4321" cx="0" cy="0" r="1" gradientUnits="userSpaceOnUse" gradientTransform="translate(624.5 161.638) rotate(-49.1187) scale(103.897 60.7605)">
<stop stop-color="#B2F6FF"/>
<stop offset="1" stop-color="#26A69A" stop-opacity="0"/>
</radialGradient>
<radialGradient id="paint2_radial_306_4321" cx="0" cy="0" r="1" gradientUnits="userSpaceOnUse" gradientTransform="translate(847 166.674) rotate(-124.954) scale(170.181 49.5461)">
<stop stop-color="#B2F6FF"/>
<stop offset="1" stop-color="#26A69A" stop-opacity="0"/>
</radialGradient>
</defs>
</svg>
